<?xml version="1.0" encoding="utf-8"?>
<!-- Generator: Adobe Illustrator 22.0.0, SVG Export Plug-In . SVG Version: 6.00 Build 0)  -->
<svg version="1.1" id="Layer_1" xmlns="http://www.w3.org/2000/svg" xmlns:xlink="http://www.w3.org/1999/xlink" x="0px" y="0px"
	 viewBox="0 0 200 200" style="enable-background:new 0 0 200 200;" xml:space="preserve">
<style type="text/css">
	.st0{fill:#FEFEFE;}
	.st1{fill:#426BBC;}
	.st2{fill:#5ABCCD;}
	.st3{fill:#7BBC00;}
</style>
<g>
	<path class="st0" d="M12.8,139.3c0-26.1,0-52.2,0-78.3c0-0.2,0-0.3,0.3-0.3c58,0,116,0,174,0c0.2,0,0.3,0,0.3,0.3c0,26,0,52,0,78
		c0,0.2,0,0.3-0.3,0.3C129,139.3,70.9,139.3,12.8,139.3z M67.6,97.7c0,6.7,0,13.4,0,20.1c0,0.3,0.3,0.6,0.2,0.9c0,0,0,0,0,0
		c0.2,0,0.1,0.2,0.1,0.3c0,0.1,0,0.2,0,0.2c0.3,0.1,0.2,0.3,0.2,0.5c0.1,0.3,0.2,0.5,0.5,0.7c0,0,0,0,0.1,0.1c0.1,0.5,0.5,0.7,0.8,1
		c0.1,0.1,0.2,0,0.3,0.1c0.1,0.2,0.2,0.3,0.4,0.3c0,0,0.1,0,0.1,0.1c0.1,0.2,0.2,0.2,0.4,0.2c0.1,0,0.2,0,0.2,0
		c0.2,0.3,0.5,0.3,0.8,0.3c0,0,0.1,0,0.1,0c0.1,0.2,0.3,0.1,0.4,0.1c1.9,0,3.9,0,5.8,0c0.2,0,0.3,0,0.3,0.3c0,1.8,0,3.7,0,5.5
		c0,0.4,0.2,0.8,0.1,1.2c0,0,0,0.1,0,0.1c0.3,0.1,0,0.5,0.3,0.6c-0.1,0.2,0.3,0.3,0.2,0.6c0,0,0.1,0.1,0.1,0.1
		c0.1,0,0.2,0.1,0.2,0.3c0,0.1,0,0.1,0.1,0.1c0.3,0.2,0.5,0.5,0.7,0.7c0.2,0.2,0.3,0.4,0.5,0.5c0.2,0.1,0.4,0.3,0.7,0.3
		c0.3,0.1,0.6,0.3,0.9,0.3c0,0,0.1,0,0.1,0c0,0.2,0.2,0.1,0.3,0.1c0.2,0,0.4-0.1,0.5,0c0.1,0.2,0.3,0.1,0.4,0.1c8.5,0,17,0,25.5,0
		c0.6,0,1.3,0,1.9,0c0.6,0,1.2,0.2,1.8-0.2c0.2-0.1,0.5,0.1,0.7-0.2c0.1-0.1,0.4,0,0.7-0.2c0.3-0.2,0.7-0.2,0.9-0.5
		c0.1-0.1,0.2-0.3,0.3-0.3c0.2,0,0.3-0.1,0.4-0.3c0,0,0.1,0,0.1-0.1c0.1-0.1,0.4-0.3,0.4-0.4c0.1-0.4,0.5-0.5,0.5-0.8
		c0-0.2,0.3-0.4,0.3-0.6c0-0.2,0.1-0.5,0.1-0.6c0.3-0.3,0.1-0.6,0.1-0.8c0-0.1,0-0.2,0-0.2c0.2,0,0.1-0.2,0.1-0.3c0-1.7,0-3.5,0-5.2
		c0-0.3,0.1-0.3,0.3-0.3c1.9,0,3.9,0,5.8,0c0.1,0,0.2,0,0.3,0c0.1-0.3,0.5,0,0.6-0.3c0.3,0.1,0.5-0.1,0.7-0.2c0.1-0.1,0.3,0,0.4-0.2
		c0.1-0.2,0.3-0.4,0.6-0.4c0,0,0.1-0.1,0.2-0.1c0.3-0.3,0.6-0.6,0.8-1c0-0.1,0.1,0,0.2-0.1c0.1-0.2,0.1-0.4,0.3-0.6
		c0.2-0.2,0.3-0.6,0.3-0.9c0.1-0.4,0.2-0.7,0.2-1.1c0-2.5,0-5,0-7.5c0-0.3-0.2-0.6-0.1-0.9c0,0,0,0,0-0.1c-0.3-0.1-0.1-0.4-0.3-0.6
		c-0.1-0.1-0.2-0.4-0.3-0.5c-0.1-0.1,0-0.2-0.1-0.3c-0.3-0.2-0.4-0.5-0.6-0.8c-0.2-0.2-0.3-0.4-0.5-0.5c-0.3-0.1-0.4-0.4-0.7-0.5
		c-0.3-0.1-0.5-0.4-0.9-0.4c0,0,0,0-0.1,0c-0.2-0.3-0.5-0.2-0.8-0.3c-1.5,0-3.1,0-4.6,0c-1.5,0-3-0.1-4.5,0.1
		c-0.3,0-0.4,0.3-0.7,0.2c0,0,0,0,0,0c-0.1,0.2-0.5,0.1-0.5,0.4c-0.4-0.1-0.5,0.3-0.7,0.4c-0.2,0.1-0.5,0.4-0.7,0.6
		c-0.1,0.2-0.2,0.4-0.4,0.5c-0.1,0.1-0.1,0.3-0.2,0.4c-0.3,0.2-0.3,0.5-0.4,0.8c-0.1,0.3-0.3,0.5-0.2,0.9c0,0,0,0.1,0,0.1
		c-0.2,0-0.1,0.2-0.1,0.3c0,1.9,0,3.7,0,5.6c0,0.2,0,0.3-0.3,0.3c-8.4,0-16.7,0-25.1,0c-0.2,0-0.3-0.1-0.3-0.3c0-11.9,0-23.8,0-35.7
		c0-0.2,0-0.3,0.3-0.3c8.4,0,16.7,0,25.1,0c0.2,0,0.3,0.1,0.3,0.3c0,1.9,0,3.7,0,5.6c0,0.1,0,0.2,0,0.2c0.3,0.1,0.1,0.3,0.2,0.5
		c0,0.1,0,0.2,0,0.2c0.2,0.1,0.1,0.2,0.1,0.4c0,0,0,0.1,0,0.1c0.3,0.2,0.2,0.5,0.4,0.8c0.1,0.2,0.5,0.3,0.4,0.7
		c0.4,0.2,0.5,0.7,1,0.8c0,0,0,0.1,0.1,0.1c0.1,0.1,0.3,0.3,0.4,0.4c0.2,0.1,0.3,0.2,0.5,0.2c0.3,0,0.5,0.2,0.8,0.2
		c0.1,0,0.2,0,0.2,0.1c0,0.1,0.1,0.1,0.2,0.1c2.9,0,5.8,0,8.8,0c0.1,0,0.2,0,0.2,0c0.1-0.3,0.5,0,0.6-0.3c0.4,0,0.8-0.3,1.1-0.5
		c0.1,0,0-0.2,0.2-0.2c0.3,0,0.4-0.2,0.5-0.4c0.2-0.3,0.6-0.4,0.7-0.9c0,0,0,0,0,0c0.1-0.1,0.2-0.2,0.3-0.4c0-0.1,0-0.3,0.1-0.4
		c0.4-0.2,0.3-0.6,0.5-1c0.1-0.3,0.2-0.7,0.2-1c-0.1-2.7,0.1-5.4-0.1-8c0-0.3-0.3-0.6-0.2-0.9c0,0,0-0.1,0-0.1
		c-0.2-0.1-0.3-0.4-0.3-0.5c-0.1-0.4-0.4-0.7-0.6-0.9c-0.3-0.3-0.5-0.8-1-0.9c-0.1-0.3-0.6-0.3-0.8-0.6c-0.2-0.3-0.6-0.2-0.9-0.3
		c-0.3-0.1-0.6-0.2-0.9-0.2c-1.9,0-3.7,0-5.6,0c-0.2,0-0.3-0.1-0.3-0.3c0-1.1,0-2.2,0-3.3c0-0.8,0.2-1.6-0.1-2.4
		c-0.1-0.3,0.1-0.6-0.2-1c-0.2-0.3-0.1-0.7-0.3-1c-0.1-0.1-0.2-0.3-0.2-0.5c-0.1-0.2-0.5-0.3-0.4-0.7c-0.4-0.2-0.5-0.6-0.9-0.7
		c0,0,0-0.1-0.1-0.1c-0.2-0.1-0.3-0.3-0.5-0.4c-0.1,0-0.3-0.1-0.4-0.2c-0.2-0.3-0.7-0.4-1-0.4c-0.3-0.1-0.7-0.2-1.1-0.2
		c-9.5,0-19.1,0-28.6,0c-0.4,0-0.8,0.2-1.3,0.1c0,0-0.1,0-0.1,0c-0.2,0.2-0.5,0.2-0.7,0.3c-0.2,0-0.3,0.1-0.4,0.2
		c0,0.1-0.1,0.1-0.2,0.1c-0.2,0.1-0.6,0.1-0.7,0.4c0,0.1-0.1,0.2-0.2,0.2c-0.5,0.3-0.8,0.8-1.1,1.2c-0.1,0.2-0.2,0.5-0.3,0.6
		c-0.2,0.2-0.2,0.5-0.3,0.7c-0.1,0.2-0.2,0.6-0.2,0.9c0,2,0,3.9,0,5.9c0,0.3,0,0.3-0.3,0.3c-2,0-3.9,0-5.9,0c-0.3,0-0.6,0.2-0.9,0.1
		c0,0,0,0-0.1,0c-0.1,0.3-0.5,0.1-0.6,0.3c0,0-0.2,0.1-0.3,0.2c-0.1,0.1-0.1,0.2-0.3,0.2c-0.2,0-0.4,0.3-0.6,0.4
		c-0.2,0.1-0.3,0.3-0.4,0.4c-0.1,0.1-0.4,0.3-0.4,0.4c0,0.4-0.5,0.4-0.4,0.7c-0.3,0.2-0.3,0.5-0.4,0.8c-0.1,0.3-0.3,0.6-0.2,0.9
		c0,0,0,0.1,0,0.1c-0.2,0.1-0.1,0.3-0.1,0.4C67.6,84.3,67.6,91,67.6,97.7z M166,133.4c4.6,0,9.2,0,13.8,0c0.6,0,1.3,0.2,1.8-0.2
		c0.3,0.1,0.5-0.3,0.8-0.2c0,0,0,0,0.1-0.1c0.3-0.1,0.6-0.4,0.9-0.6c0.1-0.1,0.3-0.1,0.4-0.2c0.3-0.4,0.7-0.7,1-1.2
		c0.1-0.1,0.1-0.2,0.2-0.3c0.1-0.1,0-0.3,0.1-0.4c0.4-0.2,0.3-0.6,0.5-1c0.1-0.3,0.1-0.7,0.1-1c0-2.5,0-4.9,0-7.4
		c0-0.3-0.2-0.6-0.1-1c0,0,0,0,0-0.1c-0.3-0.2-0.1-0.5-0.3-0.7c0,0-0.2-0.1-0.2-0.2c0-0.5-0.4-0.7-0.6-1.1c-0.1-0.2-0.2-0.2-0.3-0.3
		c-0.2-0.2-0.4-0.5-0.7-0.6c-0.2-0.1-0.4-0.2-0.6-0.3c-0.3-0.2-0.6-0.4-1-0.4c-0.1,0-0.2,0-0.3,0c-0.2-0.3-0.5-0.1-0.8-0.2
		c-0.1,0-0.2,0-0.2,0c-0.1-0.2-0.2-0.1-0.4-0.1c-8.9,0-17.9,0-26.8,0c-0.3,0-0.4,0-0.4-0.3c0-4.7,0-9.5,0-14.2
		c0-0.3,0.1-0.3,0.4-0.3c5.5,0,11.1,0,16.6,0c0.3,0,0.6-0.2,0.9-0.2c0.1,0,0.3,0,0.4-0.1c0.2-0.2,0.4-0.2,0.6-0.3
		c0.2-0.2,0.4-0.2,0.6-0.4c0.2-0.2,0.5-0.4,0.7-0.6c0.2-0.2,0.4-0.4,0.5-0.6c0.1-0.2,0.2-0.4,0.3-0.6c0.2-0.4,0.5-0.7,0.5-1.2
		c0,0,0-0.1,0-0.1c0.2,0,0.1-0.2,0.1-0.3c0-2.7,0-5.5,0-8.2c0-0.4-0.3-0.7-0.2-1.1c0,0,0,0,0,0c-0.3-0.1-0.1-0.4-0.3-0.6
		c-0.2-0.2-0.4-0.5-0.5-0.8c0-0.1-0.2,0-0.2-0.1c0-0.3-0.3-0.4-0.4-0.6c-0.2-0.3-0.6-0.3-0.8-0.6c-0.1-0.2-0.4-0.2-0.6-0.4
		c-0.1-0.1-0.3-0.1-0.4-0.1c-0.3-0.2-0.6-0.3-1-0.3c-0.2,0-0.4,0.1-0.5,0c-0.2-0.2-0.3-0.1-0.5-0.1c-5.3,0-10.7,0-16,0
		c-0.3,0-0.3-0.1-0.3-0.4c0-1.9,0-3.8,0-5.7c0-1,0-1.9,0-2.9c0-0.9,0-1.9,0-2.8c0-1,0-1.9,0-2.9c0-0.9,0.2-1.9-0.1-2.8
		c-0.1-0.2-0.2-0.5-0.3-0.7c0-0.1,0-0.2-0.1-0.3c-0.3-0.3-0.3-0.7-0.6-0.9c-0.2-0.1-0.1-0.3-0.2-0.4c-0.4-0.3-0.7-0.6-1.1-0.8
		c-0.2-0.1-0.5-0.2-0.6-0.3c-0.3-0.3-0.7-0.3-1-0.4c-0.3-0.1-0.7-0.1-1-0.2c-2.4,0-4.8,0-7.2,0c-0.4,0-0.8,0.2-1.2,0.1
		c0,0-0.1,0-0.1,0c-0.1,0.3-0.5,0-0.7,0.3c0,0-0.1,0.2-0.3,0.2c-0.2,0-0.3,0.2-0.6,0.2c0,0-0.2,0.1-0.4,0.2
		c-0.2,0.2-0.3,0.4-0.5,0.5c-0.4,0.3-0.7,0.6-0.9,1.1c-0.1,0.3-0.4,0.6-0.4,0.9c0,0.3-0.3,0.6-0.2,0.9c0,0.1,0,0.3,0,0.3
		c-0.2,0.1-0.1,0.3-0.1,0.4c0,5.9,0,11.7,0,17.6c0,0.3-0.1,0.6,0.1,0.9c0.1,0.2,0,0.6,0.2,0.9c0.1,0.2,0.1,0.5,0.2,0.7
		c0.1,0.2,0,0.4,0.3,0.5c0.1,0,0.2,0.1,0.2,0.3c0,0.1,0.1,0.2,0.1,0.3c0.1,0.2,0.5,0.3,0.5,0.6c0,0,0,0,0.1,0c0.1,0,0.2,0.1,0.2,0.1
		c0.3,0.1,0.4,0.4,0.7,0.5c0.1,0,0.3,0.1,0.4,0.2c0.2,0.2,0.4,0.2,0.6,0.3c0.3,0.1,0.5,0.2,0.8,0.2c0,0,0,0,0,0
		c0,0.2,0.2,0.1,0.3,0.1c1.9,0,3.9,0,5.8,0c0.2,0,0.3,0,0.3,0.3c0,1.1,0,2.3,0,3.4c0,0.2,0,0.3-0.3,0.3c-1.7,0-3.3,0-5,0
		c-0.1,0-0.2-0.1-0.3,0.1c-0.1,0.2-0.2,0.1-0.3,0.1c-0.3,0.1-0.7-0.1-1,0.1c-0.2,0.2-0.6,0.3-0.9,0.3c-0.4,0.1-0.7,0.4-1,0.5
		c-0.3,0.2-0.6,0.6-0.9,0.8c-0.2,0.2-0.2,0.4-0.3,0.5c-0.2,0.1-0.2,0.3-0.3,0.4c-0.1,0.2-0.3,0.4-0.3,0.6c0,0.3-0.3,0.6-0.2,0.9
		c0,0.1,0,0.2,0,0.3c-0.2,0.1-0.1,0.2-0.1,0.4c0,1.4,0,2.8,0,4.2c0,4.6,0,9.2,0,13.8c0,0.1,0,0.3,0,0.3c0.2,0.1,0.2,0.3,0.1,0.4
		c-0.1,0.4,0.1,0.7,0.2,1c0.1,0.4,0.3,0.8,0.6,1.2c0.2,0.3,0.4,0.6,0.6,0.8c0.1,0.1,0.2,0.3,0.4,0.3c0.3,0,0.4,0.3,0.7,0.4
		c0.2,0.1,0.3,0.2,0.5,0.2c0,0,0.1,0,0.1,0c0.2,0.2,0.5,0.3,0.8,0.3c0.1,0,0.2,0,0.2,0c0.1,0.2,0.3,0.1,0.4,0.1c2,0,3.9,0,5.9,0
		c0.3,0,0.3,0.1,0.3,0.3c0,1.9,0,3.9,0,5.8c0,0.1-0.1,0.2,0.1,0.3c0.2,0.1,0.1,0.2,0.1,0.3c-0.1,0.3,0.2,0.5,0.2,0.9
		c0,0.1,0,0.2,0.1,0.3c0.1,0.3,0.5,0.5,0.5,0.8c0.5,0.3,0.7,1,1.4,1.1c0.2,0.3,0.5,0.4,0.8,0.6c0.2,0.1,0.3,0,0.4,0.1
		c0.3,0.2,0.6,0.3,1,0.3C156,133.4,161,133.4,166,133.4z M44.6,61.8c-2.5,0-5.1,0-7.6,0c-2.5,0-5-0.1-7.6,0.1
		c-0.3,0-0.6,0.3-0.9,0.2c0,0.2-0.3,0.1-0.4,0.2c-0.1,0.2-0.4,0.1-0.5,0.3c-0.1,0.1-0.3,0.1-0.5,0.3c-0.1,0.1-0.3,0.3-0.4,0.4
		c-0.5,0.4-0.9,0.8-1.1,1.4c0,0.1,0,0.3-0.1,0.3c-0.2,0.1-0.2,0.3-0.3,0.5c-0.1,0.3-0.2,0.6-0.2,0.9c0,0,0,0.1,0,0.1
		c-0.2,0-0.1,0.2-0.1,0.3c0,1.9,0,3.7,0,5.6c0,0.2-0.1,0.3-0.3,0.3c-1.6,0-3.2,0-4.7,0c-0.4,0-0.7-0.1-1.1,0.1
		c-0.2,0.1-0.6,0.1-0.9,0.1c-0.3,0-0.4,0.3-0.7,0.2c0,0.3-0.3,0.1-0.4,0.2c-0.1,0.1-0.2,0.2-0.4,0.3c-0.2,0.1-0.4,0.2-0.5,0.4
		c-0.2,0.2-0.5,0.4-0.7,0.7c0,0.1-0.2,0.3-0.3,0.4c-0.2,0.2-0.5,0.5-0.5,0.8c0,0.3-0.3,0.5-0.2,0.8c0,0,0,0,0,0
		c-0.2,0-0.1,0.2-0.1,0.3c0,0.2,0,0.5-0.1,0.7c-0.1,0.1,0,0.2,0,0.2c0,5.9,0,11.8,0,17.7c0,0.1,0,0.2,0,0.2c0.3,0.1,0.2,0.3,0.1,0.5
		c-0.1,0.4,0.3,0.6,0.2,1c0,0,0,0,0,0c0.1,0.1,0.4,0.7,0.4,0.8c0,0,0,0.1,0,0.1c0.3,0.1,0.4,0.4,0.5,0.6c0.2,0.4,0.7,0.6,0.9,0.9
		c0,0.1,1.1,0.6,1.1,0.6c0.3,0.2,0.7,0.3,1.1,0.3c0,0,0.1,0,0.1,0.1c0.1,0.1,0.2,0.1,0.4,0.1c1.9,0,3.8,0,5.8,0
		c0.2,0,0.3,0.1,0.3,0.3c0,1.2,0,2.4,0,3.6c0,0.3,0,0.3-0.3,0.3c-2,0-3.9,0-5.9,0c-0.3,0-0.6,0.2-0.9,0.1c0,0,0,0-0.1,0
		c-0.1,0.3-0.4,0.1-0.5,0.3c0,0-0.2,0.2-0.4,0.2c-0.2,0-0.4,0.1-0.5,0.3c-0.1,0.1-0.1,0.3-0.2,0.3c-0.3,0.1-0.5,0.4-0.7,0.7
		c-0.2,0.2-0.4,0.5-0.6,0.7c-0.1,0.2-0.1,0.4-0.3,0.7c-0.2,0.2-0.3,0.6-0.3,0.8c-0.1,0.4-0.2,0.7-0.2,1.1c0,5.9,0,11.8,0,17.8
		c0,0.1,0,0.2,0,0.2c0.2,0.1,0.2,0.3,0.1,0.4c-0.1,0.4,0.2,0.7,0.2,1c0,0,0,0,0.1,0.1c0.2,0.1,0.2,0.3,0.3,0.4
		c0.1,0.2,0.2,0.4,0.3,0.6c0.1,0.3,0.3,0.5,0.5,0.6c0.2,0.2,0.5,0.4,0.6,0.6c0.3,0.4,0.7,0.5,1,0.7c0.3,0.2,0.7,0.4,1.1,0.3
		c0,0,0.1,0,0.1,0c0,0.2,0.1,0.1,0.2,0.1c2.8,0,5.7,0,8.5,0c0.1,0,0.2,0,0.2,0c0.2-0.3,0.5-0.1,0.8-0.3c0.2-0.1,0.5-0.1,0.7-0.3
		c0.3-0.2,0.5-0.5,0.9-0.5c0,0,0-0.1,0.1-0.1c0.3-0.2,0.4-0.5,0.7-0.7c0.2-0.2,0.3-0.5,0.5-0.7c0.1-0.2,0.4-0.4,0.3-0.7
		c0.3,0,0.1-0.4,0.3-0.5c-0.1-0.3,0.1-0.6,0.1-0.9c0-5.5,0-11.1,0-16.6c0-0.2,0.1-0.3,0.3-0.3c2.9,0,5.8,0,8.6,0
		c2.9,0,5.7,0.1,8.6-0.1c0.3,0,0.5-0.3,0.8-0.2c0,0,0,0,0,0c0.1-0.2,0.3-0.2,0.5-0.3c0.2-0.1,0.4-0.3,0.6-0.4
		c0.3-0.2,0.5-0.5,0.7-0.7c0.4-0.3,0.7-0.8,0.9-1.3c0.2-0.3,0.4-0.7,0.3-1.1c0,0,0-0.1,0-0.1c0.2,0,0.1-0.2,0.1-0.3
		c0-0.4-0.1-0.7,0.2-1.1c0,0,0-0.1,0-0.2c0-2,0-4.1,0-6.1c0-0.1,0-0.2,0-0.2c-0.3-0.1-0.2-0.3-0.1-0.5c0.1-0.5-0.2-0.9-0.2-1.3
		c0,0,0-0.1,0-0.1c-0.2,0-0.2-0.3-0.2-0.4c0-0.4-0.3-0.5-0.4-0.9c-0.1-0.2-0.4-0.4-0.6-0.6c-0.2-0.2-0.5-0.4-0.7-0.6
		c-0.2-0.2-0.4-0.3-0.7-0.4c-0.3-0.1-0.6-0.2-0.7-0.3c-0.2-0.2-0.5,0-0.6-0.3c-0.1-0.1-0.4,0-0.6,0c-0.1,0-0.2,0-0.2,0
		c-0.1-0.2-0.2-0.1-0.3-0.1c-5.3,0-10.7,0-16,0c-0.3,0-0.3-0.1-0.3-0.3c0-4.7,0-9.4,0-14.1c0-0.3,0.1-0.3,0.3-0.3
		c5.8,0,11.6,0,17.4,0c3.4,0,6.8,0,10.2,0c0.1,0,0.3,0,0.3,0c0.1-0.2,0.3-0.1,0.4-0.1c0.3,0,0.4-0.3,0.7-0.2
		c0.1-0.3,0.3-0.2,0.5-0.2c0.3-0.1,0.5-0.3,0.7-0.5c0.3-0.2,0.4-0.5,0.7-0.7c0.3-0.3,0.5-0.6,0.8-1c0.2-0.3,0.3-0.5,0.4-0.8
		c0-0.3,0.3-0.6,0.2-0.9c0-0.1,0-0.2,0.1-0.2c0.1-0.1,0.1-0.3,0.1-0.5c0-1.9,0-3.9,0-5.8c0-0.6,0.2-1.2-0.1-1.8
		c-0.1-0.2,0-0.5-0.2-0.8c-0.1-0.2-0.1-0.5-0.3-0.8c-0.1-0.2-0.2-0.5-0.4-0.7c-0.1-0.1-0.2-0.1-0.2-0.3c-0.1,0-0.1-0.2-0.2-0.2
		c-0.2-0.2-0.5-0.4-0.7-0.6c-0.2-0.2-0.5-0.3-0.7-0.4c-0.1-0.1-0.1-0.2-0.3-0.2c-0.2,0.1-0.3-0.3-0.5-0.2c-0.1-0.3-0.5,0-0.7-0.3
		c-0.4,0.1-0.8-0.1-1.2-0.1C54.1,61.8,49.4,61.8,44.6,61.8z"/>
	<path class="st1" d="M67.6,97.7c0-6.7,0-13.3,0-20c0-0.1-0.1-0.3,0.1-0.4c0,0,0-0.1,0-0.1c-0.1-0.3,0.1-0.7,0.2-0.9
		c0.1-0.3,0.1-0.6,0.4-0.8c-0.1-0.4,0.4-0.4,0.4-0.7c0-0.1,0.2-0.3,0.4-0.4c0.2-0.1,0.3-0.3,0.4-0.4c0.2-0.1,0.3-0.3,0.6-0.4
		c0.1,0,0.2-0.1,0.3-0.2c0.1-0.1,0.2-0.2,0.3-0.2c0.2-0.2,0.5,0,0.6-0.3c0,0,0,0,0.1,0c0.3,0.1,0.6-0.1,0.9-0.1c2,0,3.9,0,5.9,0
		c0.3,0,0.3-0.1,0.3-0.3c0-2,0-3.9,0-5.9c0-0.3,0.1-0.6,0.2-0.9c0.1-0.2,0.1-0.5,0.3-0.7c0.1-0.1,0.2-0.4,0.3-0.6
		c0.3-0.5,0.6-0.9,1.1-1.2c0.1,0,0.2-0.1,0.2-0.2c0.1-0.3,0.4-0.3,0.7-0.4c0.1,0,0.1,0,0.2-0.1c0.1-0.2,0.2-0.2,0.4-0.2
		c0.2-0.1,0.5-0.1,0.7-0.3c0,0,0.1,0,0.1,0c0.4,0.1,0.8-0.1,1.3-0.1c9.5,0,19.1,0,28.6,0c0.4,0,0.8,0.1,1.1,0.2
		c0.3,0.1,0.7,0.1,1,0.4c0.1,0.1,0.3,0.2,0.4,0.2c0.3,0.1,0.4,0.3,0.5,0.4c0,0,0,0.1,0.1,0.1c0.5,0,0.6,0.5,0.9,0.7
		c0,0.3,0.3,0.4,0.4,0.7c0.1,0.1,0.1,0.3,0.2,0.5c0.2,0.3,0.1,0.7,0.3,1c0.2,0.3,0,0.7,0.2,1c0.3,0.8,0.1,1.6,0.1,2.4
		c0.1,1.1,0,2.2,0,3.3c0,0.2,0,0.3,0.3,0.3c1.9,0,3.7,0,5.6,0c0.3,0,0.7,0.1,0.9,0.2c0.3,0.1,0.7,0.1,0.9,0.3
		c0.2,0.3,0.6,0.2,0.8,0.6c0.5,0.1,0.8,0.5,1,0.9c0.2,0.3,0.5,0.5,0.6,0.9c0,0.1,0.1,0.4,0.3,0.5c0,0,0,0,0,0.1
		c-0.1,0.3,0.2,0.6,0.2,0.9c0.2,2.7,0,5.4,0.1,8c0,0.4-0.1,0.7-0.2,1c-0.1,0.3-0.1,0.7-0.5,1c-0.1,0.1-0.1,0.3-0.1,0.4
		c-0.1,0.2-0.2,0.3-0.3,0.4c0,0,0,0,0,0c0,0.4-0.4,0.6-0.7,0.9c-0.1,0.2-0.3,0.4-0.5,0.4c-0.1,0-0.1,0.1-0.2,0.2
		c-0.4,0.2-0.7,0.5-1.1,0.5c-0.1,0.3-0.5,0-0.6,0.3c0,0.1-0.1,0-0.2,0c-2.9,0-5.8,0-8.8,0c-0.1,0-0.2,0-0.2-0.1
		c0-0.1-0.1-0.1-0.2-0.1c-0.3,0-0.5-0.2-0.8-0.2c-0.2,0-0.4-0.2-0.5-0.2c-0.2-0.1-0.3-0.3-0.4-0.4c0,0,0-0.1-0.1-0.1
		c-0.5,0-0.6-0.6-1-0.8c0.1-0.3-0.3-0.5-0.4-0.7c-0.2-0.3-0.1-0.6-0.4-0.8c0,0,0-0.1,0-0.1c0-0.1,0.1-0.3-0.1-0.4c0,0,0-0.1,0-0.2
		c0-0.2,0.1-0.4-0.2-0.5c0,0,0-0.2,0-0.2c0-1.9,0-3.7,0-5.6c0-0.2,0-0.3-0.3-0.3c-8.4,0-16.7,0-25.1,0c-0.2,0-0.3,0.1-0.3,0.3
		c0,11.9,0,23.8,0,35.7c0,0.2,0.1,0.3,0.3,0.3c8.4,0,16.7,0,25.1,0c0.3,0,0.3-0.1,0.3-0.3c0-1.9,0-3.7,0-5.6c0-0.1-0.1-0.3,0.1-0.3
		c0,0,0-0.1,0-0.1c-0.1-0.3,0.1-0.6,0.2-0.9c0.1-0.3,0.1-0.6,0.4-0.8c0.1-0.1,0.1-0.3,0.2-0.4c0.1-0.1,0.2-0.3,0.4-0.5
		c0.2-0.3,0.4-0.5,0.7-0.6c0.2-0.1,0.4-0.5,0.7-0.4c0.1-0.3,0.4-0.2,0.5-0.4c0,0,0,0,0,0c0.3,0.1,0.5-0.2,0.7-0.2
		c1.5-0.2,3-0.1,4.5-0.1c1.5,0,3.1,0,4.6,0c0.2,0,0.6,0,0.8,0.3c0,0,0,0,0.1,0c0.4,0,0.6,0.3,0.9,0.4c0.3,0.1,0.5,0.4,0.7,0.5
		c0.2,0.1,0.3,0.3,0.5,0.5c0.3,0.2,0.3,0.6,0.6,0.8c0.1,0.1,0,0.2,0.1,0.3c0.1,0.2,0.2,0.5,0.3,0.5c0.2,0.2,0,0.5,0.3,0.6
		c0,0,0,0,0,0.1c-0.1,0.3,0.1,0.6,0.1,0.9c0,2.5,0,5,0,7.5c0,0.4-0.1,0.7-0.2,1.1c0,0.3-0.2,0.6-0.3,0.9c-0.1,0.2-0.2,0.4-0.3,0.6
		c0,0.1-0.1,0.1-0.2,0.1c-0.2,0.4-0.5,0.7-0.8,1c-0.1,0.1-0.2,0.1-0.2,0.1c-0.3,0-0.5,0.3-0.6,0.4c-0.1,0.2-0.3,0.1-0.4,0.2
		c-0.2,0.1-0.4,0.3-0.7,0.2c-0.1,0.3-0.5,0-0.6,0.3c0,0.1-0.2,0-0.3,0c-1.9,0-3.9,0-5.8,0c-0.3,0-0.3,0.1-0.3,0.3c0,1.7,0,3.5,0,5.2
		c0,0.1,0.1,0.3-0.1,0.3c-0.1,0,0,0.1,0,0.2c-0.1,0.3,0.1,0.6-0.1,0.8c-0.1,0.1-0.1,0.4-0.1,0.6c0,0.3-0.2,0.4-0.3,0.6
		c-0.1,0.4-0.5,0.5-0.5,0.8c0,0.2-0.3,0.3-0.4,0.4c0,0-0.1,0-0.1,0.1c-0.1,0.2-0.2,0.3-0.4,0.3c-0.1,0-0.2,0.2-0.3,0.3
		c-0.3,0.3-0.6,0.3-0.9,0.5c-0.2,0.1-0.5,0-0.7,0.2c-0.3,0.2-0.5,0-0.7,0.2c-0.6,0.3-1.2,0.1-1.8,0.2c-0.6,0-1.3,0-1.9,0
		c-8.5,0-17,0-25.5,0c-0.1,0-0.3,0.1-0.4-0.1c-0.1-0.1-0.3,0-0.5,0c-0.1,0-0.3,0.1-0.3-0.1c0,0-0.1,0-0.1,0c-0.3,0-0.6-0.2-0.9-0.3
		c-0.2-0.1-0.5-0.2-0.7-0.3c-0.2-0.1-0.4-0.3-0.5-0.5c-0.2-0.3-0.5-0.5-0.7-0.7c-0.1,0-0.1-0.1-0.1-0.1c0-0.1,0-0.2-0.2-0.3
		c0,0-0.1-0.1-0.1-0.1c0.1-0.2-0.3-0.3-0.2-0.6c-0.3-0.1,0-0.5-0.3-0.6c0,0,0-0.1,0-0.1c0-0.4-0.1-0.8-0.1-1.2c0-1.8,0-3.7,0-5.5
		c0-0.2-0.1-0.3-0.3-0.3c-1.9,0-3.9,0-5.8,0c-0.1,0-0.3,0.1-0.4-0.1c0,0-0.1,0-0.1,0c-0.3,0-0.6-0.1-0.8-0.3c0,0-0.1,0-0.2,0
		c-0.2,0-0.4,0-0.4-0.2c0,0,0-0.1-0.1-0.1c-0.2,0-0.3-0.1-0.4-0.3c-0.1-0.1-0.2,0-0.3-0.1c-0.3-0.3-0.7-0.5-0.8-1c0,0,0,0-0.1-0.1
		c-0.2-0.2-0.4-0.4-0.5-0.7c-0.1-0.1,0-0.4-0.2-0.5c0,0,0-0.1,0-0.2c0-0.1,0.1-0.3-0.1-0.3c0,0,0,0,0,0c0.1-0.3-0.2-0.6-0.2-0.9
		C67.6,111.1,67.6,104.4,67.6,97.7z"/>
	<path class="st2" d="M166,133.4c-5,0-10,0-15,0c-0.4,0-0.7-0.1-1-0.3c-0.1-0.1-0.3,0-0.4-0.1c-0.3-0.1-0.6-0.3-0.8-0.6
		c-0.7-0.1-0.8-0.9-1.4-1.1c0-0.4-0.4-0.5-0.5-0.8c0-0.1-0.1-0.2-0.1-0.3c0-0.3-0.3-0.5-0.2-0.9c0-0.1,0-0.2-0.1-0.3
		c-0.1,0-0.1-0.2-0.1-0.3c0-1.9,0-3.9,0-5.8c0-0.3-0.1-0.3-0.3-0.3c-2,0-3.9,0-5.9,0c-0.1,0-0.3,0.1-0.4-0.1c0,0-0.1,0-0.2,0
		c-0.3,0-0.6-0.1-0.8-0.3c0,0-0.1,0-0.1,0c-0.2,0-0.3-0.2-0.5-0.2c-0.3-0.1-0.4-0.4-0.7-0.4c-0.2,0-0.2-0.2-0.4-0.3
		c-0.3-0.2-0.4-0.5-0.6-0.8c-0.3-0.3-0.5-0.8-0.6-1.2c-0.1-0.3-0.3-0.6-0.2-1c0-0.1,0.1-0.3-0.1-0.4c0,0,0-0.2,0-0.3
		c0-4.6,0-9.2,0-13.8c0-1.4,0-2.8,0-4.2c0-0.1-0.1-0.3,0.1-0.4c0.1,0,0-0.2,0-0.3c-0.1-0.4,0.2-0.6,0.2-0.9c0-0.2,0.2-0.4,0.3-0.6
		c0.1-0.1,0.1-0.3,0.3-0.4c0.2-0.1,0.2-0.4,0.3-0.5c0.3-0.3,0.5-0.7,0.9-0.8c0.3-0.2,0.6-0.5,1-0.5c0.3,0,0.7-0.2,0.9-0.3
		c0.4-0.2,0.7-0.1,1-0.1c0.1,0,0.2,0,0.3-0.1c0-0.1,0.2-0.1,0.3-0.1c1.7,0,3.3,0,5,0c0.3,0,0.3-0.1,0.3-0.3c0-1.1,0-2.3,0-3.4
		c0-0.3-0.1-0.3-0.3-0.3c-1.9,0-3.9,0-5.8,0c-0.1,0-0.3,0.1-0.3-0.1c0,0,0,0,0,0c-0.3,0-0.5-0.1-0.8-0.2c-0.2-0.1-0.4-0.1-0.6-0.3
		c-0.1-0.1-0.3-0.1-0.4-0.2c-0.3-0.1-0.4-0.4-0.7-0.5c-0.1,0-0.1-0.1-0.2-0.1c0,0-0.1,0-0.1,0c0-0.4-0.4-0.4-0.5-0.6
		c-0.1-0.1-0.2-0.1-0.1-0.3c0-0.2-0.1-0.2-0.2-0.3c-0.3-0.1-0.2-0.4-0.3-0.5c-0.1-0.2-0.1-0.5-0.2-0.7c-0.1-0.3,0-0.7-0.2-0.9
		c-0.2-0.3-0.1-0.6-0.1-0.9c0-5.9,0-11.7,0-17.6c0-0.1-0.1-0.3,0.1-0.4c0,0,0-0.2,0-0.3c-0.1-0.4,0.2-0.6,0.2-0.9
		c0-0.3,0.3-0.6,0.4-0.9c0.2-0.4,0.5-0.8,0.9-1.1c0.2-0.2,0.4-0.3,0.5-0.5c0.1-0.1,0.3-0.2,0.4-0.2c0.2,0,0.3-0.3,0.6-0.2
		c0.1,0,0.2-0.2,0.3-0.2c0.2-0.3,0.6,0,0.7-0.3c0,0,0,0,0.1,0c0.4,0.1,0.8-0.1,1.2-0.1c2.4,0,4.8,0,7.2,0c0.4,0,0.7,0,1,0.2
		c0.3,0.1,0.7,0.1,1,0.4c0.1,0.1,0.4,0.2,0.6,0.3c0.4,0.3,0.7,0.5,1.1,0.8c0.1,0.1,0,0.3,0.2,0.4c0.3,0.2,0.4,0.7,0.6,0.9
		c0.1,0.1,0,0.2,0.1,0.3c0.1,0.3,0.2,0.5,0.3,0.7c0.3,0.9,0.1,1.9,0.1,2.8c0,1,0,1.9,0,2.9c0,0.9,0,1.9,0,2.8c0,1,0,1.9,0,2.9
		c0,1.9,0,3.8,0,5.7c0,0.3,0.1,0.4,0.3,0.4c5.3,0,10.7,0,16,0c0.2,0,0.4-0.1,0.5,0.1c0.1,0.1,0.3,0,0.5,0c0.4,0,0.7,0.1,1,0.3
		c0.1,0.1,0.3,0,0.4,0.1c0.2,0.1,0.5,0.2,0.6,0.4c0.2,0.3,0.6,0.3,0.8,0.6c0.1,0.2,0.4,0.3,0.4,0.6c0,0.1,0.1,0.1,0.2,0.1
		c0.1,0.3,0.3,0.6,0.5,0.8c0.2,0.2,0,0.5,0.3,0.6c0,0,0,0,0,0c-0.1,0.4,0.2,0.7,0.2,1.1c0,2.7,0,5.5,0,8.2c0,0.1,0.1,0.3-0.1,0.3
		c0,0,0,0.1,0,0.1c0,0.5-0.3,0.8-0.5,1.2c-0.1,0.2-0.2,0.4-0.3,0.6c-0.1,0.3-0.3,0.4-0.5,0.6c-0.2,0.2-0.4,0.4-0.7,0.6
		c-0.2,0.1-0.4,0.2-0.6,0.4c-0.1,0.2-0.4,0.2-0.6,0.3c-0.1,0.1-0.3,0.1-0.4,0.1c-0.3,0-0.6,0.2-0.9,0.2c-5.5,0-11.1,0-16.6,0
		c-0.3,0-0.4,0-0.4,0.3c0,4.7,0,9.5,0,14.2c0,0.3,0.1,0.3,0.4,0.3c8.9,0,17.9,0,26.8,0c0.1,0,0.3-0.1,0.4,0.1c0,0,0.1,0,0.2,0
		c0.3,0.1,0.6-0.1,0.8,0.2c0,0,0.2,0,0.3,0c0.4,0,0.7,0.2,1,0.4c0.2,0.1,0.4,0.3,0.6,0.3c0.4,0.1,0.5,0.4,0.7,0.6
		c0.1,0.1,0.3,0.2,0.3,0.3c0.2,0.4,0.6,0.6,0.6,1.1c0,0.1,0.1,0.2,0.2,0.2c0.3,0.2,0,0.6,0.3,0.7c0,0,0,0,0,0.1
		c-0.1,0.3,0.1,0.6,0.1,1c0,2.5,0,4.9,0,7.4c0,0.3,0,0.7-0.1,1c-0.1,0.3-0.1,0.7-0.5,1c-0.1,0.1-0.1,0.3-0.1,0.4
		c-0.1,0.1-0.1,0.2-0.2,0.3c-0.3,0.4-0.7,0.8-1,1.2c-0.1,0.1-0.3,0.1-0.4,0.2c-0.3,0.2-0.6,0.4-0.9,0.6c0,0,0,0.1-0.1,0.1
		c-0.3-0.1-0.5,0.3-0.8,0.2c-0.6,0.4-1.2,0.2-1.8,0.2C175.1,133.4,170.6,133.4,166,133.4z"/>
	<path class="st3" d="M44.6,61.8c4.8,0,9.6,0,14.4,0c0.4,0,0.8,0.2,1.2,0.1c0.1,0.3,0.5,0,0.7,0.3c0.2-0.1,0.3,0.3,0.5,0.2
		c0.1,0,0.2,0.1,0.3,0.2c0.2,0.1,0.5,0.2,0.7,0.4c0.2,0.2,0.5,0.4,0.7,0.6c0.1,0.1,0.1,0.2,0.2,0.2c0,0.2,0.1,0.2,0.2,0.3
		c0.2,0.2,0.2,0.5,0.4,0.7c0.2,0.3,0.2,0.6,0.3,0.8c0.2,0.3,0,0.6,0.2,0.8c0.3,0.6,0.1,1.2,0.1,1.8c0,1.9,0,3.9,0,5.8
		c0,0.2,0,0.3-0.1,0.5c-0.1,0.1-0.1,0.2-0.1,0.2c0,0.4-0.2,0.6-0.2,0.9c0,0.3-0.2,0.6-0.4,0.8c-0.2,0.4-0.4,0.7-0.8,1
		c-0.3,0.2-0.4,0.5-0.7,0.7c-0.2,0.1-0.4,0.4-0.7,0.5c-0.1,0-0.4,0-0.5,0.2c-0.3-0.1-0.4,0.2-0.7,0.2c-0.1,0-0.3-0.1-0.4,0.1
		c0,0-0.2,0-0.3,0c-3.4,0-6.8,0-10.2,0c-5.8,0-11.6,0-17.4,0c-0.2,0-0.3,0-0.3,0.3c0,4.7,0,9.4,0,14.1c0,0.3,0.1,0.3,0.3,0.3
		c5.3,0,10.7,0,16,0c0.1,0,0.3-0.1,0.3,0.1c0,0.1,0.2,0,0.2,0c0.2,0,0.5-0.1,0.6,0c0.2,0.3,0.5,0.1,0.6,0.3c0.1,0.1,0.4,0.2,0.7,0.3
		c0.3,0.1,0.5,0.2,0.7,0.4c0.2,0.2,0.5,0.4,0.7,0.6c0.2,0.2,0.5,0.4,0.6,0.6c0.1,0.3,0.4,0.5,0.4,0.9c0,0.1,0,0.4,0.2,0.4
		c0,0,0,0,0,0.1c-0.1,0.5,0.3,0.8,0.2,1.3c0,0.1-0.1,0.4,0.1,0.5c0,0,0,0.1,0,0.2c0,2,0,4.1,0,6.1c0,0.1,0,0.1,0,0.2
		c-0.3,0.3-0.1,0.7-0.2,1.1c0,0.1,0.1,0.3-0.1,0.3c0,0,0,0.1,0,0.1c0.1,0.4-0.2,0.8-0.3,1.1c-0.2,0.5-0.5,0.9-0.9,1.3
		c-0.3,0.2-0.5,0.5-0.7,0.7c-0.2,0.1-0.4,0.3-0.6,0.4c-0.2,0.1-0.4,0.1-0.5,0.3c0,0,0,0,0,0c-0.3-0.1-0.5,0.2-0.8,0.2
		c-2.9,0.2-5.7,0.1-8.6,0.1c-2.9,0-5.8,0-8.6,0c-0.2,0-0.3,0.1-0.3,0.3c0,5.5,0,11.1,0,16.6c0,0.3-0.2,0.6-0.1,0.9
		c-0.2,0.1-0.1,0.4-0.3,0.5c0.1,0.3-0.2,0.5-0.3,0.7c-0.2,0.2-0.3,0.5-0.5,0.7c-0.3,0.2-0.4,0.5-0.7,0.7c0,0,0,0.1-0.1,0.1
		c-0.4,0-0.6,0.3-0.9,0.5c-0.2,0.1-0.5,0.2-0.7,0.3c-0.2,0.2-0.6,0-0.8,0.3c0,0-0.1,0-0.2,0c-2.8,0-5.7,0-8.5,0
		c-0.1,0-0.2,0.1-0.2-0.1c0,0-0.1,0-0.1,0c-0.4,0.1-0.8-0.2-1.1-0.3c-0.4-0.2-0.8-0.3-1-0.7c-0.2-0.2-0.4-0.4-0.6-0.6
		c-0.2-0.2-0.4-0.4-0.5-0.6c-0.1-0.2-0.1-0.5-0.3-0.6c-0.1-0.1-0.1-0.3-0.3-0.4c0,0-0.1,0-0.1-0.1c0-0.4-0.3-0.6-0.2-1
		c0-0.1,0.1-0.3-0.1-0.4c0,0,0-0.1,0-0.2c0-5.9,0-11.8,0-17.8c0-0.4,0.1-0.7,0.2-1.1c0-0.3,0.2-0.6,0.3-0.8c0.2-0.2,0.1-0.5,0.3-0.7
		c0.2-0.2,0.4-0.5,0.6-0.7c0.2-0.3,0.4-0.5,0.7-0.7c0.1,0,0.1-0.2,0.2-0.3c0.1-0.2,0.4-0.3,0.5-0.3c0.2,0,0.3-0.2,0.4-0.2
		c0.1-0.2,0.5,0,0.5-0.3c0,0,0,0,0.1,0c0.3,0.1,0.6-0.1,0.9-0.1c2,0,3.9,0,5.9,0c0.3,0,0.3-0.1,0.3-0.3c0-1.2,0-2.4,0-3.6
		c0-0.2-0.1-0.3-0.3-0.3c-1.9,0-3.8,0-5.8,0c-0.1,0-0.3,0-0.4-0.1c0,0-0.1-0.1-0.1-0.1c-0.4,0-0.8-0.1-1.1-0.3c0,0-1.1-0.6-1.1-0.6
		c-0.2-0.4-0.7-0.6-0.9-0.9c-0.1-0.2-0.2-0.5-0.5-0.6c0,0,0-0.1,0-0.1c0-0.1-0.3-0.7-0.4-0.8c0,0,0,0,0,0c0.1-0.4-0.3-0.6-0.2-1
		c0-0.1,0.1-0.4-0.1-0.5c0,0,0-0.1,0-0.2c0-5.9,0-11.8,0-17.7c0-0.1,0-0.2,0-0.2c0.2-0.2,0.1-0.4,0.1-0.7c0-0.1-0.1-0.3,0.1-0.3
		c0,0,0,0,0,0c-0.1-0.3,0.2-0.5,0.2-0.8c0-0.3,0.3-0.6,0.5-0.8c0.1-0.1,0.2-0.3,0.3-0.4c0.1-0.3,0.4-0.5,0.7-0.7
		c0.1-0.1,0.3-0.3,0.5-0.4c0.2-0.1,0.3-0.2,0.4-0.3c0.1-0.1,0.3,0.1,0.4-0.2c0.3,0.1,0.4-0.2,0.7-0.2c0.3,0,0.7,0,0.9-0.1
		c0.4-0.2,0.8-0.1,1.1-0.1c1.6,0,3.2,0,4.7,0c0.2,0,0.3-0.1,0.3-0.3c0-1.9,0-3.7,0-5.6c0-0.1-0.1-0.3,0.1-0.3c0,0,0,0,0-0.1
		c0-0.3,0.1-0.6,0.2-0.9c0.1-0.2,0.1-0.4,0.3-0.5c0.1-0.1,0.1-0.2,0.1-0.3c0.2-0.6,0.6-1,1.1-1.4c0.1-0.1,0.3-0.3,0.4-0.4
		c0.1-0.1,0.4-0.1,0.5-0.3c0.1-0.2,0.4-0.1,0.5-0.3c0.1-0.1,0.3,0,0.4-0.2c0.3,0.1,0.6-0.2,0.9-0.2c2.5-0.2,5-0.1,7.6-0.1
		C39.5,61.8,42,61.8,44.6,61.8z"/>
</g>
</svg>
