<?xml version="1.0" encoding="UTF-8"?>
<!DOCTYPE svg PUBLIC "-//W3C//DTD SVG 1.1//EN" "http://www.w3.org/Graphics/SVG/1.1/DTD/svg11.dtd">
<!-- Creator: CorelDRAW -->
<svg xmlns="http://www.w3.org/2000/svg" xml:space="preserve" width="100mm" height="100mm" style="shape-rendering:geometricPrecision; text-rendering:geometricPrecision; image-rendering:optimizeQuality; fill-rule:evenodd; clip-rule:evenodd"
viewBox="0 0 100 100">
 <defs>
  <style type="text/css">
   <![CDATA[
    .fil0 {fill:#308041}
    .fil1 {fill:white}
   ]]>
  </style>
 </defs>
 <g id="Camada_x0020_1">
  <metadata id="CorelCorpID_0Corel-Layer"/>
  <g id="_175312624">
   <polygon id="_175312376" class="fil0" points="21.8335,26.2683 18.7715,26.2287 17.7488,26.2125 17.6251,26.2341 17.4205,26.2988 17.3237,26.4168 17.3344,26.5301 17.4098,26.6589 17.6466,26.9926 17.8673,27.3479 18.0718,27.784 18.1956,28.1555 18.2655,28.5108 18.3247,29.0596 18.3463,29.3286 18.3247,29.8666 18.2817,30.2434 18.1848,30.6149 18.061,30.9809 17.8996,31.2823 17.6681,31.6915 17.4798,31.9659 17.2645,32.2511 16.9954,32.5578 16.7263,32.8376 16.3711,33.1444 16.1396,33.3061 15.8275,33.4511 15.3485,33.6129 14.9071,33.7099 14.455,33.7633 13.9517,33.7609 13.6156,33.7447 13.1955,33.6764 12.8754,33.5967 12.5913,33.4883 12.3432,33.3798 12.0951,33.2558 11.8351,33.0833 11.563,32.8706 11.3269,32.6501 11.1268,32.4176 10.9468,32.1612 10.8188,31.9126 10.6747,31.6202 10.5787,31.3236 10.4786,30.9708 10.4147,30.694 10.3626,30.4693 10.3686,29.8378 10.3881,29.5005 10.4107,29.2082 10.4755,28.9421 10.5468,28.7115 10.7056,28.4029 10.9292,28.0752 11.0237,27.9446 11.3603,28.0572 11.6291,28.1369 11.8235,28.1597 12.3322,28.1825 12.7016,28.1465 12.9932,28.0686 12.7145,28.358 12.2998,28.7019 12.1443,28.9032 11.83,29.325 11.6258,29.7504 11.5157,30.0295 11.4605,30.3447 11.445,31.0001 11.5001,31.362 11.6024,31.7245 11.7835,32.0941 12.0906,32.5195 12.3504,32.7633 12.6103,32.9527 12.9095,33.0785 13.374,33.2121 13.7835,33.2516 14.2086,33.2912 14.6102,33.2756 14.996,33.2121 15.3503,33.1258 15.7677,32.9287 16.0826,32.6848 16.4527,32.3463 16.7991,31.9054 17.0668,31.4722 17.2401,31.1259 17.3975,30.661 17.4606,30.3465 17.4684,29.8342 17.4526,29.567 17.3897,29.165 17.2952,28.7792 17.1614,28.4251 17.0117,28.0548 16.7913,27.7241 16.5235,27.4174 16.2874,27.1496 16.0432,26.9291 15.7834,26.7482 15.5078,26.575 15.1456,26.4564 14.7204,26.3306 14.311,26.2521 13.9173,26.1892 13.6418,26.1892 13.3504,26.2203 13.0512,26.291 12.7126,26.3539 12.5158,26.3306 12.4922,26.173 13.3819,25.1809 17.177,25.1809 22.5947,25.2198 23.0549,24.8495 24.6152,23.4464 26.0071,22.1218 26.8265,21.482 27.5787,20.9207 28.3869,20.337 29.2175,19.7308 29.8349,19.3155 30.9462,18.6981 31.6309,18.3165 33.0004,17.6093 33.8984,17.194 34.5495,16.8909 36.1098,16.2174 37.0415,15.8582 37.8497,15.5888 38.7365,15.3306 39.5447,15.1173 40.3417,14.9153 41.4754,14.6234 42.4969,14.4326 43.2826,14.2642 44.8429,14.0509 45.9654,13.9387 47.0094,13.8264 48.1207,13.7478 48.8728,13.7478 49.6249,13.7478 50.4555,13.7478 52.1396,13.8264 53.1605,13.8713 54.4067,13.9499 55.6193,14.1632 57.2016,14.4326 59.4129,14.9153 60.4686,15.2183 61.3553,15.5327 62.4103,15.8918 63.6116,16.3746 64.8128,16.8684 66.3843,17.5644 67.5849,18.2042 68.8311,18.889 69.864,19.5063 71.1994,20.3595 72.3893,21.2463 73.5905,22.1891 74.4215,22.8739 75.0835,23.4464 76.0601,24.2658 76.7113,24.9281 77.598,25.871 79.2816,27.8469 80.1012,28.902 81.0891,30.2267 81.5043,30.9222 82.0429,31.8539 82.5821,32.7855 83.5137,34.4582 84.5352,36.4 85.1302,37.9266 85.6574,39.4759 86.2302,41.1486 86.6453,42.5404 86.9599,44.0334 87.2289,45.5378 87.3865,46.7834 87.5884,48.3327 87.7118,50.2523 87.7232,51.532 87.6668,53.7655 87.6105,54.8206 87.4985,56.0554 87.3415,57.2794 87.1846,58.1097 86.9263,59.3559 86.7801,59.9958 86.5105,61.2755 86.1738,62.5325 85.815,63.6324 85.3207,64.9457 84.7935,66.2033 84.1087,67.8083 83.4239,69.1444 82.6378,70.5361 82.0429,71.4564 81.3473,72.2873 80.4942,73.0279 79.4613,73.7462 78.9562,73.9146 78.4284,73.9373 77.3734,73.9709 72.6817,73.9709 65.7331,73.9487 59.4579,73.8139 58.2345,73.7462 58.3243,73.5671 60.2325,71.3893 61.3217,70.2443 61.8603,69.6716 62.6907,68.8298 63.4432,68.0216 63.9704,67.5165 64.5654,66.8881 65.228,66.1805 65.778,65.6083 66.3501,64.9457 66.9565,64.2951 67.5628,63.6552 68.2697,62.847 68.9431,62.0837 70.2456,60.4781 71.1994,59.311 71.9519,58.3344 72.6475,57.2344 73.2987,56.168 73.7475,55.3484 74.0956,54.5624 74.4437,53.7769 74.6791,53.0358 74.893,52.239 75.162,50.9706 75.2854,50.2295 75.3417,49.4662 75.3417,48.4783 75.2854,47.6365 75.1171,46.5251 74.9601,45.6948 74.7354,44.8638 74.5,44.0334 74.1519,43.1916 73.7367,42.4056 73.2652,41.6986 72.3893,40.6436 71.7836,39.9809 71.1545,39.3638 70.4248,38.724 69.8191,38.2746 69.0108,37.7696 67.821,37.1525 66.5748,36.6361 65.4862,36.288 64.4198,35.9848 63.5888,35.8165 62.6686,35.6817 61.849,35.6146 61.1192,35.6367 60.2775,35.6817 60.0079,35.6817 59.9186,35.5918 59.8844,34.4247 59.9521,33.5152 60.1205,30.8773 60.1654,29.9457 60.2715,29.9319 60.8328,30.3974 63.4564,32.58 65.9026,34.6326 67.1973,35.693 67.3417,35.7506 67.2794,35.6493 66.5263,34.6709 65.4563,33.3187 64.4635,32.009 63.4947,30.8671 62.2474,29.28 62.0125,28.9679 61.8112,28.6707 61.677,28.4353 61.6722,28.2963 61.7249,28.2532 62.3432,28.2052 62.9334,28.1477 64.0226,28.0566 65.2502,27.9464 66.4975,27.817 67.1494,27.7547 67.6532,27.6876 68.5309,27.5815 69.169,27.5048 69.8023,27.4282 70.9772,27.2988 71.3947,27.2508 71.596,27.2173 71.3899,27.1741 69.8406,27.016 67.658,26.7661 64.8805,26.4546 62.1275,26.1862 61.5901,26.1239 61.4607,26.037 61.4416,25.9459 61.5182,25.8405 62.2953,24.8477 63.0676,23.8932 64.2382,22.4638 65.1255,21.2839 65.9793,20.1279 66.31,19.6818 66.2956,19.6338 66.195,19.7106 65.4419,20.2286 64.7751,20.7083 63.7536,21.4853 61.5278,23.2169 60.3625,24.157 60.1564,24.3105 60.0318,24.3105 59.9402,24.1858 59.8874,23.802 59.8012,22.8044 59.6718,21.2263 59.5711,20.0895 59.389,18.2908 59.1727,16.4873 59.072,15.9165 59.0193,15.9165 58.933,16.2235 58.7174,17.6097 58.6119,18.3196 58.4921,19.1926 58.2998,20.4637 58.1752,21.375 57.993,22.79 57.9211,23.3656 57.7677,24.3153 57.7246,24.5647 57.6527,24.6079 57.4652,24.5024 57.1489,24.2194 56.4341,23.5382 54.5253,21.7492 52.012,19.4852 51.2394,18.7273 49.8917,17.509 49.1626,16.8854 48.9899,16.7608 49.0954,16.9334 49.6374,17.6865 50.6879,19.1494 51.7286,20.4637 52.9952,22.0465 53.5511,22.7324 54.741,24.2338 55.8104,25.6775 55.8631,25.8213 55.7769,25.9124 55.6379,25.9699 55.134,26.0226 52.4002,26.2437 50.9661,26.3252 48.9228,26.4594 47.2392,26.5744 44.3372,26.7901 42.2363,26.9387 40.7878,27.0399 42.2363,27.2844 44.6346,27.5144 45.9681,27.6295 48.0305,27.7978 50.6639,28.0231 52.2708,28.186 53.7291,28.325 55.3743,28.4934 55.844,28.5701 55.8775,28.6516 55.796,28.7762 54.8416,30.0517 53.8968,31.2895 53.1485,32.311 52.3379,33.3666 51.5273,34.4505 50.9037,35.2563 51.2107,35.0454 51.9832,34.4169 52.7891,33.7453 53.484,33.1216 54.031,32.6471 54.4774,32.2535 54.995,31.7886 55.4078,31.4525 56.8852,30.2392 57.4029,29.8312 57.4844,29.7833 57.5706,29.8456 57.6048,30.4262 57.624,31.0594 57.6911,33.5344 57.7534,35.6349 57.7198,35.9614 57.5754,36.1244 57.3933,36.1819 56.5539,36.3784 56.089,36.5132 55.6954,36.6378 55.2401,36.8487 54.8464,37.0692 54.4151,37.3185 54.0886,37.5204 53.5559,37.875 53.2108,38.1297 52.8993,38.3549 52.5153,38.6617 51.9203,39.1607 51.4217,39.5921 50.8941,40.1151 50.6255,40.374 50.3089,40.7245 49.6662,41.4632 49.5895,41.4104 49.5367,41.1702 49.5271,40.5615 49.5463,39.0601 49.5558,37.189 49.5655,34.6518 49.5607,33.7693 49.4887,33.6255 49.34,33.5248 49.0906,33.4913 48.798,33.5009 48.5486,33.5967 48.3327,33.6686 47.8867,33.8651 47.4406,34.0185 47.0473,34.1773 46.6635,34.3067 46.323,34.4361 45.8433,34.5942 45.4356,34.738 45.1239,34.877 44.5627,35.0502 44.107,35.2131 43.7089,35.3425 43.1189,35.5199 42.8023,35.6349 42.198,35.832 41.7759,35.9902 41.1955,36.2059 40.9509,36.3784 40.9077,36.5174 41.0708,36.681 41.397,36.9686 41.7423,37.3143 42.0733,37.6929 42.3083,38.0668 42.4954,38.4364 42.6249,38.7527 42.6633,38.9115 42.7592,39.3285 42.8311,39.8419 42.8695,40.2541 42.8839,41.4584 42.8934,42.7722 42.8887,45.832 42.8887,50.0683 42.8887,51.8322 42.8195,52.4115 42.7417,53.0082 42.6293,53.6481 42.4564,54.2963 42.2143,54.9188 41.8079,55.775 41.3324,56.709 40.8136,57.5562 40.1737,58.4123 39.5772,59.0779 39.067,59.5363 38.1506,60.2019 37.5021,60.5997 36.7412,60.9628 36.1619,61.1527 35.4529,61.3174 34.8736,61.4211 34.2856,61.4558 33.5767,61.4558 32.7899,61.3863 31.8475,61.1527 30.8877,60.8244 29.7118,60.3229 29.0893,59.9514 28.5359,59.5536 28.0777,59.13 27.6454,58.6627 27.092,58.0319 26.6943,57.504 26.1842,56.7953 25.7173,55.8876 25.3801,55.1872 24.9996,54.3658 24.7488,53.5702 24.5759,52.9303 24.4117,52.0227 24.3512,51.3828 24.3166,50.423 24.3338,49.7658 24.3857,48.7197 24.4376,48.0799 24.5759,47.2585 24.6797,46.5928 24.8959,45.6247 25.1033,44.8638 25.6049,43.4367 26.1063,42.1054 26.5732,40.9383 27.4033,39.0271 28.0863,37.7474 28.9423,36.0962 29.4265,35.2054 29.9021,34.3408 30.2911,33.6926 30.9828,32.5596 31.9252,31.0121 32.7121,29.6892 33.9312,27.7613 34.3375,27.0351 34.3894,26.741 34.3635,26.5073 33.4124,26.4732 26.4263,26.3521 "/>
   <polygon id="_174237816" class="fil0" points="84.2057,80.9351 85.0241,80.0382 85.0912,79.9058 84.7701,79.9082 84.3196,79.9711 83.7396,79.9711 83.2885,79.9459 82.8158,79.8794 82.1819,79.6481 81.6157,79.3126 81.1173,78.919 80.7907,78.5643 80.4457,78.0078 80.2731,77.586 80.1581,77.2211 80.0329,76.7418 79.9849,76.2523 80.0041,75.7826 80.091,75.3219 80.2443,74.9187 80.4457,74.5544 80.7716,74.0937 81.2706,73.6719 81.5966,73.461 82.0381,73.2591 82.412,73.1441 82.8343,73.1153 83.2465,73.1249 83.7168,73.2112 84.0619,73.2783 84.3885,73.4317 84.8486,73.6815 85.2326,73.9882 85.501,74.2471 85.7311,74.5544 85.8851,74.957 85.9905,75.4178 86.048,75.7341 86.0768,76.1469 86.0289,76.4536 85.9138,76.7802 85.7023,77.0677 85.4627,77.2978 85.3572,77.4038 85.3572,77.538 85.4531,77.6051 86.5471,77.9886 86.7676,78.0078 86.8443,77.9023 86.9785,77.5476 87.0551,77.2882 87.1318,76.9048 87.1414,76.5974 87.1318,76.1373 87.0935,75.6862 87.0168,75.274 86.9114,74.9283 86.6813,74.5544 86.3548,74.1033 86.0384,73.7869 85.6838,73.4802 85.2901,73.2016 84.839,73.0195 84.3597,72.8757 83.8319,72.7798 83.2082,72.7127 82.7001,72.7511 82.2682,72.8086 81.8464,72.9428 81.3953,73.0866 81.0981,73.2495 80.7428,73.4994 80.4265,73.7678 80.1485,74.0362 79.8028,74.5448 79.544,74.9858 79.381,75.3602 79.227,75.8305 79.2079,76.444 79.2462,77.0965 79.3523,77.816 79.544,78.3151 80.0137,79.1497 80.2923,79.5619 80.3594,79.6961 80.2348,79.8021 80.0041,79.8309 78.7094,79.8309 76.8965,79.8117 72.992,79.7632 69.2313,79.7248 65.3556,79.6961 58.5256,79.6961 51.3881,79.6961 51.2251,79.629 51.2251,79.4468 51.4649,79.0826 51.7334,78.689 52.423,77.8556 52.946,77.1594 53.5823,76.3674 54.2964,75.3429 55.3988,73.9457 55.9422,73.201 56.9044,71.959 57.6653,70.9345 58.3016,70.0808 58.7827,69.3666 59.2482,68.7298 60.1798,67.3176 60.8161,66.3237 61.3751,65.3615 62.0892,64.3214 62.7878,63.0327 63.4085,62.0082 64.2005,60.4092 64.7283,59.3541 65.4113,57.9875 66.0632,56.3423 66.4975,55.1471 66.9948,53.4396 67.2117,52.3839 67.3207,51.2971 67.4136,49.776 67.3824,48.6892 67.2584,47.8354 67.1344,47.0751 66.715,45.8637 66.2962,44.7775 65.8457,43.7991 65.225,42.8993 64.4797,41.9988 63.9051,41.3314 63.2221,40.7257 62.493,40.1667 61.2822,39.546 60.4284,39.2201 59.6208,39.0026 59.4812,41.0516 59.2326,46.6558 59.0157,50.4745 58.6431,54.5725 58.5963,55.0231 58.5406,54.5713 58.2668,49.8023 58.1458,46.1064 58.0709,44.7787 57.9499,41.867 57.9499,41.0672 57.8594,38.6832 57.2711,38.6832 56.5467,38.7132 55.7924,38.8947 54.9776,39.1512 54.1029,39.5885 53.3181,40.1163 52.9257,40.4638 52.3373,40.9767 51.9449,41.4596 51.583,41.9269 50.9946,42.7716 50.5421,43.5565 50.1045,44.4767 49.7575,45.4575 49.6217,46.2418 49.5463,47.283 49.5614,48.5352 49.5765,50.9191 49.5916,54.3137 49.5765,58.8551 49.667,59.4284 50.014,60.4092 50.3912,60.937 50.9796,61.4654 51.1908,61.7218 51.0701,61.9178 50.6929,62.1292 49.4859,62.5361 48.294,62.974 44.2054,64.3616 43.2549,64.724 43.0285,64.7846 42.8325,64.6785 42.7419,64.5431 42.7117,63.1699 42.7117,60.8166 42.7419,59.1115 42.7518,58.5189 42.7202,58.4303 42.6442,58.4303 42.4442,58.6508 42.0041,59.2241 41.5006,59.8586 40.846,60.5344 40.0224,61.3582 39.1989,61.9915 38.3752,62.7098 37.0871,63.512 36.2635,63.9554 35.1021,64.5677 34.0885,64.9901 33.1804,65.2644 32.3568,65.4124 31.6389,65.5179 30.4985,65.6024 29.5271,65.6024 28.429,65.5394 27.3098,65.3705 26.254,65.0955 25.3459,64.8427 24.1845,64.4197 23.382,63.9554 22.2417,63.1741 21.3759,62.4983 20.5734,61.759 19.8343,60.8723 18.9474,59.7106 18.1027,58.0636 17.5747,56.8809 17.2158,55.7408 17.0469,54.7061 16.8779,53.3965 16.7934,52.1934 16.899,49.7646 17.1102,48.5819 17.7437,46.5126 18.2506,45.2664 18.9263,43.7884 19.5598,42.5638 20.0666,41.8035 21.1013,40.1565 21.8193,39.2482 22.8541,38.002 23.6354,37.0309 24.4801,36.1226 25.6205,34.9615 26.4862,34.1377 27.4881,33.1803 28.4712,32.1319 28.4204,32.0737 27.245,32.0528 26.1159,32.0528 24.459,32.0474 23.192,32.0048 21.6504,32.0048 20.5312,32.0048 19.7498,32.0264 19.1797,32.1319 18.5251,32.3428 17.976,32.6807 17.1947,33.293 16.8357,33.7579 16.4133,34.4337 16.0788,35.0017 15.8181,35.5516 15.6038,35.998 15.3025,36.6061 15.1229,37.0812 14.9086,37.5623 14.7695,37.9272 14.4972,38.8019 14.2018,39.7 13.8658,40.7658 13.5182,41.9359 13.1417,43.3726 12.9852,44.3863 12.8172,45.3826 12.6318,46.9643 12.5218,47.9954 12.4406,49.6933 12.3688,50.9485 12.4065,52.1179 12.3877,53.2497 12.482,54.3251 12.5952,55.6456 12.6895,56.6072 12.8592,57.7958 13.029,58.8329 13.5382,61.0964 13.8778,62.2281 14.2361,63.5108 14.7455,64.9068 15.5565,67.0756 16.6505,69.2264 17.82,71.282 18.499,72.4138 19.4987,73.9415 20.0269,74.6772 20.555,75.4693 21.5358,76.7334 22.1394,77.3937 22.7996,78.1294 23.6107,78.9592 24.4972,79.8459 25.6478,80.8452 26.3646,81.4868 27.1756,82.0338 27.7604,82.5054 28.496,83.0709 29.2882,83.6371 30.8915,84.5801 32.2685,85.3913 33.9849,86.2774 35.4939,87.0131 37.2481,87.6356 39.1155,88.2773 41.0017,88.8051 42.6238,89.1448 44.2648,89.4276 47.0376,89.7296 48.9238,89.8805 51.6777,89.8236 53.2624,89.7481 54.4882,89.6163 57.2801,89.1634 59.1092,88.7296 60.8448,88.2395 63.3348,87.3528 65.3526,86.5231 66.975,85.6927 68.522,84.8443 70.1438,83.7881 71.8225,82.6372 74.331,80.8074 82.6498,80.9398 "/>
   <polygon id="_174237552" class="fil1" points="20.3366,74.6539 20.0269,74.6772 20.3655,75.1853 20.4169,75.0685 20.5602,75.0451 20.7592,75.0451 20.9265,75.0211 21.213,74.9972 21.4041,74.9972 21.6827,74.9492 21.9534,74.854 22.2321,74.7425 22.6062,74.591 22.9963,74.416 23.4421,74.2249 23.9675,74.002 24.3576,73.8588 24.7796,73.6917 25.0821,73.6276 25.4164,73.5323 25.6792,73.4922 25.9578,73.4844 26.2444,73.4766 26.5947,73.5006 26.8494,73.6036 27.0882,73.7312 27.3112,73.8666 27.4465,73.9942 27.55,74.153 27.6057,74.2489 27.6376,74.464 27.6216,74.7659 27.5579,75.0127 27.4226,75.1799 27.2315,75.268 27.0564,75.3393 26.8415,75.4351 26.6186,75.4747 26.6106,75.7137 26.6186,75.9048 26.738,75.9923 27.0405,76.0241 27.4306,76.0636 27.7331,76.0558 28.1152,76.0558 28.378,76.0319 28.768,75.9839 29.1581,75.9126 29.5005,75.8012 29.8826,75.6814 30.217,75.5304 30.5035,75.4034 30.814,75.2278 31.3713,74.9414 31.7853,74.7102 32.1912,74.5035 32.5734,74.3202 32.9635,74.1374 33.3536,74.002 33.7755,73.8505 34.1656,73.7552 34.5398,73.6995 34.8264,73.6833 35.1846,73.6995 35.4473,73.7073 35.7817,73.7869 35.9966,73.9223 36.1399,74.0973 36.2832,74.3363 36.2992,74.5988 36.2832,74.8138 36.1798,75.0451 36.0603,75.244 35.8852,75.371 35.7658,75.4267 35.4553,75.4507 35.2801,75.5382 35.2801,75.8407 35.312,75.9761 35.4394,76.0876 35.6782,76.1595 36.0046,76.1595 36.3469,76.1595 36.5619,76.1595 36.8564,76.1433 37.3818,76.072 38.0585,75.9522 38.5601,75.7694 38.9661,75.5783 39.5233,75.2758 39.8816,75.1164 40.3194,74.8857 40.7016,74.6868 41.2589,74.416 41.7445,74.1931 42.262,73.9541 42.7316,73.8031 43.0342,73.7552 43.3606,73.7552 43.7029,73.8265 44.0293,73.9379 44.3318,74.0973 44.4831,74.2968 44.5866,74.5113 44.6502,74.7743 44.6662,75.0685 44.6025,75.2913 44.5069,75.4825 44.3079,75.7053 44.1408,75.8491 43.9577,75.9606 43.7108,76.0402 43.6233,76.199 43.6392,76.3979 43.7188,76.5255 43.9656,76.5333 44.3557,76.5333 44.6263,76.5016 44.8891,76.4542 45.1996,76.3662 45.8604,76.1517 46.2584,76.0001 46.5927,75.8491 46.9669,75.6898 47.2535,75.5705 47.5481,75.4351 48.0018,75.1481 48.4317,74.9175 48.8218,74.6868 49.204,74.4873 49.8408,74.2171 50.2309,74.0973 50.637,74.002 51.035,73.9703 51.4012,73.9703 51.7035,74.026 51.9587,74.1614 52.1414,74.3285 52.3086,74.5275 52.444,74.7983 52.5075,75.0924 52.4679,75.3872 52.3409,75.6262 52.1174,75.7694 51.7831,75.8569 51.5126,75.8809 51.3455,75.9444 51.2977,76.1517 51.3375,76.3104 51.4092,76.3823 51.616,76.4141 51.8311,76.4141 52.1258,76.3584 52.3643,76.2709 52.6195,76.072 52.8741,75.8168 53.0251,75.6023 53.0808,75.3632 53.097,75.1481 53.1126,74.9175 53.0335,74.6227 52.8741,74.2968 52.683,74.0733 52.444,73.8744 52.1576,73.6833 51.9107,73.5641 51.6477,73.4844 51.3136,73.4604 50.9474,73.4604 50.6131,73.4922 50.3264,73.5479 49.9842,73.6438 49.5861,73.7947 48.7502,74.1614 48.0416,74.5191 47.5003,74.7821 46.7997,75.1326 45.7887,75.5939 45.4384,75.7137 45.1677,75.785 45.0483,75.785 45.0085,75.6975 45.112,75.4267 45.1757,74.9972 45.1836,74.5754 45.112,74.2806 44.9289,73.9301 44.7458,73.6755 44.4512,73.4688 44.1965,73.3568 43.9178,73.2615 43.5596,73.198 43.2013,73.1663 42.859,73.1663 42.5804,73.2136 42.1027,73.373 41.641,73.5563 40.6698,74.0577 39.6507,74.5988 38.8626,74.981 38.3213,75.1643 37.7879,75.3471 37.2385,75.5226 36.936,75.5783 36.6017,75.5783 36.5062,75.5783 36.4504,75.4825 36.538,75.3393 36.7131,75.0769 36.8166,74.7503 36.8405,74.2489 36.7689,73.9541 36.6096,73.715 36.3469,73.4604 36.0285,73.2693 35.6622,73.1579 35.2881,73.1021 34.8582,73.1261 34.3089,73.198 33.8153,73.3412 33.1864,73.5401 32.5973,73.739 31.7216,74.1213 31.1723,74.4082 30.7265,74.6389 30.217,74.8857 29.4209,75.1961 28.8715,75.3632 28.2744,75.4825 27.8843,75.5142 27.7172,75.4351 27.741,75.3471 27.956,75.1404 28.0754,74.8857 28.1152,74.567 28.1152,74.2009 28.0277,73.8588 27.8366,73.5563 27.4943,73.2459 27.1997,73.0944 26.6902,72.9907 26.2364,72.935 25.711,72.935 25.2174,73.0147 24.3974,73.2777 23.5934,73.5958 22.6858,73.9703 21.5872,74.3681 21.2608,74.464 20.8866,74.543 20.5762,74.5988 "/>
   <polygon id="_175375792" class="fil1" points="21.5358,76.7334 22.0687,77.3164 22.0861,77.1576 22.458,76.9569 22.8299,76.7634 23.2241,76.6519 23.6332,76.5926 24.1092,76.5555 24.6224,76.607 25.0835,76.7113 25.4777,76.9347 25.7529,77.3661 25.8645,77.686 25.8942,78.0425 25.7306,78.3996 25.3215,78.6302 25.0165,78.6752 24.548,78.7045 24.4216,78.9502 24.4216,79.1958 24.6595,79.4486 24.9868,79.5079 25.5893,79.5151 26.1546,79.5079 26.5115,79.4558 27.2925,79.1958 27.895,78.9352 28.4677,78.6824 29.2337,78.2953 30.1709,77.8268 30.8552,77.4032 31.6064,77.009 32.1494,76.8155 32.6849,76.7412 33.1609,76.7412 33.5774,76.8455 33.9047,77.0462 34.165,77.284 34.3584,77.6111 34.4328,77.8346 34.4328,78.1396 34.3286,78.4295 34.1203,78.6524 33.7485,78.8681 33.4138,78.9352 33.146,78.9801 33.027,79.1065 33.027,79.3294 33.1535,79.4858 33.4882,79.5008 33.8972,79.5529 34.3882,79.5673 34.7675,79.5229 35.3476,79.4037 36.0542,79.1215 36.8054,78.7938 37.6979,78.3331 38.4863,77.8568 39.2078,77.4182 39.9888,77.0462 40.7325,76.8083 41.268,76.7784 41.4838,76.8005 41.8259,76.8377 42.1085,76.9862 42.3168,77.2097 42.4581,77.4404 42.5325,77.7747 42.4953,78.0874 42.3465,78.4517 42.0416,78.7273 41.6548,78.898 41.0449,78.9574 40.9557,79.218 40.9557,79.4558 41.1268,79.5972 41.5507,79.6493 42.0639,79.6865 42.7928,79.6493 43.3655,79.5822 43.8266,79.493 44.4663,79.2252 45.1134,78.913 45.8795,78.4966 46.4522,78.1767 46.9877,77.8718 47.5827,77.4775 48.2744,77.1133 48.7132,76.9862 48.9885,76.912 49.5686,76.9269 49.9925,77.009 50.3421,77.1876 50.5578,77.4697 50.6768,77.7897 50.6694,78.0725 50.6247,78.3331 50.4611,78.5631 50.1934,78.7788 49.9331,78.8681 49.7025,78.9052 49.2711,78.898 49.1223,79.0023 49.1372,79.2102 49.2785,79.3222 49.5983,79.3516 49.9479,79.3516 50.357,79.2473 50.6247,79.1287 50.8925,78.8909 51.1826,78.4817 51.2124,78.2438 51.2346,77.8939 51.1974,77.4997 51.0859,77.1648 50.9074,76.8377 50.5727,76.5699 50.1785,76.3913 49.7991,76.2877 49.4421,76.2577 49.1892,76.2427 48.8397,76.2649 48.1852,76.5034 47.5901,76.7933 47.0472,77.0983 46.4916,77.4488 45.5488,78.0275 44.43,78.6057 43.8769,78.8441 43.4747,78.9699 43.1227,79.0328 42.8695,79.0418 42.7684,78.9843 42.7684,78.8831 42.9417,78.6734 43.1296,78.363 43.2163,78.0233 43.2524,77.6399 43.2163,77.438 43.1079,77.1414 42.9345,76.8526 42.7467,76.6717 42.5371,76.4986 42.277,76.3614 42.0096,76.2817 41.7567,76.2164 41.4893,76.1804 41.2725,76.1804 40.8463,76.2308 40.5572,76.2961 40.2175,76.3757 39.7768,76.5273 39.3866,76.6789 38.9747,76.8526 38.5845,77.0767 38.2593,77.2714 37.8619,77.5171 37.5295,77.7052 37.1465,77.9293 36.684,78.1677 36.2577,78.3918 35.9398,78.5506 35.5713,78.7093 35.3184,78.8178 35.0943,78.8321 34.921,78.8178 34.827,78.7315 34.8776,78.5649 34.9788,78.3193 35.0365,78.0449 35.051,77.6621 34.9932,77.3871 34.8848,77.1055 34.7475,76.8742 34.5596,76.6789 34.3717,76.5129 34.1622,76.4117 33.9382,76.3033 33.7359,76.2457 33.4613,76.1876 33.2084,76.1517 33.006,76.1517 32.7748,76.1517 32.558,76.1589 32.3268,76.1589 32.0161,76.2236 31.6331,76.3248 31.2791,76.477 31.0189,76.607 30.1446,77.0767 29.5737,77.4164 28.7933,77.8352 28.1285,78.1168 27.3626,78.4421 26.7917,78.6446 26.3871,78.7459 26.1486,78.7746 26.1053,78.7093 26.1486,78.5649 26.3076,78.2833 26.3871,77.9508 26.3943,77.4739 26.3437,77.2427 26.2426,76.9683 26.0908,76.7586 25.8596,76.5273 25.6139,76.332 25.3827,76.1948 25.1225,76.0864 24.9058,76.0145 24.6022,75.9707 24.1398,75.9564 23.8508,75.9851 23.5111,76.036 23.1426,76.1229 22.6946,76.2529 22.3983,76.3686 22.0949,76.5273 21.7986,76.6861 21.6685,76.7298 "/>
   <polygon id="_175375160" class="fil0" points="74.2897,83.8684 76.4268,82.1291 76.8455,82.6336 76.0936,83.2351 78.027,85.6945 77.4578,86.1989 75.5137,83.697 74.6438,84.3734 "/>
   <polygon id="_174857648" class="fil0" points="73.3377,84.5807 73.938,84.1254 76.102,87.2414 75.5017,87.6973 "/>
   <polygon id="_174857264" class="fil0" points="70.4385,86.5476 72.4785,89.7577 73.814,88.8878 74.207,88.629 74.4868,88.3905 74.5491,88.2563 74.6318,88.0388 74.6216,87.6973 74.5797,87.5002 74.497,87.2102 74.3832,87.0347 74.2382,86.9311 74.0003,86.7759 73.7619,86.7136 73.4815,86.7322 73.4965,86.5051 73.4695,86.1822 73.4012,85.9491 73.2904,85.7783 73.1316,85.6052 72.9884,85.5004 72.8776,85.4285 72.6954,85.3721 72.4887,85.3452 72.2437,85.3632 71.9627,85.4195 71.7626,85.5513 "/>
   <polygon id="_174856880" class="fil1" points="71.8998,87.4439 71.4217,86.7112 71.4487,86.6189 71.6398,86.4422 71.8519,86.278 72.0825,86.1732 72.3036,86.1222 72.4468,86.1222 72.5936,86.1822 72.7104,86.302 72.7703,86.4092 72.7967,86.589 72.7643,86.7651 72.6864,86.9209 72.5996,87.0221 72.3665,87.1629 "/>
   <polygon id="_174856136" class="fil1" points="72.2167,87.9166 72.4438,88.3018 72.8027,88.8914 73.1076,88.7057 73.3323,88.5535 73.5144,88.4097 73.6882,88.2725 73.7924,88.1287 73.8523,87.9735 73.8433,87.7638 73.7804,87.6147 73.7002,87.5278 73.5773,87.4379 73.4575,87.378 73.2754,87.3277 73.1436,87.3277 72.9794,87.363 72.8027,87.4499 72.6235,87.5547 72.4384,87.7039 "/>
   <polygon id="_174855504" class="fil0" points="69.8191,91.2795 69.1426,91.7079 68.4495,87.7656 69.1588,87.3367 72.0789,89.9596 71.4355,90.4377 70.792,89.844 69.7364,90.5533 "/>
   <polygon id="_175326560" class="fil1" points="69.5219,89.8901 70.4445,89.2952 69.3272,88.4564 "/>
   <polygon id="_175325928" class="fil0" points="65.0794,89.3359 67.5424,88.0245 67.9109,88.6961 67.0469,89.1598 68.3266,91.9277 67.6389,92.3273 66.2789,89.5282 65.3832,89.9758 "/>
   <polygon id="_175324712" class="fil0" points="65.086,90.2196 64.5474,90.5102 64.4072,90.4239 64.2454,90.3383 64.0088,90.3383 63.7176,90.3598 63.4804,90.4779 63.297,90.6612 63.2114,90.8661 63.2114,91.0602 63.297,91.2753 63.5235,91.34 63.8686,91.3076 64.2239,91.2429 64.4719,91.1896 64.9356,91.2112 65.2585,91.2969 65.5282,91.5018 65.6899,91.7498 65.8085,91.987 65.8193,92.3531 65.7546,92.6227 65.6468,92.8701 65.4742,93.1182 65.2801,93.3015 65.0644,93.4525 64.7846,93.5819 64.6121,93.625 64.4234,93.6772 64.2299,93.6867 63.7919,93.6957 63.5235,93.6628 63.3683,93.6298 63.194,93.5687 63.0388,93.4513 62.9256,93.3285 63.2078,92.8438 63.5187,92.8953 63.8818,92.9378 64.3527,92.9283 64.6163,92.8815 64.8703,92.7258 64.9602,92.5514 64.9883,92.283 64.9554,92.1512 64.8565,92.0571 64.7247,92.0008 64.5456,91.9912 64.258,91.9864 64.0274,92.0428 63.7356,92.0715 63.3072,92.0757 63.1329,92.0476 62.9633,92.005 62.789,91.8924 62.6194,91.7462 62.4828,91.5862 62.4073,91.4071 62.3558,91.2142 62.3558,90.9554 62.3983,90.7385 62.4499,90.5264 62.5769,90.3239 62.7135,90.1214 62.9256,89.9614 63.1796,89.844 63.5187,89.6882 63.7542,89.6457 64.0603,89.6457 64.2958,89.6834 64.654,89.7589 64.8565,89.8578 64.9883,89.9848 65.0638,90.1262 "/>
   <polygon id="_175106744" class="fil0" points="58.2249,95.1774 57.4502,91.4808 58.1548,91.322 60.0558,93.1356 59.5981,90.9703 60.302,90.7942 61.2001,94.5968 60.4782,94.7196 58.5598,93.0121 59.0175,95.0366 "/>
   <polygon id="_175106176" class="fil0" points="50.3209,92.0793 50.3209,95.9346 51.0954,95.9346 51.113,94.2973 51.1165,93.8701 51.61,94.471 52.698,95.8765 53.3726,95.8711 53.3726,92.8444 53.3726,92.0511 52.5686,92.0511 52.5626,94.2853 52.269,93.903 51.0016,92.0925 "/>
   <polygon id="_175105392" class="fil0" points="55.249,91.7061 55.7541,91.6947 56.2699,91.8672 56.7522,92.1997 57.062,92.6011 57.2801,93.0373 57.3717,93.5076 57.349,94.0127 57.2801,94.4488 57.1195,94.885 56.7636,95.3319 56.4077,95.5848 55.9836,95.7567 55.5702,95.7909 55.134,95.7453 54.6182,95.4811 54.2737,95.2175 53.9867,94.8047 53.7806,94.3685 53.6883,94.0354 53.6656,93.4621 53.7686,92.9456 53.9981,92.4981 54.2964,92.1422 54.6751,91.8786 54.9968,91.7522 "/>
   <polygon id="_175104624" class="fil1" points="54.5031,93.1751 54.6865,92.854 54.9507,92.5784 55.2143,92.452 55.536,92.4178 55.7883,92.4292 56.0177,92.5442 56.2933,92.7162 56.5,93.0145 56.6606,93.4046 56.6947,93.7604 56.6833,94.093 56.5683,94.4255 56.4311,94.6783 56.2244,94.8964 56.0063,95.0108 55.7769,95.0456 55.4557,95.0569 55.1801,94.9653 54.9393,94.7813 54.6865,94.5291 54.5145,94.2194 54.4456,93.921 54.4342,93.6454 54.4229,93.4159 "/>
   <polygon id="_175304248" class="fil0" points="50.3337,95.9352 50.3209,92.0793 51.0016,92.0925 52.5626,94.2853 52.5686,92.0511 53.3726,92.0511 53.3726,95.8711 52.698,95.8765 51.1421,93.9012 51.0954,95.9346 "/>
   <polygon id="_175303616" class="fil0" points="45.4252,95.8058 47.0079,92.0434 47.864,92.1428 48.8096,96.0347 47.9237,95.9652 47.7744,95.2786 46.55,95.139 46.2514,95.8855 "/>
   <polygon id="_175303232" class="fil1" points="47.3356,93.2476 47.6798,94.5633 46.7542,94.4794 "/>
   <polygon id="_175302632" class="fil0" points="41.5943,91.4574 42.2937,91.5683 41.6679,95.3475 40.9316,95.2127 "/>
   <polygon id="_175041272" class="fil0" points="38.1705,90.5737 38.3299,94.6603 39.189,94.8442 41.2997,91.4329 40.5511,91.2363 39.054,93.4333 38.9313,90.7702 "/>
   <polygon id="_175040672" class="fil0" points="37.1181,90.2358 37.9507,90.5408 36.712,94.0941 35.9809,93.7898 "/>
   <polygon id="_175220184" class="fil0" points="45.0911,93.0085 45.6422,92.667 45.6033,92.5664 45.5102,92.3801 45.3472,92.1937 45.192,92.0769 44.9979,91.9607 44.7573,91.8289 44.5167,91.751 44.2761,91.6737 43.9734,91.6581 43.6785,91.7049 43.3835,91.7899 43.1351,91.9139 42.9721,92.0464 42.8247,92.1782 42.685,92.3801 42.6384,92.5969 42.6306,92.8689 42.6539,93.0631 42.7083,93.2027 42.8092,93.3345 43.0187,93.5364 43.3059,93.7071 43.4999,93.8078 43.7794,93.9012 43.9889,94.0019 44.3149,94.1648 44.54,94.32 44.6254,94.468 44.6176,94.6459 44.54,94.8173 44.3925,94.9491 44.2167,95.0132 44.0087,95.0414 43.7885,95.0414 43.5525,94.9892 43.2884,94.8694 43.0643,94.7328 42.6402,94.3841 42.104,94.7166 42.3441,94.9455 42.7923,95.2702 43.1124,95.4787 43.5285,95.6872 43.7966,95.7268 44.0126,95.7393 44.3487,95.6992 44.7289,95.6189 45.0009,95.4943 45.205,95.3379 45.321,95.1857 45.4491,94.9455 45.4731,94.7849 45.4731,94.5123 45.4211,94.2637 45.301,93.951 45.1809,93.815 45.0009,93.6706 44.7408,93.5382 44.4128,93.4261 43.8406,93.2134 43.6766,93.0936 43.5325,92.9492 43.4725,92.7845 43.4885,92.6041 43.6045,92.4957 43.7525,92.4076 44.0687,92.3357 44.2647,92.3357 44.4767,92.3879 44.6768,92.4879 44.8249,92.6281 "/>
   <polygon id="_175219800" class="fil0" points="33.7667,93.1391 33.4501,93.0073 33.0147,92.8096 32.5001,92.5059 34.0702,89.0358 34.7442,89.2796 35.2238,89.4911 35.6075,89.6541 35.8761,89.8937 36.0968,90.1525 36.2311,90.4311 36.3366,90.6995 36.3654,91.2274 36.327,91.5053 36.2599,91.8504 36.1735,92.1386 35.9912,92.455 35.8281,92.676 35.6459,92.8486 35.4252,93.0403 35.1375,93.1649 34.8017,93.2608 34.5331,93.2895 34.2741,93.2895 34.0438,93.232 "/>
   <polygon id="_175219056" class="fil1" points="34.5331,92.6664 34.3143,92.6718 34.159,92.6281 33.852,92.4837 33.6313,92.3687 33.4683,92.2057 34.5331,89.9896 34.9356,90.1639 35.2515,90.3568 35.4194,90.5102 35.5131,90.6929 35.5773,90.9356 35.5921,91.2615 35.5625,91.5041 35.4983,91.8007 35.3552,92.0973 35.2515,92.2752 35.1084,92.4484 34.9405,92.5772 34.7776,92.6563 "/>
   <polygon id="_175218672" class="fil0" points="29.7098,86.8789 32.0806,88.1425 31.7494,88.7943 30.1343,87.904 29.7409,88.5978 31.18,89.4677 30.8487,90.0992 29.3889,89.2706 29.0161,89.9854 30.7141,91.041 30.3621,91.6725 27.9809,90.2232 "/>
   <polygon id="_175100512" class="fil0" points="29.1818,87.2666 28.5533,87.3672 28.5281,87.0659 28.4688,86.8382 28.3855,86.6441 28.2559,86.4404 28.0244,86.2642 27.8301,86.181 27.5339,86.1438 27.358,86.1534 27.2376,86.2732 27.1635,86.4584 27.2006,86.6621 27.2931,86.8939 27.5524,87.1995 27.8763,87.6063 28.1078,87.9304 28.2559,88.2359 28.2837,88.5319 28.2281,88.7913 28.1078,89.0412 27.8763,89.2539 27.6449,89.4114 27.3858,89.4761 27.071,89.4761 26.7748,89.43 26.4879,89.3467 26.2101,89.2359 25.9694,89.0507 25.7936,88.8285 25.6455,88.6062 25.4419,88.3006 25.303,87.9861 25.2186,87.7363 25.2049,87.6117 25.8883,87.6117 25.9454,87.8112 26.0311,88.0286 26.1695,88.2593 26.3343,88.4702 26.565,88.6745 26.7231,88.7404 27.0461,88.747 27.2108,88.6943 27.3822,88.5691 27.4481,88.4043 27.4085,88.167 27.2569,87.9693 26.9867,87.6069 26.6177,87.1983 26.4727,86.9083 26.4068,86.6051 26.4134,86.1109 26.5847,85.8538 26.8549,85.6429 27.0988,85.5237 27.4349,85.4776 27.7051,85.5046 27.949,85.5836 28.1467,85.6693 28.5505,85.9569 28.7706,86.1738 28.9875,86.4098 29.1023,86.6968 29.1756,86.9293 "/>
   <polygon id="_175100248" class="fil0" points="21.1962,80.2371 19.275,78.1072 18.8071,78.6147 19.494,79.3911 17.314,81.4719 17.7619,82.0189 19.9519,79.9585 20.7283,80.7349 "/>
   <polygon id="_175099864" class="fil0" points="16.0108,80.2113 19.0815,77.9952 18.6383,77.3307 16.855,78.5967 17.7519,76.1277 17.3087,75.5052 14.3118,77.8478 14.7023,78.4385 16.6123,77.0354 15.6731,79.6943 "/>
   <polygon id="_175099480" class="fil0" points="24.4074,83.129 25.0632,83.7048 23.7595,87.4241 23.1356,86.8646 23.3035,86.2888 22.3998,85.4327 21.7199,85.8808 21.12,85.2727 "/>
   <polygon id="_175099096" class="fil1" points="24.0315,84.3003 23.5742,85.5824 22.9643,84.9659 "/>
   <polygon id="_175264032" class="fil0" points="21.4445,80.5133 18.9144,83.1248 19.3203,83.6119 20.4568,82.597 20.7139,82.854 20.4433,84.5861 20.9304,85.1409 21.2956,83.5574 21.5798,83.5844 21.8774,83.6119 22.1616,83.5844 22.4052,83.4765 22.6487,83.3411 22.784,83.1925 22.9057,82.9487 23.0275,82.624 23.0411,82.313 22.9193,82.0015 22.7704,81.7175 22.5945,81.4743 22.2969,81.1765 "/>
   <polygon id="_175263648" class="fil1" points="20.7691,82.1926 21.5289,81.3514 21.8428,81.6025 22.0187,81.7654 22.1631,81.8972 22.2698,82.0985 22.2635,82.4688 22.1756,82.6635 21.9685,82.8457 21.7989,82.9463 21.6294,82.9211 21.4975,82.8271 21.1835,82.5754 "/>
   <polygon id="_175263264" class="fil0" points="13.857,72.0639 14.1345,72.657 14.3737,72.5132 14.5842,72.3125 14.7181,72.0926 14.833,71.729 14.8521,71.3845 14.7755,71.0208 14.6894,70.7242 14.5746,70.4564 14.4215,70.1982 14.2397,70.0544 14.0101,69.901 13.7518,69.777 13.4551,69.7291 13.149,69.7003 12.8428,69.7003 12.527,69.7483 12.2496,69.8441 12.0199,69.949 11.752,70.1119 11.532,70.2647 11.3119,70.466 11.1492,70.6667 10.9292,71.0112 10.8239,71.3078 10.8143,71.6235 10.8239,71.9393 10.8717,72.1975 10.977,72.5228 11.1779,72.8289 11.3502,73.0015 11.5415,73.1639 11.8094,73.2789 12.0964,73.346 12.4314,73.4035 12.7945,73.4167 12.5715,72.7876 12.3351,72.7606 12.0363,72.663 11.8356,72.5599 11.6572,72.3994 11.5591,72.2214 11.4699,71.9806 11.4654,71.6193 11.5234,71.3785 11.675,71.1328 11.8802,70.874 12.1389,70.6601 12.3307,70.5487 12.6072,70.4462 12.8659,70.4061 13.2584,70.4061 13.4992,70.4864 13.6776,70.5757 13.8605,70.7093 14.0122,70.8608 14.146,71.0795 14.1772,71.3204 14.1371,71.6014 14.0746,71.7841 13.9765,71.9357 "/>
   <polygon id="_175262400" class="fil0" points="16.6401,74.9403 16.6401,74.4693 16.5345,74.047 16.3395,73.6653 16.0715,73.3484 15.7304,73.0962 15.3323,72.9745 14.9343,72.8853 14.5525,72.9098 14.0976,73.0237 13.6915,73.186 13.4234,73.373 13.1635,73.6 12.9361,73.9493 12.806,74.2662 12.7248,74.6886 12.7086,75.0625 12.7736,75.4603 12.9117,75.7688 13.1229,76.0612 13.2853,76.2403 13.5289,76.4057 13.9271,76.6058 14.2367,76.6831 14.4939,76.6915 14.8009,76.6915 15.0831,76.6376 15.4149,76.5088 15.7012,76.3386 15.975,76.1523 16.2488,75.8701 16.3857,75.679 16.4894,75.4303 16.5931,75.1152 "/>
   <polygon id="_175367520" class="fil1" points="15.8302,74.2213 15.6899,73.9679 15.4963,73.8139 15.3093,73.727 15.0555,73.6473 14.735,73.6336 14.4812,73.6809 14.1474,73.8007 13.8802,73.9876 13.7066,74.141 13.5397,74.3483 13.4328,74.5688 13.3861,74.8492 13.3794,75.0565 13.4395,75.25 13.5463,75.4837 13.6465,75.6173 13.7667,75.7575 13.967,75.8575 14.1741,75.9312 14.3877,75.9576 14.6549,75.9576 14.922,75.9042 15.1223,75.8042 15.3159,75.6772 15.5163,75.5172 15.6833,75.3566 15.8034,75.223 15.8769,75.0763 15.9236,74.9492 15.957,74.7222 15.9303,74.5155 15.8769,74.3417 "/>
   <polygon id="_175366920" class="fil0" points="6.4295,54.4293 6.456,55.1549 10.1238,55.0758 10.137,54.3628 "/>
   <polygon id="_175366536" class="fil0" points="10.1238,55.2471 6.6143,56.8833 6.6407,57.7011 10.4141,58.4399 10.3613,57.688 7.7753,57.1997 10.137,56.0386 "/>
   <polygon id="_175365936" class="fil0" points="10.5592,58.6244 6.9045,59.2583 7.0629,60.0629 10.6647,59.4296 "/>
   <polygon id="_174344528" class="fil0" points="10.8363,59.6405 11.4959,62.4773 10.8758,62.6091 10.5723,61.5799 7.6302,62.3324 7.4719,61.6458 10.4404,60.8939 10.2162,59.7987 "/>
   <polygon id="_174344144" class="fil0" points="11.9702,63.8679 8.7756,66.2566 8.4783,65.5658 9.1594,65.0476 8.6989,63.772 7.9315,63.8391 7.7492,63.0621 11.6344,63.0813 "/>
   <polygon id="_174343760" class="fil1" points="10.7807,63.7768 9.3155,63.7475 9.613,64.781 "/>
   <polygon id="_174343376" class="fil0" points="12.2131,67.906 12.7898,68.1007 12.9035,67.8976 12.9848,67.6537 13.0335,67.3614 13.0416,67.0612 13.0254,66.8174 12.9279,66.5657 12.8223,66.3381 12.6679,66.1026 12.473,65.8264 12.278,65.6886 12.0669,65.5826 11.8232,65.5179 11.5388,65.5257 11.2302,65.6233 11.0271,65.7857 10.889,65.948 10.7428,66.1757 10.6941,66.4273 10.6616,66.7527 10.7022,66.9959 10.7591,67.3212 10.7916,67.5729 10.7916,67.776 10.7509,68.0036 10.6697,68.1169 10.4829,68.2798 10.296,68.2798 10.1011,68.2307 9.898,68.0522 9.7843,67.7436 9.7599,67.3943 9.7762,66.9797 9.8168,66.3704 9.1507,66.2326 9.0938,66.5496 9.0938,66.8743 9.0776,67.2559 9.0776,67.5567 9.1264,67.8976 9.2401,68.2469 9.3944,68.4991 9.5975,68.7022 9.8006,68.8238 10.0768,68.9454 10.3773,69.0677 10.6372,69.0677 10.8647,69.0515 11.1084,68.9538 11.287,68.7346 11.4577,68.3853 11.5551,68.1007 11.5795,67.7844 11.547,67.3781 11.4658,67.0528 11.4495,66.8012 11.4495,66.5496 11.5145,66.3626 11.6769,66.2734 11.8557,66.2734 12.0344,66.3542 12.1806,66.525 12.335,66.7688 12.3918,66.9552 12.3999,67.1583 12.3755,67.3536 12.3187,67.5321 "/>
   <polygon id="_174337560" class="fil0" points="10.8363,59.6405 11.4959,62.4773 10.8758,62.6091 10.5723,61.5799 7.6302,62.3324 7.4719,61.6458 10.4404,60.8939 10.2162,59.7987 "/>
   <polygon id="_174337080" class="fil0" points="10.5592,58.6244 10.6647,59.4296 7.0629,60.0629 6.9045,59.2583 "/>
   <polygon id="_174336696" class="fil0" points="10.4141,58.4399 10.3613,57.688 7.7753,57.1997 10.137,56.0386 10.1238,55.2471 6.6143,56.8833 6.6407,57.7011 "/>
   <polygon id="_174336096" class="fil0" points="6.4295,54.4293 10.137,54.3628 10.1238,55.0758 6.456,55.1549 "/>
   <polygon id="_174252344" class="fil0" points="8.8321,53.5612 9.0679,54.1172 9.3131,54.0327 9.53,53.9195 9.7187,53.7685 9.9639,53.4947 10.1053,53.1646 10.1808,52.8159 10.1808,52.3726 10.1147,52.0802 9.9733,51.656 9.7941,51.3732 9.596,51.1653 9.332,50.9389 8.9736,50.7693 8.5869,50.6561 8.1814,50.6561 7.7852,50.6842 7.4835,50.7789 7.0685,50.9203 6.8516,51.0713 6.6441,51.2127 6.4555,51.42 6.3423,51.6087 6.248,51.8537 6.1537,52.3258 6.1442,52.5894 6.182,52.8722 6.2385,53.0801 6.3895,53.3629 6.5781,53.5612 7.21,54.1927 7.5401,53.608 7.3043,53.448 7.0402,53.2215 6.8516,52.9477 6.8044,52.6553 6.8044,52.3258 6.9365,52.0335 7.1439,51.7782 7.4174,51.5614 7.6721,51.4673 7.955,51.4014 8.2191,51.4014 8.5398,51.4391 8.917,51.5428 9.1717,51.6938 9.3131,51.8915 9.4263,52.1653 9.464,52.4385 9.4828,52.6841 9.4452,52.901 9.332,53.0987 9.1999,53.2688 "/>
   <polygon id="_174251744" class="fil0" points="10.4647,45.5594 10.4062,46.4958 6.7057,45.9835 6.7788,45.0771 "/>
   <polygon id="_174342664" class="fil0" points="7.2615,42.2396 7.3932,41.42 11.1521,42.2396 11.0351,43.0437 8.5048,44.0675 10.6402,44.4336 10.5525,45.2233 6.8666,44.6086 6.9251,43.8776 9.5579,42.7657 "/>
   <polygon id="_174341984" class="fil0" points="8.3439,37.358 12.2395,38.3873 11.9588,39.5106 9.7594,39.534 11.561,40.8209 11.2919,41.8268 7.5133,40.9144 7.6654,40.1187 9.619,40.4932 7.8759,39.5106 8.0514,38.7617 10.1688,38.6797 8.145,38.0949 "/>
   <polygon id="_174341616" class="fil0" points="9.1959,49.0504 9.5121,49.5417 9.7053,49.4189 9.9249,49.226 10.0654,48.9887 10.2147,48.7341 10.3377,48.4088 10.3641,48.1368 10.3728,47.8115 10.3202,47.5305 10.2411,47.2231 10.083,46.9331 9.881,46.7576 9.5999,46.6174 9.3803,46.5383 9.0993,46.5467 8.8622,46.6701 8.5899,46.9068 8.4317,47.2057 8.3,47.4957 8.1507,47.9522 8.0804,48.1895 8.0013,48.3824 7.8696,48.5496 7.6852,48.646 7.492,48.7077 7.2723,48.6634 7.1582,48.5142 7.0616,48.3297 7.0352,48.1278 7.0352,47.9169 7.0528,47.6976 7.1494,47.4514 7.3251,47.1704 7.5007,46.863 7.6237,46.7139 7.1582,46.1866 7.0176,46.3364 6.842,46.5467 6.6839,46.7929 6.5521,47.0038 6.4467,47.2848 6.3677,47.5484 6.3346,47.8043 6.3404,48.1524 6.381,48.3836 6.4678,48.6562 6.6011,48.8761 6.7575,49.0966 6.9951,49.3224 7.2731,49.4554 7.557,49.5016 7.7945,49.5076 8.0494,49.4321 8.229,49.2817 8.3854,49.0672 8.565,48.83 8.6461,48.546 8.7735,48.2332 8.872,47.9726 9.0227,47.6773 9.1675,47.4915 9.3413,47.4047 9.4977,47.416 9.6136,47.555 9.7121,47.7468 9.7526,48.0301 9.7236,48.262 9.6368,48.5346 9.5093,48.7083 "/>
   <polygon id="_172757320" class="fil0" points="12.6341,37.1273 12.8808,36.7463 13.0714,36.2754 13.105,35.883 13.0602,35.4791 12.9032,35.064 12.5892,34.638 12.2641,34.3019 11.8604,34.1 11.3895,33.9544 10.8961,33.9095 10.3803,33.9652 9.9094,34.1335 9.5506,34.4025 9.2703,34.7842 9.046,35.1874 8.9899,35.6583 9.0124,36.0064 9.1469,36.4545 9.3712,36.8583 9.7412,37.228 10.0552,37.4634 10.414,37.5982 10.7952,37.6546 11.2437,37.6881 11.6586,37.621 11.995,37.5869 12.2753,37.4299 "/>
   <polygon id="_172756936" class="fil1" points="12.0615,36.6564 12.2453,36.4228 12.3206,36.1382 12.3206,35.8626 12.2286,35.5199 12.0196,35.2185 11.7187,34.9849 11.3508,34.8255 10.983,34.7758 10.6236,34.7674 10.3142,34.8674 10.0551,35.0262 9.8712,35.2856 9.7959,35.5696 9.7959,35.8542 9.7959,36.0633 9.9799,36.3473 10.1554,36.5312 10.4229,36.7067 10.7323,36.832 10.9914,36.9075 11.2924,36.9158 11.5432,36.9158 11.7856,36.8236 "/>
   <polygon id="_175252176" class="fil0" points="23.811,21.9925 23.8299,21.8227 23.7235,21.6731 23.5397,21.4722 23.045,21.0268 22.4031,20.4039 21.9017,19.7809 21.0994,18.8466 20.1702,17.805 20.0465,17.7648 19.9529,17.7983 19.154,18.5552 19.1406,18.7428 19.3245,18.9102 19.9529,19.4594 20.3941,19.9584 20.9624,20.5914 21.4939,21.1942 22.0354,21.8071 22.1391,22.0014 22.1725,22.1119 22.1725,22.3463 22.1089,22.4937 21.9151,22.7783 21.6075,23.14 21.4237,23.3008 21.1997,23.4214 20.9089,23.5218 20.6549,23.552 20.2638,23.552 20.0097,23.4716 19.8627,23.4012 19.6119,23.2506 19.4047,23.1099 19.2409,22.9726 18.9835,22.7381 18.7896,22.5439 18.6058,22.3229 18.3918,22.0817 17.984,21.5492 17.6731,21.1909 17.2921,20.6952 17.1651,20.6852 17.0714,20.7254 16.8408,20.9129 16.3628,21.4053 16.3628,21.509 16.5467,21.7569 17.1617,22.4401 17.8737,23.2036 18.5222,23.9002 18.9066,24.2553 19.1105,24.4227 19.3512,24.56 19.6153,24.6772 19.9696,24.7676 20.3106,24.8179 20.7552,24.8279 21.0092,24.7811 21.3635,24.6203 21.7212,24.3323 21.9853,24.0543 22.2661,23.7596 22.6338,23.3209 22.8711,23.0027 23.5664,22.2325 "/>
   <polygon id="_175225656" class="fil0" points="24.5333,21.4582 25.1441,20.9716 25.3926,20.7749 25.434,20.6402 25.3201,20.4953 25.0613,20.2572 24.6264,19.8638 24.2745,19.4911 23.881,19.0148 23.5187,18.5282 23.1771,17.9485 22.9907,17.5757 22.8768,17.2341 22.8147,16.7268 22.9182,16.4162 23.2081,16.0745 23.4359,15.795 23.85,15.6086 24.3055,15.5776 24.8025,15.7018 25.258,15.971 25.5583,16.2402 25.8481,16.5715 26.0655,16.8821 26.3244,17.3169 26.5521,17.7932 26.7799,18.2901 26.9145,18.6731 26.987,19.0666 27.0905,19.2633 27.2458,19.2944 27.4529,19.1494 28.1571,18.604 28.1415,18.4776 27.9933,18.1336 27.6975,17.4587 27.4155,16.8117 27.226,16.4419 26.9302,15.9797 26.4079,15.254 26.0104,14.8426 25.71,14.6347 25.3356,14.5145 24.9982,14.4728 24.6284,14.4359 24.3048,14.4452 24.0599,14.4867 23.5746,14.6393 23.3065,14.7825 23.0245,14.9998 22.322,15.7162 22.0077,16.0721 21.6148,16.428 21.4253,16.5621 20.9076,16.9457 20.8799,17.1029 20.9585,17.223 21.4345,17.7407 22.1417,18.5403 22.8212,19.3215 23.214,19.8299 23.4867,20.2089 24.0368,21.0455 24.2956,21.443 24.3834,21.5216 "/>
   <polygon id="_175225480" class="fil0" points="27.7602,16.2936 27.1265,15.1319 26.5985,14.2719 26.161,13.593 25.8743,13.2309 25.8871,13.1032 26.4469,12.7353 26.9029,12.5113 27.0548,12.5113 27.1268,12.6713 27.2388,13.0552 27.4227,13.5111 27.9266,14.4789 28.2466,15.0468 28.6865,15.8067 29.2784,16.6225 29.6783,17.1104 29.8703,17.3263 29.8622,17.5263 29.8063,17.6143 29.4703,17.7983 28.8145,18.2142 28.6385,18.2142 28.5505,18.0622 28.3905,17.5903 28.1106,16.9824 "/>
   <polygon id="_175034592" class="fil0" points="30.9635,13.9106 30.668,13.7101 30.2249,13.2669 29.7816,12.8131 29.3912,12.3489 28.9163,11.7474 28.7264,11.5363 28.5729,11.509 28.1427,11.7958 27.7075,12.0569 27.4259,12.2412 27.4412,12.3693 27.6409,12.5741 28.0045,12.8403 28.4756,13.209 28.962,13.5879 29.5304,14.0693 30.0527,14.5352 30.4265,14.9346 30.8771,15.3647 31.3789,15.8768 31.6707,16.1328 31.9626,16.3837 32.0753,16.44 32.1572,16.4042 32.1981,16.2915 32.2186,16.1021 32.2186,15.3596 32.2135,13.6904 32.2135,11.975 32.2238,10.6539 32.2238,10.2033 32.1521,10.1009 32.0548,10.0497 31.9165,10.065 31.7117,10.1521 30.8976,10.572 30.831,10.6795 30.9897,10.9509 31.2406,11.4732 31.3123,11.8009 31.3584,12.231 31.4045,12.6509 31.4045,13.4036 31.3482,13.8388 31.256,13.9515 31.1331,13.9771 "/>
   <polygon id="_175224928" class="fil0" points="37.019,10.4862 36.4601,10.8355 35.8935,11.0994 35.226,11.3478 34.7525,11.472 34.3799,11.5263 34.2325,11.503 34.116,11.34 34.0307,11.1227 33.9919,10.8122 33.9996,10.4319 34.0695,10.1447 34.2325,9.9274 34.4498,9.7334 34.7059,9.5781 35.0552,9.485 35.4278,9.3996 35.8625,9.3763 36.5222,9.4229 36.5843,9.353 36.5455,9.0813 36.266,8.2975 36.1574,8.2276 35.9245,8.2975 34.9698,8.6312 34.3256,8.9184 33.922,9.1667 33.6348,9.4229 33.3865,9.7334 33.1924,10.0127 33.0217,10.3388 32.8431,10.7734 32.7966,11.1149 32.7966,11.5651 32.7966,11.8445 32.8431,12.1162 32.9363,12.512 33.0372,12.838 33.1769,13.1485 33.4097,13.5521 33.6503,13.8626 33.9298,14.1187 34.2092,14.3361 34.5197,14.4758 34.8146,14.5378 35.2571,14.6465 35.5675,14.6853 35.9711,14.6931 36.3126,14.6698 36.6929,14.5534 37.0577,14.4059 37.4225,14.2662 37.8417,14.0488 38.0823,13.9246 38.253,13.7772 38.3695,13.5909 38.1444,12.6906 38.0279,12.6362 37.9115,12.7604 37.6631,12.9932 37.407,13.2028 37.0655,13.4512 36.6619,13.6763 36.4291,13.7849 36.1418,13.8315 35.8469,13.8393 35.4511,13.7462 35.1561,13.5987 34.9233,13.4202 34.7137,13.1951 34.543,12.8923 34.5119,12.6983 34.5197,12.512 34.737,12.3568 35.2571,12.1472 36.1031,11.8135 36.5688,11.6427 36.8326,11.6039 37.2052,11.5651 37.3449,11.5418 37.4769,11.4176 37.3968,11.12 37.2068,10.6202 37.1082,10.4654 "/>
   <polygon id="_172557192" class="fil0" points="39.5072,10.8808 39.437,10.5873 39.3628,10.2772 39.2431,9.8184 39.1276,9.3223 38.9831,8.7312 38.9295,8.4749 38.9666,8.3136 39.0821,8.1896 39.3091,8.078 39.4741,8.0573 39.6557,8.0573 39.8744,8.0821 40.0848,8.1772 40.2499,8.2971 40.4108,8.4542 40.5346,8.6526 40.6047,8.8593 40.6419,9.0784 40.6625,9.2892 40.6542,9.5455 40.5805,9.7567 40.4759,9.9326 40.3311,10.0855 40.0534,10.343 39.6671,10.5805 39.4628,10.695 39.4782,10.7595 39.5705,10.7213 39.7878,10.7092 40.0454,10.7776 40.3391,10.9345 40.7335,11.2243 41.2405,11.6227 41.5343,11.9366 41.6872,12.1056 41.8803,12.3712 42.0252,12.6327 42.1339,12.8219 42.661,12.7856 42.9065,12.7535 43.2888,12.7052 43.49,12.6327 43.4658,12.5039 43.3371,12.3229 42.8944,11.7193 42.5001,11.3128 42.2143,11.0634 41.8562,10.7615 41.6188,10.5845 41.3371,10.3632 41.3371,10.2424 41.4739,10.0774 41.651,9.8601 41.8039,9.6549 41.9166,9.4577 41.997,9.2404 42.0132,8.999 41.9729,8.6488 41.9085,8.3913 41.7838,8.1378 41.651,7.9326 41.4779,7.7596 41.2566,7.5543 41.0393,7.4256 40.8059,7.349 40.5323,7.3169 39.9045,7.3088 39.6027,7.3249 39.3773,7.341 39.148,7.3853 38.8632,7.4408 38.5147,7.5475 38.0357,7.7454 37.7915,7.8198 37.4624,7.8544 37.3563,7.8996 37.3589,8.0033 37.4571,8.2293 37.55,8.5059 37.6668,8.801 37.8101,9.1068 37.956,9.527 38.0781,9.9019 38.2188,10.3911 38.325,10.8937 38.4232,11.3829 38.5373,11.9706 38.6329,12.7497 38.6992,13.3772 38.7443,13.4836 39.0496,13.4969 39.4662,13.4516 39.9041,13.3799 40.1271,13.2602 40.1828,13.1831 40.1616,12.8932 40.0289,12.5715 39.9201,12.2524 39.8006,11.8642 39.6063,11.1822 "/>
   <polygon id="_172895136" class="fil0" points="46.6747,7.5804 46.6992,7.3473 46.687,6.8932 46.6379,6.5251 46.5973,6.4675 45.9201,6.3818 45.3565,6.357 44.7166,6.3463 44.4384,6.3943 44.0378,6.5115 43.6887,6.7103 43.4778,6.8844 43.2793,7.0867 43.1091,7.3815 43.0436,7.6284 43.0081,7.8716 43.0223,8.3635 43.095,8.6547 43.2191,8.9317 43.3644,9.0897 43.6409,9.3188 44.0503,9.5709 44.4313,9.7361 44.7734,9.8177 45.1261,9.8728 45.7429,10.0166 46.1983,10.132 46.4713,10.37 46.6326,10.6346 46.6344,10.8459 46.4624,11.1353 46.0849,11.4034 45.7765,11.5189 45.4195,11.5615 45.1062,11.5435 44.7526,11.4897 44.4527,11.3956 44.2379,11.3014 43.9604,11.1713 43.8216,11.0951 43.7187,11.0951 43.6426,11.1803 43.6068,11.3283 43.5888,11.7991 43.5799,12.3731 43.656,12.4494 43.8574,12.4897 44.296,12.5032 44.7302,12.5211 45.3121,12.5301 45.8179,12.4404 46.3102,12.3104 46.6146,12.1668 46.9413,11.9605 47.2099,11.7229 47.362,11.5301 47.474,11.3014 47.5321,11.0906 47.5814,10.844 47.5769,10.427 47.5276,10.1175 47.4113,9.7095 47.2725,9.436 47.1159,9.2386 46.7488,8.9561 46.5117,8.8216 46.1312,8.7005 45.7015,8.6288 44.9988,8.5122 44.587,8.4135 44.3856,8.3194 44.2603,8.1803 44.1663,7.992 44.1394,7.7499 44.1573,7.5391 44.2468,7.3956 44.3766,7.27 44.5825,7.1938 44.8466,7.1803 45.0838,7.1983 45.3748,7.2566 45.6254,7.2925 45.8581,7.3687 46.073,7.4763 46.3192,7.5974 46.4848,7.6781 46.6325,7.6826 "/>
   <polygon id="_172895032" class="fil0" points="48.0811,6.3129 49.1744,6.2162 49.2711,6.2682 49.2413,7.012 49.2042,8.031 49.2042,10.3218 49.2859,11.5044 49.3604,11.9507 49.2637,12.0846 48.9661,12.1218 48.2,12.0771 48.1257,11.9879 48.1108,11.4301 48.1108,9.9946 48.1703,9.0053 48.1257,7.9045 48.0141,6.5435 48.0141,6.4393 "/>
   <polygon id="_172894720" class="fil0" points="71.7536,12.8961 71.9609,12.7098 72.1472,12.3992 72.3228,12.1922 72.2299,11.9954 71.8674,11.6952 71.505,11.4467 70.946,11.1361 70.4595,10.9912 70.0461,10.9436 69.4943,10.8716 68.9983,10.8796 68.4543,11.0636 67.9348,11.3115 67.5106,11.6075 67.159,11.9994 66.9271,12.3273 66.7587,12.6952 66.615,13.1512 66.5826,13.5591 66.5826,14.087 66.6311,14.4869 66.6869,14.9668 66.9271,15.5587 67.247,16.0146 67.6389,16.3825 68.1505,16.7264 68.6142,17.0144 69.0384,17.2384 69.3745,17.3663 69.7262,17.3743 70.0144,17.0144 70.3181,16.5345 70.3103,16.4545 70.1821,16.3745 69.8304,16.3585 69.4464,16.3665 68.9581,16.2546 68.6142,16.0706 68.3422,15.8466 68.1343,15.6467 67.9426,15.3428 67.8228,15.0468 67.7749,14.7668 67.7665,14.4469 67.7904,14.1909 67.8384,13.983 67.9426,13.807 68.1906,13.7511 68.3908,13.775 68.7263,13.967 69.2541,14.295 69.6944,14.5349 69.9341,14.6949 70.1342,14.8708 70.3661,15.1268 70.4703,15.2068 70.6063,15.2547 70.6938,15.2068 70.822,15.0308 71.0383,14.7429 71.1982,14.4309 71.2222,14.3189 71.1659,14.231 70.958,14.167 70.5662,14.127 70.3181,14.031 69.9904,13.887 69.3505,13.5751 68.8383,13.2551 68.5507,13.0392 68.4626,12.8472 68.5184,12.6073 68.5903,12.4153 68.7346,12.2153 68.9186,12.0714 69.142,11.8954 69.3985,11.7834 69.6783,11.7354 69.9263,11.7435 70.1504,11.7915 70.4302,11.8874 70.6219,11.9674 70.8298,12.0714 71.0221,12.1674 71.2138,12.3353 71.3816,12.5433 71.478,12.7272 71.6056,12.8872 "/>
   <polygon id="_172894408" class="fil0" points="72.8129,19.2032 73.0124,18.9179 73.255,18.4186 73.5971,17.8053 74.0249,17.1776 74.3532,16.7639 74.7241,16.2646 75.0805,15.8652 75.4945,15.5799 75.9223,15.4943 76.3075,15.5086 76.8066,15.7796 77.2062,16.0935 77.3919,16.45 77.4345,17.0064 77.4345,17.52 77.3063,17.9194 77.0636,18.3759 76.7784,18.6897 76.3932,19.0749 75.8798,19.5456 75.4088,19.9308 74.9667,20.2303 74.5958,20.4728 74.5245,20.644 74.6671,20.8722 75.0524,21.2574 75.2944,21.4571 75.5089,21.4143 75.7318,21.2563 76.0697,20.9254 77.0271,19.947 77.5968,19.3627 77.8646,19.0601 78.0965,18.7363 78.2589,18.4829 78.3643,18.1239 78.4134,17.8845 78.4416,17.6382 78.435,17.0751 78.3787,16.7865 78.2661,16.526 78.0827,16.2163 77.8928,15.9207 77.6322,15.625 77.3506,15.3505 77.0762,15.1675 76.8084,14.9985 76.5556,14.8648 76.2386,14.7381 75.978,14.5762 75.7527,14.4425 75.5137,14.2664 75.3795,14.0835 75.1758,13.9638 74.9643,13.8511 74.8379,13.8511 74.6198,14.2313 74.352,14.7451 73.9859,15.442 73.6408,15.9629 73.2538,16.5612 72.8949,17.0821 72.6906,17.3285 72.3318,17.7226 72.0711,18.0112 71.7758,18.2998 71.6769,18.4688 71.7051,18.6237 71.8956,18.8349 72.2754,19.1305 72.5996,19.3839 72.6906,19.3839 "/>
   <polygon id="_173175560" class="fil0" points="82.956,26.2719 82.9176,26.0915 83.0848,25.7315 83.3807,25.1779 83.8181,24.5473 84.2561,23.9296 84.5005,23.5306 84.7707,23.3118 84.9768,23.2475 84.9253,23.0673 84.7192,22.7713 83.9343,21.9219 83.7923,21.9091 83.5868,22.1664 83.2519,22.8743 82.6983,24.1226 82.0291,25.3965 81.5534,26.2461 81.0256,27.1082 81.0124,27.2628 81.7589,27.1855 83.059,27.0567 83.9984,26.9285 85.4142,26.6709 86.2763,26.5037 86.6495,26.4264 87.0228,26.2203 87.0617,25.9759 86.8814,25.641 86.3278,24.9205 86.1475,25.0235 85.9546,25.2552 85.7227,25.5128 85.3495,25.7057 84.951,25.8603 84.3585,26.0274 83.6893,26.2078 "/>
   <polygon id="_173175248" class="fil0" points="90.3299,50.4722 90.273,50.187 90.2161,49.2452 90.2161,48.7461 90.4156,48.4753 90.8865,48.3183 91.4713,48.2183 92.1986,48.1044 92.8552,48.0469 94.0816,48.0613 94.7808,48.0613 94.894,47.9451 94.8737,47.1356 94.8455,46.7534 94.749,46.7007 94.4351,46.7534 93.8641,46.8696 93.2399,46.9787 92.1537,47.1117 91.7229,47.1237 90.862,47.1758 90.1376,47.2279 89.5583,47.2561 89.2887,47.3609 89.2845,47.7473 89.3084,48.0409 89.3731,48.4915 89.3971,49.2481 89.4091,50.3308 89.4091,50.8418 89.4612,50.9988 89.5984,51.0311 90.0166,51.0185 90.3952,51.0108 90.4552,50.9503 90.4635,50.7693 90.4474,50.6082 "/>
   <polygon id="_173174936" class="fil0" points="50.1136,11.8928 50.2719,11.5366 50.3247,11.154 50.3907,10.7186 50.3775,10.2173 50.3775,9.2937 50.3643,7.6049 50.3379,7.0112 50.2851,6.7341 50.1532,6.5099 50.14,6.3515 50.3511,6.2064 50.7073,6.1932 51.1823,6.18 51.6573,6.1668 52.6602,6.1668 53.1743,6.2328 53.7285,6.3911 54.2168,6.5494 54.6128,6.8397 55.0609,7.2619 55.3251,7.6709 55.5097,8.0271 55.6415,8.5548 55.6415,9.0562 55.6019,9.5312 55.536,9.9006 55.4174,10.3624 55.2329,10.8241 54.8764,11.3255 54.5732,11.6026 54.2299,11.8665 53.8207,12.0775 53.4121,12.1963 53.0557,12.2095 52.5806,12.2359 52.0006,12.2227 51.4726,12.1831 50.892,12.1831 50.3775,12.1567 50.206,12.0907 "/>
   <polygon id="_175260080" class="fil1" points="51.5651,10.7186 51.5782,9.2805 51.5914,8.2646 51.631,7.6181 51.7364,7.3015 51.9737,7.1299 52.2774,7.0244 52.6866,7.0244 53.2138,7.1827 53.5571,7.3806 53.8207,7.6049 54.1509,8.0667 54.2827,8.3965 54.3617,8.7528 54.4013,9.2409 54.3354,9.7423 54.2299,10.1381 54.0191,10.5867 53.7021,10.9561 53.2803,11.2463 52.8975,11.431 52.6075,11.4443 52.0929,11.3783 51.7628,11.1936 51.6178,10.9165 "/>
   <polygon id="_173643304" class="fil0" points="60.1582,13.1765 59.903,11.6839 59.7395,10.6828 59.6304,9.9547 59.5393,9.2084 59.5208,8.4621 59.5753,8.1163 59.8305,8.0981 60.2673,8.1891 60.595,8.2073 60.8131,8.1527 61.0371,7.9714 61.1054,7.8228 61.1054,7.582 60.9796,7.456 60.6759,7.433 60.2116,7.4044 59.6328,7.2955 59.0481,7.1809 57.2657,6.86 56.7211,6.7396 56.3946,6.7396 56.2687,6.8313 55.9991,7.1694 55.8787,7.3471 55.8272,7.5018 56.0854,7.5248 56.4581,7.4732 56.8415,7.5133 57.0997,7.5706 57.3861,7.6279 57.5467,7.7082 57.6443,7.8972 57.5868,8.1036 57.4262,8.4302 57.2944,8.6537 56.9104,9.2498 56.0339,10.4819 55.4036,11.353 54.9333,12.0522 54.8878,12.184 54.9393,12.2585 55.0879,12.3216 55.3862,12.396 55.7589,12.482 55.9991,12.4992 56.1483,12.4304 56.2628,12.27 56.4862,11.8172 56.6642,11.4562 56.8475,11.1295 56.9565,10.9289 57.0937,10.8544 57.3807,10.8888 57.8846,10.9748 58.389,11.0779 58.5268,11.1238 58.67,11.2384 58.7389,11.4963 58.7617,11.8974 58.8995,12.9806 58.9738,13.0952 60.1259,13.4104 60.2176,13.3703 "/>
   <polygon id="_173643112" class="fil1" points="58.5214,10.315 58.4681,9.9009 58.3812,9.4869 58.2141,9.0195 58.1272,9.0262 57.9535,9.2532 57.6066,9.714 57.4526,10.0011 57.446,10.1881 57.733,10.2883 57.9271,10.335 58.2878,10.3951 58.4346,10.4152 58.528,10.3817 "/>
   <polygon id="_173271656" class="fil0" points="62.245,7.7472 62.7776,7.9014 63.478,8.1256 64.137,8.2938 64.7253,8.4901 65.2999,8.7984 65.7768,9.1909 66.1548,9.6394 66.4915,10.214 66.6455,10.7045 66.7018,11.2652 66.5479,12.0641 66.3513,12.7929 66.0009,13.3956 65.4682,13.8441 64.9075,14.1945 64.2071,14.3767 63.6044,14.4188 62.8471,14.3347 62.0065,14.1104 60.5345,13.5918 60.4925,13.4517 60.5489,13.1714 60.7172,12.863 60.885,12.5827 61.2355,11.8398 61.5296,10.9568 61.8663,9.9197 62.0347,9.0507 62.1186,8.3779 62.1467,7.9154 "/>
   <polygon id="_173271344" class="fil1" points="64.5252,9.3073 64.9428,9.5965 65.2322,9.9099 65.473,10.4001 65.5533,10.9948 65.5132,11.4689 65.3604,12.0153 65.1681,12.5135 64.8062,13.0439 64.533,13.3171 64.2035,13.502 63.7775,13.5743 63.4079,13.5501 63.0706,13.4457 62.6284,13.2769 62.3235,13.1484 62.1707,12.9957 62.1305,12.7867 62.1946,12.393 62.3636,11.8626 62.5403,11.3403 62.7488,10.6733 62.9819,10.0224 63.1269,9.693 63.2713,9.4037 63.424,9.259 63.6331,9.1546 63.8902,9.1305 64.1394,9.1305 64.3401,9.2269 "/>
   <polygon id="_175211224" class="fil0" points="81.6469,24.2741 82.0393,23.9621 82.5336,23.3516 82.8859,22.4636 82.908,21.3708 82.8541,21.0759 82.7954,20.83 82.6738,20.4855 82.4419,20.0124 81.95,19.5103 81.3995,19.124 80.6368,18.8537 79.816,18.7958 78.8987,19.0178 78.1936,19.3461 77.7209,19.742 77.238,20.3889 76.9384,21.0938 76.8611,21.7696 76.9192,22.6097 77.1319,23.1793 77.489,23.8262 77.9623,24.2994 78.5512,24.618 79.0821,24.7821 79.6033,24.8497 80.2503,24.8111 80.8201,24.6759 81.2353,24.5214 "/>
   <polygon id="_175210608" class="fil1" points="78.1486,22.9001 78.1265,22.2071 78.193,21.646 78.3577,21.206 78.5668,20.81 78.8526,20.4249 79.139,20.1279 79.4577,19.9299 79.9196,19.7759 80.2935,19.7208 80.7009,19.7759 81.0418,19.8859 81.3497,20.0839 81.6361,20.4249 81.7787,20.7109 81.8452,21.063 81.823,21.492 81.735,21.8771 81.5702,22.3611 81.2952,22.7131 81.0196,23.0431 80.6236,23.4061 80.0736,23.7032 79.7105,23.8022 79.3696,23.8352 78.9628,23.8022 78.6764,23.6152 78.3907,23.3511 78.2259,23.0871 "/>
   <polygon id="_173821272" class="fil0" points="89.5726,30.144 89.1503,29.4047 88.8034,28.7858 88.366,27.9865 88.0341,27.3677 87.7322,26.7494 87.5812,26.5079 87.3397,26.4324 87.0072,26.5127 86.743,26.6002 86.6513,26.726 86.7095,26.8991 87.0995,27.4773 87.2511,27.7301 87.2295,27.8967 87.1648,27.9835 86.507,28.1136 85.5675,28.2795 84.2165,28.4167 82.3305,28.5683 82.222,28.648 82.3017,28.9008 82.6193,29.6162 82.7133,29.7102 83.0315,29.6671 83.4796,29.5586 83.8624,29.4718 84.3106,29.3561 84.585,29.3993 84.7437,29.4718 84.9391,29.739 85.416,30.4687 85.4741,30.6928 85.4447,30.9168 85.2572,31.1553 84.9534,31.5022 84.679,31.7987 84.3968,32.0947 84.325,32.3116 84.4837,32.5932 84.7581,33.1426 84.9247,33.4314 85.0038,33.4751 85.1487,33.3307 85.3944,33.0198 85.8275,32.3619 86.2397,31.8131 86.5435,31.3866 86.8107,31.0325 87.0995,30.7 87.3667,30.4471 87.6201,30.2015 87.9886,29.8402 88.227,29.6233 88.3427,29.5874 88.4511,29.7971 88.6967,30.274 88.8483,30.5484 89.094,30.5628 89.5565,30.3752 89.629,30.2956 "/>
   <polygon id="_174886736" class="fil1" points="85.6035,29.4262 85.5933,29.2693 85.7149,29.1524 85.9228,29.0817 86.1966,29.0104 86.4908,28.9445 86.6987,28.914 86.8305,28.914 87.0084,28.9547 87.0282,29.0913 86.9575,29.2944 86.8508,29.4819 86.6987,29.6395 86.344,29.9636 86.1205,30.1464 86.0396,30.1464 85.8623,29.9127 85.7251,29.6545 "/>
   <polygon id="_174886648" class="fil0" points="90.5786,33.3852 89.4966,33.8957 88.925,34.1767 88.0629,34.5373 87.2624,34.8627 86.6645,35.0825 86.1451,35.2587 85.8114,35.3294 85.7934,35.5492 86.1367,36.4725 86.6382,37.5899 86.8754,38.0116 87.3062,38.6365 87.5788,38.9001 87.9311,39.129 88.3265,39.2698 88.7842,39.3662 89.2503,39.3842 89.6811,39.3579 90.1125,39.2872 90.5606,39.1554 90.9566,38.9091 91.3095,38.6359 91.5462,38.4077 91.7037,38.2339 91.9008,37.9272 92.0686,37.597 92.1614,37.2723 92.1962,36.9596 92.2016,36.4905 92.1381,36.1544 91.9643,35.5636 91.7499,34.9843 91.4659,34.2773 91.1825,33.6345 90.968,33.2636 90.8518,33.1647 90.7649,33.2055 "/>
   <polygon id="_173221184" class="fil1" points="87.2559,36.1831 87.9179,35.856 88.5128,35.5654 89.0928,35.2683 89.4942,35.0969 90.149,34.8369 90.439,34.7177 90.6103,34.7177 90.8182,34.9112 90.9746,35.2012 91.1453,35.5732 91.2124,35.8704 91.2574,36.1753 91.2346,36.4731 91.1232,36.9566 91.0417,37.2094 90.9225,37.3802 90.7811,37.5964 90.6475,37.7151 90.454,37.9158 90.179,38.065 89.8662,38.1836 89.4798,38.2507 89.0856,38.3028 88.7357,38.2878 88.4014,38.2285 88.1036,38.0871 87.8136,37.8637 87.5087,37.4772 87.3523,37.1872 87.2187,36.8002 87.1216,36.5624 87.0995,36.3688 87.1588,36.2646 "/>
   <polygon id="_173220872" class="fil0" points="94.1769,43.4061 94.111,42.7129 94.0229,42.1408 93.803,41.4476 93.5718,40.9419 93.2417,40.4686 92.8678,40.0948 92.34,39.8084 91.7457,39.6215 91.2616,39.5556 90.7775,39.5777 90.2167,39.6874 89.6116,39.8965 89.1718,40.1936 88.7644,40.5567 88.4894,41.0408 88.2474,41.6896 88.2144,42.251 88.2474,42.8891 88.3133,43.2959 88.4343,43.8459 88.5553,44.297 88.6434,44.6822 88.7974,44.8362 89.0946,44.8033 89.4906,44.7589 89.8758,44.6822 89.8974,44.5277 89.6667,44.297 89.3803,44.0106 89.1934,43.4606 89.0173,42.8891 88.9957,42.4158 89.0946,42.009 89.3036,41.6237 89.5127,41.3709 89.7764,41.1948 90.0076,41.063 90.2604,41.0516 90.4809,41.2607 90.5354,41.6129 90.6457,42.13 90.6786,42.4158 90.6786,42.8118 90.7008,43.505 90.7445,43.8902 90.8769,43.9998 91.3275,43.9669 91.7127,43.9447 91.9218,43.868 91.9548,43.7141 91.8559,43.4828 91.6139,43.0101 91.482,42.5476 91.394,42.0198 91.3167,41.4146 91.3059,41.0186 91.4485,40.8425 91.8445,40.7874 92.1309,40.7987 92.5047,40.9306 92.769,41.1396 92.9559,41.4368 93.1099,41.7555 93.2201,42.0857 93.2968,42.405 93.3297,42.8226 93.2968,43.076 93.2309,43.2851 93.2309,43.4936 93.2968,43.6589 93.5388,43.6919 93.9127,43.6589 94.1661,43.6038 "/>
   <polygon id="_173317800" class="fil0" points="94.5142,58.4243 93.8408,58.3794 93.3471,58.3452 92.8414,58.2781 91.5282,58.0085 90.6978,57.8066 89.463,57.5262 89.0251,57.38 88.9466,57.7395 88.8345,58.2895 88.6883,58.8509 88.4751,59.5357 88.4301,59.9844 88.4415,60.366 88.5535,60.7477 88.7333,61.1742 88.958,61.4325 89.1712,61.6122 89.3959,61.7578 89.7098,61.904 90.0693,61.904 90.451,61.8477 90.7541,61.7129 91.0231,61.4774 91.1693,61.354 91.3377,61.3198 91.4048,61.5445 91.5396,61.859 91.6965,62.0609 91.899,62.2071 92.0896,62.3306 92.3813,62.4204 92.718,62.4654 93.156,62.409 93.6047,62.173 93.8743,61.8477 94.099,61.466 94.368,60.6356 94.4135,60.3433 94.4806,59.8047 94.5591,58.9515 94.5591,58.5585 "/>
   <polygon id="_174896704" class="fil1" points="91.8978,60.0455 91.9416,59.7022 92.1087,59.4733 92.443,59.4032 92.8564,59.447 93.2261,59.5524 93.5868,59.6579 93.7623,59.834 93.7713,60.2474 93.7269,60.5817 93.5868,60.8897 93.3405,61.1269 93.0943,61.215 92.6539,61.215 92.2405,61.0215 92.0824,60.8016 91.9506,60.5643 91.8799,60.2474 "/>
   <polygon id="_175198328" class="fil1" points="89.2329,59.5704 89.2503,59.8166 89.3558,60.0719 89.5403,60.3355 89.8219,60.5643 90.1736,60.6255 90.4731,60.6255 90.7984,60.5116 90.9566,60.3445 91.1064,60.1246 91.2472,59.8514 91.2472,59.6321 91.2472,59.3853 91.0974,59.2187 90.9213,59.1217 90.5258,59.0516 90.1298,58.9635 89.8219,58.9281 89.593,58.9108 89.4085,58.9545 89.3294,59.06 89.2767,59.2625 "/>
   <polygon id="_175258200" class="fil0" points="92.579,66.8102 92.7899,66.3878 92.9163,66.0499 92.9798,65.7018 93.0008,65.2692 92.9906,64.8469 92.8954,64.3724 92.8007,64.0135 92.6108,63.6864 92.2627,63.2957 91.8721,62.9686 91.4814,62.684 90.9536,62.4941 90.5211,62.3779 90.0148,62.3359 89.4343,62.3671 88.9909,62.4725 88.5482,62.6732 88.1467,62.9476 87.7777,63.2748 87.4925,63.6229 87.2181,64.0872 87.018,64.784 86.997,65.2692 86.9755,65.5856 87.0282,65.9552 87.1127,66.2506 87.2289,66.4932 87.3769,66.7676 87.5668,67.0738 87.7459,67.2955 87.9359,67.4956 88.1575,67.7598 88.4421,67.9287 88.759,68.0761 89.0227,68.1606 89.3078,68.2025 89.6242,68.2559 89.8884,68.266 90.2155,68.2768 90.5109,68.2768 90.8482,68.2133 91.207,68.0761 91.5024,67.918 91.8194,67.749 91.9985,67.5699 92.2519,67.3374 92.3891,67.1367 "/>
   <polygon id="_175258056" class="fil1" points="89.8668,63.5282 90.2047,63.5492 90.5636,63.6546 90.8482,63.7708 91.1226,63.8763 91.4179,64.0872 91.7139,64.3298 91.8721,64.5725 92.0302,64.9421 92.0937,65.2902 92.0937,65.6173 92.0937,65.8917 91.9985,66.2506 91.893,66.5142 91.545,66.8623 91.2388,67.0313 90.838,67.1583 90.5109,67.211 90.0256,67.2427 89.5505,67.1367 89.1179,67.0001 88.8537,66.7994 88.5266,66.546 88.263,66.2506 88.0623,65.9445 87.9676,65.6281 87.9466,65.2057 87.9568,64.8367 88.0731,64.4568 88.2102,64.1717 88.4211,63.8973 88.6955,63.6971 89.0862,63.5809 89.487,63.5174 "/>
   <polygon id="_175257952" class="fil0" points="89.3492,73.778 90.0915,72.2436 91.0315,70.5283 91.3448,69.8687 91.3736,69.7081 90.8254,69.2863 90.7056,69.2762 90.6031,69.4751 90.1292,70.3564 90.0693,70.4295 89.8776,70.4295 89.6949,70.2869 89.1916,69.7567 88.0677,68.6267 87.8328,68.269 87.4314,67.7784 86.9443,67.1157 86.6232,66.7245 86.4836,66.6945 86.3446,66.827 86.2224,67.0426 86.0163,67.4141 85.957,67.583 86.0067,67.7023 86.2685,68.0204 86.9443,68.7262 87.0174,68.8783 87.0408,69.0509 86.9874,69.1965 86.8083,69.5014 86.4674,70.0982 86.2847,70.4295 86.1625,70.4894 85.8443,70.4624 84.7935,70.2935 84.5718,70.2707 84.4292,70.4462 84.2537,70.7278 83.9253,71.2545 83.9158,71.3641 83.9984,71.4504 84.2105,71.5097 84.8234,71.5031 85.1817,71.5564 85.7149,71.6589 86.3979,71.7883 87.1204,71.9177 87.6932,72.0201 88.499,72.1861 88.9226,72.3215 89.1515,72.418 89.185,72.5605 89.0952,72.796 88.9196,73.1273 88.6907,73.6078 88.7141,73.7103 88.9328,73.8528 89.1748,73.9853 89.2347,73.9823 "/>
   <polygon id="_175257832" class="fil1" points="89.1107,71.0334 89.0987,70.8782 88.9921,70.6571 88.8327,70.4367 88.3876,70.0406 87.9706,69.6973 87.7052,69.6848 87.5374,69.8891 87.1822,70.5798 87.1983,70.7063 87.317,70.8003 87.701,70.8944 88.0772,70.9639 88.4613,71.0172 88.7758,71.0538 89.0047,71.0663 "/>
   <polygon id="_175108704" class="fil0" points="89.6973,51.2516 90.288,51.2516 90.8662,51.3271 91.3688,51.3397 91.947,51.3648 92.7516,51.3397 93.2045,51.3397 93.7701,51.3271 94.2476,51.2516 94.6502,51.1887 94.9012,51.1887 94.9989,51.2366 95.0342,51.4745 95.0654,51.7902 95.0654,52.1191 95.0522,52.4528 95.0031,52.5595 94.8569,52.5859 94.5681,52.5415 94.0625,52.5014 92.1183,52.5014 90.7649,52.5415 90.028,52.5637 89.5792,52.626 89.4331,52.5415 89.4199,52.0083 89.4289,51.7722 89.451,51.3589 89.5217,51.2564 "/>
   <polygon id="_175198848" class="fil0" points="93.9193,56.5964 94.1056,56.3064 94.3231,55.8924 94.4477,55.4886 94.5094,55.1159 94.4477,54.7846 94.2925,54.5671 94.0229,54.3706 93.7437,54.2772 93.4849,54.2772 93.2566,54.4222 93.0703,54.6606 92.9361,54.9398 92.8115,55.3538 92.6977,55.7995 92.5425,56.1614 92.4185,56.5652 92.2321,56.845 92.035,57.0211 91.6834,57.1865 91.3107,57.2692 90.8859,57.2901 90.6271,57.259 90.2131,57.135 89.8818,56.9379 89.623,56.7 89.4366,56.4202 89.3018,56.1201 89.2294,55.8924 89.1676,55.5922 89.1263,55.2609 89.1365,54.9608 89.1982,54.5671 89.2815,54.1532 89.4055,53.832 89.5301,53.4803 89.6439,53.1904 89.9645,53.1904 90.4096,53.2317 90.6481,53.2419 90.8236,53.4282 90.7721,53.5528 90.5959,53.7182 90.451,53.977 90.2856,54.2568 90.1508,54.6085 90.0681,55.0333 90.0579,55.6857 90.2131,55.9859 90.4408,56.1722 90.7409,56.3064 91.0105,56.286 91.2172,56.1824 91.3934,55.9859 91.497,55.8097 91.621,55.4473 91.7349,55.0848 91.8176,54.681 91.9937,54.2358 92.1183,53.9459 92.4287,53.5942 92.6773,53.418 92.9775,53.2629 93.2566,53.1802 93.6503,53.1802 94.0025,53.2419 94.3027,53.3455 94.5927,53.4905 94.8515,53.7595 95.0378,54.0393 95.2032,54.3191 95.2966,54.6295 95.3272,54.9296 95.317,55.3436 95.2445,55.8301 95.1307,56.1926 95.0169,56.5137 94.8515,56.9073 94.7377,57.0727 94.5717,57.1973 94.2614,57.1661 93.9301,57.0829 93.7952,57.0625 93.6712,56.8863 "/>
  </g>
 </g>
</svg>
