<!-- Generated by IcoMoon.io -->
<svg version="1.1" xmlns="http://www.w3.org/2000/svg" width="32" height="32" viewBox="0 0 32 32">
<title>fct-unl</title>
<path fill="#fefefe" d="M2.048 22.288c0-4.176 0-8.352 0-12.528 0-0.032 0-0.048 0.048-0.048 9.28 0 18.56 0 27.84 0 0.032 0 0.048 0 0.048 0.048 0 4.16 0 8.32 0 12.48 0 0.032 0 0.048-0.048 0.048-9.296 0-18.592 0-27.888 0zM10.816 15.632c0 1.072 0 2.144 0 3.216 0 0.048 0.048 0.096 0.032 0.144 0 0 0 0 0 0 0.032 0 0.016 0.032 0.016 0.048s0 0.032 0 0.032c0.048 0.016 0.032 0.048 0.032 0.080 0.016 0.048 0.032 0.080 0.080 0.112 0 0 0 0 0.016 0.016 0.016 0.080 0.080 0.112 0.128 0.16 0.016 0.016 0.032 0 0.048 0.016 0.016 0.032 0.032 0.048 0.064 0.048 0 0 0.016 0 0.016 0.016 0.016 0.032 0.032 0.032 0.064 0.032 0.016 0 0.032 0 0.032 0 0.032 0.048 0.080 0.048 0.128 0.048 0 0 0.016 0 0.016 0 0.016 0.032 0.048 0.016 0.064 0.016 0.304 0 0.624 0 0.928 0 0.032 0 0.048 0 0.048 0.048 0 0.288 0 0.592 0 0.88 0 0.064 0.032 0.128 0.016 0.192 0 0 0 0.016 0 0.016 0.048 0.016 0 0.080 0.048 0.096-0.016 0.032 0.048 0.048 0.032 0.096 0 0 0.016 0.016 0.016 0.016 0.016 0 0.032 0.016 0.032 0.048 0 0.016 0 0.016 0.016 0.016 0.048 0.032 0.080 0.080 0.112 0.112s0.048 0.064 0.080 0.080c0.032 0.016 0.064 0.048 0.112 0.048 0.048 0.016 0.096 0.048 0.144 0.048 0 0 0.016 0 0.016 0 0 0.032 0.032 0.016 0.048 0.016 0.032 0 0.064-0.016 0.080 0 0.016 0.032 0.048 0.016 0.064 0.016 1.36 0 2.72 0 4.080 0 0.096 0 0.208 0 0.304 0s0.192 0.032 0.288-0.032c0.032-0.016 0.080 0.016 0.112-0.032 0.016-0.016 0.064 0 0.112-0.032s0.112-0.032 0.144-0.080c0.016-0.016 0.032-0.048 0.048-0.048 0.032 0 0.048-0.016 0.064-0.048 0 0 0.016 0 0.016-0.016 0.016-0.016 0.064-0.048 0.064-0.064 0.016-0.064 0.080-0.080 0.080-0.128 0-0.032 0.048-0.064 0.048-0.096s0.016-0.080 0.016-0.096c0.048-0.048 0.016-0.096 0.016-0.128 0-0.016 0-0.032 0-0.032 0.032 0 0.016-0.032 0.016-0.048 0-0.272 0-0.56 0-0.832 0-0.048 0.016-0.048 0.048-0.048 0.304 0 0.624 0 0.928 0 0.016 0 0.032 0 0.048 0 0.016-0.048 0.080 0 0.096-0.048 0.048 0.016 0.080-0.016 0.112-0.032 0.016-0.016 0.048 0 0.064-0.032s0.048-0.064 0.096-0.064c0 0 0.016-0.016 0.032-0.016 0.048-0.048 0.096-0.096 0.128-0.16 0-0.016 0.016 0 0.032-0.016 0.016-0.032 0.016-0.064 0.048-0.096s0.048-0.096 0.048-0.144c0.016-0.064 0.032-0.112 0.032-0.176 0-0.4 0-0.8 0-1.2 0-0.048-0.032-0.096-0.016-0.144 0 0 0 0 0-0.016-0.048-0.016-0.016-0.064-0.048-0.096-0.016-0.016-0.032-0.064-0.048-0.080s0-0.032-0.016-0.048c-0.048-0.032-0.064-0.080-0.096-0.128-0.032-0.032-0.048-0.064-0.080-0.080-0.048-0.016-0.064-0.064-0.112-0.080s-0.080-0.064-0.144-0.064c0 0 0 0-0.016 0-0.032-0.048-0.080-0.032-0.128-0.048-0.24 0-0.496 0-0.736 0s-0.48-0.016-0.72 0.016c-0.048 0-0.064 0.048-0.112 0.032 0 0 0 0 0 0-0.016 0.032-0.080 0.016-0.080 0.064-0.064-0.016-0.080 0.048-0.112 0.064s-0.080 0.064-0.112 0.096c-0.016 0.032-0.032 0.064-0.064 0.080-0.016 0.016-0.016 0.048-0.032 0.064-0.048 0.032-0.048 0.080-0.064 0.128s-0.048 0.080-0.032 0.144c0 0 0 0.016 0 0.016-0.032 0-0.016 0.032-0.016 0.048 0 0.304 0 0.592 0 0.896 0 0.032 0 0.048-0.048 0.048-1.344 0-2.672 0-4.016 0-0.032 0-0.048-0.016-0.048-0.048 0-1.904 0-3.808 0-5.712 0-0.032 0-0.048 0.048-0.048 1.344 0 2.672 0 4.016 0 0.032 0 0.048 0.016 0.048 0.048 0 0.304 0 0.592 0 0.896 0 0.016 0 0.032 0 0.032 0.048 0.016 0.016 0.048 0.032 0.080 0 0.016 0 0.032 0 0.032 0.032 0.016 0.016 0.032 0.016 0.064 0 0 0 0.016 0 0.016 0.048 0.032 0.032 0.080 0.064 0.128 0.016 0.032 0.080 0.048 0.064 0.112 0.064 0.032 0.080 0.112 0.16 0.128 0 0 0 0.016 0.016 0.016 0.016 0.016 0.048 0.048 0.064 0.064 0.032 0.016 0.048 0.032 0.080 0.032 0.048 0 0.080 0.032 0.128 0.032 0.016 0 0.032 0 0.032 0.016s0.016 0.016 0.032 0.016c0.464 0 0.928 0 1.408 0 0.016 0 0.032 0 0.032 0 0.016-0.048 0.080 0 0.096-0.048 0.064 0 0.128-0.048 0.176-0.080 0.016 0 0-0.032 0.032-0.032 0.048 0 0.064-0.032 0.080-0.064 0.032-0.048 0.096-0.064 0.112-0.144 0 0 0 0 0 0 0.016-0.016 0.032-0.032 0.048-0.064 0-0.016 0-0.048 0.016-0.064 0.064-0.032 0.048-0.096 0.080-0.16 0.016-0.048 0.032-0.112 0.032-0.16-0.016-0.432 0.016-0.864-0.016-1.28 0-0.048-0.048-0.096-0.032-0.144 0 0 0-0.016 0-0.016-0.032-0.016-0.048-0.064-0.048-0.080-0.016-0.064-0.064-0.112-0.096-0.144-0.048-0.048-0.080-0.128-0.16-0.144-0.016-0.048-0.096-0.048-0.128-0.096s-0.096-0.032-0.144-0.048c-0.048-0.016-0.096-0.032-0.144-0.032-0.304 0-0.592 0-0.896 0-0.032 0-0.048-0.016-0.048-0.048 0-0.176 0-0.352 0-0.528 0-0.128 0.032-0.256-0.016-0.384-0.016-0.048 0.016-0.096-0.032-0.16-0.032-0.048-0.016-0.112-0.048-0.16-0.016-0.016-0.032-0.048-0.032-0.080-0.016-0.032-0.080-0.048-0.064-0.112-0.064-0.032-0.080-0.096-0.144-0.112 0 0 0-0.016-0.016-0.016-0.032-0.016-0.048-0.048-0.080-0.064-0.016 0-0.048-0.016-0.064-0.032-0.032-0.048-0.112-0.064-0.16-0.064-0.048-0.016-0.112-0.032-0.176-0.032-1.52 0-3.056 0-4.576 0-0.064 0-0.128 0.032-0.208 0.016 0 0-0.016 0-0.016 0-0.032 0.032-0.080 0.032-0.112 0.048-0.032 0-0.048 0.016-0.064 0.032 0 0.016-0.016 0.016-0.032 0.016-0.032 0.016-0.096 0.016-0.112 0.064 0 0.016-0.016 0.032-0.032 0.032-0.080 0.048-0.128 0.128-0.176 0.192-0.016 0.032-0.032 0.080-0.048 0.096-0.032 0.032-0.032 0.080-0.048 0.112s-0.032 0.096-0.032 0.144c0 0.32 0 0.624 0 0.944 0 0.048 0 0.048-0.048 0.048-0.32 0-0.624 0-0.944 0-0.048 0-0.096 0.032-0.144 0.016 0 0 0 0-0.016 0-0.016 0.048-0.080 0.016-0.096 0.048 0 0-0.032 0.016-0.048 0.032s-0.016 0.032-0.048 0.032c-0.032 0-0.064 0.048-0.096 0.064s-0.048 0.048-0.064 0.064c-0.016 0.016-0.064 0.048-0.064 0.064 0 0.064-0.080 0.064-0.064 0.112-0.048 0.032-0.048 0.080-0.064 0.128s-0.048 0.096-0.032 0.144c0 0 0 0.016 0 0.016-0.032 0.016-0.016 0.048-0.016 0.064 0.080 1.136 0.080 2.208 0.080 3.28zM26.56 21.344c0.736 0 1.472 0 2.208 0 0.096 0 0.208 0.032 0.288-0.032 0.048 0.016 0.080-0.048 0.128-0.032 0 0 0 0 0.016-0.016 0.048-0.016 0.096-0.064 0.144-0.096 0.016-0.016 0.048-0.016 0.064-0.032 0.048-0.064 0.112-0.112 0.16-0.192 0.016-0.016 0.016-0.032 0.032-0.048s0-0.048 0.016-0.064c0.064-0.032 0.048-0.096 0.080-0.16 0.016-0.048 0.016-0.112 0.016-0.16 0-0.4 0-0.784 0-1.184 0-0.048-0.032-0.096-0.016-0.16 0 0 0 0 0-0.016-0.048-0.032-0.016-0.080-0.048-0.112 0 0-0.032-0.016-0.032-0.032 0-0.080-0.064-0.112-0.096-0.176-0.016-0.032-0.032-0.032-0.048-0.048-0.032-0.032-0.064-0.080-0.112-0.096-0.032-0.016-0.064-0.032-0.096-0.048-0.048-0.032-0.096-0.064-0.16-0.064-0.016 0-0.032 0-0.048 0-0.032-0.048-0.080-0.016-0.128-0.032-0.016 0-0.032 0-0.032 0-0.016-0.032-0.032-0.016-0.064-0.016-1.424 0-2.864 0-4.288 0-0.048 0-0.064 0-0.064-0.048 0-0.752 0-1.52 0-2.272 0-0.048 0.016-0.048 0.064-0.048 0.88 0 1.776 0 2.656 0 0.048 0 0.096-0.032 0.144-0.032 0.016 0 0.048 0 0.064-0.016 0.032-0.032 0.064-0.032 0.096-0.048 0.032-0.032 0.064-0.032 0.096-0.064s0.080-0.064 0.112-0.096c0.032-0.032 0.064-0.064 0.080-0.096s0.032-0.064 0.048-0.096 0.080-0.112 0.080-0.192c0 0 0-0.016 0-0.016 0.032 0 0.016-0.032 0.016-0.048 0-0.432 0-0.88 0-1.312 0-0.064-0.048-0.112-0.032-0.176 0 0 0 0 0 0-0.048-0.016-0.016-0.064-0.048-0.096s-0.064-0.080-0.080-0.128c0-0.016-0.032 0-0.032-0.016 0-0.048-0.048-0.064-0.064-0.096-0.032-0.048-0.096-0.048-0.128-0.096-0.016-0.032-0.064-0.032-0.096-0.064-0.016-0.016-0.048-0.016-0.064-0.016-0.048-0.032-0.096-0.048-0.16-0.048-0.032 0-0.064 0.016-0.080 0-0.032-0.032-0.048-0.016-0.080-0.016-0.848 0-1.712 0-2.56 0-0.048 0-0.048-0.016-0.048-0.064 0-0.304 0-0.608 0-0.912 0-0.16 0-0.304 0-0.464 0-0.144 0-0.304 0-0.448 0-0.16 0-0.304 0-0.464 0-0.144 0.032-0.304-0.016-0.448-0.016-0.032-0.032-0.080-0.048-0.112 0-0.016 0-0.032-0.016-0.048-0.048-0.048-0.048-0.112-0.096-0.144-0.032-0.016-0.016-0.048-0.032-0.064-0.064-0.048-0.112-0.096-0.176-0.128-0.032-0.016-0.080-0.032-0.096-0.048-0.048-0.048-0.112-0.048-0.16-0.064s-0.112-0.016-0.16-0.032c-0.384 0-0.768 0-1.152 0-0.064 0-0.128 0.032-0.192 0.016 0 0-0.016 0-0.016 0-0.016 0.048-0.080 0-0.112 0.048 0 0-0.016 0.032-0.048 0.032s-0.048 0.032-0.096 0.032c0 0-0.032 0.016-0.064 0.032-0.032 0.032-0.048 0.064-0.080 0.080-0.064 0.048-0.112 0.096-0.144 0.176-0.016 0.048-0.064 0.096-0.064 0.144s-0.048 0.096-0.032 0.144c0 0.016 0 0.048 0 0.048-0.032 0.016-0.016 0.048-0.016 0.064 0 0.944 0 1.872 0 2.816 0 0.048-0.016 0.096 0.016 0.144 0.016 0.032 0 0.096 0.032 0.144 0.016 0.032 0.016 0.080 0.032 0.112s0 0.064 0.048 0.080c0.016 0 0.032 0.016 0.032 0.048 0 0.016 0.016 0.032 0.016 0.048 0.016 0.032 0.080 0.048 0.080 0.096 0 0 0 0 0.016 0s0.032 0.016 0.032 0.016c0.048 0.016 0.064 0.064 0.112 0.080 0.016 0 0.048 0.016 0.064 0.032 0.032 0.032 0.064 0.032 0.096 0.048 0.048 0.016 0.080 0.032 0.128 0.032 0 0 0 0 0 0 0 0.032 0.032 0.016 0.048 0.016 0.304 0 0.624 0 0.928 0 0.032 0 0.048 0 0.048 0.048 0 0.176 0 0.368 0 0.544 0 0.032 0 0.048-0.048 0.048-0.272 0-0.528 0-0.8 0-0.016 0-0.032-0.016-0.048 0.016s-0.032 0.016-0.048 0.016c-0.048 0.016-0.112-0.016-0.16 0.016-0.032 0.032-0.096 0.048-0.144 0.048-0.064 0.016-0.112 0.064-0.16 0.080-0.048 0.032-0.096 0.096-0.144 0.128-0.032 0.032-0.032 0.064-0.048 0.080-0.032 0.016-0.032 0.048-0.048 0.064-0.016 0.032-0.048 0.064-0.048 0.096 0 0.048-0.048 0.096-0.032 0.144 0 0.016 0 0.032 0 0.048-0.032 0.016-0.016 0.032-0.016 0.064 0 0.224 0 0.448 0 0.672 0 0.736 0 1.472 0 2.208 0 0.016 0 0.048 0 0.048 0.032 0.016 0.032 0.048 0.016 0.064-0.016 0.064 0.016 0.112 0.032 0.16 0.016 0.064 0.048 0.128 0.096 0.192 0.032 0.048 0.064 0.096 0.096 0.128 0.016 0.016 0.032 0.048 0.064 0.048 0.048 0 0.064 0.048 0.112 0.064 0.032 0.016 0.048 0.032 0.080 0.032 0 0 0.016 0 0.016 0 0.032 0.032 0.080 0.048 0.128 0.048 0.016 0 0.032 0 0.032 0 0.016 0.032 0.048 0.016 0.064 0.016 0.32 0 0.624 0 0.944 0 0.048 0 0.048 0.016 0.048 0.048 0 0.304 0 0.624 0 0.928 0 0.016-0.016 0.032 0.016 0.048s0.016 0.032 0.016 0.048c-0.016 0.048 0.032 0.080 0.032 0.144 0 0.016 0 0.032 0.016 0.048 0.016 0.048 0.080 0.080 0.080 0.128 0.080 0.048 0.112 0.16 0.224 0.176 0.032 0.048 0.080 0.064 0.128 0.096 0.032 0.016 0.048 0 0.064 0.016 0.048 0.032 0.096 0.048 0.16 0.048 0.864 0.016 1.664 0.016 2.464 0.016zM7.136 9.888c-0.4 0-0.816 0-1.216 0s-0.8-0.016-1.216 0.016c-0.048 0-0.096 0.048-0.144 0.032 0 0.032-0.048 0.016-0.064 0.032-0.016 0.032-0.064 0.016-0.080 0.048-0.016 0.016-0.048 0.016-0.080 0.048-0.016 0.016-0.048 0.048-0.064 0.064-0.080 0.064-0.144 0.128-0.176 0.224 0 0.016 0 0.048-0.016 0.048-0.032 0.016-0.032 0.048-0.048 0.080-0.016 0.048-0.032 0.096-0.032 0.144 0 0 0 0.016 0 0.016-0.032 0-0.016 0.032-0.016 0.048 0 0.304 0 0.592 0 0.896 0 0.032-0.016 0.048-0.048 0.048-0.256 0-0.512 0-0.752 0-0.064 0-0.112-0.016-0.176 0.016-0.032 0.016-0.096 0.016-0.144 0.016s-0.064 0.048-0.112 0.032c0 0.048-0.048 0.016-0.064 0.032s-0.032 0.032-0.064 0.048c-0.032 0.016-0.064 0.032-0.080 0.064-0.032 0.032-0.080 0.064-0.112 0.112 0 0.016-0.032 0.048-0.048 0.064-0.032 0.032-0.080 0.080-0.080 0.128s-0.048 0.080-0.032 0.128c0 0 0 0 0 0-0.032 0-0.016 0.032-0.016 0.048 0 0.032 0 0.080-0.016 0.112-0.016 0.016 0 0.032 0 0.032 0 0.944 0 1.888 0 2.832 0 0.016 0 0.032 0 0.032 0.048 0.016 0.032 0.048 0.016 0.080-0.016 0.064 0.048 0.096 0.032 0.16 0 0 0 0 0 0 0.016 0.016 0.064 0.112 0.064 0.128 0 0 0 0.016 0 0.016 0.048 0.016 0.064 0.064 0.080 0.096 0.032 0.064 0.112 0.096 0.144 0.144 0 0.016 0.176 0.096 0.176 0.096 0.048 0.032 0.112 0.048 0.176 0.048 0 0 0.016 0 0.016 0.016 0.016 0.016 0.032 0.016 0.064 0.016 0.304 0 0.608 0 0.928 0 0.032 0 0.048 0.016 0.048 0.048 0 0.192 0 0.384 0 0.576 0 0.048 0 0.048-0.048 0.048-0.32 0-0.624 0-0.944 0-0.048 0-0.096 0.032-0.144 0.016 0 0 0 0-0.016 0-0.016 0.048-0.064 0.016-0.080 0.048 0 0-0.032 0.032-0.064 0.032s-0.064 0.016-0.080 0.048c-0.016 0.016-0.016 0.048-0.032 0.048-0.048 0.016-0.080 0.064-0.112 0.112-0.032 0.032-0.064 0.080-0.096 0.112-0.016 0.032-0.016 0.064-0.048 0.112-0.032 0.032-0.048 0.096-0.048 0.128-0.016 0.064-0.032 0.112-0.032 0.176 0 0.944 0 1.888 0 2.848 0 0.016 0 0.032 0 0.032 0.032 0.016 0.032 0.048 0.016 0.064-0.016 0.064 0.032 0.112 0.032 0.16 0 0 0 0 0.016 0.016 0.032 0.016 0.032 0.048 0.048 0.064 0.016 0.032 0.032 0.064 0.048 0.096 0.016 0.048 0.048 0.080 0.080 0.096 0.032 0.032 0.080 0.064 0.096 0.096 0.048 0.064 0.112 0.080 0.16 0.112s0.112 0.064 0.176 0.048c0 0 0.016 0 0.016 0 0 0.032 0.016 0.016 0.032 0.016 0.448 0 0.912 0 1.36 0 0.016 0 0.032 0 0.032 0 0.032-0.048 0.080-0.016 0.128-0.048 0.032-0.016 0.080-0.016 0.112-0.048 0.048-0.032 0.080-0.080 0.144-0.080 0 0 0-0.016 0.016-0.016 0.048-0.032 0.064-0.080 0.112-0.112 0.032-0.032 0.048-0.080 0.080-0.112 0.016-0.032 0.064-0.064 0.048-0.112 0.048 0 0.016-0.064 0.048-0.080-0.016-0.048 0.016-0.096 0.016-0.144 0-0.88 0-1.776 0-2.656 0-0.032 0.016-0.048 0.048-0.048 0.464 0 0.928 0 1.376 0 0.464 0 0.912 0.016 1.376-0.016 0.048 0 0.080-0.048 0.128-0.032 0 0 0 0 0 0 0.016-0.032 0.048-0.032 0.080-0.048s0.064-0.048 0.096-0.064c0.048-0.032 0.080-0.080 0.112-0.112 0.064-0.048 0.112-0.128 0.144-0.208 0.032-0.048 0.064-0.112 0.048-0.176 0 0 0-0.016 0-0.016 0.032 0 0.016-0.032 0.016-0.048 0-0.064-0.016-0.112 0.032-0.176 0 0 0-0.016 0-0.032 0-0.32 0-0.656 0-0.976 0-0.016 0-0.032 0-0.032-0.048-0.016-0.032-0.048-0.016-0.080 0.016-0.080-0.032-0.144-0.032-0.208 0 0 0-0.016 0-0.016-0.032 0-0.032-0.048-0.032-0.064 0-0.064-0.048-0.080-0.064-0.144-0.016-0.032-0.064-0.064-0.096-0.096s-0.080-0.064-0.112-0.096c-0.032-0.032-0.064-0.048-0.112-0.064s-0.096-0.032-0.112-0.048c-0.032-0.032-0.080 0-0.096-0.048-0.016-0.016-0.064 0-0.096 0-0.016 0-0.032 0-0.032 0-0.016-0.032-0.032-0.016-0.048-0.016-0.848 0-1.712 0-2.56 0-0.048 0-0.048-0.016-0.048-0.048 0-0.752 0-1.504 0-2.256 0-0.048 0.016-0.048 0.048-0.048 0.928 0 1.856 0 2.784 0 0.544 0 1.088 0 1.632 0 0.016 0 0.048 0 0.048 0 0.016-0.032 0.048-0.016 0.064-0.016 0.048 0 0.064-0.048 0.112-0.032 0.016-0.048 0.048-0.032 0.080-0.032 0.048-0.016 0.080-0.048 0.112-0.080 0.048-0.032 0.064-0.080 0.112-0.112 0.048-0.048 0.080-0.096 0.128-0.16 0.032-0.048 0.048-0.080 0.064-0.128 0-0.048 0.048-0.096 0.032-0.144 0-0.016 0-0.032 0.016-0.032 0.016-0.016 0.016-0.048 0.016-0.080 0-0.304 0-0.624 0-0.928 0-0.096 0.032-0.192-0.016-0.288-0.016-0.032 0-0.080-0.032-0.128-0.016-0.032-0.016-0.080-0.048-0.128-0.016-0.032-0.032-0.080-0.064-0.112-0.016-0.016-0.032-0.016-0.032-0.048-0.016 0-0.016-0.032-0.032-0.032-0.032-0.032-0.080-0.064-0.112-0.096s-0.080-0.048-0.112-0.064c-0.016-0.016-0.016-0.032-0.048-0.032-0.032 0.016-0.048-0.048-0.080-0.032-0.016-0.048-0.080 0-0.112-0.048-0.064 0.016-0.128-0.016-0.192-0.016-0.768 0-1.52 0-2.288 0z"></path>
<path fill="#426bbc" d="M10.816 15.632c0-1.072 0-2.128 0-3.2 0-0.016-0.016-0.048 0.016-0.064 0 0 0-0.016 0-0.016-0.016-0.048 0.016-0.112 0.032-0.144 0.016-0.048 0.016-0.096 0.064-0.128-0.016-0.064 0.064-0.064 0.064-0.112 0-0.016 0.032-0.048 0.064-0.064s0.048-0.048 0.064-0.064c0.032-0.016 0.048-0.048 0.096-0.064 0.016 0 0.032-0.016 0.048-0.032s0.032-0.032 0.048-0.032c0.032-0.032 0.080 0 0.096-0.048 0 0 0 0 0.016 0 0.048 0.016 0.096-0.016 0.144-0.016 0.32 0 0.624 0 0.944 0 0.048 0 0.048-0.016 0.048-0.048 0-0.32 0-0.624 0-0.944 0-0.048 0.016-0.096 0.032-0.144 0.016-0.032 0.016-0.080 0.048-0.112 0.016-0.016 0.032-0.064 0.048-0.096 0.048-0.080 0.096-0.144 0.176-0.192 0.016 0 0.032-0.016 0.032-0.032 0.016-0.048 0.064-0.048 0.112-0.064 0.016 0 0.016 0 0.032-0.016 0.016-0.032 0.032-0.032 0.064-0.032 0.032-0.016 0.080-0.016 0.112-0.048 0 0 0.016 0 0.016 0 0.064 0.016 0.128-0.016 0.208-0.016 1.52 0 3.056 0 4.576 0 0.064 0 0.128 0.016 0.176 0.032s0.112 0.016 0.16 0.064c0.016 0.016 0.048 0.032 0.064 0.032 0.048 0.016 0.064 0.048 0.080 0.064 0 0 0 0.016 0.016 0.016 0.080 0 0.096 0.080 0.144 0.112 0 0.048 0.048 0.064 0.064 0.112 0.016 0.016 0.016 0.048 0.032 0.080 0.032 0.048 0.016 0.112 0.048 0.16s0 0.112 0.032 0.16c0.048 0.128 0.016 0.256 0.016 0.384 0.016 0.176 0 0.352 0 0.528 0 0.032 0 0.048 0.048 0.048 0.304 0 0.592 0 0.896 0 0.048 0 0.112 0.016 0.144 0.032 0.048 0.016 0.112 0.016 0.144 0.048 0.032 0.048 0.096 0.032 0.128 0.096 0.080 0.016 0.128 0.080 0.16 0.144 0.032 0.048 0.080 0.080 0.096 0.144 0 0.016 0.016 0.064 0.048 0.080 0 0 0 0 0 0.016-0.016 0.048 0.032 0.096 0.032 0.144 0.032 0.432 0 0.864 0.016 1.28 0 0.064-0.016 0.112-0.032 0.16s-0.016 0.112-0.080 0.16c-0.016 0.016-0.016 0.048-0.016 0.064-0.016 0.032-0.032 0.048-0.048 0.064 0 0 0 0 0 0 0 0.064-0.064 0.096-0.112 0.144-0.016 0.032-0.048 0.064-0.080 0.064-0.016 0-0.016 0.016-0.032 0.032-0.064 0.032-0.112 0.080-0.176 0.080-0.016 0.048-0.080 0-0.096 0.048 0 0.016-0.016 0-0.032 0-0.464 0-0.928 0-1.408 0-0.016 0-0.032 0-0.032-0.016s-0.016-0.016-0.032-0.016c-0.048 0-0.080-0.032-0.128-0.032-0.032 0-0.064-0.032-0.080-0.032-0.032-0.016-0.048-0.048-0.064-0.064 0 0 0-0.016-0.016-0.016-0.080 0-0.096-0.096-0.16-0.128 0.016-0.048-0.048-0.080-0.064-0.112-0.032-0.048-0.016-0.096-0.064-0.128 0 0 0-0.016 0-0.016 0-0.016 0.016-0.048-0.016-0.064 0 0 0-0.016 0-0.032 0-0.032 0.016-0.064-0.032-0.080 0 0 0-0.032 0-0.032 0-0.304 0-0.592 0-0.896 0-0.032 0-0.048-0.048-0.048-1.344 0-2.672 0-4.016 0-0.032 0-0.048 0.016-0.048 0.048 0 1.904 0 3.808 0 5.712 0 0.032 0.016 0.048 0.048 0.048 1.344 0 2.672 0 4.016 0 0.048 0 0.048-0.016 0.048-0.048 0-0.304 0-0.592 0-0.896 0-0.016-0.016-0.048 0.016-0.048 0 0 0-0.016 0-0.016-0.016-0.048 0.016-0.096 0.032-0.144s0.016-0.096 0.064-0.128c0.016-0.016 0.016-0.048 0.032-0.064s0.032-0.048 0.064-0.080c0.032-0.048 0.064-0.080 0.112-0.096 0.032-0.016 0.064-0.080 0.112-0.064 0.016-0.048 0.064-0.032 0.080-0.064 0 0 0 0 0 0 0.048 0.016 0.080-0.032 0.112-0.032 0.24-0.032 0.48-0.016 0.72-0.016s0.496 0 0.736 0c0.032 0 0.096 0 0.128 0.048 0 0 0 0 0.016 0 0.064 0 0.096 0.048 0.144 0.064s0.080 0.064 0.112 0.080c0.032 0.016 0.048 0.048 0.080 0.080 0.048 0.032 0.048 0.096 0.096 0.128 0.016 0.016 0 0.032 0.016 0.048 0.016 0.032 0.032 0.080 0.048 0.080 0.032 0.032 0 0.080 0.048 0.096 0 0 0 0 0 0.016-0.016 0.048 0.016 0.096 0.016 0.144 0 0.4 0 0.8 0 1.2 0 0.064-0.016 0.112-0.032 0.176 0 0.048-0.032 0.096-0.048 0.144-0.016 0.032-0.032 0.064-0.048 0.096 0 0.016-0.016 0.016-0.032 0.016-0.032 0.064-0.080 0.112-0.128 0.16-0.016 0.016-0.032 0.016-0.032 0.016-0.048 0-0.080 0.048-0.096 0.064-0.016 0.032-0.048 0.016-0.064 0.032-0.032 0.016-0.064 0.048-0.112 0.032-0.016 0.048-0.080 0-0.096 0.048 0 0.016-0.032 0-0.048 0-0.304 0-0.624 0-0.928 0-0.048 0-0.048 0.016-0.048 0.048 0 0.272 0 0.56 0 0.832 0 0.016 0.016 0.048-0.016 0.048-0.016 0 0 0.016 0 0.032-0.016 0.048 0.016 0.096-0.016 0.128-0.016 0.016-0.016 0.064-0.016 0.096 0 0.048-0.032 0.064-0.048 0.096-0.016 0.064-0.080 0.080-0.080 0.128 0 0.032-0.048 0.048-0.064 0.064 0 0-0.016 0-0.016 0.016-0.016 0.032-0.032 0.048-0.064 0.048-0.016 0-0.032 0.032-0.048 0.048-0.048 0.048-0.096 0.048-0.144 0.080-0.032 0.016-0.080 0-0.112 0.032-0.048 0.032-0.080 0-0.112 0.032-0.096 0.048-0.192 0.016-0.288 0.032-0.096 0-0.208 0-0.304 0-1.36 0-2.72 0-4.080 0-0.016 0-0.048 0.016-0.064-0.016-0.016-0.016-0.048 0-0.080 0-0.016 0-0.048 0.016-0.048-0.016 0 0-0.016 0-0.016 0-0.048 0-0.096-0.032-0.144-0.048-0.032-0.016-0.080-0.032-0.112-0.048s-0.064-0.048-0.080-0.080c-0.032-0.048-0.080-0.080-0.112-0.112-0.016 0-0.016-0.016-0.016-0.016 0-0.016 0-0.032-0.032-0.048 0 0-0.016-0.016-0.016-0.016 0.016-0.032-0.048-0.048-0.032-0.096-0.048-0.016 0-0.080-0.048-0.096 0 0 0-0.016 0-0.016 0-0.064-0.016-0.128-0.016-0.192 0-0.288 0-0.592 0-0.88 0-0.032-0.016-0.048-0.048-0.048-0.304 0-0.624 0-0.928 0-0.016 0-0.048 0.016-0.064-0.016 0 0-0.016 0-0.016 0-0.048 0-0.096-0.016-0.128-0.048 0 0-0.016 0-0.032 0-0.032 0-0.064 0-0.064-0.032 0 0 0-0.016-0.016-0.016-0.032 0-0.048-0.016-0.064-0.048-0.016-0.016-0.032 0-0.048-0.016-0.048-0.048-0.112-0.080-0.128-0.16 0 0 0 0-0.016-0.016-0.032-0.032-0.064-0.064-0.080-0.112-0.016-0.016 0-0.064-0.032-0.080 0 0 0-0.016 0-0.032s0.016-0.048-0.016-0.048c0 0 0 0 0 0 0.016-0.048-0.032-0.096-0.032-0.144-0.080-1.152-0.080-2.224-0.080-3.296z"></path>
<path fill="#5abccd" d="M26.56 21.344c-0.8 0-1.6 0-2.4 0-0.064 0-0.112-0.016-0.16-0.048-0.016-0.016-0.048 0-0.064-0.016-0.048-0.016-0.096-0.048-0.128-0.096-0.112-0.016-0.128-0.144-0.224-0.176 0-0.064-0.064-0.080-0.080-0.128 0-0.016-0.016-0.032-0.016-0.048 0-0.048-0.048-0.080-0.032-0.144 0-0.016 0-0.032-0.016-0.048-0.016 0-0.016-0.032-0.016-0.048 0-0.304 0-0.624 0-0.928 0-0.048-0.016-0.048-0.048-0.048-0.32 0-0.624 0-0.944 0-0.016 0-0.048 0.016-0.064-0.016 0 0-0.016 0-0.032 0-0.048 0-0.096-0.016-0.128-0.048 0 0-0.016 0-0.016 0-0.032 0-0.048-0.032-0.080-0.032-0.048-0.016-0.064-0.064-0.112-0.064-0.032 0-0.032-0.032-0.064-0.048-0.048-0.032-0.064-0.080-0.096-0.128-0.048-0.048-0.080-0.128-0.096-0.192-0.016-0.048-0.048-0.096-0.032-0.16 0-0.016 0.016-0.048-0.016-0.064 0 0 0-0.032 0-0.048 0-0.736 0-1.472 0-2.208 0-0.224 0-0.448 0-0.672 0-0.016-0.016-0.048 0.016-0.064 0.016 0 0-0.032 0-0.048-0.016-0.064 0.032-0.096 0.032-0.144 0-0.032 0.032-0.064 0.048-0.096 0.016-0.016 0.016-0.048 0.048-0.064s0.032-0.064 0.048-0.080c0.048-0.048 0.080-0.112 0.144-0.128 0.048-0.032 0.096-0.080 0.16-0.080 0.048 0 0.112-0.032 0.144-0.048 0.064-0.032 0.112-0.016 0.16-0.016 0.016 0 0.032 0 0.048-0.016 0-0.016 0.032-0.016 0.048-0.016 0.272 0 0.528 0 0.8 0 0.048 0 0.048-0.016 0.048-0.048 0-0.176 0-0.368 0-0.544 0-0.048-0.016-0.048-0.048-0.048-0.304 0-0.624 0-0.928 0-0.016 0-0.048 0.016-0.048-0.016 0 0 0 0 0 0-0.048 0-0.080-0.016-0.128-0.032-0.032-0.016-0.064-0.016-0.096-0.048-0.016-0.016-0.048-0.016-0.064-0.032-0.048-0.016-0.064-0.064-0.112-0.080-0.016 0-0.016-0.016-0.032-0.016 0 0-0.016 0-0.016 0 0-0.064-0.064-0.064-0.080-0.096-0.016-0.016-0.032-0.016-0.016-0.048 0-0.032-0.016-0.032-0.032-0.048-0.048-0.016-0.032-0.064-0.048-0.080-0.016-0.032-0.016-0.080-0.032-0.112-0.016-0.048 0-0.112-0.032-0.144-0.032-0.048-0.016-0.096-0.016-0.144 0-0.944 0-1.872 0-2.816 0-0.016-0.016-0.048 0.016-0.064 0 0 0-0.032 0-0.048-0.016-0.064 0.032-0.096 0.032-0.144s0.048-0.096 0.064-0.144c0.032-0.064 0.080-0.128 0.144-0.176 0.032-0.032 0.064-0.048 0.080-0.080 0.016-0.016 0.048-0.032 0.064-0.032 0.032 0 0.048-0.048 0.096-0.032 0.016 0 0.032-0.032 0.048-0.032 0.032-0.048 0.096 0 0.112-0.048 0 0 0 0 0.016 0 0.064 0.016 0.128-0.016 0.192-0.016 0.384 0 0.768 0 1.152 0 0.064 0 0.112 0 0.16 0.032 0.048 0.016 0.112 0.016 0.16 0.064 0.016 0.016 0.064 0.032 0.096 0.048 0.064 0.048 0.112 0.080 0.176 0.128 0.016 0.016 0 0.048 0.032 0.064 0.048 0.032 0.064 0.112 0.096 0.144 0.016 0.016 0 0.032 0.016 0.048 0.016 0.048 0.032 0.080 0.048 0.112 0.048 0.144 0.016 0.304 0.016 0.448 0 0.16 0 0.304 0 0.464 0 0.144 0 0.304 0 0.448 0 0.16 0 0.304 0 0.464 0 0.304 0 0.608 0 0.912 0 0.048 0.016 0.064 0.048 0.064 0.848 0 1.712 0 2.56 0 0.032 0 0.064-0.016 0.080 0.016 0.016 0.016 0.048 0 0.080 0 0.064 0 0.112 0.016 0.16 0.048 0.016 0.016 0.048 0 0.064 0.016 0.032 0.016 0.080 0.032 0.096 0.064 0.032 0.048 0.096 0.048 0.128 0.096 0.016 0.032 0.064 0.048 0.064 0.096 0 0.016 0.016 0.016 0.032 0.016 0.016 0.048 0.048 0.096 0.080 0.128s0 0.080 0.048 0.096c0 0 0 0 0 0-0.016 0.064 0.032 0.112 0.032 0.176 0 0.432 0 0.88 0 1.312 0 0.016 0.016 0.048-0.016 0.048 0 0 0 0.016 0 0.016 0 0.080-0.048 0.128-0.080 0.192-0.016 0.032-0.032 0.064-0.048 0.096-0.016 0.048-0.048 0.064-0.080 0.096s-0.064 0.064-0.112 0.096c-0.032 0.016-0.064 0.032-0.096 0.064-0.016 0.032-0.064 0.032-0.096 0.048-0.016 0.016-0.048 0.016-0.064 0.016-0.048 0-0.096 0.032-0.144 0.032-0.88 0-1.776 0-2.656 0-0.048 0-0.064 0-0.064 0.048 0 0.752 0 1.52 0 2.272 0 0.048 0.016 0.048 0.064 0.048 1.424 0 2.864 0 4.288 0 0.016 0 0.048-0.016 0.064 0.016 0 0 0.016 0 0.032 0 0.048 0.016 0.096-0.016 0.128 0.032 0 0 0.032 0 0.048 0 0.064 0 0.112 0.032 0.16 0.064 0.032 0.016 0.064 0.048 0.096 0.048 0.064 0.016 0.080 0.064 0.112 0.096 0.016 0.016 0.048 0.032 0.048 0.048 0.032 0.064 0.096 0.096 0.096 0.176 0 0.016 0.016 0.032 0.032 0.032 0.048 0.032 0 0.096 0.048 0.112 0 0 0 0 0 0.016-0.016 0.048 0.016 0.096 0.016 0.16 0 0.4 0 0.784 0 1.184 0 0.048 0 0.112-0.016 0.16s-0.016 0.112-0.080 0.16c-0.016 0.016-0.016 0.048-0.016 0.064-0.016 0.016-0.016 0.032-0.032 0.048-0.048 0.064-0.112 0.128-0.16 0.192-0.016 0.016-0.048 0.016-0.064 0.032-0.048 0.032-0.096 0.064-0.144 0.096 0 0 0 0.016-0.016 0.016-0.048-0.016-0.080 0.048-0.128 0.032-0.096 0.064-0.192 0.032-0.288 0.032-0.816-0.016-1.536-0.016-2.272-0.016z"></path>
<path fill="#7bbc00" d="M7.136 9.888c0.768 0 1.536 0 2.304 0 0.064 0 0.128 0.032 0.192 0.016 0.016 0.048 0.080 0 0.112 0.048 0.032-0.016 0.048 0.048 0.080 0.032 0.016 0 0.032 0.016 0.048 0.032 0.032 0.016 0.080 0.032 0.112 0.064s0.080 0.064 0.112 0.096c0.016 0.016 0.016 0.032 0.032 0.032 0 0.032 0.016 0.032 0.032 0.048 0.032 0.032 0.032 0.080 0.064 0.112 0.032 0.048 0.032 0.096 0.048 0.128 0.032 0.048 0 0.096 0.032 0.128 0.048 0.096 0.016 0.192 0.016 0.288 0 0.304 0 0.624 0 0.928 0 0.032 0 0.048-0.016 0.080-0.016 0.016-0.016 0.032-0.016 0.032 0 0.064-0.032 0.096-0.032 0.144s-0.032 0.096-0.064 0.128c-0.032 0.064-0.064 0.112-0.128 0.16-0.048 0.032-0.064 0.080-0.112 0.112-0.032 0.016-0.064 0.064-0.112 0.080-0.016 0-0.064 0-0.080 0.032-0.048-0.016-0.064 0.032-0.112 0.032-0.016 0-0.048-0.016-0.064 0.016 0 0-0.032 0-0.048 0-0.544 0-1.088 0-1.632 0-0.928 0-1.856 0-2.784 0-0.032 0-0.048 0-0.048 0.048 0 0.752 0 1.504 0 2.256 0 0.048 0.016 0.048 0.048 0.048 0.848 0 1.712 0 2.56 0 0.016 0 0.048-0.016 0.048 0.016 0 0.016 0.032 0 0.032 0 0.032 0 0.080-0.016 0.096 0 0.032 0.048 0.080 0.016 0.096 0.048 0.016 0.016 0.064 0.032 0.112 0.048s0.080 0.032 0.112 0.064c0.032 0.032 0.080 0.064 0.112 0.096s0.080 0.064 0.096 0.096c0.016 0.048 0.064 0.080 0.064 0.144 0 0.016 0 0.064 0.032 0.064 0 0 0 0 0 0.016-0.016 0.080 0.048 0.128 0.032 0.208 0 0.016-0.016 0.064 0.016 0.080 0 0 0 0.016 0 0.032 0 0.32 0 0.656 0 0.976 0 0.016 0 0.016 0 0.032-0.048 0.048-0.016 0.112-0.032 0.176 0 0.016 0.016 0.048-0.016 0.048 0 0 0 0.016 0 0.016 0.016 0.064-0.032 0.128-0.048 0.176-0.032 0.080-0.080 0.144-0.144 0.208-0.048 0.032-0.080 0.080-0.112 0.112-0.032 0.016-0.064 0.048-0.096 0.064s-0.064 0.016-0.080 0.048c0 0 0 0 0 0-0.048-0.016-0.080 0.032-0.128 0.032-0.464 0.032-0.912 0.016-1.376 0.016s-0.928 0-1.376 0c-0.032 0-0.048 0.016-0.048 0.048 0 0.88 0 1.776 0 2.656 0 0.048-0.032 0.096-0.016 0.144-0.032 0.016-0.016 0.064-0.048 0.080 0.016 0.048-0.032 0.080-0.048 0.112-0.032 0.032-0.048 0.080-0.080 0.112-0.048 0.032-0.064 0.080-0.112 0.112 0 0 0 0.016-0.016 0.016-0.064 0-0.096 0.048-0.144 0.080-0.032 0.016-0.080 0.032-0.112 0.048-0.032 0.032-0.096 0-0.128 0.048 0 0-0.016 0-0.032 0-0.448 0-0.912 0-1.36 0-0.016 0-0.032 0.016-0.032-0.016 0 0-0.016 0-0.016 0-0.064 0.016-0.128-0.032-0.176-0.048-0.064-0.032-0.128-0.048-0.16-0.112-0.032-0.032-0.064-0.064-0.096-0.096s-0.064-0.064-0.080-0.096c-0.016-0.032-0.016-0.080-0.048-0.096-0.016-0.016-0.016-0.048-0.048-0.064 0 0-0.016 0-0.016-0.016 0-0.064-0.048-0.096-0.032-0.16 0-0.016 0.016-0.048-0.016-0.064 0 0 0-0.016 0-0.032 0-0.944 0-1.888 0-2.848 0-0.064 0.016-0.112 0.032-0.176 0-0.048 0.032-0.096 0.048-0.128 0.032-0.032 0.016-0.080 0.048-0.112s0.064-0.080 0.096-0.112c0.032-0.048 0.064-0.080 0.112-0.112 0.016 0 0.016-0.032 0.032-0.048 0.016-0.032 0.064-0.048 0.080-0.048 0.032 0 0.048-0.032 0.064-0.032 0.016-0.032 0.080 0 0.080-0.048 0 0 0 0 0.016 0 0.048 0.016 0.096-0.016 0.144-0.016 0.32 0 0.624 0 0.944 0 0.048 0 0.048-0.016 0.048-0.048 0-0.192 0-0.384 0-0.576 0-0.032-0.016-0.048-0.048-0.048-0.304 0-0.608 0-0.928 0-0.016 0-0.048 0-0.064-0.016 0 0-0.016-0.016-0.016-0.016-0.064 0-0.128-0.016-0.176-0.048 0 0-0.176-0.096-0.176-0.096-0.032-0.064-0.112-0.096-0.144-0.144-0.016-0.032-0.032-0.080-0.080-0.096 0 0 0-0.016 0-0.016 0-0.016-0.048-0.112-0.064-0.128 0 0 0 0 0 0 0.016-0.064-0.048-0.096-0.032-0.16 0-0.016 0.016-0.064-0.016-0.080 0 0 0-0.016 0-0.032 0-0.944 0-1.888 0-2.832 0-0.016 0-0.032 0-0.032 0.032-0.032 0.016-0.064 0.016-0.112 0-0.016-0.016-0.048 0.016-0.048 0 0 0 0 0 0-0.016-0.048 0.032-0.080 0.032-0.128s0.048-0.096 0.080-0.128c0.016-0.016 0.032-0.048 0.048-0.064 0.016-0.048 0.064-0.080 0.112-0.112 0.016-0.016 0.048-0.048 0.080-0.064s0.048-0.032 0.064-0.048c0.016-0.016 0.048 0.016 0.064-0.032 0.048 0.016 0.064-0.032 0.112-0.032s0.112 0 0.144-0.016c0.064-0.032 0.128-0.016 0.176-0.016 0.256 0 0.512 0 0.752 0 0.032 0 0.048-0.016 0.048-0.048 0-0.304 0-0.592 0-0.896 0-0.016-0.016-0.048 0.016-0.048 0 0 0 0 0-0.016 0-0.048 0.016-0.096 0.032-0.144 0.016-0.032 0.016-0.064 0.048-0.080 0.016-0.016 0.016-0.032 0.016-0.048 0.032-0.096 0.096-0.16 0.176-0.224 0.016-0.016 0.048-0.048 0.064-0.064s0.064-0.016 0.080-0.048c0.016-0.032 0.064-0.016 0.080-0.048 0.016-0.016 0.048 0 0.064-0.032 0.048 0.016 0.096-0.032 0.144-0.032 0.4-0.032 0.8-0.016 1.216-0.016 0.384 0 0.784 0 1.2 0z"></path>
</svg>
