<?xml version="1.0" standalone="no"?>
<!DOCTYPE svg PUBLIC "-//W3C//DTD SVG 1.1//EN" "http://www.w3.org/Graphics/SVG/1.1/DTD/svg11.dtd" >
<svg xmlns="http://www.w3.org/2000/svg">
<metadata>Generated by IcoMoon</metadata>
<defs>
<font id="icomoon" horiz-adv-x="1024">
<font-face units-per-em="1024" ascent="960" descent="-64" />
<missing-glyph horiz-adv-x="1024" />
<glyph unicode="&#x20;" horiz-adv-x="512" d="" />
<glyph unicode="&#xe900;" d="M223.575 691.013l-41.827 0.571-1.267-0.221-2.095-0.663-0.991-1.208 0.11-1.16 0.772-1.319 2.425-3.417 2.26-3.638 2.094-4.466 1.268-3.804 0.716-3.638 0.606-5.62 0.221-2.755-0.221-5.509-0.44-3.858-0.992-3.804-1.268-3.748-1.653-3.086-2.371-4.19-1.928-2.81-2.205-2.92-2.756-3.141-2.756-2.865-3.637-3.142-2.371-1.656-3.196-1.485-4.905-1.657-4.52-0.993-4.63-0.547-5.154 0.025-3.442 0.166-4.302 0.699-3.278 0.816-2.909 1.11-2.541 1.111-2.541 1.27-2.662 1.766-2.786 2.178-2.418 2.258-2.049 2.381-1.843 2.626-1.311 2.546-1.476 2.994-0.983 3.037-1.025 3.613-0.654 2.834-0.534 2.301 0.061 6.467 0.2 3.454 0.231 2.993 0.664 2.725 0.73 2.361 1.626 3.16 2.29 3.356 0.968 1.337 3.447-1.153 2.753-0.816 1.991-0.233 5.209-0.233 3.783 0.369 2.986 0.798-2.854-2.963-4.247-3.522-1.592-2.061-3.218-4.319-2.091-4.356-1.127-2.858-0.565-3.228-0.159-6.711 0.564-3.706 1.048-3.712 1.854-3.785 3.145-4.356 2.66-2.497 2.661-1.939 3.064-1.288 4.756-1.368 4.193-0.404 4.353-0.406 4.112 0.16 3.951 0.65 3.628 0.884 4.274 2.018 3.225 2.498 3.79 3.466 3.547 4.515 2.741 4.436 1.775 3.546 1.612 4.761 0.646 3.22 0.080 5.246-0.162 2.736-0.644 4.116-0.968 3.951-1.37 3.626-1.533 3.792-2.257 3.386-2.742 3.141-2.418 2.742-2.501 2.258-2.66 1.852-2.822 1.774-3.709 1.214-4.354 1.288-4.192 0.804-4.031 0.644h-2.821l-2.984-0.318-3.064-0.724-3.467-0.644-2.015 0.239-0.242 1.614 9.111 10.159h38.862l55.477-0.398 4.712 3.792 15.977 14.368 14.253 13.564 8.391 6.552 7.703 5.748 8.276 5.977 8.505 6.207 6.322 4.253 18.391 10.23 14.024 7.242 9.196 4.253 6.667 3.104 15.977 6.897 9.541 3.678 8.276 2.759 9.081 2.644 8.276 2.184 8.161 2.068 11.609 2.989 10.46 1.954 8.046 1.724 15.977 2.184 11.494 1.149 10.691 1.15 11.38 0.805h23.908l17.245-0.805 10.454-0.46 12.761-0.805 12.417-2.184 16.203-2.759 22.644-4.943 10.81-3.103 9.080-3.219 10.803-3.677 12.301-4.944 12.3-5.057 16.092-7.127 12.294-6.552 12.761-7.012 10.577-6.321 13.674-8.737 12.185-9.081 12.3-9.654 8.509-7.012 6.779-5.862 10-8.391 6.668-6.782 9.080-9.655 17.24-20.233 8.393-10.804 10.116-13.565 4.252-7.122 5.515-9.541 5.521-9.54 9.54-17.128 10.46-19.884 6.093-15.632 5.399-15.865 5.865-17.128 4.251-14.252 3.222-15.288 2.755-15.405 1.614-12.755 2.067-15.865 1.264-19.657 0.117-13.104-0.578-22.871-0.577-10.804-1.147-12.644-1.608-12.534-1.607-8.502-2.645-12.761-1.497-6.553-2.761-13.104-3.448-12.872-3.674-11.263-5.062-13.448-5.399-12.878-7.012-16.435-7.012-13.682-8.050-14.251-6.092-9.424-7.123-8.508-8.736-7.584-10.577-7.355-5.172-1.724-5.405-0.232-10.803-0.344h-48.043l-71.154 0.227-64.258 1.38-12.528 0.693 0.92 1.834 19.54 22.301 11.153 11.725 5.515 5.864 8.503 8.62 7.706 8.276 5.399 5.172 6.093 6.435 6.785 7.246 5.632 5.859 5.858 6.785 6.21 6.662 6.209 6.553 7.239 8.276 6.896 7.816 13.338 16.441 9.767 11.951 7.706 10 7.123 11.264 6.668 10.92 4.596 8.393 7.129 16.092 2.41 7.589 2.19 8.159 2.755 12.988 1.264 7.589 0.577 7.816v10.116l-0.577 8.62-1.723 11.381-1.608 8.502-2.301 8.509-2.41 8.503-3.565 8.62-4.252 8.049-4.828 7.24-8.969 10.803-6.202 6.786-6.442 6.319-7.472 6.552-6.202 4.602-8.277 5.171-12.184 6.319-12.761 5.288-11.147 3.565-10.92 3.105-8.509 1.723-9.423 1.38-8.393 0.687-7.473-0.226-8.619-0.461h-2.761l-0.914 0.921-0.35 11.951 0.693 9.313 1.724 27.012 0.46 9.54 1.086 0.141 5.748-4.767 26.866-22.35 25.049-21.019 13.258-10.858 1.479-0.59-0.638 1.037-7.712 10.019-10.957 13.847-10.166 13.411-9.921 11.693-12.772 16.252-2.405 3.196-2.061 3.043-1.374 2.41-0.049 1.423 0.54 0.441 6.331 0.492 6.044 0.589 11.153 0.933 12.571 1.128 12.772 1.325 6.675 0.638 5.159 0.687 22.007 2.656 12.031 1.325 4.275 0.492 2.061 0.343-2.11 0.442-15.865 1.619-22.35 2.559-28.442 3.19-28.191 2.748-5.503 0.638-1.325 0.89-0.196 0.933 0.784 1.079 7.958 10.166 7.908 9.774 11.987 14.637 9.086 12.082 8.743 11.837 3.386 4.568-0.147 0.492-1.030-0.786-7.712-5.304-6.828-4.912-10.46-7.956-22.792-17.732-11.933-9.627-2.11-1.572h-1.276l-0.938 1.277-0.541 3.93-0.883 10.215-1.325 16.16-1.031 11.641-1.865 18.419-2.215 18.468-1.031 5.845h-0.54l-0.884-3.144-2.208-14.195-1.080-7.269-1.227-8.94-1.969-13.016-1.276-9.332-1.866-14.49-0.736-5.894-1.571-9.725-0.441-2.554-0.736-0.442-1.92 1.080-3.239 2.898-7.32 6.975-19.546 18.319-25.736 23.183-7.911 7.761-13.8 12.475-7.466 6.386-1.768 1.276 1.080-1.767 5.55-7.712 10.757-14.98 10.657-13.458 12.97-16.208 5.692-7.024 12.185-15.374 10.951-14.783 0.54-1.473-0.883-0.933-1.423-0.589-5.16-0.54-27.994-2.264-14.685-0.835-20.923-1.374-17.24-1.178-29.716-2.209-36.346-2.558 14.833-2.504 24.559-2.355 13.655-1.179 21.119-1.723 26.966-2.307 16.455-1.668 14.933-1.423 16.847-1.724 4.81-0.785 0.343-0.835-0.835-1.276-9.773-13.061-9.675-12.675-7.663-10.46-8.301-10.809-8.301-11.099-6.386-8.251 3.144 2.16 7.91 6.436 8.252 6.877 7.116 6.387 5.601 4.859 4.571 4.030 5.3 4.761 4.227 3.442 15.129 12.424 5.301 4.178 0.835 0.49 0.883-0.638 0.35-5.945 0.197-6.484 0.687-25.344 0.638-21.509-0.344-3.343-1.479-1.669-1.865-0.589-8.595-2.012-4.761-1.38-4.030-1.276-4.662-2.16-4.031-2.258-4.417-2.553-3.343-2.067-5.455-3.631-3.534-2.608-3.19-2.306-3.932-3.142-6.093-5.11-5.106-4.418-5.403-5.356-2.75-2.651-3.242-3.589-6.581-7.564-0.785 0.541-0.541 2.46-0.098 6.233 0.197 15.374 0.097 19.16 0.099 25.981-0.049 9.037-0.737 1.473-1.523 1.031-2.554 0.343-2.996-0.098-2.554-0.981-2.211-0.736-4.567-2.012-4.568-1.571-4.027-1.626-3.93-1.325-3.487-1.325-4.912-1.619-4.175-1.473-3.192-1.423-5.747-1.774-4.666-1.668-4.077-1.325-6.042-1.817-3.242-1.178-6.188-2.018-4.322-1.62-5.943-2.209-2.505-1.766-0.442-1.423 1.67-1.675 3.34-2.945 3.536-3.54 3.389-3.877 2.406-3.829 1.916-3.785 1.326-3.239 0.393-1.626 0.982-4.27 0.736-5.257 0.393-4.221 0.147-12.332 0.097-13.453-0.048-31.332v-61.442l-0.709-5.932-0.797-6.11-1.151-6.553-1.77-6.638-2.479-6.374-4.162-8.767-4.869-9.564-5.313-8.675-6.553-8.766-6.108-6.816-5.224-4.694-9.384-6.816-6.641-4.073-7.792-3.718-5.932-1.945-7.26-1.687-5.932-1.062-6.021-0.355h-7.259l-8.057 0.712-9.65 2.392-9.828 3.362-12.041 5.135-6.374 3.804-5.667 4.073-4.692 4.338-4.427 4.785-5.667 6.459-4.072 5.406-5.223 7.257-4.781 9.295-3.453 7.172-3.896 8.411-2.568 8.147-1.77 6.553-1.681 9.294-0.62 6.553-0.354 9.828 0.176 6.73 0.531 10.712 0.531 6.552 1.416 8.411 1.063 6.817 2.214 9.913 2.124 7.792 5.136 14.614 5.134 13.633 4.781 11.951 8.5 19.571 6.994 13.104 8.765 16.908 4.958 9.122 4.87 8.854 3.983 6.638 7.083 11.602 9.65 15.846 8.058 13.546 12.484 19.742 4.161 7.436 0.531 3.012-0.265 2.393-9.739 0.349-71.538 1.24z" />
<glyph unicode="&#xe901;" d="M862.266 131.225l8.38 9.184 0.687 1.356-3.288-0.025-4.613-0.644h-5.939l-4.619 0.258-4.84 0.681-6.491 2.369-5.798 3.436-5.104 4.030-3.344 3.632-3.533 5.699-1.767 4.319-1.178 3.737-1.282 4.908-0.492 5.012 0.197 4.81 0.89 4.718 1.57 4.129 2.062 3.73 3.337 4.718 5.11 4.319 3.338 2.16 4.521 2.067 3.829 1.178 4.324 0.295 4.221-0.098 4.816-0.884 3.534-0.687 3.344-1.571 4.711-2.558 3.932-3.141 2.748-2.651 2.356-3.147 1.577-4.123 1.079-4.719 0.589-3.239 0.295-4.227-0.49-3.141-1.179-3.344-2.166-2.944-2.454-2.356-1.080-1.085v-1.374l0.982-0.687 11.203-3.927 2.258-0.197 0.785 1.080 1.374 3.632 0.784 2.656 0.785 3.926 0.098 3.148-0.098 4.711-0.392 4.619-0.785 4.221-1.079 3.54-2.356 3.829-3.343 4.619-3.24 3.24-3.631 3.141-4.031 2.853-4.619 1.865-4.908 1.473-5.405 0.982-6.387 0.687-5.203-0.393-4.423-0.589-8.938-2.847-3.043-1.668-3.638-2.559-3.239-2.748-2.847-2.748-3.54-5.208-2.65-4.516-1.669-3.834-1.577-4.816-0.196-6.282 0.392-6.682 1.086-7.368 1.963-5.111 4.81-8.546 2.853-4.221 0.687-1.374-1.276-1.085-2.362-0.295h-13.258l-18.564 0.197-39.982 0.497-38.51 0.393-39.687 0.294h-143.027l-1.669 0.687v1.866l2.456 3.729 2.749 4.030 7.062 8.534 5.356 7.129 6.516 8.11 7.312 10.491 11.289 14.307 5.564 7.626 9.853 12.718 7.792 10.491 6.516 8.742 4.926 7.313 4.767 6.521 9.54 14.461 6.516 10.178 5.724 9.853 7.312 10.651 7.154 13.196 6.356 10.491 8.11 16.374 5.405 10.804 6.994 13.994 6.675 16.847 4.447 12.239 5.092 17.485 2.221 10.81 1.116 11.129 0.951 15.576-0.319 11.129-1.27 8.743-1.27 7.785-4.295 12.405-4.289 11.123-4.613 10.019-6.356 9.214-7.632 9.221-5.884 6.834-6.994 6.202-7.466 5.724-12.399 6.356-8.743 3.337-8.27 2.227-1.43-20.982-2.546-57.387-2.221-39.103-3.815-41.964-0.479-4.614-0.57 4.626-2.804 48.835-1.239 37.846-0.767 13.596-1.239 29.816v8.19l-0.927 24.412h-6.024l-7.418-0.307-7.724-1.859-8.344-2.627-8.957-4.478-8.036-5.405-4.018-3.558-6.025-5.252-4.018-4.945-3.706-4.785-6.025-8.65-4.634-8.037-4.481-9.423-3.553-10.043-1.391-8.031-0.772-10.662 0.155-12.823 0.155-24.411 0.155-34.761-0.155-46.504 0.927-5.871 3.553-10.043 3.863-5.405 6.025-5.411 2.163-2.626-1.236-2.007-3.863-2.165-12.36-4.167-12.205-4.484-41.867-14.209-9.733-3.711-2.318-0.621-2.007 1.086-0.928 1.386-0.309 14.062v24.098l0.309 17.46 0.101 6.068-0.324 0.907h-0.778l-2.048-2.258-4.507-5.871-5.156-6.497-6.703-6.92-8.434-8.436-8.433-6.485-8.435-7.355-13.19-8.215-8.434-4.54-11.893-6.27-10.379-4.325-9.299-2.809-8.434-1.516-7.351-1.080-11.678-0.865h-9.947l-11.245 0.645-11.461 1.73-10.811 2.816-9.299 2.589-11.893 4.332-8.218 4.754-11.677 8.001-8.866 6.92-8.218 7.57-7.568 9.080-9.082 11.896-8.65 16.865-5.407 12.111-3.675 11.675-1.73 10.595-1.731 13.41-0.865 12.32 1.081 24.871 2.163 12.111 6.487 21.19 5.191 12.761 6.919 15.135 6.487 12.54 5.19 7.785 10.595 16.865 7.352 9.301 10.596 12.761 8.001 9.944 8.65 9.301 11.678 11.89 8.865 8.436 10.259 9.804 10.067 10.736-0.52 0.596-12.036 0.214h-11.562l-16.967 0.055-12.974 0.436h-27.247l-8.002-0.221-5.838-1.080-6.703-2.16-5.623-3.46-8.001-6.27-3.676-4.761-4.325-6.92-3.425-5.816-2.67-5.631-2.194-4.571-3.085-6.227-1.839-4.865-2.194-4.926-1.424-3.737-2.788-8.957-3.025-9.197-3.441-10.914-3.559-11.982-3.855-14.712-1.603-10.38-1.72-10.202-1.898-16.197-1.126-10.558-0.831-17.386-0.735-12.853 0.386-11.975-0.193-11.59 0.966-11.012 1.159-13.522 0.966-9.847 1.738-12.171 1.739-10.62 5.214-23.178 3.478-11.589 3.669-13.135 5.216-14.295 8.305-22.209 11.203-22.024 11.976-21.049 6.953-11.59 10.237-15.644 5.409-7.534 5.408-8.111 10.043-12.944 6.181-6.761 6.76-7.534 8.306-8.497 9.078-9.080 11.782-10.233 7.34-6.57 8.305-5.601 5.988-4.829 7.533-5.791 8.112-5.798 30.518-17.963 17.576-9.074 15.452-7.534 17.963-6.374 19.122-6.571 19.315-5.405 16.61-3.479 16.804-2.896 28.393-3.092 19.315-1.545 28.2 0.583 16.227 0.773 12.552 1.35 28.589 4.638 18.73 4.442 17.773 5.019 25.498 9.080 20.662 8.496 16.613 8.503 15.841 8.688 16.607 10.815 17.19 11.785 25.687 18.737 85.185-1.356z" />
<glyph unicode="&#xe902;" d="M208.247 195.544l-3.171-0.239 3.467-5.203 0.526 1.196 1.467 0.24h2.038l1.713 0.246 2.934 0.245h1.957l2.853 0.492 2.772 0.975 2.854 1.142 3.831 1.551 3.995 1.792 4.565 1.957 5.38 2.282 3.995 1.466 4.321 1.711 3.098 0.656 3.423 0.976 2.691 0.411 5.788 0.16 3.587-0.246 2.608-1.055 2.445-1.307 2.284-1.386 1.385-1.307 1.060-1.626 0.57-0.982 0.327-2.203-0.164-3.091-0.652-2.527-1.385-1.712-1.957-0.902-1.793-0.73-2.201-0.981-2.282-0.406-0.082-2.447 0.082-1.957 1.223-0.896 3.098-0.326 3.995-0.404 3.098 0.080h3.913l2.691 0.245 3.994 0.492 3.995 0.73 3.506 1.141 3.913 1.227 3.424 1.546 2.934 1.3 3.18 1.798 5.707 2.933 4.239 2.367 4.156 2.117 3.914 1.877 3.995 1.872 3.995 1.386 4.32 1.551 3.995 0.976 3.832 0.57 2.935 0.166 3.668-0.166 2.69-0.080 3.424-0.815 2.201-1.386 1.467-1.792 1.467-2.447 0.164-2.688-0.164-2.202-1.059-2.369-1.224-2.037-1.793-1.3-1.223-0.57-3.18-0.246-1.794-0.896v-3.098l0.327-1.386 1.305-1.142 2.445-0.736h9.049l3.016 0.166 5.38 0.73 6.929 1.227 5.136 1.872 4.157 1.957 5.706 3.098 3.669 1.632 4.483 2.362 3.914 2.037 5.707 2.773 4.973 2.282 5.299 2.447 4.809 1.546 3.099 0.49h3.342l3.505-0.73 3.342-1.141 3.098-1.632 1.549-2.043 1.060-2.196 0.651-2.693 0.164-3.013-0.652-2.281-0.979-1.958-2.038-2.281-1.711-1.473-1.875-1.142-2.528-0.815-0.896-1.626 0.163-2.037 0.815-1.307 2.527-0.080h3.995l2.771 0.325 2.691 0.485 3.18 0.901 6.767 2.196 4.076 1.552 3.423 1.546 3.832 1.631 2.935 1.222 3.017 1.386 4.646 2.939 4.402 2.361 3.995 2.362 3.914 2.043 6.521 2.767 3.995 1.227 4.158 0.976 4.076 0.325h3.75l3.096-0.57 2.613-1.386 1.871-1.711 1.712-2.038 1.386-2.773 0.65-3.012-0.406-3.019-1.3-2.447-2.289-1.466-3.423-0.896-2.77-0.246-1.711-0.65-0.489-2.123 0.408-1.625 0.734-0.736 2.118-0.326h2.203l3.018 0.57 2.442 0.896 2.613 2.037 2.607 2.613 1.546 2.196 0.57 2.448 0.166 2.203 0.16 2.361-0.81 3.019-1.632 3.337-1.957 2.289-2.447 2.037-2.933 1.957-2.528 1.221-2.693 0.816-3.421 0.246h-3.75l-3.423-0.326-2.936-0.57-3.504-0.982-4.077-1.545-8.56-3.755-7.256-3.663-5.543-2.693-7.174-3.589-10.353-4.724-3.587-1.227-2.772-0.73h-1.223l-0.408 0.896 1.060 2.773 0.652 4.398 0.081 4.319-0.733 3.019-1.875 3.589-1.875 2.607-3.017 2.117-2.608 1.147-2.854 0.976-3.668 0.65-3.669 0.325h-3.505l-2.853-0.484-4.892-1.632-4.728-1.877-9.945-5.134-10.436-5.541-8.070-3.914-5.543-1.877-5.462-1.872-5.626-1.797-3.098-0.57h-4.401l-0.571 0.981 0.897 1.466 1.793 2.687 1.060 3.344 0.245 5.134-0.733 3.019-1.631 2.448-2.69 2.607-3.26 1.957-3.751 1.141-3.831 0.571-4.402-0.246-5.625-0.736-5.054-1.466-6.44-2.037-6.032-2.037-8.967-3.915-5.625-2.938-4.565-2.362-5.217-2.527-8.152-3.178-5.626-1.711-6.114-1.222-3.995-0.325-1.711 0.81 0.244 0.901 2.202 2.117 1.223 2.608 0.408 3.263v3.749l-0.896 3.503-1.957 3.098-3.505 3.178-3.017 1.551-5.217 1.062-4.647 0.57h-5.38l-5.054-0.816-8.397-2.693-8.233-3.257-9.294-3.835-11.25-4.073-3.342-0.982-3.832-0.809-3.178-0.571z" />
<glyph unicode="&#xe903;" d="M220.527 174.25l5.457-5.97 0.178 1.626 3.808 2.055 3.808 1.981 4.037 1.142 4.189 0.607 4.874 0.38 5.255-0.527 4.722-1.068 4.037-2.288 2.818-4.418 1.143-3.276 0.304-3.651-1.675-3.657-4.189-2.361-3.123-0.461-4.797-0.3-1.294-2.516v-2.515l2.436-2.589 3.352-0.607 6.17-0.074 5.789 0.074 3.655 0.534 7.997 2.662 6.17 2.669 5.864 2.589 7.844 3.964 9.597 4.797 7.007 4.338 7.692 4.037 5.56 1.981 5.484 0.761h4.874l4.265-1.068 3.352-2.055 2.665-2.435 1.98-3.35 0.762-2.289v-3.123l-1.067-2.969-2.133-2.282-3.807-2.209-3.427-0.687-2.742-0.46-1.219-1.294v-2.282l1.295-1.602 3.427-0.154 4.188-0.534 5.028-0.147 3.884 0.455 5.94 1.221 7.236 2.89 7.692 3.356 9.139 4.718 8.073 4.877 7.388 4.491 7.997 3.809 7.615 2.436 5.484 0.306 2.21-0.226 3.503-0.381 2.894-1.521 2.133-2.289 1.447-2.362 0.762-3.423-0.381-3.202-1.524-3.73-3.122-2.822-3.961-1.748-6.245-0.608-0.913-2.669v-2.435l1.752-1.448 4.341-0.534 5.255-0.381 7.464 0.381 5.864 0.687 4.722 0.913 6.551 2.742 6.626 3.197 7.845 4.264 5.864 3.276 5.484 3.122 6.093 4.038 7.083 3.729 4.493 1.302 2.819 0.76 5.94-0.153 4.341-0.841 3.58-1.829 2.209-2.889 1.219-3.277-0.076-2.896-0.458-2.669-1.675-2.355-2.741-2.209-2.665-0.914-2.361-0.38-4.418 0.074-1.524-1.068 0.153-2.129 1.447-1.147 3.275-0.301h3.58l4.189 1.068 2.741 1.214 2.742 2.435 2.971 4.19 0.305 2.436 0.227 3.583-0.381 4.037-1.142 3.429-1.828 3.35-3.427 2.742-4.037 1.829-3.885 1.061-3.656 0.307-2.59 0.154-3.579-0.227-6.702-2.442-6.094-2.969-5.559-3.123-5.689-3.589-9.654-5.926-11.457-5.921-5.664-2.441-4.119-1.288-3.604-0.644-2.593-0.092-1.035 0.589v1.036l1.775 2.147 1.924 3.178 0.888 3.479 0.37 3.926-0.37 2.067-1.11 3.037-1.776 2.957-1.923 1.852-2.146 1.773-2.663 1.405-2.738 0.816-2.59 0.669-2.738 0.369h-2.22l-4.364-0.516-2.96-0.669-3.479-0.815-4.513-1.552-3.996-1.552-4.218-1.779-3.996-2.295-3.33-1.994-4.069-2.516-3.404-1.926-3.922-2.295-4.736-2.441-4.365-2.295-3.255-1.626-6.363-2.736-2.295-0.146-1.775 0.146-0.963 0.884 0.518 1.706 1.036 2.515 0.591 2.81 0.148 3.92-0.592 2.816-1.11 2.884-1.406 2.369-1.924 2-1.924 1.7-4.439 2.146-2.072 0.59-2.812 0.595-2.59 0.368h-4.44l-2.22-0.074h-2.367l-3.182-0.663-3.922-1.036-3.625-1.559-2.664-1.331-8.953-4.81-5.846-3.479-7.991-4.289-14.65-6.215-5.846-2.074-4.143-1.037-2.442-0.294-0.443 0.669 0.443 1.479 1.628 2.884 0.814 3.405 0.074 4.883-0.518 2.367-1.035 2.81-1.554 2.147-2.367 2.369-2.516 2-2.367 1.405-2.664 1.11-2.219 0.736-3.109 0.449-4.735 0.146-2.959-0.294-3.479-0.521-3.773-0.89-4.588-1.331-3.034-1.185-3.107-1.625-3.034-1.626-1.332-0.447z" />
<glyph unicode="&#xe904;" d="M760.727 101.188l21.884 17.81 4.287-5.166-7.699-6.159 19.798-25.184-5.829-5.165-19.908 25.619-8.908-6.926z" />
<glyph unicode="&#xe905;" d="M750.978 93.894l6.147 4.662 22.159-31.908-6.147-4.668z" />
<glyph unicode="&#xe906;" d="M721.29 73.753l20.89-32.871 13.676 8.908 4.024 2.65 2.865 2.442 0.638 1.374 0.847 2.227-0.104 3.497-0.429 2.018-0.847 2.97-1.165 1.797-1.485 1.061-2.436 1.589-2.441 0.638-2.871-0.19 0.154 2.326-0.276 3.306-0.699 2.387-1.135 1.749-1.626 1.773-1.466 1.073-1.135 0.736-1.866 0.578-2.117 0.275-2.509-0.184-2.877-0.577-2.049-1.35z" />
<glyph unicode="&#xe907;" d="M736.254 64.574l-4.896 7.503 0.276 0.945 1.957 1.809 2.172 1.681 2.361 1.073 2.264 0.522h1.466l1.503-0.614 1.196-1.227 0.613-1.098 0.27-1.841-0.332-1.803-0.798-1.595-0.889-1.036-2.387-1.442z" />
<glyph unicode="&#xe908;" d="M739.499 59.734l2.326-3.944 3.675-6.038 3.122 1.902 2.301 1.559 3.644 2.877 1.067 1.473 0.613 1.589-0.092 2.147-0.644 1.527-0.821 0.89-1.258 0.921-1.227 0.613-1.865 0.515h-1.35l-1.681-0.361-1.809-0.89-1.835-1.073-1.895-1.528z" />
<glyph unicode="&#xe909;" d="M714.948 25.298l-6.927-4.387-7.097 40.369 7.263 4.392 29.902-26.858-6.588-4.896-6.589 6.079-10.809-7.263z" />
<glyph unicode="&#xe90a;" d="M711.904 39.525l9.447 6.092-11.441 8.589z" />
<glyph unicode="&#xe90b;" d="M666.413 45.2l25.221 13.429 3.773-6.877-8.847-4.748 13.104-28.343-7.042-4.092-13.926 28.663-9.172-4.583z" />
<glyph unicode="&#xe90c;" d="M666.481 36.151l-5.515-2.976-1.436 0.884-1.657 0.877h-2.423l-2.982-0.22-2.429-1.209-1.878-1.877-0.877-2.098v-1.988l0.877-2.203 2.319-0.663 3.534 0.332 3.638 0.663 2.54 0.546 4.748-0.221 3.306-0.878 2.762-2.098 1.656-2.54 1.214-2.429 0.111-3.749-0.663-2.761-1.104-2.533-1.767-2.541-1.988-1.877-2.209-1.546-2.865-1.325-1.766-0.441-1.932-0.535-1.981-0.097-4.485-0.092-2.748 0.337-1.589 0.338-1.785 0.626-1.589 1.202-1.159 1.257 2.89 4.963 3.184-0.527 3.718-0.435 4.822 0.097 2.699 0.479 2.601 1.594 0.921 1.786 0.288 2.748-0.337 1.35-1.013 0.964-1.35 0.577-1.834 0.098-2.945 0.049-2.361-0.578-2.988-0.294-4.387-0.043-1.785 0.288-1.737 0.436-1.785 1.153-1.737 1.497-1.399 1.638-0.773 1.834-0.527 1.975v2.65l0.435 2.221 0.528 2.172 1.3 2.074 1.399 2.074 2.172 1.638 2.601 1.202 3.472 1.595 2.412 0.435h3.134l2.412-0.386 3.668-0.773 2.074-1.013 1.35-1.3 0.773-1.448z" />
<glyph unicode="&#xe90d;" d="M596.223-14.617l-7.933 37.853 7.215 1.626 19.466-18.571-4.687 22.173 7.208 1.803 9.197-38.939-7.392-1.257-19.644 17.485 4.687-20.731z" />
<glyph unicode="&#xe90e;" d="M515.286 17.108v-39.478h7.931l0.18 16.766 0.036 4.375 5.053-6.153 11.141-14.392 6.908 0.055v39.117h-8.233l-0.061-22.878-3.006 3.915-12.978 18.54z" />
<glyph unicode="&#xe90f;" d="M565.75 20.93l5.172 0.117 5.282-1.766 4.939-3.405 3.172-4.11 2.233-4.467 0.938-4.816-0.232-5.172-0.706-4.466-1.645-4.467-3.644-4.576-3.644-2.59-4.343-1.76-4.233-0.35-4.467 0.467-5.282 2.705-3.528 2.699-2.939 4.227-2.11 4.467-0.945 3.411-0.232 5.871 1.055 5.289 2.35 4.582 3.055 3.644 3.878 2.699 3.294 1.294z" />
<glyph unicode="&#xe910;" d="M558.112 5.887l1.878 3.288 2.705 2.822 2.699 1.294 3.294 0.35 2.584-0.117 2.349-1.178 2.822-1.761 2.117-3.055 1.645-3.995 0.349-3.643-0.117-3.406-1.178-3.405-1.405-2.589-2.117-2.233-2.233-1.171-2.349-0.356-3.289-0.116-2.822 0.938-2.466 1.884-2.589 2.583-1.761 3.171-0.706 3.056-0.117 2.822-0.116 2.35z" />
<glyph unicode="&#xe911;" d="M515.417-22.376l-0.131 39.484 6.97-0.135 15.985-22.454 0.061 22.878h8.233v-39.117l-6.908-0.055-15.932 20.227-0.478-20.822z" />
<glyph unicode="&#xe912;" d="M465.154-21.051l16.207 38.527 8.766-1.018 9.683-39.853-9.072 0.712-1.529 7.031-12.538 1.43-3.058-7.644z" />
<glyph unicode="&#xe913;" d="M484.717 5.145l3.525-13.473-9.478 0.859z" />
<glyph unicode="&#xe914;" d="M425.926 23.476l7.162-1.136-6.408-38.699-7.54 1.38z" />
<glyph unicode="&#xe915;" d="M390.866 32.525l1.632-41.847 8.797-1.883 21.614 34.932-7.666 2.013-15.33-22.497-1.256 27.27z" />
<glyph unicode="&#xe916;" d="M380.089 35.985l8.526-3.123-12.684-36.386-7.486 3.116z" />
<glyph unicode="&#xe917;" d="M461.733 7.593l5.643 3.497-0.398 1.030-0.953 1.908-1.669 1.909-1.589 1.196-1.988 1.19-2.464 1.35-2.464 0.798-2.464 0.792-3.1 0.16-3.020-0.479-3.021-0.87-2.544-1.27-1.669-1.357-1.509-1.35-1.431-2.067-0.477-2.22-0.080-2.785 0.239-1.989 0.557-1.43 1.033-1.35 2.145-2.067 2.941-1.748 1.987-1.031 2.862-0.956 2.145-1.031 3.338-1.668 2.305-1.589 0.874-1.516-0.080-1.822-0.795-1.755-1.51-1.35-1.8-0.656-2.13-0.289h-2.255l-2.417 0.535-2.704 1.227-2.295 1.399-4.343 3.571-5.491-3.405 2.459-2.344 4.59-3.325 3.278-2.135 4.261-2.135 2.745-0.406 2.212-0.128 3.442 0.411 3.893 0.822 2.785 1.276 2.090 1.602 1.188 1.559 1.312 2.46 0.246 1.645v2.791l-0.532 2.546-1.23 3.202-1.23 1.393-1.843 1.479-2.663 1.356-3.359 1.148-5.859 2.178-1.679 1.227-1.476 1.479-0.614 1.687 0.164 1.847 1.188 1.11 1.516 0.902 3.238 0.736h2.007l2.171-0.535 2.049-1.024 1.517-1.436z" />
<glyph unicode="&#xe918;" d="M345.771 6.256l-3.242 1.35-4.458 2.024-5.27 3.11 16.078 35.534 6.902-2.497 4.911-2.166 3.929-1.669 2.75-2.454 2.26-2.65 1.375-2.853 1.080-2.748 0.295-5.406-0.393-2.846-0.687-3.534-0.885-2.951-1.867-3.24-1.67-2.263-1.866-1.767-2.26-1.963-2.946-1.276-3.439-0.982-2.75-0.294h-2.652l-2.358 0.589z" />
<glyph unicode="&#xe919;" d="M353.619 11.096l-2.241-0.055-1.59 0.447-3.144 1.479-2.26 1.178-1.669 1.669 10.904 22.693 4.122-1.785 3.235-1.975 1.719-1.571 0.959-1.871 0.657-2.485 0.152-3.337-0.303-2.484-0.657-3.037-1.465-3.037-1.062-1.822-1.465-1.774-1.719-1.319-1.668-0.81z" />
<glyph unicode="&#xe91a;" d="M304.228 70.36l24.277-12.939-3.391-6.674-16.539 9.117-4.028-7.105 14.736-8.908-3.393-6.467-14.948 8.485-3.817-7.32 17.388-10.809-3.604-6.467-24.383 14.841z" />
<glyph unicode="&#xe91b;" d="M298.822 66.39l-6.436-1.030-0.258 3.085-0.607 2.332-0.853 1.988-1.327 2.086-2.371 1.804-1.99 0.852-3.033 0.381-1.801-0.098-1.233-1.227-0.759-1.896 0.38-2.086 0.947-2.374 2.655-3.129 3.317-4.166 2.371-3.319 1.517-3.128 0.285-3.031-0.569-2.656-1.232-2.559-2.371-2.178-2.37-1.613-2.653-0.663h-3.224l-3.033 0.472-2.938 0.853-2.845 1.135-2.465 1.896-1.8 2.275-3.601 5.406-1.422 3.22-0.864 2.558-0.14 1.276h6.998l0.585-2.043 0.878-2.226 1.417-2.362 1.688-2.16 2.362-2.092 1.619-0.675 3.308-0.068 1.687 0.54 1.755 1.282 0.675 1.688-0.406 2.43-1.552 2.024-2.767 3.711-3.779 4.184-1.485 2.97-0.675 3.105 0.068 5.061 1.754 2.633 2.767 2.16 2.498 1.221 3.442 0.472 2.767-0.276 2.498-0.809 2.024-0.878 4.135-2.945 2.254-2.221 2.221-2.417 1.176-2.939 0.751-2.381z" />
<glyph unicode="&#xe91c;" d="M217.049 138.372l-19.673 21.81-4.791-5.197 7.034-7.95-22.323-21.307 4.586-5.601 22.426 21.098 7.95-7.95z" />
<glyph unicode="&#xe91d;" d="M163.951 138.636l31.444 22.693-4.538 6.804-18.261-12.964 9.184 25.283-4.538 6.374-30.688-23.988 3.999-6.049 19.558 14.368-9.617-27.227z" />
<glyph unicode="&#xe91e;" d="M249.932 108.759l6.715-5.896-13.35-38.086-6.389 5.729 1.719 5.896-9.254 8.766-6.962-4.589-6.143 6.227z" />
<glyph unicode="&#xe91f;" d="M246.083 96.765l-4.683-13.129-6.245 6.313z" />
<glyph unicode="&#xe920;" d="M219.592 135.544l-25.908-26.742 4.156-4.988 11.638 10.393 2.633-2.632-2.771-17.737 4.988-5.681 3.74 16.215 2.91-0.276 3.047-0.282 2.91 0.282 2.494 1.105 2.493 1.386 1.385 1.522 1.246 2.497 1.247 3.325 0.139 3.185-1.247 3.19-1.525 2.908-1.801 2.49-3.047 3.049z" />
<glyph unicode="&#xe921;" d="M212.676 118.348l7.78 8.614 3.214-2.571 1.801-1.668 1.479-1.35 1.093-2.061-0.065-3.792-0.9-1.994-2.121-1.866-1.737-1.030-1.736 0.258-1.351 0.963-3.215 2.577z" />
<glyph unicode="&#xe922;" d="M141.896 222.066l2.842-6.073 2.449 1.473 2.156 2.055 1.371 2.252 1.177 3.723 0.196 3.528-0.784 3.724-0.882 3.037-1.176 2.742-1.568 2.644-1.862 1.473-2.351 1.571-2.645 1.27-3.038 0.49-3.134 0.295h-3.135l-3.234-0.492-2.841-0.981-2.352-1.074-2.743-1.668-2.253-1.565-2.254-2.061-1.666-2.055-2.253-3.528-1.078-3.037-0.098-3.233 0.098-3.234 0.489-2.644 1.078-3.331 2.057-3.134 1.764-1.767 1.959-1.663 2.743-1.178 2.939-0.687 3.43-0.589 3.718-0.135-2.284 6.442-2.421 0.276-3.060 0.999-2.055 1.056-1.827 1.644-1.005 1.823-0.913 2.466-0.046 3.7 0.594 2.466 1.552 2.516 2.101 2.65 2.649 2.19 1.964 1.141 2.831 1.050 2.649 0.411h4.019l2.466-0.822 1.827-0.914 1.873-1.368 1.553-1.551 1.37-2.239 0.319-2.467-0.411-2.877-0.64-1.871-1.005-1.552z" />
<glyph unicode="&#xe923;" d="M170.395 192.611v4.823l-1.081 4.324-1.997 3.909-2.744 3.245-3.493 2.583-4.077 1.246-4.076 0.913-3.91-0.251-4.658-1.166-4.158-1.662-2.745-1.915-2.661-2.324-2.329-3.577-1.332-3.245-0.831-4.325-0.166-3.829 0.666-4.073 1.414-3.159 2.163-2.994 1.663-1.834 2.494-1.694 4.078-2.049 3.17-0.792 2.634-0.086h3.144l2.89 0.552 3.398 1.319 2.932 1.743 2.804 1.908 2.804 2.89 1.402 1.957 1.062 2.547 1.062 3.227z" />
<glyph unicode="&#xe924;" d="M162.101 199.974l-1.437 2.595-1.982 1.577-1.915 0.89-2.599 0.816-3.282 0.14-2.599-0.484-3.418-1.227-2.736-1.914-1.778-1.571-1.709-2.123-1.095-2.258-0.478-2.871-0.069-2.123 0.615-1.981 1.094-2.393 1.026-1.368 1.231-1.436 2.051-1.024 2.121-0.755 2.187-0.27h2.736l2.735 0.547 2.051 1.024 1.982 1.3 2.052 1.638 1.71 1.645 1.23 1.368 0.753 1.502 0.478 1.302 0.342 2.324-0.273 2.117-0.547 1.78z" />
<glyph unicode="&#xe925;" d="M65.838 402.644l0.271-7.43 37.558 0.81 0.135 7.301z" />
<glyph unicode="&#xe926;" d="M103.668 394.27l-35.937-16.755 0.27-8.374 38.64-7.565-0.541 7.699-26.481 5 24.184 11.89z" />
<glyph unicode="&#xe927;" d="M108.126 359.686l-37.424-6.491 1.622-8.239 36.882 6.485z" />
<glyph unicode="&#xe928;" d="M122.575 305.993l-32.713-24.46-3.044 7.074 6.974 5.306-4.716 13.062-7.858-0.687-1.867 7.956 39.784-0.197z" />
<glyph unicode="&#xe929;" d="M110.394 306.926l-15.004 0.3 3.046-10.583z" />
<glyph unicode="&#xe92a;" d="M125.062 264.643l5.905-1.994 1.164 2.080 0.833 2.498 0.499 2.993 0.083 3.074-0.166 2.497-0.998 2.577-1.081 2.331-1.581 2.412-1.996 2.828-1.997 1.411-2.162 1.085-2.495 0.663-2.912-0.080-3.16-0.999-2.080-1.663-1.414-1.662-1.497-2.332-0.499-2.576-0.333-3.332 0.416-2.49 0.583-3.331 0.333-2.577v-2.080l-0.417-2.331-0.831-1.16-1.913-1.668h-1.914l-1.996 0.503-2.080 1.828-1.164 3.16-0.25 3.577 0.167 4.246 0.416 6.239-6.821 1.411-0.583-3.246v-3.325l-0.166-3.908v-3.080l0.5-3.491 1.164-3.577 1.58-2.583 2.080-2.080 2.080-1.245 2.828-1.245 3.077-1.252h2.661l2.33 0.166 2.495 1 1.829 2.245 1.748 3.577 0.997 2.914 0.25 3.239-0.333 4.161-0.831 3.331-0.167 2.576v2.576l0.666 1.915 1.663 0.913h1.831l1.83-0.827 1.497-1.749 1.581-2.497 0.582-1.909 0.083-2.080-0.25-2-0.582-1.828z" />
<glyph unicode="&#xe92b;" d="M110.964 349.281l6.754-29.049-6.35-1.35-3.108 10.539-30.127-7.706-1.621 7.031 30.397 7.699-2.296 11.215z" />
<glyph unicode="&#xe92c;" d="M108.126 359.686l1.080-8.245-36.882-6.485-1.622 8.239z" />
<glyph unicode="&#xe92d;" d="M106.64 361.575l-0.541 7.699-26.481 5 24.184 11.89-0.135 8.105-35.937-16.755 0.27-8.374z" />
<glyph unicode="&#xe92e;" d="M65.838 402.644l37.965 0.681-0.135-7.301-37.558-0.81z" />
<glyph unicode="&#xe92f;" d="M90.441 411.533l2.415-5.693 2.511 0.865 2.221 1.159 1.932 1.546 2.511 2.804 1.448 3.38 0.773 3.571v4.539l-0.677 2.994-1.448 4.344-1.835 2.896-2.029 2.129-2.703 2.318-3.67 1.737-3.96 1.159h-4.152l-4.057-0.288-3.089-0.97-4.25-1.448-2.221-1.546-2.125-1.448-1.931-2.123-1.159-1.932-0.966-2.509-0.966-4.834-0.097-2.699 0.387-2.896 0.579-2.129 1.546-2.896 1.931-2.031 6.471-6.467 3.38 5.987-2.415 1.638-2.704 2.319-1.931 2.804-0.483 2.994v3.374l1.353 2.993 2.124 2.614 2.801 2.22 2.608 0.964 2.897 0.675h2.704l3.284-0.386 3.863-1.062 2.608-1.546 1.448-2.024 1.159-2.804 0.386-2.798 0.193-2.515-0.385-2.221-1.159-2.024-1.353-1.742z" />
<glyph unicode="&#xe930;" d="M107.159 493.472l-0.599-9.589-37.893 5.246 0.749 9.282z" />
<glyph unicode="&#xe931;" d="M74.358 527.466l1.349 8.393 38.491-8.393-1.198-8.234-25.91-10.484 21.866-3.749-0.898-8.087-37.744 6.295 0.599 7.485 26.96 11.386z" />
<glyph unicode="&#xe932;" d="M85.442 577.454l39.891-10.54-2.874-11.503-22.522-0.24 18.448-13.178-2.756-10.3-38.693 9.343 1.558 8.148 20.005-3.835-17.849 10.062 1.797 7.669 21.682 0.84-20.724 5.988z" />
<glyph unicode="&#xe933;" d="M94.166 457.724l3.238-5.031 1.978 1.257 2.249 1.975 1.439 2.43 1.529 2.607 1.26 3.331 0.27 2.785 0.089 3.331-0.539 2.877-0.81 3.148-1.619 2.97-2.068 1.797-2.878 1.436-2.249 0.81-2.877-0.086-2.428-1.264-2.788-2.424-1.62-3.061-1.349-2.97-1.529-4.675-0.72-2.43-0.81-1.975-1.349-1.712-1.888-0.987-1.978-0.632-2.25 0.454-1.168 1.528-0.989 1.889-0.27 2.067v2.16l0.18 2.246 0.989 2.521 1.799 2.877 1.798 3.148 1.26 1.527-4.767 5.4-1.44-1.534-1.798-2.153-1.619-2.521-1.35-2.16-1.079-2.877-0.809-2.699-0.339-2.62 0.059-3.565 0.416-2.367 0.889-2.791 1.365-2.252 1.602-2.258 2.433-2.312 2.847-1.362 2.907-0.473 2.432-0.061 2.61 0.773 1.839 1.54 1.602 2.196 1.839 2.429 0.83 2.908 1.305 3.203 1.009 2.669 1.543 3.024 1.483 1.903 1.78 0.889 1.602-0.116 1.187-1.423 1.009-1.964 0.415-2.901-0.297-2.375-0.889-2.791-1.306-1.779z" />
<glyph unicode="&#xe934;" d="M129.373 579.816l2.526 3.901 1.952 4.822 0.344 4.018-0.459 4.136-1.608 4.251-3.215 4.362-3.329 3.442-4.134 2.067-4.822 1.491-5.052 0.46-5.282-0.57-4.822-1.723-3.674-2.755-2.87-3.909-2.297-4.129-0.574-4.822 0.23-3.565 1.377-4.589 2.297-4.135 3.789-3.786 3.215-2.41 3.674-1.38 3.903-0.578 4.593-0.343 4.249 0.687 3.445 0.349 2.87 1.608z" />
<glyph unicode="&#xe935;" d="M123.51 584.638l1.882 2.392 0.771 2.914v2.822l-0.942 3.509-2.14 3.086-3.081 2.392-3.767 1.632-3.766 0.509-3.68 0.086-3.168-1.024-2.653-1.626-1.883-2.656-0.771-2.908v-5.055l1.884-2.908 1.797-1.883 2.739-1.797 3.168-1.283 2.653-0.773 3.082-0.085h2.568l2.482 0.944z" />
<glyph unicode="&#xe936;" d="M243.825 734.797l0.194 1.739-1.090 1.532-1.882 2.057-5.066 4.561-6.573 6.378-5.134 6.38-8.216 9.567-9.515 10.666-1.267 0.412-0.958-0.343-8.181-7.751-0.137-1.921 1.883-1.714 6.435-5.624 4.518-5.11 5.819-6.482 5.443-6.173 5.545-6.276 1.062-1.99 0.342-1.132v-2.4l-0.651-1.509-1.985-2.914-3.15-3.704-1.882-1.647-2.294-1.235-2.978-1.028-2.601-0.309h-4.005l-2.602 0.823-1.505 0.721-2.568 1.542-2.122 1.441-1.677 1.406-2.636 2.401-1.986 1.989-1.882 2.263-2.191 2.47-4.176 5.453-3.184 3.669-3.901 5.076-1.3 0.102-0.959-0.412-2.361-1.92-4.895-5.042v-1.062l1.883-2.538 6.298-6.996 13.932-14.951 3.936-3.636 2.088-1.714 2.465-1.406 2.704-1.2 3.628-0.926 3.492-0.515 4.553-0.102 2.601 0.479 3.628 1.647 3.663 2.949 2.704 2.847 2.875 3.018 3.765 4.492 2.43 3.258 7.12 7.887z" />
<glyph unicode="&#xe937;" d="M251.221 740.268l6.255 4.983 2.545 2.014 0.424 1.379-1.166 1.484-2.65 2.438-4.453 4.028-3.603 3.816-4.029 4.877-3.71 4.983-3.498 5.936-1.909 3.817-1.166 3.498-0.636 5.195 1.060 3.181 2.969 3.499 2.333 2.862 4.24 1.909 4.664 0.317 5.089-1.272 4.664-2.757 3.075-2.757 2.968-3.393 2.226-3.181 2.651-4.452 2.332-4.877 2.333-5.088 1.378-3.922 0.742-4.029 1.060-2.014 1.59-0.318 2.121 1.485 7.211 5.585-0.16 1.294-1.518 3.523-3.029 6.911-2.888 6.625-1.94 3.787-3.029 4.733-5.348 7.431-4.070 4.213-3.076 2.129-3.834 1.231-3.455 0.427-3.787 0.378-3.314-0.095-2.508-0.425-4.969-1.563-2.745-1.466-2.888-2.225-7.194-7.336-3.218-3.644-4.023-3.644-1.94-1.373-5.301-3.928-0.284-1.61 0.805-1.23 4.874-5.301 7.242-8.188 6.958-7.999 4.022-5.206 2.792-3.881 5.633-8.567 2.65-4.070 0.899-0.805z" />
<glyph unicode="&#xe938;" d="M284.264 793.154l-6.489 11.896-5.407 8.806-4.48 6.952-2.936 3.708 0.131 1.308 5.732 3.767 4.669 2.294h1.555l0.737-1.638 1.147-3.931 1.883-4.668 5.16-9.91 3.277-5.815 4.505-7.781 6.061-8.354 4.095-4.996 1.966-2.211-0.083-2.048-0.572-0.901-3.441-1.884-6.715-4.259h-1.802l-0.901 1.556-1.638 4.832-2.866 6.225z" />
<glyph unicode="&#xe939;" d="M317.066 817.555l-3.026 2.053-4.537 4.538-4.539 4.647-3.998 4.753-4.863 6.159-1.945 2.162-1.572 0.28-4.405-2.937-4.456-2.674-2.884-1.887 0.157-1.312 2.045-2.097 3.723-2.726 4.824-3.775 4.981-3.88 5.82-4.93 5.348-4.771 3.828-4.090 4.614-4.404 5.138-5.244 2.988-2.621 2.989-2.569 1.154-0.577 0.839 0.367 0.419 1.154 0.21 1.939v7.603l-0.052 17.093v17.566l0.105 13.528v4.614l-0.734 1.049-0.996 0.524-1.416-0.157-2.097-0.892-8.336-4.3-0.682-1.101 1.625-2.779 2.569-5.348 0.734-3.356 0.472-4.404 0.472-4.3v-7.708l-0.577-4.456-0.944-1.154-1.258-0.262z" />
<glyph unicode="&#xe93a;" d="M379.075 852.621l-5.723-3.577-5.802-2.702-6.835-2.544-4.849-1.272-3.815-0.556-1.509 0.239-1.193 1.669-0.873 2.225-0.397 3.18 0.079 3.894 0.716 2.941 1.669 2.225 2.225 1.987 2.622 1.59 3.577 0.953 3.815 0.874 4.451 0.239 6.755-0.477 0.636 0.716-0.397 2.782-2.862 8.026-1.112 0.716-2.385-0.716-9.776-3.417-6.597-2.941-4.133-2.543-2.941-2.623-2.543-3.18-1.988-2.86-1.748-3.339-1.829-4.45-0.476-3.497v-7.471l0.476-2.782 0.954-4.053 1.033-3.338 1.431-3.18 2.384-4.133 2.464-3.18 2.862-2.622 2.861-2.226 3.18-1.431 3.020-0.635 4.531-1.113 3.178-0.397 4.133-0.080 3.497 0.239 3.894 1.192 3.736 1.51 3.736 1.431 6.756 3.498 1.748 1.509 1.193 1.908-2.305 9.219-1.193 0.557-1.192-1.272-2.544-2.384-2.622-2.146-3.497-2.544-4.133-2.305-2.384-1.112-2.942-0.477-3.020-0.080-4.053 0.953-3.021 1.51-2.384 1.828-2.146 2.305-1.748 3.101-0.318 1.987 0.080 1.908 2.225 1.589 5.326 2.146 8.663 3.417 4.769 1.749 2.701 0.397 3.815 0.397 1.431 0.239 1.352 1.272-0.82 3.047-1.946 5.118-1.010 1.585z" />
<glyph unicode="&#xe93b;" d="M404.554 848.581l-1.479 6.181-1.226 4.698-1.183 5.080-1.48 6.053-0.549 2.625 0.38 1.652 1.183 1.27 2.324 1.143 1.69 0.212h1.86l2.239-0.254 2.154-0.974 1.691-1.228 1.648-1.609 1.268-2.032 0.718-2.117 0.381-2.244 0.211-2.159-0.085-2.625-0.755-2.163-1.071-1.801-1.483-1.566-2.844-2.637-3.956-2.432-2.092-1.172 0.158-0.66 0.945 0.391 2.225 0.124 2.638-0.7 3.007-1.607 4.039-2.968 5.192-4.080 3.009-3.214 1.566-1.731 1.977-2.72 1.484-2.678 1.113-1.937 5.398 0.372 2.514 0.329 3.915 0.495 2.060 0.742-0.248 1.319-1.318 1.853-4.533 6.181-4.038 4.163-2.927 2.554-3.667 3.091-2.431 1.812-2.885 2.266v1.237l1.401 1.69 1.814 2.225 1.566 2.101 1.154 2.019 0.823 2.225 0.166 2.472-0.413 3.586-0.659 2.637-1.277 2.596-1.36 2.101-1.773 1.772-2.266 2.102-2.225 1.318-2.39 0.784-2.802 0.329-6.429 0.083-3.090-0.165-2.308-0.165-5.264-1.022-3.569-1.093-4.905-2.026-2.501-0.762-3.37-0.354-1.086-0.463 0.027-1.062 1.006-2.314 0.951-2.832 1.196-3.022 1.467-3.131 1.494-4.303 1.25-3.839 1.441-5.009 1.087-5.147 1.006-5.009 1.168-6.018 0.979-7.978 0.679-6.426 0.462-1.090 3.126-0.136 4.266 0.464 4.484 0.734 2.284 1.226 0.57 0.79-0.217 2.969-1.359 3.294-1.114 3.268-1.224 3.975-1.99 6.984z" />
<glyph unicode="&#xe93c;" d="M477.949 882.377l0.251 2.387-0.125 4.65-0.503 3.769-0.416 0.59-6.935 0.878-5.771 0.254-6.553 0.11-2.849-0.492-4.102-1.2-3.575-2.036-2.16-1.783-2.033-2.072-1.743-3.019-0.671-2.528-0.364-2.49 0.145-5.037 0.744-2.982 1.271-2.836 1.488-1.618 2.831-2.346 4.192-2.582 3.901-1.692 3.503-0.836 3.612-0.564 6.316-1.473 4.663-1.182 2.796-2.437 1.652-2.71 0.018-2.164-1.761-2.963-3.866-2.745-3.158-1.183-3.656-0.436-3.208 0.184-3.621 0.551-3.071 0.964-2.2 0.965-2.842 1.332-1.421 0.78h-1.054l-0.779-0.872-0.367-1.516-0.184-4.821-0.091-5.878 0.779-0.781 2.062-0.413 4.491-0.138 4.446-0.183 5.959-0.092 5.179 0.919 5.041 1.331 3.117 1.47 3.345 2.113 2.75 2.433 1.558 1.974 1.147 2.342 0.595 2.159 0.505 2.525-0.046 4.27-0.505 3.169-1.191 4.178-1.421 2.801-1.604 2.021-3.759 2.893-2.428 1.377-3.896 1.24-11.596 1.928-4.217 1.011-2.062 0.964-1.283 1.424-0.963 1.928-0.275 2.479 0.183 2.159 0.916 1.469 1.329 1.286 2.108 0.78 2.704 0.138 2.429-0.184 2.98-0.597 2.566-0.368 2.383-0.78 2.201-1.102 2.521-1.24 1.696-0.826 1.512-0.046z" />
<glyph unicode="&#xe93d;" d="M492.35 895.356l11.195 0.99 0.99-0.532-0.305-7.617-0.38-10.435v-23.458l0.837-12.11 0.763-4.57-0.99-1.371-3.047-0.381-7.845 0.458-0.761 0.913-0.153 5.712v14.7l0.609 10.13-0.457 11.272-1.143 13.937v1.067z" />
<glyph unicode="&#xe93e;" d="M734.757 827.944l2.123 1.908 1.908 3.181 1.798 2.12-0.951 2.015-3.712 3.074-3.711 2.545-5.724 3.181-4.982 1.484-4.233 0.487-5.65 0.737-5.079-0.082-5.571-1.884-5.32-2.538-4.344-3.031-3.6-4.013-2.375-3.358-1.724-3.767-1.471-4.669-0.332-4.177v-5.406l0.497-4.095 0.571-4.914 2.46-6.061 3.276-4.668 4.013-3.767 5.239-3.522 4.748-2.949 4.344-2.294 3.442-1.31 3.601-0.082 2.951 3.685 3.11 4.914-0.080 0.819-1.313 0.819-3.601 0.164-3.932-0.082-5 1.146-3.522 1.884-2.785 2.294-2.129 2.047-1.963 3.112-1.227 3.031-0.49 2.867-0.086 3.276 0.245 2.621 0.492 2.129 1.067 1.802 2.54 0.572 2.050-0.245 3.436-1.966 5.405-3.359 4.509-2.457 2.455-1.638 2.049-1.801 2.375-2.621 1.067-0.819 1.393-0.49 0.896 0.49 1.313 1.802 2.215 2.948 1.637 3.195 0.246 1.147-0.577 0.9-2.129 0.655-4.012 0.41-2.541 0.983-3.356 1.475-6.553 3.194-5.245 3.277-2.945 2.211-0.902 1.966 0.571 2.457 0.736 1.966 1.478 2.048 1.884 1.474 2.288 1.802 2.627 1.147 2.865 0.492 2.54-0.083 2.295-0.492 2.865-0.982 1.963-0.819 4.098-2.048 1.963-1.719 1.718-2.13 0.987-1.883 1.307-1.638z" />
<glyph unicode="&#xe93f;" d="M745.604 763.359l2.043 2.921 2.484 5.113 3.503 6.28 4.381 6.428 3.362 4.236 3.798 5.113 3.65 4.090 4.239 2.921 4.381 0.877 3.944-0.146 5.111-2.775 4.092-3.214 1.902-3.651 0.436-5.698v-5.259l-1.313-4.090-2.485-4.675-2.92-3.213-3.944-3.944-5.257-4.82-4.823-3.944-4.527-3.067-3.798-2.483-0.73-1.753 1.46-2.337 3.945-3.944 2.478-2.045 2.196 0.438 2.282 1.618 3.46 3.388 9.804 10.019 5.834 5.983 2.742 3.099 2.375 3.316 1.663 2.595 1.079 3.676 0.503 2.451 0.289 2.522-0.068 5.766-0.577 2.955-1.153 2.668-1.878 3.171-1.945 3.027-2.669 3.028-2.884 2.811-2.81 1.874-2.742 1.731-2.589 1.369-3.246 1.297-2.669 1.658-2.307 1.369-2.447 1.803-1.374 1.873-2.086 1.226-2.166 1.154h-1.294l-2.233-3.893-2.742-5.261-3.749-7.136-3.534-5.334-3.963-6.127-3.675-5.334-2.092-2.523-3.674-4.036-2.67-2.955-3.024-2.955-1.013-1.731 0.289-1.586 1.951-2.163 3.889-3.027 3.32-2.595h0.932z" />
<glyph unicode="&#xe940;" d="M849.469 690.976l-0.393 1.847 1.712 3.686 3.030 5.669 4.479 6.457 4.485 6.325 2.503 4.086 2.767 2.241 2.11 0.658-0.527 1.845-2.11 3.031-8.037 8.698-1.454 0.131-2.104-2.635-3.429-7.249-5.669-12.783-6.853-13.045-4.871-8.7-5.405-8.828-0.135-1.583 7.644 0.792 13.313 1.319 9.619 1.313 14.498 2.638 8.828 1.712 3.822 0.792 3.823 2.11 0.398 2.503-1.846 3.429-5.669 7.378-1.846-1.055-1.975-2.373-2.375-2.638-3.822-1.975-4.081-1.583-6.067-1.711-6.853-1.847z" />
<glyph unicode="&#xe941;" d="M924.978 443.165l-0.583 2.92-0.583 9.644v5.111l2.043 2.773 4.822 1.608 5.988 1.024 7.448 1.166 6.724 0.589 12.558-0.147h7.16l1.159 1.19-0.208 8.289-0.289 3.914-0.988 0.54-3.214-0.54-5.847-1.19-6.392-1.117-11.123-1.362-4.411-0.123-8.816-0.534-7.418-0.534-5.932-0.289-2.761-1.073-0.043-3.957 0.245-3.006 0.663-4.614 0.246-7.748 0.123-11.087v-5.233l0.534-1.608 1.405-0.331 4.282 0.129 3.877 0.079 0.614 0.62 0.085 1.853-0.165 1.65z" />
<glyph unicode="&#xe942;" d="M513.163 838.218l1.621 3.647 0.541 3.918 0.676 4.458-0.135 5.133v9.458l-0.135 17.293-0.27 6.079-0.541 2.838-1.351 2.296-0.135 1.622 2.162 1.486 3.647 0.135 9.728 0.27h10.27l5.264-0.676 5.675-1.621 5-1.621 4.055-2.973 4.589-4.323 2.705-4.188 1.89-3.647 1.35-5.404v-5.134l-0.406-4.864-0.675-3.783-1.214-4.729-1.889-4.728-3.651-5.134-3.105-2.838-3.515-2.702-4.19-2.161-4.184-1.217-3.65-0.135-4.865-0.27-5.939 0.135-5.407 0.406h-5.945l-5.268 0.27-1.756 0.676z" />
<glyph unicode="&#xe943;" d="M528.027 850.242l0.134 14.726 0.135 10.403 0.406 6.62 1.079 3.242 2.43 1.757 3.11 1.080h4.19l5.399-1.621 3.515-2.026 2.699-2.297 3.381-4.729 1.35-3.377 0.809-3.649 0.406-4.998-0.675-5.134-1.080-4.053-2.159-4.594-3.246-3.783-4.319-2.972-3.92-1.891-2.97-0.136-5.27 0.676-3.38 1.891-1.485 2.838z" />
<glyph unicode="&#xe944;" d="M616.020 825.073l-2.613 15.284-1.674 10.251-1.117 7.456-0.933 7.642-0.189 7.642 0.558 3.541 2.613 0.186 4.473-0.932 3.356-0.186 2.233 0.559 2.294 1.857 0.699 1.522v2.466l-1.288 1.29-3.11 0.236-4.754 0.293-5.927 1.115-5.987 1.174-18.252 3.286-5.577 1.233h-3.343l-1.289-0.939-2.761-3.462-1.233-1.82-0.527-1.584 2.644-0.236 3.816 0.528 3.926-0.411 2.644-0.587 2.933-0.587 1.645-0.822 0.999-1.935-0.589-2.114-1.645-3.344-1.35-2.289-3.932-6.104-8.975-12.617-6.454-8.92-4.816-7.16-0.466-1.35 0.527-0.763 1.522-0.646 3.055-0.762 3.816-0.881 2.46-0.176 1.528 0.705 1.172 1.642 4.11 8.333 1.877 3.345 1.116 2.054 1.405 0.763 2.939-0.352 5.16-0.881 5.165-1.056 1.411-0.47 1.466-1.174 0.706-2.641 0.233-4.107 1.411-11.092 0.761-1.174 11.798-3.228 0.939 0.411z" />
<glyph unicode="&#xe945;" d="M599.259 854.374l-0.546 4.24-0.89 4.239-1.711 4.786-0.89-0.069-1.779-2.324-3.552-4.719-1.577-2.94-0.068-1.915 2.939-1.026 1.988-0.478 3.694-0.615 1.503-0.206 0.956 0.343z" />
<glyph unicode="&#xe946;" d="M637.389 880.669l5.454-1.579 7.172-2.296 6.748-1.722 6.024-2.010 5.884-3.157 4.883-4.019 3.871-4.593 3.448-5.884 1.577-5.023 0.577-5.742-1.576-8.181-2.013-7.463-3.588-6.172-5.455-4.593-5.742-3.588-7.172-1.866-6.172-0.431-7.755 0.861-8.608 2.297-15.073 5.31-0.43 1.435 0.578 2.87 1.723 3.158 1.718 2.87 3.589 7.607 3.012 9.042 3.448 10.62 1.724 8.899 0.859 6.889 0.288 4.736z" />
<glyph unicode="&#xe947;" d="M660.738 864.693l4.276-2.961 2.963-3.209 2.466-5.020 0.822-6.090-0.411-4.855-1.565-5.595-1.969-5.102-3.706-5.431-2.798-2.798-3.374-1.893-4.362-0.74-3.785 0.248-3.454 1.069-4.528 1.729-3.122 1.316-1.565 1.564-0.412 2.14 0.656 4.031 1.731 5.431 1.809 5.348 2.135 6.83 2.387 6.665 1.485 3.373 1.479 2.962 1.564 1.482 2.141 1.069 2.633 0.247h2.552l2.055-0.987z" />
<glyph unicode="&#xe948;" d="M836.064 711.433l4.018 3.195 5.062 6.252 3.608 9.093 0.226 11.19-0.552 3.020-0.601 2.518-1.245 3.528-2.375 4.845-5.037 5.142-5.637 3.956-7.81 2.768-8.405 0.593-9.393-2.273-7.22-3.362-4.84-4.054-4.945-6.624-3.068-7.218-0.792-6.92 0.595-8.603 2.178-5.833 3.657-6.624 4.847-4.846 6.030-3.262 5.436-1.68 5.337-0.692 6.625 0.395 5.835 1.384 4.252 1.582z" />
<glyph unicode="&#xe949;" d="M800.242 725.503l-0.226 7.096 0.681 5.746 1.687 4.506 2.141 4.055 2.927 3.943 2.933 3.041 3.263 2.028 4.73 1.577 3.829 0.564 4.172-0.564 3.491-1.126 3.153-2.028 2.933-3.492 1.46-2.929 0.681-3.606-0.227-4.393-0.901-3.943-1.688-4.956-2.816-3.604-2.822-3.379-4.055-3.717-5.632-3.042-3.718-1.014-3.491-0.338-4.166 0.338-2.933 1.915-2.926 2.704-1.688 2.703z" />
<glyph unicode="&#xe94a;" d="M917.223 651.325l-4.324 7.57-3.552 6.338-4.479 8.185-3.399 6.337-3.091 6.331-1.546 2.473-2.473 0.773-3.405-0.822-2.705-0.896-0.939-1.288 0.596-1.773 3.994-5.921 1.552-2.589-0.221-1.706-0.663-0.889-6.736-1.332-9.62-1.699-13.834-1.405-19.313-1.552-1.111-0.816 0.816-2.589 3.252-7.326 0.963-0.963 3.258 0.441 4.589 1.111 3.92 0.889 4.59 1.185 2.81-0.442 1.625-0.742 2.001-2.736 4.883-7.472 0.595-2.295-0.301-2.294-1.92-2.442-3.111-3.552-2.81-3.036-2.89-3.031-0.735-2.221 1.625-2.884 2.81-5.626 1.706-2.957 0.81-0.447 1.484 1.479 2.516 3.184 4.435 6.737 4.221 5.62 3.111 4.367 2.736 3.626 2.957 3.405 2.736 2.59 2.595 2.515 3.773 3.7 2.441 2.221 1.185 0.368 1.11-2.147 2.515-4.883 1.552-2.81 2.516-0.147 4.736 1.921 0.742 0.815z" />
<glyph unicode="&#xe94b;" d="M876.58 658.676l-0.104 1.607 1.245 1.197 2.129 0.724 2.804 0.73 3.013 0.675 2.129 0.312h1.35l1.822-0.417 0.203-1.399-0.724-2.080-1.093-1.92-1.558-1.614-3.632-3.319-2.289-1.872h-0.828l-1.816 2.393-1.405 2.644z" />
<glyph unicode="&#xe94c;" d="M927.525 618.136l-11.080-5.228-5.853-2.877-8.828-3.693-8.197-3.332-6.122-2.251-5.319-1.804-3.417-0.724-0.184-2.251 3.515-9.455 5.135-11.442 2.429-4.318 4.411-6.399 2.791-2.699 3.608-2.344 4.049-1.442 4.687-0.987 4.773-0.184 4.411 0.269 4.418 0.724 4.589 1.35 4.055 2.522 3.614 2.798 2.424 2.337 1.613 1.78 2.018 3.141 1.718 3.381 0.95 3.325 0.356 3.202 0.055 4.804-0.65 3.442-1.78 6.050-2.195 5.932-2.908 7.24-2.902 6.582-2.196 3.798-1.19 1.013-0.89-0.418z" />
<glyph unicode="&#xe94d;" d="M893.5 589.485l6.779 3.35 6.092 2.976 5.939 3.042 4.11 1.755 6.705 2.662 2.97 1.221h1.754l2.129-1.981 1.602-2.97 1.748-3.809 0.687-3.043 0.461-3.122-0.233-3.049-1.141-4.951-0.835-2.589-1.221-1.749-1.448-2.214-1.368-1.215-1.981-2.055-2.816-1.528-3.203-1.214-3.957-0.687-4.037-0.534-3.583 0.154-3.423 0.607-3.049 1.448-2.97 2.288-3.122 3.958-1.602 2.97-1.368 3.963-0.994 2.435-0.226 1.982 0.607 1.067z" />
<glyph unicode="&#xe94e;" d="M964.371 515.522l-0.675 7.098-0.902 5.858-2.252 7.098-2.367 5.178-3.38 4.847-3.829 3.828-5.405 2.933-6.086 1.914-4.957 0.675-4.957-0.226-5.743-1.123-6.196-2.141-4.504-3.042-4.172-3.718-2.816-4.957-2.478-6.644-0.338-5.749 0.338-6.534 0.675-4.166 1.239-5.632 1.239-4.619 0.902-3.944 1.577-1.577 7.098 0.792 3.944 0.785 0.221 1.582-5.295 5.295-1.914 5.632-1.803 5.852-0.221 4.847 1.013 4.166 2.14 3.945 2.141 2.589 2.7 1.803 2.367 1.35 2.589 0.117 2.258-2.141 0.558-3.607 1.129-5.295 0.337-2.927v-4.055l0.227-7.098 0.447-3.944 1.356-1.122 4.614 0.337 3.944 0.227 2.141 0.785 0.338 1.576-1.013 2.369-2.478 4.84-1.351 4.736-0.901 5.405-0.792 6.197-0.111 4.055 1.46 1.803 4.055 0.564 2.933-0.116 3.828-1.351 2.706-2.14 1.914-3.043 1.577-3.263 1.128-3.381 0.785-3.27 0.337-4.276-0.337-2.595-0.675-2.141v-2.135l0.675-1.693 2.478-0.338 3.829 0.338 2.595 0.564z" />
<glyph unicode="&#xe94f;" d="M967.825 361.735l-6.896 0.46-5.055 0.35-5.178 0.687-13.447 2.761-8.503 2.067-12.644 2.871-4.484 1.497-0.804-3.681-1.148-5.632-1.497-5.749-2.183-7.012-0.461-4.595 0.117-3.908 1.147-3.909 1.841-4.367 2.301-2.645 2.183-1.84 2.301-1.491 3.214-1.497h3.681l3.909 0.577 3.104 1.38 2.755 2.412 1.497 1.264 1.724 0.35 0.687-2.301 1.38-3.22 1.607-2.067 2.074-1.497 1.952-1.265 2.987-0.92 3.448-0.461 4.485 0.578 4.595 2.417 2.761 3.331 2.301 3.909 2.755 8.503 0.466 2.993 0.687 5.515 0.804 8.737v4.024z" />
<glyph unicode="&#xe950;" d="M941.033 345.134l0.449 3.515 1.711 2.344 3.423 0.718 4.233-0.449 3.786-1.079 3.694-1.080 1.797-1.803 0.092-4.233-0.455-3.423-1.435-3.154-2.522-2.429-2.521-0.902h-4.51l-4.233 1.981-1.619 2.252-1.35 2.43-0.724 3.245z" />
<glyph unicode="&#xe951;" d="M913.745 349.999l0.178-2.521 1.080-2.614 1.889-2.699 2.884-2.343 3.601-0.627h3.067l3.331 1.166 1.62 1.711 1.534 2.252 1.442 2.798v4.773l-1.534 1.706-1.803 0.993-4.050 0.718-4.055 0.902-3.153 0.362-2.344 0.177-1.889-0.447-0.81-1.080-0.54-2.074z" />
<glyph unicode="&#xe952;" d="M948.009 275.864l2.16 4.325 1.294 3.46 0.65 3.565 0.215 4.43-0.104 4.324-0.975 4.859-0.97 3.675-1.945 3.35-3.565 4.001-4 3.35-4.001 2.914-5.405 1.945-4.429 1.19-5.185 0.43-5.944-0.319-4.54-1.079-4.533-2.055-4.111-2.81-3.779-3.351-2.92-3.565-2.81-4.754-2.049-7.135-0.215-4.968-0.22-3.24 0.54-3.785 0.865-3.025 1.19-2.484 1.516-2.81 1.945-3.135 1.834-2.27 1.946-2.049 2.269-2.705 2.914-1.73 3.245-1.509 2.7-0.865 2.919-0.429 3.24-0.547 2.705-0.103 3.35-0.111h3.025l3.454 0.65 3.674 1.405 3.025 1.619 3.246 1.731 1.834 1.834 2.595 2.381 1.405 2.055z" />
<glyph unicode="&#xe953;" d="M920.236 309.471l3.46-0.215 3.675-1.079 2.914-1.19 2.81-1.080 3.024-2.16 3.031-2.484 1.62-2.485 1.619-3.785 0.65-3.565v-6.159l-0.975-3.675-1.080-2.699-3.564-3.565-3.135-1.731-4.104-1.3-3.35-0.54-4.969-0.325-4.865 1.085-4.43 1.399-2.705 2.055-3.35 2.595-2.699 3.025-2.055 3.134-0.97 3.24-0.215 4.325 0.104 3.779 1.191 3.89 1.404 2.919 2.16 2.81 2.81 2.050 4.001 1.19 4.104 0.65z" />
<glyph unicode="&#xe954;" d="M914.936 204.513l7.601 15.712 9.626 17.565 3.208 6.754 0.295 1.645-5.614 4.319-1.227 0.103-1.050-2.037-4.853-9.025-0.613-0.749h-1.963l-1.871 1.46-5.154 5.429-11.509 11.571-2.405 3.663-4.11 5.024-4.988 6.786-3.288 4.006-1.43 0.307-1.423-1.357-1.251-2.208-2.11-3.804-0.607-1.73 0.509-1.222 2.681-3.257 6.92-7.227 0.749-1.558 0.24-1.767-0.547-1.491-1.834-3.122-3.491-6.111-1.871-3.393-1.251-0.613-3.258 0.276-10.76 1.73-2.27 0.233-1.46-1.797-5.16-8.277-0.097-1.122 0.846-0.884 2.172-0.607 6.276 0.068 3.669-0.546 5.46-1.050 6.994-1.325 13.264-2.374 8.251-1.7 4.338-1.386 2.344-0.988 0.343-1.459-0.92-2.412-1.798-3.393-2.344-4.92 0.24-1.050 2.239-1.459 2.478-1.357 0.613 0.031z" />
<glyph unicode="&#xe955;" d="M912.494 232.618l-0.123 1.589-1.092 2.264-1.632 2.257-4.558 4.056-4.27 3.515-2.718 0.128-1.718-2.092-3.637-7.073 0.165-1.295 1.215-0.963 3.932-0.964 3.852-0.712 3.933-0.546 3.22-0.375 2.344-0.128z" />
<glyph unicode="&#xe956;" d="M918.5 435.184h6.049l5.921-0.773 5.147-0.129 5.921-0.257 8.239 0.257h4.638l5.792 0.129 9.012 1.417h2.57l1-0.49 0.361-2.436 0.319-3.233v-3.368l-0.135-3.417-0.503-1.093-1.497-0.27-2.957 0.455-5.177 0.411h-19.909l-21.405-0.638-4.596-0.638-1.496 0.865-0.135 5.46 0.092 2.418 0.226 4.232 0.724 1.050z" />
<glyph unicode="&#xe957;" d="M961.734 380.453l1.908 2.97 2.227 4.239 1.276 4.135 0.632 3.816-0.632 3.393-1.589 2.227-2.761 2.012-2.859 0.956h-2.65l-2.338-1.485-1.908-2.441-1.374-2.859-1.276-4.239-1.165-4.564-1.589-3.706-1.27-4.135-1.909-2.865-2.018-1.803-3.6-1.694-3.816-0.847-4.35-0.214-2.65 0.318-4.239 1.27-3.393 2.018-2.65 2.436-1.909 2.865-1.38 3.073-0.741 2.332-0.633 3.074-0.423 3.393 0.104 3.073 0.632 4.031 0.853 4.238 1.27 3.289 1.276 3.601 1.165 2.969h3.283l4.558-0.423 2.442-0.104 1.797-1.908-0.527-1.276-1.804-1.694-1.484-2.65-1.694-2.865-1.38-3.601-0.847-4.35-0.104-6.681 1.589-3.074 2.332-1.908 3.073-1.374 2.761 0.209 2.117 1.061 1.804 2.012 1.061 1.804 1.27 3.711 1.166 3.712 0.847 4.135 1.803 4.559 1.276 2.969 3.178 3.601 2.546 1.804 3.074 1.588 2.858 0.847h4.031l3.607-0.632 3.074-1.061 2.97-1.485 2.65-2.755 1.908-2.865 1.694-2.865 0.956-3.178 0.313-3.073-0.104-4.239-0.742-4.982-1.165-3.712-1.165-3.288-1.694-4.030-1.165-1.694-1.7-1.276-3.177 0.319-3.393 0.852-1.381 0.209-1.27 1.804z" />
<glyph unicode="&#xe958;" d="M65.536 246.784c0 133.632 0 267.264 0 400.896 0 1.024 0 1.536 1.536 1.536 296.96 0 593.92 0 890.88 0 1.024 0 1.536 0 1.536-1.536 0-133.12 0-266.24 0-399.36 0-1.024 0-1.536-1.536-1.536-297.472 0-594.944 0-892.416 0zM346.112 459.776c0-34.304 0-68.608 0-102.912 0-1.536 1.536-3.072 1.024-4.608 0 0 0 0 0 0 1.024 0 0.512-1.024 0.512-1.536s0-1.024 0-1.024c1.536-0.512 1.024-1.536 1.024-2.56 0.512-1.536 1.024-2.56 2.56-3.584 0 0 0 0 0.512-0.512 0.512-2.56 2.56-3.584 4.096-5.12 0.512-0.512 1.024 0 1.536-0.512 0.512-1.024 1.024-1.536 2.048-1.536 0 0 0.512 0 0.512-0.512 0.512-1.024 1.024-1.024 2.048-1.024 0.512 0 1.024 0 1.024 0 1.024-1.536 2.56-1.536 4.096-1.536 0 0 0.512 0 0.512 0 0.512-1.024 1.536-0.512 2.048-0.512 9.728 0 19.968 0 29.696 0 1.024 0 1.536 0 1.536-1.536 0-9.216 0-18.944 0-28.16 0-2.048 1.024-4.096 0.512-6.144 0 0 0-0.512 0-0.512 1.536-0.512 0-2.56 1.536-3.072-0.512-1.024 1.536-1.536 1.024-3.072 0 0 0.512-0.512 0.512-0.512 0.512 0 1.024-0.512 1.024-1.536 0-0.512 0-0.512 0.512-0.512 1.536-1.024 2.56-2.56 3.584-3.584s1.536-2.048 2.56-2.56c1.024-0.512 2.048-1.536 3.584-1.536 1.536-0.512 3.072-1.536 4.608-1.536 0 0 0.512 0 0.512 0 0-1.024 1.024-0.512 1.536-0.512 1.024 0 2.048 0.512 2.56 0 0.512-1.024 1.536-0.512 2.048-0.512 43.52 0 87.040 0 130.56 0 3.072 0 6.656 0 9.728 0s6.144-1.024 9.216 1.024c1.024 0.512 2.56-0.512 3.584 1.024 0.512 0.512 2.048 0 3.584 1.024s3.584 1.024 4.608 2.56c0.512 0.512 1.024 1.536 1.536 1.536 1.024 0 1.536 0.512 2.048 1.536 0 0 0.512 0 0.512 0.512 0.512 0.512 2.048 1.536 2.048 2.048 0.512 2.048 2.56 2.56 2.56 4.096 0 1.024 1.536 2.048 1.536 3.072s0.512 2.56 0.512 3.072c1.536 1.536 0.512 3.072 0.512 4.096 0 0.512 0 1.024 0 1.024 1.024 0 0.512 1.024 0.512 1.536 0 8.704 0 17.92 0 26.624 0 1.536 0.512 1.536 1.536 1.536 9.728 0 19.968 0 29.696 0 0.512 0 1.024 0 1.536 0 0.512 1.536 2.56 0 3.072 1.536 1.536-0.512 2.56 0.512 3.584 1.024 0.512 0.512 1.536 0 2.048 1.024s1.536 2.048 3.072 2.048c0 0 0.512 0.512 1.024 0.512 1.536 1.536 3.072 3.072 4.096 5.12 0 0.512 0.512 0 1.024 0.512 0.512 1.024 0.512 2.048 1.536 3.072s1.536 3.072 1.536 4.608c0.512 2.048 1.024 3.584 1.024 5.632 0 12.8 0 25.6 0 38.4 0 1.536-1.024 3.072-0.512 4.608 0 0 0 0 0 0.512-1.536 0.512-0.512 2.048-1.536 3.072-0.512 0.512-1.024 2.048-1.536 2.56s0 1.024-0.512 1.536c-1.536 1.024-2.048 2.56-3.072 4.096-1.024 1.024-1.536 2.048-2.56 2.56-1.536 0.512-2.048 2.048-3.584 2.56s-2.56 2.048-4.608 2.048c0 0 0 0-0.512 0-1.024 1.536-2.56 1.024-4.096 1.536-7.68 0-15.872 0-23.552 0s-15.36 0.512-23.040-0.512c-1.536 0-2.048-1.536-3.584-1.024 0 0 0 0 0 0-0.512-1.024-2.56-0.512-2.56-2.048-2.048 0.512-2.56-1.536-3.584-2.048s-2.56-2.048-3.584-3.072c-0.512-1.024-1.024-2.048-2.048-2.56-0.512-0.512-0.512-1.536-1.024-2.048-1.536-1.024-1.536-2.56-2.048-4.096s-1.536-2.56-1.024-4.608c0 0 0-0.512 0-0.512-1.024 0-0.512-1.024-0.512-1.536 0-9.728 0-18.944 0-28.672 0-1.024 0-1.536-1.536-1.536-43.008 0-85.504 0-128.512 0-1.024 0-1.536 0.512-1.536 1.536 0 60.928 0 121.856 0 182.784 0 1.024 0 1.536 1.536 1.536 43.008 0 85.504 0 128.512 0 1.024 0 1.536-0.512 1.536-1.536 0-9.728 0-18.944 0-28.672 0-0.512 0-1.024 0-1.024 1.536-0.512 0.512-1.536 1.024-2.56 0-0.512 0-1.024 0-1.024 1.024-0.512 0.512-1.024 0.512-2.048 0 0 0-0.512 0-0.512 1.536-1.024 1.024-2.56 2.048-4.096 0.512-1.024 2.56-1.536 2.048-3.584 2.048-1.024 2.56-3.584 5.12-4.096 0 0 0-0.512 0.512-0.512 0.512-0.512 1.536-1.536 2.048-2.048 1.024-0.512 1.536-1.024 2.56-1.024 1.536 0 2.56-1.024 4.096-1.024 0.512 0 1.024 0 1.024-0.512s0.512-0.512 1.024-0.512c14.848 0 29.696 0 45.056 0 0.512 0 1.024 0 1.024 0 0.512 1.536 2.56 0 3.072 1.536 2.048 0 4.096 1.536 5.632 2.56 0.512 0 0 1.024 1.024 1.024 1.536 0 2.048 1.024 2.56 2.048 1.024 1.536 3.072 2.048 3.584 4.608 0 0 0 0 0 0 0.512 0.512 1.024 1.024 1.536 2.048 0 0.512 0 1.536 0.512 2.048 2.048 1.024 1.536 3.072 2.56 5.12 0.512 1.536 1.024 3.584 1.024 5.12-0.512 13.824 0.512 27.648-0.512 40.96 0 1.536-1.536 3.072-1.024 4.608 0 0 0 0.512 0 0.512-1.024 0.512-1.536 2.048-1.536 2.56-0.512 2.048-2.048 3.584-3.072 4.608-1.536 1.536-2.56 4.096-5.12 4.608-0.512 1.536-3.072 1.536-4.096 3.072s-3.072 1.024-4.608 1.536c-1.536 0.512-3.072 1.024-4.608 1.024-9.728 0-18.944 0-28.672 0-1.024 0-1.536 0.512-1.536 1.536 0 5.632 0 11.264 0 16.896 0 4.096 1.024 8.192-0.512 12.288-0.512 1.536 0.512 3.072-1.024 5.12-1.024 1.536-0.512 3.584-1.536 5.12-0.512 0.512-1.024 1.536-1.024 2.56-0.512 1.024-2.56 1.536-2.048 3.584-2.048 1.024-2.56 3.072-4.608 3.584 0 0 0 0.512-0.512 0.512-1.024 0.512-1.536 1.536-2.56 2.048-0.512 0-1.536 0.512-2.048 1.024-1.024 1.536-3.584 2.048-5.12 2.048-1.536 0.512-3.584 1.024-5.632 1.024-48.64 0-97.792 0-146.432 0-2.048 0-4.096-1.024-6.656-0.512 0 0-0.512 0-0.512 0-1.024-1.024-2.56-1.024-3.584-1.536-1.024 0-1.536-0.512-2.048-1.024 0-0.512-0.512-0.512-1.024-0.512-1.024-0.512-3.072-0.512-3.584-2.048 0-0.512-0.512-1.024-1.024-1.024-2.56-1.536-4.096-4.096-5.632-6.144-0.512-1.024-1.024-2.56-1.536-3.072-1.024-1.024-1.024-2.56-1.536-3.584s-1.024-3.072-1.024-4.608c0-10.24 0-19.968 0-30.208 0-1.536 0-1.536-1.536-1.536-10.24 0-19.968 0-30.208 0-1.536 0-3.072-1.024-4.608-0.512 0 0 0 0-0.512 0-0.512-1.536-2.56-0.512-3.072-1.536 0 0-1.024-0.512-1.536-1.024s-0.512-1.024-1.536-1.024c-1.024 0-2.048-1.536-3.072-2.048s-1.536-1.536-2.048-2.048c-0.512-0.512-2.048-1.536-2.048-2.048 0-2.048-2.56-2.048-2.048-3.584-1.536-1.024-1.536-2.56-2.048-4.096s-1.536-3.072-1.024-4.608c0 0 0-0.512 0-0.512-1.024-0.512-0.512-1.536-0.512-2.048 2.56-36.352 2.56-70.656 2.56-104.96zM849.92 276.992c23.552 0 47.104 0 70.656 0 3.072 0 6.656-1.024 9.216 1.024 1.536-0.512 2.56 1.536 4.096 1.024 0 0 0 0 0.512 0.512 1.536 0.512 3.072 2.048 4.608 3.072 0.512 0.512 1.536 0.512 2.048 1.024 1.536 2.048 3.584 3.584 5.12 6.144 0.512 0.512 0.512 1.024 1.024 1.536s0 1.536 0.512 2.048c2.048 1.024 1.536 3.072 2.56 5.12 0.512 1.536 0.512 3.584 0.512 5.12 0 12.8 0 25.088 0 37.888 0 1.536-1.024 3.072-0.512 5.12 0 0 0 0 0 0.512-1.536 1.024-0.512 2.56-1.536 3.584 0 0-1.024 0.512-1.024 1.024 0 2.56-2.048 3.584-3.072 5.632-0.512 1.024-1.024 1.024-1.536 1.536-1.024 1.024-2.048 2.56-3.584 3.072-1.024 0.512-2.048 1.024-3.072 1.536-1.536 1.024-3.072 2.048-5.12 2.048-0.512 0-1.024 0-1.536 0-1.024 1.536-2.56 0.512-4.096 1.024-0.512 0-1.024 0-1.024 0-0.512 1.024-1.024 0.512-2.048 0.512-45.568 0-91.648 0-137.216 0-1.536 0-2.048 0-2.048 1.536 0 24.064 0 48.64 0 72.704 0 1.536 0.512 1.536 2.048 1.536 28.16 0 56.832 0 84.992 0 1.536 0 3.072 1.024 4.608 1.024 0.512 0 1.536 0 2.048 0.512 1.024 1.024 2.048 1.024 3.072 1.536 1.024 1.024 2.048 1.024 3.072 2.048s2.56 2.048 3.584 3.072c1.024 1.024 2.048 2.048 2.56 3.072s1.024 2.048 1.536 3.072 2.56 3.584 2.56 6.144c0 0 0 0.512 0 0.512 1.024 0 0.512 1.024 0.512 1.536 0 13.824 0 28.16 0 41.984 0 2.048-1.536 3.584-1.024 5.632 0 0 0 0 0 0-1.536 0.512-0.512 2.048-1.536 3.072s-2.048 2.56-2.56 4.096c0 0.512-1.024 0-1.024 0.512 0 1.536-1.536 2.048-2.048 3.072-1.024 1.536-3.072 1.536-4.096 3.072-0.512 1.024-2.048 1.024-3.072 2.048-0.512 0.512-1.536 0.512-2.048 0.512-1.536 1.024-3.072 1.536-5.12 1.536-1.024 0-2.048-0.512-2.56 0-1.024 1.024-1.536 0.512-2.56 0.512-27.136 0-54.784 0-81.92 0-1.536 0-1.536 0.512-1.536 2.048 0 9.728 0 19.456 0 29.184 0 5.12 0 9.728 0 14.848 0 4.608 0 9.728 0 14.336 0 5.12 0 9.728 0 14.848 0 4.608 1.024 9.728-0.512 14.336-0.512 1.024-1.024 2.56-1.536 3.584 0 0.512 0 1.024-0.512 1.536-1.536 1.536-1.536 3.584-3.072 4.608-1.024 0.512-0.512 1.536-1.024 2.048-2.048 1.536-3.584 3.072-5.632 4.096-1.024 0.512-2.56 1.024-3.072 1.536-1.536 1.536-3.584 1.536-5.12 2.048s-3.584 0.512-5.12 1.024c-12.288 0-24.576 0-36.864 0-2.048 0-4.096-1.024-6.144-0.512 0 0-0.512 0-0.512 0-0.512-1.536-2.56 0-3.584-1.536 0 0-0.512-1.024-1.536-1.024s-1.536-1.024-3.072-1.024c0 0-1.024-0.512-2.048-1.024-1.024-1.024-1.536-2.048-2.56-2.56-2.048-1.536-3.584-3.072-4.608-5.632-0.512-1.536-2.048-3.072-2.048-4.608s-1.536-3.072-1.024-4.608c0-0.512 0-1.536 0-1.536-1.024-0.512-0.512-1.536-0.512-2.048 0-30.208 0-59.904 0-90.112 0-1.536-0.512-3.072 0.512-4.608 0.512-1.024 0-3.072 1.024-4.608 0.512-1.024 0.512-2.56 1.024-3.584s0-2.048 1.536-2.56c0.512 0 1.024-0.512 1.024-1.536 0-0.512 0.512-1.024 0.512-1.536 0.512-1.024 2.56-1.536 2.56-3.072 0 0 0 0 0.512 0s1.024-0.512 1.024-0.512c1.536-0.512 2.048-2.048 3.584-2.56 0.512 0 1.536-0.512 2.048-1.024 1.024-1.024 2.048-1.024 3.072-1.536 1.536-0.512 2.56-1.024 4.096-1.024 0 0 0 0 0 0 0-1.024 1.024-0.512 1.536-0.512 9.728 0 19.968 0 29.696 0 1.024 0 1.536 0 1.536-1.536 0-5.632 0-11.776 0-17.408 0-1.024 0-1.536-1.536-1.536-8.704 0-16.896 0-25.6 0-0.512 0-1.024 0.512-1.536-0.512s-1.024-0.512-1.536-0.512c-1.536-0.512-3.584 0.512-5.12-0.512-1.024-1.024-3.072-1.536-4.608-1.536-2.048-0.512-3.584-2.048-5.12-2.56-1.536-1.024-3.072-3.072-4.608-4.096-1.024-1.024-1.024-2.048-1.536-2.56-1.024-0.512-1.024-1.536-1.536-2.048-0.512-1.024-1.536-2.048-1.536-3.072 0-1.536-1.536-3.072-1.024-4.608 0-0.512 0-1.024 0-1.536-1.024-0.512-0.512-1.024-0.512-2.048 0-7.168 0-14.336 0-21.504 0-23.552 0-47.104 0-70.656 0-0.512 0-1.536 0-1.536 1.024-0.512 1.024-1.536 0.512-2.048-0.512-2.048 0.512-3.584 1.024-5.12 0.512-2.048 1.536-4.096 3.072-6.144 1.024-1.536 2.048-3.072 3.072-4.096 0.512-0.512 1.024-1.536 2.048-1.536 1.536 0 2.048-1.536 3.584-2.048 1.024-0.512 1.536-1.024 2.56-1.024 0 0 0.512 0 0.512 0 1.024-1.024 2.56-1.536 4.096-1.536 0.512 0 1.024 0 1.024 0 0.512-1.024 1.536-0.512 2.048-0.512 10.24 0 19.968 0 30.208 0 1.536 0 1.536-0.512 1.536-1.536 0-9.728 0-19.968 0-29.696 0-0.512-0.512-1.024 0.512-1.536s0.512-1.024 0.512-1.536c-0.512-1.536 1.024-2.56 1.024-4.608 0-0.512 0-1.024 0.512-1.536 0.512-1.536 2.56-2.56 2.56-4.096 2.56-1.536 3.584-5.12 7.168-5.632 1.024-1.536 2.56-2.048 4.096-3.072 1.024-0.512 1.536 0 2.048-0.512 1.536-1.024 3.072-1.536 5.12-1.536 27.648-0.512 53.248-0.512 78.848-0.512zM228.352 643.584c-12.8 0-26.112 0-38.912 0s-25.6 0.512-38.912-0.512c-1.536 0-3.072-1.536-4.608-1.024 0-1.024-1.536-0.512-2.048-1.024-0.512-1.024-2.048-0.512-2.56-1.536-0.512-0.512-1.536-0.512-2.56-1.536-0.512-0.512-1.536-1.536-2.048-2.048-2.56-2.048-4.608-4.096-5.632-7.168 0-0.512 0-1.536-0.512-1.536-1.024-0.512-1.024-1.536-1.536-2.56-0.512-1.536-1.024-3.072-1.024-4.608 0 0 0-0.512 0-0.512-1.024 0-0.512-1.024-0.512-1.536 0-9.728 0-18.944 0-28.672 0-1.024-0.512-1.536-1.536-1.536-8.192 0-16.384 0-24.064 0-2.048 0-3.584 0.512-5.632-0.512-1.024-0.512-3.072-0.512-4.608-0.512s-2.048-1.536-3.584-1.024c0-1.536-1.536-0.512-2.048-1.024s-1.024-1.024-2.048-1.536c-1.024-0.512-2.048-1.024-2.56-2.048-1.024-1.024-2.56-2.048-3.584-3.584 0-0.512-1.024-1.536-1.536-2.048-1.024-1.024-2.56-2.56-2.56-4.096s-1.536-2.56-1.024-4.096c0 0 0 0 0 0-1.024 0-0.512-1.024-0.512-1.536 0-1.024 0-2.56-0.512-3.584-0.512-0.512 0-1.024 0-1.024 0-30.208 0-60.416 0-90.624 0-0.512 0-1.024 0-1.024 1.536-0.512 1.024-1.536 0.512-2.56-0.512-2.048 1.536-3.072 1.024-5.12 0 0 0 0 0 0 0.512-0.512 2.048-3.584 2.048-4.096 0 0 0-0.512 0-0.512 1.536-0.512 2.048-2.048 2.56-3.072 1.024-2.048 3.584-3.072 4.608-4.608 0-0.512 5.632-3.072 5.632-3.072 1.536-1.024 3.584-1.536 5.632-1.536 0 0 0.512 0 0.512-0.512 0.512-0.512 1.024-0.512 2.048-0.512 9.728 0 19.456 0 29.696 0 1.024 0 1.536-0.512 1.536-1.536 0-6.144 0-12.288 0-18.432 0-1.536 0-1.536-1.536-1.536-10.24 0-19.968 0-30.208 0-1.536 0-3.072-1.024-4.608-0.512 0 0 0 0-0.512 0-0.512-1.536-2.048-0.512-2.56-1.536 0 0-1.024-1.024-2.048-1.024s-2.048-0.512-2.56-1.536c-0.512-0.512-0.512-1.536-1.024-1.536-1.536-0.512-2.56-2.048-3.584-3.584-1.024-1.024-2.048-2.56-3.072-3.584-0.512-1.024-0.512-2.048-1.536-3.584-1.024-1.024-1.536-3.072-1.536-4.096-0.512-2.048-1.024-3.584-1.024-5.632 0-30.208 0-60.416 0-91.136 0-0.512 0-1.024 0-1.024 1.024-0.512 1.024-1.536 0.512-2.048-0.512-2.048 1.024-3.584 1.024-5.12 0 0 0 0 0.512-0.512 1.024-0.512 1.024-1.536 1.536-2.048 0.512-1.024 1.024-2.048 1.536-3.072 0.512-1.536 1.536-2.56 2.56-3.072 1.024-1.024 2.56-2.048 3.072-3.072 1.536-2.048 3.584-2.56 5.12-3.584s3.584-2.048 5.632-1.536c0 0 0.512 0 0.512 0 0-1.024 0.512-0.512 1.024-0.512 14.336 0 29.184 0 43.52 0 0.512 0 1.024 0 1.024 0 1.024 1.536 2.56 0.512 4.096 1.536 1.024 0.512 2.56 0.512 3.584 1.536 1.536 1.024 2.56 2.56 4.608 2.56 0 0 0 0.512 0.512 0.512 1.536 1.024 2.048 2.56 3.584 3.584 1.024 1.024 1.536 2.56 2.56 3.584 0.512 1.024 2.048 2.048 1.536 3.584 1.536 0 0.512 2.048 1.536 2.56-0.512 1.536 0.512 3.072 0.512 4.608 0 28.16 0 56.832 0 84.992 0 1.024 0.512 1.536 1.536 1.536 14.848 0 29.696 0 44.032 0 14.848 0 29.184-0.512 44.032 0.512 1.536 0 2.56 1.536 4.096 1.024 0 0 0 0 0 0 0.512 1.024 1.536 1.024 2.56 1.536s2.048 1.536 3.072 2.048c1.536 1.024 2.56 2.56 3.584 3.584 2.048 1.536 3.584 4.096 4.608 6.656 1.024 1.536 2.048 3.584 1.536 5.632 0 0 0 0.512 0 0.512 1.024 0 0.512 1.024 0.512 1.536 0 2.048-0.512 3.584 1.024 5.632 0 0 0 0.512 0 1.024 0 10.24 0 20.992 0 31.232 0 0.512 0 1.024 0 1.024-1.536 0.512-1.024 1.536-0.512 2.56 0.512 2.56-1.024 4.608-1.024 6.656 0 0 0 0.512 0 0.512-1.024 0-1.024 1.536-1.024 2.048 0 2.048-1.536 2.56-2.048 4.608-0.512 1.024-2.048 2.048-3.072 3.072s-2.56 2.048-3.584 3.072c-1.024 1.024-2.048 1.536-3.584 2.048s-3.072 1.024-3.584 1.536c-1.024 1.024-2.56 0-3.072 1.536-0.512 0.512-2.048 0-3.072 0-0.512 0-1.024 0-1.024 0-0.512 1.024-1.024 0.512-1.536 0.512-27.136 0-54.784 0-81.92 0-1.536 0-1.536 0.512-1.536 1.536 0 24.064 0 48.128 0 72.192 0 1.536 0.512 1.536 1.536 1.536 29.696 0 59.392 0 89.088 0 17.408 0 34.816 0 52.224 0 0.512 0 1.536 0 1.536 0 0.512 1.024 1.536 0.512 2.048 0.512 1.536 0 2.048 1.536 3.584 1.024 0.512 1.536 1.536 1.024 2.56 1.024 1.536 0.512 2.56 1.536 3.584 2.56 1.536 1.024 2.048 2.56 3.584 3.584 1.536 1.536 2.56 3.072 4.096 5.12 1.024 1.536 1.536 2.56 2.048 4.096 0 1.536 1.536 3.072 1.024 4.608 0 0.512 0 1.024 0.512 1.024 0.512 0.512 0.512 1.536 0.512 2.56 0 9.728 0 19.968 0 29.696 0 3.072 1.024 6.144-0.512 9.216-0.512 1.024 0 2.56-1.024 4.096-0.512 1.024-0.512 2.56-1.536 4.096-0.512 1.024-1.024 2.56-2.048 3.584-0.512 0.512-1.024 0.512-1.024 1.536-0.512 0-0.512 1.024-1.024 1.024-1.024 1.024-2.56 2.048-3.584 3.072s-2.56 1.536-3.584 2.048c-0.512 0.512-0.512 1.024-1.536 1.024-1.024-0.512-1.536 1.536-2.56 1.024-0.512 1.536-2.56 0-3.584 1.536-2.048-0.512-4.096 0.512-6.144 0.512-24.576 0-48.64 0-73.216 0z" />
<glyph unicode="&#xe959;" d="M346.112 459.776c0 34.304 0 68.096 0 102.4 0 0.512-0.512 1.536 0.512 2.048 0 0 0 0.512 0 0.512-0.512 1.536 0.512 3.584 1.024 4.608 0.512 1.536 0.512 3.072 2.048 4.096-0.512 2.048 2.048 2.048 2.048 3.584 0 0.512 1.024 1.536 2.048 2.048s1.536 1.536 2.048 2.048c1.024 0.512 1.536 1.536 3.072 2.048 0.512 0 1.024 0.512 1.536 1.024s1.024 1.024 1.536 1.024c1.024 1.024 2.56 0 3.072 1.536 0 0 0 0 0.512 0 1.536-0.512 3.072 0.512 4.608 0.512 10.24 0 19.968 0 30.208 0 1.536 0 1.536 0.512 1.536 1.536 0 10.24 0 19.968 0 30.208 0 1.536 0.512 3.072 1.024 4.608 0.512 1.024 0.512 2.56 1.536 3.584 0.512 0.512 1.024 2.048 1.536 3.072 1.536 2.56 3.072 4.608 5.632 6.144 0.512 0 1.024 0.512 1.024 1.024 0.512 1.536 2.048 1.536 3.584 2.048 0.512 0 0.512 0 1.024 0.512 0.512 1.024 1.024 1.024 2.048 1.024 1.024 0.512 2.56 0.512 3.584 1.536 0 0 0.512 0 0.512 0 2.048-0.512 4.096 0.512 6.656 0.512 48.64 0 97.792 0 146.432 0 2.048 0 4.096-0.512 5.632-1.024s3.584-0.512 5.12-2.048c0.512-0.512 1.536-1.024 2.048-1.024 1.536-0.512 2.048-1.536 2.56-2.048 0 0 0-0.512 0.512-0.512 2.56 0 3.072-2.56 4.608-3.584 0-1.536 1.536-2.048 2.048-3.584 0.512-0.512 0.512-1.536 1.024-2.56 1.024-1.536 0.512-3.584 1.536-5.12s0-3.584 1.024-5.12c1.536-4.096 0.512-8.192 0.512-12.288 0.512-5.632 0-11.264 0-16.896 0-1.024 0-1.536 1.536-1.536 9.728 0 18.944 0 28.672 0 1.536 0 3.584-0.512 4.608-1.024 1.536-0.512 3.584-0.512 4.608-1.536 1.024-1.536 3.072-1.024 4.096-3.072 2.56-0.512 4.096-2.56 5.12-4.608 1.024-1.536 2.56-2.56 3.072-4.608 0-0.512 0.512-2.048 1.536-2.56 0 0 0 0 0-0.512-0.512-1.536 1.024-3.072 1.024-4.608 1.024-13.824 0-27.648 0.512-40.96 0-2.048-0.512-3.584-1.024-5.12s-0.512-3.584-2.56-5.12c-0.512-0.512-0.512-1.536-0.512-2.048-0.512-1.024-1.024-1.536-1.536-2.048 0 0 0 0 0 0 0-2.048-2.048-3.072-3.584-4.608-0.512-1.024-1.536-2.048-2.56-2.048-0.512 0-0.512-0.512-1.024-1.024-2.048-1.024-3.584-2.56-5.632-2.56-0.512-1.536-2.56 0-3.072-1.536 0-0.512-0.512 0-1.024 0-14.848 0-29.696 0-45.056 0-0.512 0-1.024 0-1.024 0.512s-0.512 0.512-1.024 0.512c-1.536 0-2.56 1.024-4.096 1.024-1.024 0-2.048 1.024-2.56 1.024-1.024 0.512-1.536 1.536-2.048 2.048 0 0 0 0.512-0.512 0.512-2.56 0-3.072 3.072-5.12 4.096 0.512 1.536-1.536 2.56-2.048 3.584-1.024 1.536-0.512 3.072-2.048 4.096 0 0 0 0.512 0 0.512 0 0.512 0.512 1.536-0.512 2.048 0 0 0 0.512 0 1.024 0 1.024 0.512 2.048-1.024 2.56 0 0 0 1.024 0 1.024 0 9.728 0 18.944 0 28.672 0 1.024 0 1.536-1.536 1.536-43.008 0-85.504 0-128.512 0-1.024 0-1.536-0.512-1.536-1.536 0-60.928 0-121.856 0-182.784 0-1.024 0.512-1.536 1.536-1.536 43.008 0 85.504 0 128.512 0 1.536 0 1.536 0.512 1.536 1.536 0 9.728 0 18.944 0 28.672 0 0.512-0.512 1.536 0.512 1.536 0 0 0 0.512 0 0.512-0.512 1.536 0.512 3.072 1.024 4.608s0.512 3.072 2.048 4.096c0.512 0.512 0.512 1.536 1.024 2.048s1.024 1.536 2.048 2.56c1.024 1.536 2.048 2.56 3.584 3.072 1.024 0.512 2.048 2.56 3.584 2.048 0.512 1.536 2.048 1.024 2.56 2.048 0 0 0 0 0 0 1.536-0.512 2.56 1.024 3.584 1.024 7.68 1.024 15.36 0.512 23.040 0.512s15.872 0 23.552 0c1.024 0 3.072 0 4.096-1.536 0 0 0 0 0.512 0 2.048 0 3.072-1.536 4.608-2.048s2.56-2.048 3.584-2.56c1.024-0.512 1.536-1.536 2.56-2.56 1.536-1.024 1.536-3.072 3.072-4.096 0.512-0.512 0-1.024 0.512-1.536 0.512-1.024 1.024-2.56 1.536-2.56 1.024-1.024 0-2.56 1.536-3.072 0 0 0 0 0-0.512-0.512-1.536 0.512-3.072 0.512-4.608 0-12.8 0-25.6 0-38.4 0-2.048-0.512-3.584-1.024-5.632 0-1.536-1.024-3.072-1.536-4.608-0.512-1.024-1.024-2.048-1.536-3.072 0-0.512-0.512-0.512-1.024-0.512-1.024-2.048-2.56-3.584-4.096-5.12-0.512-0.512-1.024-0.512-1.024-0.512-1.536 0-2.56-1.536-3.072-2.048-0.512-1.024-1.536-0.512-2.048-1.024-1.024-0.512-2.048-1.536-3.584-1.024-0.512-1.536-2.56 0-3.072-1.536 0-0.512-1.024 0-1.536 0-9.728 0-19.968 0-29.696 0-1.536 0-1.536-0.512-1.536-1.536 0-8.704 0-17.92 0-26.624 0-0.512 0.512-1.536-0.512-1.536-0.512 0 0-0.512 0-1.024-0.512-1.536 0.512-3.072-0.512-4.096-0.512-0.512-0.512-2.048-0.512-3.072 0-1.536-1.024-2.048-1.536-3.072-0.512-2.048-2.56-2.56-2.56-4.096 0-1.024-1.536-1.536-2.048-2.048 0 0-0.512 0-0.512-0.512-0.512-1.024-1.024-1.536-2.048-1.536-0.512 0-1.024-1.024-1.536-1.536-1.536-1.536-3.072-1.536-4.608-2.56-1.024-0.512-2.56 0-3.584-1.024-1.536-1.024-2.56 0-3.584-1.024-3.072-1.536-6.144-0.512-9.216-1.024-3.072 0-6.656 0-9.728 0-43.52 0-87.040 0-130.56 0-0.512 0-1.536-0.512-2.048 0.512-0.512 0.512-1.536 0-2.56 0-0.512 0-1.536-0.512-1.536 0.512 0 0-0.512 0-0.512 0-1.536 0-3.072 1.024-4.608 1.536-1.024 0.512-2.56 1.024-3.584 1.536s-2.048 1.536-2.56 2.56c-1.024 1.536-2.56 2.56-3.584 3.584-0.512 0-0.512 0.512-0.512 0.512 0 0.512 0 1.024-1.024 1.536 0 0-0.512 0.512-0.512 0.512 0.512 1.024-1.536 1.536-1.024 3.072-1.536 0.512 0 2.56-1.536 3.072 0 0 0 0.512 0 0.512 0 2.048-0.512 4.096-0.512 6.144 0 9.216 0 18.944 0 28.16 0 1.024-0.512 1.536-1.536 1.536-9.728 0-19.968 0-29.696 0-0.512 0-1.536-0.512-2.048 0.512 0 0-0.512 0-0.512 0-1.536 0-3.072 0.512-4.096 1.536 0 0-0.512 0-1.024 0-1.024 0-2.048 0-2.048 1.024 0 0 0 0.512-0.512 0.512-1.024 0-1.536 0.512-2.048 1.536-0.512 0.512-1.024 0-1.536 0.512-1.536 1.536-3.584 2.56-4.096 5.12 0 0 0 0-0.512 0.512-1.024 1.024-2.048 2.048-2.56 3.584-0.512 0.512 0 2.048-1.024 2.56 0 0 0 0.512 0 1.024s0.512 1.536-0.512 1.536c0 0 0 0 0 0 0.512 1.536-1.024 3.072-1.024 4.608-2.56 36.864-2.56 71.168-2.56 105.472z" />
<glyph unicode="&#xe95a;" d="M849.92 276.992c-25.6 0-51.2 0-76.8 0-2.048 0-3.584 0.512-5.12 1.536-0.512 0.512-1.536 0-2.048 0.512-1.536 0.512-3.072 1.536-4.096 3.072-3.584 0.512-4.096 4.608-7.168 5.632 0 2.048-2.048 2.56-2.56 4.096 0 0.512-0.512 1.024-0.512 1.536 0 1.536-1.536 2.56-1.024 4.608 0 0.512 0 1.024-0.512 1.536-0.512 0-0.512 1.024-0.512 1.536 0 9.728 0 19.968 0 29.696 0 1.536-0.512 1.536-1.536 1.536-10.24 0-19.968 0-30.208 0-0.512 0-1.536-0.512-2.048 0.512 0 0-0.512 0-1.024 0-1.536 0-3.072 0.512-4.096 1.536 0 0-0.512 0-0.512 0-1.024 0-1.536 1.024-2.56 1.024-1.536 0.512-2.048 2.048-3.584 2.048-1.024 0-1.024 1.024-2.048 1.536-1.536 1.024-2.048 2.56-3.072 4.096-1.536 1.536-2.56 4.096-3.072 6.144-0.512 1.536-1.536 3.072-1.024 5.12 0 0.512 0.512 1.536-0.512 2.048 0 0 0 1.024 0 1.536 0 23.552 0 47.104 0 70.656 0 7.168 0 14.336 0 21.504 0 0.512-0.512 1.536 0.512 2.048 0.512 0 0 1.024 0 1.536-0.512 2.048 1.024 3.072 1.024 4.608 0 1.024 1.024 2.048 1.536 3.072 0.512 0.512 0.512 1.536 1.536 2.048s1.024 2.048 1.536 2.56c1.536 1.536 2.56 3.584 4.608 4.096 1.536 1.024 3.072 2.56 5.12 2.56 1.536 0 3.584 1.024 4.608 1.536 2.048 1.024 3.584 0.512 5.12 0.512 0.512 0 1.024 0 1.536 0.512 0 0.512 1.024 0.512 1.536 0.512 8.704 0 16.896 0 25.6 0 1.536 0 1.536 0.512 1.536 1.536 0 5.632 0 11.776 0 17.408 0 1.536-0.512 1.536-1.536 1.536-9.728 0-19.968 0-29.696 0-0.512 0-1.536-0.512-1.536 0.512 0 0 0 0 0 0-1.536 0-2.56 0.512-4.096 1.024-1.024 0.512-2.048 0.512-3.072 1.536-0.512 0.512-1.536 0.512-2.048 1.024-1.536 0.512-2.048 2.048-3.584 2.56-0.512 0-0.512 0.512-1.024 0.512 0 0-0.512 0-0.512 0 0 2.048-2.048 2.048-2.56 3.072-0.512 0.512-1.024 0.512-0.512 1.536 0 1.024-0.512 1.024-1.024 1.536-1.536 0.512-1.024 2.048-1.536 2.56-0.512 1.024-0.512 2.56-1.024 3.584-0.512 1.536 0 3.584-1.024 4.608-1.024 1.536-0.512 3.072-0.512 4.608 0 30.208 0 59.904 0 90.112 0 0.512-0.512 1.536 0.512 2.048 0 0 0 1.024 0 1.536-0.512 2.048 1.024 3.072 1.024 4.608s1.536 3.072 2.048 4.608c1.024 2.048 2.56 4.096 4.608 5.632 1.024 1.024 2.048 1.536 2.56 2.56 0.512 0.512 1.536 1.024 2.048 1.024 1.024 0 1.536 1.536 3.072 1.024 0.512 0 1.024 1.024 1.536 1.024 1.024 1.536 3.072 0 3.584 1.536 0 0 0 0 0.512 0 2.048-0.512 4.096 0.512 6.144 0.512 12.288 0 24.576 0 36.864 0 2.048 0 3.584 0 5.12-1.024 1.536-0.512 3.584-0.512 5.12-2.048 0.512-0.512 2.048-1.024 3.072-1.536 2.048-1.536 3.584-2.56 5.632-4.096 0.512-0.512 0-1.536 1.024-2.048 1.536-1.024 2.048-3.584 3.072-4.608 0.512-0.512 0-1.024 0.512-1.536 0.512-1.536 1.024-2.56 1.536-3.584 1.536-4.608 0.512-9.728 0.512-14.336 0-5.12 0-9.728 0-14.848 0-4.608 0-9.728 0-14.336 0-5.12 0-9.728 0-14.848 0-9.728 0-19.456 0-29.184 0-1.536 0.512-2.048 1.536-2.048 27.136 0 54.784 0 81.92 0 1.024 0 2.048 0.512 2.56-0.512 0.512-0.512 1.536 0 2.56 0 2.048 0 3.584-0.512 5.12-1.536 0.512-0.512 1.536 0 2.048-0.512 1.024-0.512 2.56-1.024 3.072-2.048 1.024-1.536 3.072-1.536 4.096-3.072 0.512-1.024 2.048-1.536 2.048-3.072 0-0.512 0.512-0.512 1.024-0.512 0.512-1.536 1.536-3.072 2.56-4.096s0-2.56 1.536-3.072c0 0 0 0 0 0-0.512-2.048 1.024-3.584 1.024-5.632 0-13.824 0-28.16 0-41.984 0-0.512 0.512-1.536-0.512-1.536 0 0 0-0.512 0-0.512 0-2.56-1.536-4.096-2.56-6.144-0.512-1.024-1.024-2.048-1.536-3.072-0.512-1.536-1.536-2.048-2.56-3.072s-2.048-2.048-3.584-3.072c-1.024-0.512-2.048-1.024-3.072-2.048-0.512-1.024-2.048-1.024-3.072-1.536-0.512-0.512-1.536-0.512-2.048-0.512-1.536 0-3.072-1.024-4.608-1.024-28.16 0-56.832 0-84.992 0-1.536 0-2.048 0-2.048-1.536 0-24.064 0-48.64 0-72.704 0-1.536 0.512-1.536 2.048-1.536 45.568 0 91.648 0 137.216 0 0.512 0 1.536 0.512 2.048-0.512 0 0 0.512 0 1.024 0 1.536-0.512 3.072 0.512 4.096-1.024 0 0 1.024 0 1.536 0 2.048 0 3.584-1.024 5.12-2.048 1.024-0.512 2.048-1.536 3.072-1.536 2.048-0.512 2.56-2.048 3.584-3.072 0.512-0.512 1.536-1.024 1.536-1.536 1.024-2.048 3.072-3.072 3.072-5.632 0-0.512 0.512-1.024 1.024-1.024 1.536-1.024 0-3.072 1.536-3.584 0 0 0 0 0-0.512-0.512-1.536 0.512-3.072 0.512-5.12 0-12.8 0-25.088 0-37.888 0-1.536 0-3.584-0.512-5.12s-0.512-3.584-2.56-5.12c-0.512-0.512-0.512-1.536-0.512-2.048-0.512-0.512-0.512-1.024-1.024-1.536-1.536-2.048-3.584-4.096-5.12-6.144-0.512-0.512-1.536-0.512-2.048-1.024-1.536-1.024-3.072-2.048-4.608-3.072 0 0 0-0.512-0.512-0.512-1.536 0.512-2.56-1.536-4.096-1.024-3.072-2.048-6.144-1.024-9.216-1.024-26.112 0.512-49.152 0.512-72.704 0.512z" />
<glyph unicode="&#xe95b;" d="M228.352 643.584c24.576 0 49.152 0 73.728 0 2.048 0 4.096-1.024 6.144-0.512 0.512-1.536 2.56 0 3.584-1.536 1.024 0.512 1.536-1.536 2.56-1.024 0.512 0 1.024-0.512 1.536-1.024 1.024-0.512 2.56-1.024 3.584-2.048s2.56-2.048 3.584-3.072c0.512-0.512 0.512-1.024 1.024-1.024 0-1.024 0.512-1.024 1.024-1.536 1.024-1.024 1.024-2.56 2.048-3.584 1.024-1.536 1.024-3.072 1.536-4.096 1.024-1.536 0-3.072 1.024-4.096 1.536-3.072 0.512-6.144 0.512-9.216 0-9.728 0-19.968 0-29.696 0-1.024 0-1.536-0.512-2.56-0.512-0.512-0.512-1.024-0.512-1.024 0-2.048-1.024-3.072-1.024-4.608s-1.024-3.072-2.048-4.096c-1.024-2.048-2.048-3.584-4.096-5.12-1.536-1.024-2.048-2.56-3.584-3.584-1.024-0.512-2.048-2.048-3.584-2.56-0.512 0-2.048 0-2.56-1.024-1.536 0.512-2.048-1.024-3.584-1.024-0.512 0-1.536 0.512-2.048-0.512 0 0-1.024 0-1.536 0-17.408 0-34.816 0-52.224 0-29.696 0-59.392 0-89.088 0-1.024 0-1.536 0-1.536-1.536 0-24.064 0-48.128 0-72.192 0-1.536 0.512-1.536 1.536-1.536 27.136 0 54.784 0 81.92 0 0.512 0 1.536 0.512 1.536-0.512 0-0.512 1.024 0 1.024 0 1.024 0 2.56 0.512 3.072 0 1.024-1.536 2.56-0.512 3.072-1.536 0.512-0.512 2.048-1.024 3.584-1.536s2.56-1.024 3.584-2.048c1.024-1.024 2.56-2.048 3.584-3.072s2.56-2.048 3.072-3.072c0.512-1.536 2.048-2.56 2.048-4.608 0-0.512 0-2.048 1.024-2.048 0 0 0 0 0-0.512-0.512-2.56 1.536-4.096 1.024-6.656 0-0.512-0.512-2.048 0.512-2.56 0 0 0-0.512 0-1.024 0-10.24 0-20.992 0-31.232 0-0.512 0-0.512 0-1.024-1.536-1.536-0.512-3.584-1.024-5.632 0-0.512 0.512-1.536-0.512-1.536 0 0 0-0.512 0-0.512 0.512-2.048-1.024-4.096-1.536-5.632-1.024-2.56-2.56-4.608-4.608-6.656-1.536-1.024-2.56-2.56-3.584-3.584-1.024-0.512-2.048-1.536-3.072-2.048s-2.048-0.512-2.56-1.536c0 0 0 0 0 0-1.536 0.512-2.56-1.024-4.096-1.024-14.848-1.024-29.184-0.512-44.032-0.512s-29.696 0-44.032 0c-1.024 0-1.536-0.512-1.536-1.536 0-28.16 0-56.832 0-84.992 0-1.536-1.024-3.072-0.512-4.608-1.024-0.512-0.512-2.048-1.536-2.56 0.512-1.536-1.024-2.56-1.536-3.584-1.024-1.024-1.536-2.56-2.56-3.584-1.536-1.024-2.048-2.56-3.584-3.584 0 0 0-0.512-0.512-0.512-2.048 0-3.072-1.536-4.608-2.56-1.024-0.512-2.56-1.024-3.584-1.536-1.024-1.024-3.072 0-4.096-1.536 0 0-0.512 0-1.024 0-14.336 0-29.184 0-43.52 0-0.512 0-1.024-0.512-1.024 0.512 0 0-0.512 0-0.512 0-2.048-0.512-4.096 1.024-5.632 1.536-2.048 1.024-4.096 1.536-5.12 3.584-1.024 1.024-2.048 2.048-3.072 3.072s-2.048 2.048-2.56 3.072c-0.512 1.024-0.512 2.56-1.536 3.072-0.512 0.512-0.512 1.536-1.536 2.048 0 0-0.512 0-0.512 0.512 0 2.048-1.536 3.072-1.024 5.12 0 0.512 0.512 1.536-0.512 2.048 0 0 0 0.512 0 1.024 0 30.208 0 60.416 0 91.136 0 2.048 0.512 3.584 1.024 5.632 0 1.536 1.024 3.072 1.536 4.096 1.024 1.024 0.512 2.56 1.536 3.584s2.048 2.56 3.072 3.584c1.024 1.536 2.048 2.56 3.584 3.584 0.512 0 0.512 1.024 1.024 1.536 0.512 1.024 2.048 1.536 2.56 1.536 1.024 0 1.536 1.024 2.048 1.024 0.512 1.024 2.56 0 2.56 1.536 0 0 0 0 0.512 0 1.536-0.512 3.072 0.512 4.608 0.512 10.24 0 19.968 0 30.208 0 1.536 0 1.536 0.512 1.536 1.536 0 6.144 0 12.288 0 18.432 0 1.024-0.512 1.536-1.536 1.536-9.728 0-19.456 0-29.696 0-0.512 0-1.536 0-2.048 0.512 0 0-0.512 0.512-0.512 0.512-2.048 0-4.096 0.512-5.632 1.536 0 0-5.632 3.072-5.632 3.072-1.024 2.048-3.584 3.072-4.608 4.608-0.512 1.024-1.024 2.56-2.56 3.072 0 0 0 0.512 0 0.512 0 0.512-1.536 3.584-2.048 4.096 0 0 0 0 0 0 0.512 2.048-1.536 3.072-1.024 5.12 0 0.512 0.512 2.048-0.512 2.56 0 0 0 0.512 0 1.024 0 30.208 0 60.416 0 90.624 0 0.512 0 1.024 0 1.024 1.024 1.024 0.512 2.048 0.512 3.584 0 0.512-0.512 1.536 0.512 1.536 0 0 0 0 0 0-0.512 1.536 1.024 2.56 1.024 4.096s1.536 3.072 2.56 4.096c0.512 0.512 1.024 1.536 1.536 2.048 0.512 1.536 2.048 2.56 3.584 3.584 0.512 0.512 1.536 1.536 2.56 2.048s1.536 1.024 2.048 1.536c0.512 0.512 1.536-0.512 2.048 1.024 1.536-0.512 2.048 1.024 3.584 1.024s3.584 0 4.608 0.512c2.048 1.024 4.096 0.512 5.632 0.512 8.192 0 16.384 0 24.064 0 1.024 0 1.536 0.512 1.536 1.536 0 9.728 0 18.944 0 28.672 0 0.512-0.512 1.536 0.512 1.536 0 0 0 0 0 0.512 0 1.536 0.512 3.072 1.024 4.608 0.512 1.024 0.512 2.048 1.536 2.56 0.512 0.512 0.512 1.024 0.512 1.536 1.024 3.072 3.072 5.12 5.632 7.168 0.512 0.512 1.536 1.536 2.048 2.048s2.048 0.512 2.56 1.536c0.512 1.024 2.048 0.512 2.56 1.536 0.512 0.512 1.536 0 2.048 1.024 1.536-0.512 3.072 1.024 4.608 1.024 12.8 1.024 25.6 0.512 38.912 0.512 12.288 0 25.088 0 38.4 0z" />
<glyph unicode="&#xe95c;" glyph-name="vsco" d="M512 960c-282.624 0-512-229.376-512-512s229.376-512 512-512 512 229.376 512 512-229.376 512-512 512zM1003.52 448c0-17.408-1.024-33.792-3.072-50.176l-87.040 10.24c1.024 13.312 2.048 26.624 2.048 39.936 0 12.288-1.024 25.6-2.048 37.888l87.040 10.24c3.072-16.384 3.072-31.744 3.072-48.128zM20.48 448c0 16.384 1.024 32.768 2.048 49.152l87.040-10.24c-1.024-13.312-2.048-25.6-2.048-38.912s1.024-25.6 2.048-38.912l-87.040-10.24c-2.048 16.384-2.048 32.768-2.048 49.152zM893.952 580.096l81.92 30.72c11.264-30.72 18.432-62.464 23.552-95.232l-87.040-10.24c-4.096 25.6-10.24 51.2-18.432 74.752zM896 448c0-25.6-3.072-50.176-7.168-74.752l-86.016 19.456c3.072 17.408 5.12 35.84 5.12 55.296s-2.048 38.912-5.12 57.344l86.016 19.456c5.12-24.576 7.168-50.176 7.168-76.8zM512 172.544c-152.115 0.036-275.42 123.341-275.456 275.453v0.003c0.036 152.115 123.341 275.42 275.453 275.456h0.003c152.115-0.036 275.42-123.341 275.456-275.453v-0.003c0-0.171 0.001-0.374 0.001-0.577 0-151.812-123.068-274.88-274.88-274.88-0.203 0-0.405 0-0.608 0.001h0.032zM521.216 64v88.064c39.888 1.343 77.357 10.254 111.489 25.333l-1.921-0.757 37.888-79.872c-43.332-19.675-93.856-31.625-147.041-32.761l-0.415-0.007zM353.28 97.792l38.912 79.872c33.792-15.36 70.656-24.576 109.568-25.6v-88.064c-54.039 1.095-104.93 13.433-150.796 34.759l2.316-0.967zM128 448c0 26.624 3.072 52.224 8.192 77.824l86.016-19.456c-3.908-17.168-6.147-36.883-6.147-57.121 0-0.438 0.001-0.876 0.003-1.314v0.067c0-18.432 2.048-36.864 5.12-54.272l-86.016-19.456c-4.569 21.099-7.186 45.338-7.186 70.188 0 1.244 0.007 2.487 0.020 3.729l-0.002-0.189zM501.76 832v-88.064c-39.535-1.342-76.652-10.254-110.419-25.323l1.875 0.747-37.888 79.872c43.029 19.457 93.165 31.381 145.926 32.758l0.506 0.010zM669.696 798.208l-38.912-79.872c-32.172 14.807-69.723 23.777-109.282 24.571l-0.286 0.005v88.064c53.248 0 103.424-12.288 148.48-32.768zM886.784 599.552c-11.065 26.48-23.070 49.033-36.874 70.308l1.034-1.7 71.68 49.152c17.408-27.648 32.768-56.32 45.056-87.040l-80.896-30.72zM883.712 544.256l-86.016-19.456c-10.628 38.375-27.503 71.855-49.686 101.086l0.534-0.734 69.632 55.296c30.72-40.96 53.248-86.016 65.536-136.192zM736.256 640.512c-24.195 28.072-53.029 51.352-85.446 68.846l-1.594 0.786 38.912 79.872c46.213-24.35 85.287-55.906 117.295-93.645l0.465-0.563-69.632-55.296zM710.656 800.256l40.96 77.824c28.672-16.384 55.296-34.816 80.896-56.32l-58.368-66.56c-18.682 16.318-39.456 31.22-61.588 44.040l-1.9 1.016zM693.248 809.472c-20.147 10.205-43.926 19.614-68.622 26.877l-3.058 0.771 21.504 84.992c31.744-9.216 62.464-20.48 92.16-35.84l-41.984-76.8zM601.088 842.24c-25.6 6.144-51.2 9.216-77.824 10.24v87.040c33.792-1.024 67.584-5.12 99.328-12.288l-21.504-84.992zM503.808 852.48c-27.82-1.024-54.214-4.33-79.827-9.753l3.027 0.537-20.48 84.992c30.72 7.168 63.488 11.264 97.28 11.264v-87.040zM406.528 838.144c-28.173-8.044-52.3-17.458-75.302-28.807l2.598 1.159-40.96 77.824c26.128 13.301 56.746 25.181 88.639 33.987l3.521 0.829 21.504-84.992zM316.416 801.28c-24.070-13.492-44.85-28.070-64.020-44.476l0.532 0.444-58.368 65.536c25.6 21.504 52.224 39.936 80.896 56.32l40.96-77.824zM336.896 790.016l37.888-79.872c-33.792-17.408-62.464-40.96-87.040-68.608l-68.608 55.296c32.721 37.659 71.74 68.835 115.585 92.13l2.175 1.054zM206.848 680.448l68.608-55.296c-21.649-28.497-38.524-61.977-48.656-98.27l-0.496-2.082-86.016 19.456c13.312 51.2 35.84 97.28 66.56 136.192zM138.24 601.6l-81.92 30.72c12.288 30.72 27.648 60.416 46.080 87.040l71.68-50.176c-13.631-19.483-25.677-41.751-35.062-65.365l-0.778-2.219zM131.072 582.144c-8.192-24.576-15.36-49.152-18.432-75.776l-87.040 10.24c5.12 32.768 12.288 65.536 23.552 96.256l81.92-30.72zM111.616 389.632c4.096-25.6 10.24-51.2 18.432-75.776l-81.92-30.72c-10.746 27.873-19.008 60.386-23.33 94.131l-0.222 2.125 87.040 10.24zM138.24 295.424c10.24-24.576 22.528-47.104 35.84-68.608l-71.68-49.152c-17.363 24.798-32.832 53.12-45.037 83.117l-1.043 2.899 81.92 31.744zM139.264 354.816l86.016 19.456c9.216-36.864 26.624-71.68 48.128-101.376l-68.608-55.296c-29.647 38.809-52.269 84.723-64.971 134.601l-0.565 2.615zM285.696 257.536c24.576-28.672 54.272-53.248 88.064-70.656l-38.912-79.872c-46.577 24.711-85.977 56.594-118.314 94.664l-0.47 0.568 69.632 55.296zM316.416 94.72l-40.96-77.824c-30.662 17.25-57.14 35.895-81.554 56.873l0.658-0.553 58.368 65.536c19.456-17.408 39.936-31.744 63.488-44.032zM333.824 85.504c22.528-11.264 47.104-20.48 72.704-27.648l-21.504-84.992c-35.293 9.4-65.927 21.292-94.845 36.061l2.685-1.245 40.96 77.824zM425.984 52.736c24.576-5.12 50.176-8.192 76.8-9.216v-87.040c-35.577 1.222-69.39 5.266-102.249 11.932l3.945-0.668 21.504 84.992zM523.264 43.52c27.82 1.024 54.214 4.33 79.827 9.753l-3.027-0.537 20.48-84.992c-28.789-6.769-62.212-11.189-96.477-12.268l-0.803-0.020v88.064zM619.52 57.856c28.173 8.044 52.3 17.458 75.302 28.807l-2.598-1.159 40.96-77.824c-26.319-13.741-56.969-25.645-89.016-34.11l-3.144-0.706-21.504 84.992zM708.608 94.72c22.528 12.288 44.032 27.648 63.488 44.032l58.368-65.536c-23.756-20.425-50.234-39.070-78.429-55.035l-2.467-1.285-40.96 77.824zM688.128 105.984l-37.888 79.872c34.524 18.353 63.732 42.005 87.715 70.234l0.349 0.422 68.608-55.296c-33.007-38.394-72.359-70.232-116.615-94.16l-2.169-1.072zM819.2 216.576l-68.608 55.296c21.758 28.697 38.371 62.615 47.711 99.434l0.417 1.942 86.016-19.456c-14.247-52.371-36.749-98.137-66.342-138.363l0.806 1.147zM885.76 294.4l81.92-30.72c-12.288-30.72-27.648-59.392-46.080-87.040l-71.68 50.176c14.336 21.504 26.624 44.032 35.84 67.584zM892.928 313.856c8.192 23.552 14.336 49.152 18.432 74.752l87.040-10.24c-5.283-35.9-13.502-68.002-24.652-98.697l1.1 3.465-81.92 30.72zM912.384 733.696l-71.68-49.152c-15.995 21.6-32.791 40.669-51.051 58.226l-0.149 0.142 58.368 65.536c23.552-23.552 45.056-48.128 64.512-74.752zM179.2 809.472l58.368-65.536c-19.456-17.408-35.84-36.864-51.2-58.368l-71.68 50.176c19.053 27.835 40.31 52.019 64.137 73.397l0.375 0.331zM113.664 160.256l71.68 49.152c15.36-20.48 32.768-39.936 51.2-58.368l-58.368-65.536c-22.908 22.723-44.063 47.126-63.298 73.040l-1.214 1.712zM845.824 86.528l-58.368 65.536c18.432 17.408 35.84 36.864 51.2 57.344l71.68-50.176c-19.456-25.6-40.96-50.176-64.512-72.704z" />
<glyph unicode="&#xe95d;" glyph-name="university-porto" horiz-adv-x="1170" d="M0 448v-512h1170.286v1024h-1170.286v-512zM436.767 785.502l-39.706-4.18v-263.314c0-233.012 3.135-268.539 19.853-305.11 31.347-68.963 55.38-83.592 136.882-83.592 56.424 0 78.367 5.224 100.31 21.943 77.322 57.469 90.906 120.163 85.682 391.837-3.135 172.408-5.224 197.486-22.988 216.294-10.449 12.539-31.347 24.033-47.020 26.122-14.629 2.090 17.763 4.18 72.098 4.18s88.816-2.090 76.278-4.18c-50.155-9.404-55.38-33.437-55.38-269.584 0-260.18-9.404-306.155-72.098-363.624-105.535-95.086-321.829-72.098-403.331 43.886l-31.347 44.931-5.224 267.494-5.224 268.539-41.796 6.269c-22.988 3.135 29.257 6.269 114.939 6.269 86.727 0 138.971-2.090 118.073-4.18zM994.743 210.808c22.988-20.898 24.033-63.739 1.045-88.816-18.808-20.898-76.278-25.078-95.086-6.269-19.853 19.853-15.673 88.816 6.269 101.355 27.167 16.718 65.829 13.584 87.771-6.269z" />
<glyph unicode="&#xe95e;" horiz-adv-x="2914" d="M0 448v512h2914.462v-1024h-2914.462v512z" />
<glyph unicode="&#xe95f;" horiz-adv-x="2914" d="M0-37.744c0 13.128 23.631 26.256 52.513 26.256 47.262 0 52.513 18.379 52.513 210.051v210.051h194.297c181.169 0 196.923 5.251 191.672 52.513-2.626 47.262-21.005 52.513-194.297 52.513h-191.672v341.333h223.179c204.8 0 223.179 5.251 223.179 52.513 0 39.385 18.379 52.513 65.641 52.513h65.641v-971.487h275.692c228.431 0 275.692 7.877 275.692 39.385s-42.010 39.385-223.179 39.385h-223.179v359.713l162.79-2.626c136.533-2.626 165.415 5.251 173.292 42.010 7.877 42.010-13.128 47.262-162.79 47.262h-173.292v341.333h223.179c204.8 0 223.179 5.251 223.179 52.513 0 28.882 18.379 52.513 39.385 52.513 34.133 0 39.385-55.138 39.385-346.585 0-383.344 42.010-530.379 170.667-598.646 36.759-18.379 65.641-44.636 65.641-57.764 0-10.503-349.21-21.005-774.564-21.005-498.872 0-774.564 10.503-774.564 26.256z" />
<glyph unicode="&#xe960;" horiz-adv-x="2914" d="M1596.39-45.621c15.754 5.251 47.262 5.251 65.641 0 15.754-7.877 2.626-13.128-34.133-13.128s-49.887 5.251-31.508 13.128z" />
<glyph unicode="&#xe961;" horiz-adv-x="2914" d="M1767.056-45.621c10.503 7.877 26.256 7.877 36.759 0 7.877-10.503 0-18.379-18.379-18.379s-26.256 7.877-18.379 18.379z" />
<glyph unicode="&#xe962;" horiz-adv-x="2914" d="M1845.826-48.246c10.503 10.503 42.010 31.508 73.518 47.262s84.021 63.015 112.903 102.4c47.262 65.641 57.764 120.779 68.267 459.487l13.128 385.969h157.538l7.877-480.492c5.251-454.236 7.877-477.867 57.764-477.867 63.015 0 89.272 91.897 70.892 254.687l-13.128 118.154 89.272-13.128c118.154-21.005 267.815 26.256 338.708 102.4 31.508 34.133 65.641 63.015 76.144 63.015 7.877 0 15.754-131.282 15.754-288.821v-288.821h-543.508c-296.697 0-533.005 7.877-525.128 15.754z" />
<glyph unicode="&#xe963;" horiz-adv-x="2914" d="M1525.497 109.292l-84.021 68.267 7.877 385.969 7.877 383.344 512 15.754 5.251-296.697c10.503-496.246 10.503-496.246-68.267-564.513-102.4-86.646-273.067-84.021-380.718 7.877z" />
<glyph unicode="&#xe964;" horiz-adv-x="2914" d="M2399.836 476.882c7.877 23.631 15.754 118.154 15.754 210.051v168.041h139.159c73.518 0 152.287-10.503 170.667-21.005 86.646-57.764 81.395-299.323-13.128-364.964-23.631-18.379-107.651-34.133-186.421-34.133-118.154 0-139.159 7.877-126.031 42.010z" />
<glyph unicode="&#xe965;" horiz-adv-x="2914" d="M2888.205 592.41c0 18.379 7.877 26.256 18.379 18.379 7.877-10.503 7.877-26.256 0-36.759-10.503-7.877-18.379 0-18.379 18.379z" />
<glyph unicode="&#xe966;" horiz-adv-x="2914" d="M2888.205 723.692c0 18.379 7.877 26.256 18.379 18.379 7.877-10.503 7.877-26.256 0-36.759-10.503-7.877-18.379 0-18.379 18.379z" />
<glyph unicode="&#xe967;" horiz-adv-x="2914" d="M2814.687 870.728l-86.646 89.272h94.523c86.646 0 91.897-5.251 91.897-91.897 0-49.887-2.626-91.897-5.251-89.272-5.251 0-47.262 42.010-94.523 91.897z" />
<glyph unicode="&#xe968;" horiz-adv-x="2914" d="M2659.774 952.123c10.503 7.877 26.256 7.877 36.759 0 7.877-10.503 0-18.379-18.379-18.379s-26.256 7.877-18.379 18.379z" />
<glyph unicode="&#xe969;" horiz-adv-x="2914" d="M47.262-45.621c55.138 10.503 57.764 23.631 57.764 233.682v220.554h194.297c181.169 0 196.923 5.251 191.672 52.513-2.626 47.262-21.005 52.513-194.297 52.513h-191.672v341.333h223.179c204.8 0 223.179 5.251 223.179 52.513 0 39.385 18.379 52.513 65.641 52.513h65.641v-997.744h275.692c257.313 0 275.692 2.626 275.692 52.513 0 47.262-18.379 52.513-223.179 52.513h-223.179v359.713l162.79-2.626c136.533-2.626 165.415 5.251 173.292 42.010 7.877 42.010-13.128 47.262-162.79 47.262h-173.292v341.333h223.179c204.8 0 223.179 5.251 223.179 52.513 0 28.882 18.379 52.513 39.385 52.513 34.133 0 39.385-55.138 39.385-349.21 0-388.595 44.636-543.508 170.667-601.272 36.759-15.754 65.641-39.385 65.641-52.513 0-10.503-351.836-18.379-779.815-18.379-430.605 2.626-756.185 10.503-722.051 15.754z" />
<glyph unicode="&#xe96a;" horiz-adv-x="2914" d="M1596.39-45.621c18.379 7.877 42.010 5.251 49.887-2.626 10.503-7.877-5.251-15.754-34.133-13.128-28.882 0-36.759 7.877-15.754 15.754z" />
<glyph unicode="&#xe96b;" horiz-adv-x="2914" d="M1864.205-45.621c52.513 18.379 154.913 115.528 191.672 178.544 18.379 28.882 36.759 217.928 44.636 433.231l13.128 380.718h157.538l7.877-493.621c5.251-464.738 7.877-490.995 57.764-490.995 60.39 0 91.897 131.282 70.892 286.195l-13.128 97.149h173.292c157.538 0 175.918 5.251 244.185 84.021 42.010 47.262 81.395 84.021 89.272 84.021s13.128-131.282 13.128-288.821v-288.821l-543.508 2.626c-301.949 0-527.754 7.877-506.749 15.754z" />
<glyph unicode="&#xe96c;" horiz-adv-x="2914" d="M1520.246 122.421l-78.769 84.021 15.754 740.431 506.749 15.754 10.503-349.21c13.128-393.846-5.251-477.867-112.903-533.005-126.031-68.267-254.687-49.887-341.333 42.010z" />
<glyph unicode="&#xe96d;" horiz-adv-x="2914" d="M2399.836 476.882c7.877 23.631 15.754 118.154 15.754 210.051v168.041h139.159c173.292 0 228.431-49.887 228.431-202.174s-78.769-217.928-259.938-217.928c-115.528 0-136.533 7.877-123.405 42.010z" />
<glyph unicode="&#xe96e;" horiz-adv-x="2914" d="M2814.687 870.728l-86.646 89.272h94.523c86.646 0 91.897-5.251 91.897-91.897 0-49.887-2.626-91.897-5.251-89.272-5.251 0-47.262 42.010-94.523 91.897z" />
<glyph unicode="&#xe96f;" horiz-adv-x="2914" d="M47.262-45.621c55.138 10.503 57.764 23.631 57.764 233.682v220.554h194.297c181.169 0 196.923 5.251 191.672 52.513-2.626 47.262-21.005 52.513-194.297 52.513h-191.672v341.333h223.179c204.8 0 223.179 5.251 223.179 52.513 0 34.133 18.379 52.513 52.513 52.513 49.887 0 52.513-21.005 57.764-490.995l7.877-493.621 283.569-7.877c267.815-7.877 280.944-5.251 280.944 47.262 0 49.887-15.754 52.513-223.179 52.513h-223.179v359.713l162.79-2.626c136.533-2.626 165.415 5.251 173.292 42.010 7.877 42.010-13.128 47.262-162.79 47.262h-173.292v341.333h223.179c204.8 0 223.179 5.251 223.179 52.513 0 28.882 18.379 52.513 39.385 52.513 34.133 0 39.385-57.764 42.010-349.21 2.626-396.472 28.882-506.749 149.662-582.892 44.636-28.882 81.395-60.39 84.021-73.518 0-10.503-351.836-15.754-779.815-15.754-430.605 2.626-756.185 10.503-722.051 15.754z" />
<glyph unicode="&#xe970;" horiz-adv-x="2914" d="M1583.262-45.621c10.503 7.877 26.256 7.877 36.759 0 7.877-10.503 0-18.379-18.379-18.379s-26.256 7.877-18.379 18.379z" />
<glyph unicode="&#xe971;" horiz-adv-x="2914" d="M1864.205-42.995c23.631 10.503 65.641 36.759 91.897 57.764 123.405 91.897 131.282 123.405 144.41 535.631l13.128 396.472h157.538l7.877-493.621c5.251-462.113 10.503-490.995 55.138-490.995 60.39 0 89.272 102.4 78.769 265.19l-7.877 110.277 165.415 2.626c152.287 2.626 170.667 10.503 241.559 86.646 42.010 47.262 81.395 86.646 89.272 86.646s13.128-131.282 13.128-288.821v-288.821l-543.508 2.626c-301.949 0-527.754 7.877-506.749 18.379z" />
<glyph unicode="&#xe972;" horiz-adv-x="2914" d="M1585.887 67.282c-120.779 49.887-144.41 131.282-136.533 519.877l7.877 359.713 512 15.754 5.251-296.697c10.503-475.241 10.503-469.99-81.395-551.385-84.021-76.144-194.297-91.897-307.2-47.262z" />
<glyph unicode="&#xe973;" horiz-adv-x="2914" d="M2415.59 644.923v210.051h139.159c173.292 0 228.431-49.887 228.431-204.8 0-139.159-89.272-215.303-252.062-215.303h-115.528v210.051z" />
<glyph unicode="&#xe974;" horiz-adv-x="2914" d="M2817.313 870.728l-81.395 89.272h89.272c84.021 0 89.272-5.251 89.272-91.897 0-49.887-2.626-89.272-5.251-89.272-5.251 2.626-44.636 44.636-91.897 91.897z" />
<glyph unicode="&#xe975;" horiz-adv-x="2914" d="M60.39-45.621c70.892 10.503 70.892 10.503 70.892 233.682v220.554h181.169c168.041 0 183.795 5.251 178.544 52.513-2.626 47.262-21.005 52.513-181.169 52.513h-178.544v341.333h210.051c191.672 0 210.051 5.251 210.051 52.513 0 34.133 18.379 52.513 52.513 52.513 49.887 0 52.513-18.379 52.513-498.872v-498.872h288.821c270.441 0 288.821 2.626 288.821 52.513 0 47.262-18.379 52.513-223.179 52.513h-223.179v359.713l186.421-13.128c183.795-13.128 186.421-10.503 175.918 47.262-7.877 57.764-18.379 60.39-183.795 55.138l-178.544-5.251v343.959h223.179c204.8 0 223.179 5.251 223.179 52.513 0 28.882 18.379 52.513 39.385 52.513 34.133 0 39.385-55.138 39.385-336.082 0-404.349 21.005-490.995 149.662-601.272l99.774-86.646-787.692 5.251c-433.231 0-756.185 7.877-714.174 13.128z" />
<glyph unicode="&#xe976;" horiz-adv-x="2914" d="M1583.262-45.621c10.503 7.877 26.256 7.877 36.759 0 7.877-10.503 0-18.379-18.379-18.379s-26.256 7.877-18.379 18.379z" />
<glyph unicode="&#xe977;" horiz-adv-x="2914" d="M1864.205-42.995c23.631 10.503 65.641 36.759 91.897 57.764 123.405 91.897 131.282 123.405 144.41 535.631l13.128 396.472h157.538l7.877-493.621c5.251-462.113 10.503-490.995 55.138-490.995 60.39 0 89.272 102.4 78.769 265.19l-7.877 107.651 165.415 2.626c149.662 5.251 170.667 13.128 241.559 89.272 42.010 47.262 81.395 86.646 89.272 86.646s13.128-131.282 13.128-288.821v-288.821l-543.508 2.626c-301.949 0-527.754 7.877-506.749 18.379z" />
<glyph unicode="&#xe978;" horiz-adv-x="2914" d="M1575.385 85.662c-126.031 86.646-131.282 105.026-123.405 493.621l5.251 367.59 512 15.754 5.251-296.697c7.877-456.862 5.251-472.615-84.021-554.010-91.897-84.021-217.928-94.523-315.077-26.256z" />
<glyph unicode="&#xe979;" horiz-adv-x="2914" d="M2415.59 644.923v210.051h131.282c162.79 0 236.308-60.39 236.308-196.923 0-139.159-94.523-223.179-249.436-223.179h-118.154v210.051z" />
<glyph unicode="&#xe97a;" horiz-adv-x="2914" d="M2817.313 870.728l-81.395 89.272h89.272c84.021 0 89.272-5.251 89.272-91.897 0-49.887-2.626-89.272-5.251-89.272-5.251 2.626-44.636 44.636-91.897 91.897z" />
<glyph unicode="&#xe97b;" horiz-adv-x="2914" d="M60.39-45.621c70.892 10.503 70.892 10.503 70.892 233.682v220.554h181.169c168.041 0 183.795 5.251 178.544 52.513-2.626 47.262-21.005 52.513-181.169 52.513h-178.544v341.333h210.051c191.672 0 210.051 5.251 210.051 52.513 0 34.133 18.379 52.513 52.513 52.513 49.887 0 52.513-18.379 52.513-498.872v-498.872h288.821c270.441 0 288.821 2.626 288.821 52.513 0 47.262-18.379 52.513-223.179 52.513h-223.179v359.713l186.421-13.128c183.795-13.128 186.421-10.503 175.918 47.262-7.877 57.764-18.379 60.39-183.795 55.138l-178.544-5.251v343.959h223.179c204.8 0 223.179 5.251 223.179 52.513 0 28.882 18.379 52.513 39.385 52.513 34.133 0 39.385-55.138 39.385-336.082 0-406.974 23.631-504.123 152.287-609.149l97.149-78.769-787.692 2.626c-433.231 2.626-756.185 10.503-714.174 15.754z" />
<glyph unicode="&#xe97c;" horiz-adv-x="2914" d="M1583.262-45.621c10.503 7.877 26.256 7.877 36.759 0 7.877-10.503 0-18.379-18.379-18.379s-26.256 7.877-18.379 18.379z" />
<glyph unicode="&#xe97d;" horiz-adv-x="2914" d="M1903.59-27.241c170.667 76.144 183.795 112.903 196.923 564.513l13.128 409.6h157.538l7.877-493.621c5.251-462.113 10.503-490.995 55.138-490.995 60.39 0 89.272 102.4 78.769 265.19l-7.877 107.651 165.415 2.626c149.662 5.251 170.667 13.128 241.559 89.272 42.010 47.262 81.395 86.646 89.272 86.646s13.128-131.282 13.128-288.821v-288.821h-543.508c-475.241 2.626-535.631 5.251-467.364 36.759z" />
<glyph unicode="&#xe97e;" horiz-adv-x="2914" d="M1575.385 85.662c-126.031 86.646-131.282 105.026-123.405 493.621l5.251 367.59 512 15.754 2.626-296.697c7.877-454.236 5.251-472.615-84.021-554.010-89.272-84.021-215.303-94.523-312.451-26.256z" />
<glyph unicode="&#xe97f;" horiz-adv-x="2914" d="M2415.59 644.923v210.051h131.282c162.79 0 236.308-60.39 236.308-196.923 0-139.159-94.523-223.179-249.436-223.179h-118.154v210.051z" />
<glyph unicode="&#xe980;" horiz-adv-x="2914" d="M2817.313 870.728l-81.395 89.272h89.272c84.021 0 89.272-5.251 89.272-91.897 0-49.887-2.626-89.272-5.251-89.272-5.251 2.626-44.636 44.636-91.897 91.897z" />
<glyph unicode="&#xe981;" horiz-adv-x="2914" d="M60.39-45.621c70.892 10.503 70.892 10.503 70.892 233.682v220.554h181.169c168.041 0 183.795 5.251 178.544 52.513-2.626 47.262-21.005 52.513-181.169 52.513h-178.544v341.333h210.051c191.672 0 210.051 5.251 210.051 52.513 0 34.133 18.379 52.513 52.513 52.513 49.887 0 52.513-18.379 52.513-498.872v-498.872h288.821c270.441 0 288.821 2.626 288.821 52.513 0 47.262-18.379 52.513-223.179 52.513h-223.179v341.333h186.421c175.918 0 183.795 2.626 175.918 57.764-7.877 52.513-21.005 55.138-183.795 49.887l-178.544-5.251v343.959h223.179c204.8 0 223.179 5.251 223.179 52.513 0 28.882 18.379 52.513 39.385 52.513 34.133 0 39.385-55.138 39.385-336.082 0-406.974 23.631-504.123 152.287-609.149l97.149-78.769-787.692 2.626c-433.231 2.626-756.185 10.503-714.174 15.754z" />
<glyph unicode="&#xe982;" horiz-adv-x="2914" d="M1903.59-27.241c170.667 76.144 183.795 112.903 196.923 564.513l13.128 409.6h157.538l7.877-493.621 5.251-490.995h65.641c63.015 0 65.641 5.251 65.641 181.169v181.169l157.538 10.503c136.533 10.503 170.667 23.631 249.436 99.774l91.897 89.272v-588.144h-543.508c-475.241 2.626-535.631 5.251-467.364 36.759z" />
<glyph unicode="&#xe983;" horiz-adv-x="2914" d="M1575.385 83.036c-126.031 89.272-131.282 107.651-123.405 496.246l5.251 367.59 512 15.754v-391.221c0-378.092-2.626-391.221-63.015-448.985-86.646-81.395-244.185-99.774-330.831-39.385z" />
<glyph unicode="&#xe984;" horiz-adv-x="2914" d="M2415.59 644.923v210.051h131.282c162.79 0 236.308-60.39 236.308-196.923 0-139.159-94.523-223.179-249.436-223.179h-118.154v210.051z" />
<glyph unicode="&#xe985;" horiz-adv-x="2914" d="M2817.313 870.728l-81.395 89.272h89.272c84.021 0 89.272-5.251 89.272-91.897 0-49.887-2.626-89.272-5.251-89.272-5.251 2.626-44.636 44.636-91.897 91.897z" />
<glyph unicode="&#xe986;" horiz-adv-x="2914" d="M60.39-45.621c70.892 10.503 70.892 10.503 70.892 233.682v220.554h181.169c168.041 0 183.795 5.251 178.544 52.513-2.626 47.262-21.005 52.513-181.169 52.513h-178.544v341.333h223.179c204.8 0 223.179 5.251 223.179 52.513 0 28.882 18.379 52.513 39.385 52.513 34.133 0 39.385-73.518 39.385-498.872v-498.872h288.821c270.441 0 288.821 2.626 288.821 52.513 0 47.262-18.379 52.513-223.179 52.513h-223.179v341.333h186.421c175.918 0 183.795 2.626 175.918 57.764-7.877 52.513-21.005 55.138-183.795 49.887l-178.544-5.251v343.959h223.179c204.8 0 223.179 5.251 223.179 52.513 0 28.882 18.379 52.513 39.385 52.513 34.133 0 39.385-55.138 39.385-336.082 0-406.974 23.631-504.123 152.287-609.149l97.149-78.769-787.692 2.626c-433.231 2.626-756.185 10.503-714.174 15.754z" />
<glyph unicode="&#xe987;" horiz-adv-x="2914" d="M1903.59-27.241c170.667 76.144 183.795 112.903 196.923 564.513l13.128 409.6h157.538l7.877-493.621 5.251-490.995h65.641c63.015 0 65.641 5.251 65.641 183.795v183.795h115.528c149.662 0 236.308 34.133 317.703 120.779l65.641 70.892v-585.518h-543.508c-475.241 2.626-535.631 5.251-467.364 36.759z" />
<glyph unicode="&#xe988;" horiz-adv-x="2914" d="M1654.154 56.779c-189.046 68.267-215.303 141.785-204.8 575.015l7.877 315.077 512 15.754v-391.221c0-372.841-2.626-391.221-60.39-446.359-63.015-60.39-186.421-91.897-254.687-68.267z" />
<glyph unicode="&#xe989;" horiz-adv-x="2914" d="M2433.969 453.251c-10.503 7.877-18.379 105.026-18.379 212.677v194.297l144.41-10.503c81.395-7.877 160.164-26.256 178.544-44.636s31.508-84.021 31.508-149.662c0-94.523-13.128-131.282-63.015-170.667-60.39-47.262-236.308-68.267-273.067-31.508z" />
<glyph unicode="&#xe98a;" horiz-adv-x="2914" d="M2817.313 870.728l-81.395 89.272h89.272c84.021 0 89.272-5.251 89.272-91.897 0-49.887-2.626-89.272-5.251-89.272-5.251 2.626-44.636 44.636-91.897 91.897z" />
</font>
</defs>
</svg>
