<!-- Generated by IcoMoon.io -->
<svg version="1.1" xmlns="http://www.w3.org/2000/svg" width="32" height="32" viewBox="0 0 32 32">
<title>new-university-lisbon</title>
<path fill="#308041" d="M6.987 8.406l-1.307-0.018-0.040 0.007-0.065 0.021-0.031 0.038 0.003 0.036 0.024 0.041 0.076 0.107 0.071 0.114 0.065 0.14 0.040 0.119 0.022 0.114 0.019 0.176 0.007 0.086-0.007 0.172-0.014 0.121-0.031 0.119-0.040 0.117-0.052 0.096-0.074 0.131-0.060 0.088-0.069 0.091-0.086 0.098-0.086 0.090-0.114 0.098-0.074 0.052-0.1 0.046-0.153 0.052-0.141 0.031-0.145 0.017-0.161-0.001-0.108-0.005-0.134-0.022-0.102-0.025-0.091-0.035-0.079-0.035-0.079-0.040-0.083-0.055-0.087-0.068-0.076-0.071-0.064-0.074-0.058-0.082-0.041-0.080-0.046-0.094-0.031-0.095-0.032-0.113-0.020-0.089-0.017-0.072 0.002-0.202 0.006-0.108 0.007-0.094 0.021-0.085 0.023-0.074 0.051-0.099 0.072-0.105 0.030-0.042 0.108 0.036 0.086 0.025 0.062 0.007 0.163 0.007 0.118-0.012 0.093-0.025-0.089 0.093-0.133 0.11-0.050 0.064-0.101 0.135-0.065 0.136-0.035 0.089-0.018 0.101-0.005 0.21 0.018 0.116 0.033 0.116 0.058 0.118 0.098 0.136 0.083 0.078 0.083 0.061 0.096 0.040 0.149 0.043 0.131 0.013 0.136 0.013 0.128-0.005 0.123-0.020 0.113-0.028 0.134-0.063 0.101-0.078 0.118-0.108 0.111-0.141 0.086-0.139 0.055-0.111 0.050-0.149 0.020-0.101 0.003-0.164-0.005-0.085-0.020-0.129-0.030-0.123-0.043-0.113-0.048-0.118-0.071-0.106-0.086-0.098-0.076-0.086-0.078-0.071-0.083-0.058-0.088-0.055-0.116-0.038-0.136-0.040-0.131-0.025-0.126-0.020h-0.088l-0.093 0.010-0.096 0.023-0.108 0.020-0.063-0.007-0.008-0.050 0.285-0.317h1.214l1.734 0.012 0.147-0.119 0.499-0.449 0.445-0.424 0.262-0.205 0.241-0.18 0.259-0.187 0.266-0.194 0.198-0.133 0.575-0.32 0.438-0.226 0.287-0.133 0.208-0.097 0.499-0.216 0.298-0.115 0.259-0.086 0.284-0.083 0.259-0.068 0.255-0.065 0.363-0.093 0.327-0.061 0.251-0.054 0.499-0.068 0.359-0.036 0.334-0.036 0.356-0.025h0.747l0.539 0.025 0.327 0.014 0.399 0.025 0.388 0.068 0.506 0.086 0.708 0.154 0.338 0.097 0.284 0.101 0.338 0.115 0.384 0.154 0.384 0.158 0.503 0.223 0.384 0.205 0.399 0.219 0.331 0.198 0.427 0.273 0.381 0.284 0.384 0.302 0.266 0.219 0.212 0.183 0.313 0.262 0.208 0.212 0.284 0.302 0.539 0.632 0.262 0.338 0.316 0.424 0.133 0.223 0.172 0.298 0.173 0.298 0.298 0.535 0.327 0.621 0.19 0.489 0.169 0.496 0.183 0.535 0.133 0.445 0.101 0.478 0.086 0.481 0.050 0.399 0.065 0.496 0.040 0.614 0.004 0.41-0.018 0.715-0.018 0.338-0.036 0.395-0.050 0.392-0.050 0.266-0.083 0.399-0.047 0.205-0.086 0.41-0.108 0.402-0.115 0.352-0.158 0.42-0.169 0.402-0.219 0.514-0.219 0.428-0.252 0.445-0.19 0.294-0.223 0.266-0.273 0.237-0.331 0.23-0.162 0.054-0.169 0.007-0.338 0.011h-1.501l-2.224-0.007-2.008-0.043-0.392-0.022 0.029-0.057 0.611-0.697 0.349-0.366 0.172-0.183 0.266-0.269 0.241-0.259 0.169-0.162 0.19-0.201 0.212-0.226 0.176-0.183 0.183-0.212 0.194-0.208 0.194-0.205 0.226-0.259 0.215-0.244 0.417-0.514 0.305-0.373 0.241-0.313 0.223-0.352 0.208-0.341 0.144-0.262 0.223-0.503 0.075-0.237 0.068-0.255 0.086-0.406 0.040-0.237 0.018-0.244v-0.316l-0.018-0.269-0.054-0.356-0.050-0.266-0.072-0.266-0.075-0.266-0.111-0.269-0.133-0.252-0.151-0.226-0.28-0.338-0.194-0.212-0.201-0.197-0.233-0.205-0.194-0.144-0.259-0.162-0.381-0.197-0.399-0.165-0.348-0.111-0.341-0.097-0.266-0.054-0.294-0.043-0.262-0.021-0.234 0.007-0.269 0.014h-0.086l-0.029-0.029-0.011-0.373 0.022-0.291 0.054-0.844 0.014-0.298 0.034-0.004 0.18 0.149 0.84 0.698 0.783 0.657 0.414 0.339 0.046 0.018-0.020-0.032-0.241-0.313-0.342-0.433-0.318-0.419-0.31-0.365-0.399-0.508-0.075-0.1-0.064-0.095-0.043-0.075-0.002-0.044 0.017-0.014 0.198-0.015 0.189-0.018 0.349-0.029 0.393-0.035 0.399-0.041 0.209-0.020 0.161-0.021 0.688-0.083 0.376-0.041 0.134-0.015 0.064-0.011-0.066-0.014-0.496-0.051-0.698-0.080-0.889-0.1-0.881-0.086-0.172-0.020-0.041-0.028-0.006-0.029 0.024-0.034 0.249-0.318 0.247-0.305 0.375-0.457 0.284-0.378 0.273-0.37 0.106-0.143-0.005-0.015-0.032 0.025-0.241 0.166-0.213 0.154-0.327 0.249-0.712 0.554-0.373 0.301-0.066 0.049h-0.040l-0.029-0.040-0.017-0.123-0.028-0.319-0.041-0.505-0.032-0.364-0.058-0.576-0.069-0.577-0.032-0.183h-0.017l-0.028 0.098-0.069 0.444-0.034 0.227-0.038 0.279-0.062 0.407-0.040 0.292-0.058 0.453-0.023 0.184-0.049 0.304-0.014 0.080-0.023 0.014-0.060-0.034-0.101-0.091-0.229-0.218-0.611-0.572-0.804-0.724-0.247-0.243-0.431-0.39-0.233-0.2-0.055-0.040 0.034 0.055 0.173 0.241 0.336 0.468 0.333 0.421 0.405 0.506 0.178 0.22 0.381 0.48 0.342 0.462 0.017 0.046-0.028 0.029-0.044 0.018-0.161 0.017-0.875 0.071-0.459 0.026-0.654 0.043-0.539 0.037-0.929 0.069-1.136 0.080 0.464 0.078 0.767 0.074 0.427 0.037 0.66 0.054 0.843 0.072 0.514 0.052 0.467 0.044 0.526 0.054 0.15 0.025 0.011 0.026-0.026 0.040-0.305 0.408-0.302 0.396-0.239 0.327-0.259 0.338-0.259 0.347-0.2 0.258 0.098-0.068 0.247-0.201 0.258-0.215 0.222-0.2 0.175-0.152 0.143-0.126 0.166-0.149 0.132-0.108 0.473-0.388 0.166-0.131 0.026-0.015 0.028 0.020 0.011 0.186 0.006 0.203 0.021 0.792 0.020 0.672-0.011 0.104-0.046 0.052-0.058 0.018-0.269 0.063-0.149 0.043-0.126 0.040-0.146 0.068-0.126 0.071-0.138 0.080-0.104 0.065-0.17 0.113-0.11 0.082-0.1 0.072-0.123 0.098-0.19 0.16-0.16 0.138-0.169 0.167-0.086 0.083-0.101 0.112-0.206 0.236-0.025-0.017-0.017-0.077-0.003-0.195 0.006-0.48 0.003-0.599 0.003-0.812-0.002-0.282-0.023-0.046-0.048-0.032-0.080-0.011-0.094 0.003-0.080 0.031-0.069 0.023-0.143 0.063-0.143 0.049-0.126 0.051-0.123 0.041-0.109 0.041-0.153 0.051-0.13 0.046-0.1 0.044-0.18 0.055-0.146 0.052-0.127 0.041-0.189 0.057-0.101 0.037-0.193 0.063-0.135 0.051-0.186 0.069-0.078 0.055-0.014 0.044 0.052 0.052 0.104 0.092 0.111 0.111 0.106 0.121 0.075 0.12 0.060 0.118 0.041 0.101 0.012 0.051 0.031 0.133 0.023 0.164 0.012 0.132 0.005 0.385 0.003 0.42-0.002 0.979v1.92l-0.022 0.185-0.025 0.191-0.036 0.205-0.055 0.207-0.077 0.199-0.13 0.274-0.152 0.299-0.166 0.271-0.205 0.274-0.191 0.213-0.163 0.147-0.293 0.213-0.208 0.127-0.243 0.116-0.185 0.061-0.227 0.053-0.185 0.033-0.188 0.011h-0.227l-0.252-0.022-0.302-0.075-0.307-0.105-0.376-0.16-0.199-0.119-0.177-0.127-0.147-0.136-0.138-0.15-0.177-0.202-0.127-0.169-0.163-0.227-0.149-0.29-0.108-0.224-0.122-0.263-0.080-0.255-0.055-0.205-0.053-0.29-0.019-0.205-0.011-0.307 0.005-0.21 0.017-0.335 0.017-0.205 0.044-0.263 0.033-0.213 0.069-0.31 0.066-0.243 0.161-0.457 0.16-0.426 0.149-0.373 0.266-0.612 0.219-0.409 0.274-0.528 0.155-0.285 0.152-0.277 0.124-0.207 0.221-0.363 0.302-0.495 0.252-0.423 0.39-0.617 0.13-0.232 0.017-0.094-0.008-0.075-0.304-0.011-2.236-0.039z"></path>
<path fill="#308041" d="M26.946 25.899l0.262-0.287 0.021-0.042-0.103 0.001-0.144 0.020h-0.186l-0.144-0.008-0.151-0.021-0.203-0.074-0.181-0.107-0.16-0.126-0.105-0.113-0.11-0.178-0.055-0.135-0.037-0.117-0.040-0.153-0.015-0.157 0.006-0.15 0.028-0.147 0.049-0.129 0.064-0.117 0.104-0.147 0.16-0.135 0.104-0.067 0.141-0.065 0.12-0.037 0.135-0.009 0.132 0.003 0.151 0.028 0.11 0.021 0.105 0.049 0.147 0.080 0.123 0.098 0.086 0.083 0.074 0.098 0.049 0.129 0.034 0.147 0.018 0.101 0.009 0.132-0.015 0.098-0.037 0.105-0.068 0.092-0.077 0.074-0.034 0.034v0.043l0.031 0.021 0.35 0.123 0.071 0.006 0.025-0.034 0.043-0.113 0.024-0.083 0.025-0.123 0.003-0.098-0.003-0.147-0.012-0.144-0.025-0.132-0.034-0.111-0.074-0.12-0.104-0.144-0.101-0.101-0.113-0.098-0.126-0.089-0.144-0.058-0.153-0.046-0.169-0.031-0.2-0.021-0.163 0.012-0.138 0.018-0.279 0.089-0.095 0.052-0.114 0.080-0.101 0.086-0.089 0.086-0.111 0.163-0.083 0.141-0.052 0.12-0.049 0.151-0.006 0.196 0.012 0.209 0.034 0.23 0.061 0.16 0.15 0.267 0.089 0.132 0.021 0.043-0.040 0.034-0.074 0.009h-0.414l-0.58-0.006-1.249-0.016-1.203-0.012-1.24-0.009h-4.47l-0.052-0.021v-0.058l0.077-0.117 0.086-0.126 0.221-0.267 0.167-0.223 0.204-0.253 0.229-0.328 0.353-0.447 0.174-0.238 0.308-0.397 0.244-0.328 0.204-0.273 0.154-0.229 0.149-0.204 0.298-0.452 0.204-0.318 0.179-0.308 0.229-0.333 0.224-0.412 0.199-0.328 0.253-0.512 0.169-0.338 0.219-0.437 0.209-0.526 0.139-0.382 0.159-0.546 0.069-0.338 0.035-0.348 0.030-0.487-0.010-0.348-0.040-0.273-0.040-0.243-0.134-0.388-0.134-0.348-0.144-0.313-0.199-0.288-0.238-0.288-0.184-0.214-0.219-0.194-0.233-0.179-0.387-0.199-0.273-0.104-0.258-0.070-0.045 0.656-0.080 1.793-0.069 1.222-0.119 1.311-0.015 0.144-0.018-0.145-0.088-1.526-0.039-1.183-0.024-0.425-0.039-0.932v-0.256l-0.029-0.763h-0.188l-0.232 0.010-0.241 0.058-0.261 0.082-0.28 0.14-0.251 0.169-0.126 0.111-0.188 0.164-0.126 0.155-0.116 0.15-0.188 0.27-0.145 0.251-0.14 0.294-0.111 0.314-0.043 0.251-0.024 0.333 0.005 0.401 0.005 0.763 0.005 1.086-0.005 1.453 0.029 0.183 0.111 0.314 0.121 0.169 0.188 0.169 0.068 0.082-0.039 0.063-0.121 0.068-0.386 0.13-0.381 0.14-1.308 0.444-0.304 0.116-0.072 0.019-0.063-0.034-0.029-0.043-0.010-0.439v-0.753l0.010-0.546 0.003-0.19-0.010-0.028h-0.024l-0.064 0.071-0.141 0.183-0.161 0.203-0.209 0.216-0.264 0.264-0.264 0.203-0.264 0.23-0.412 0.257-0.264 0.142-0.372 0.196-0.324 0.135-0.291 0.088-0.264 0.047-0.23 0.034-0.365 0.027h-0.311l-0.351-0.020-0.358-0.054-0.338-0.088-0.291-0.081-0.372-0.135-0.257-0.149-0.365-0.25-0.277-0.216-0.257-0.237-0.237-0.284-0.284-0.372-0.27-0.527-0.169-0.378-0.115-0.365-0.054-0.331-0.054-0.419-0.027-0.385 0.034-0.777 0.068-0.378 0.203-0.662 0.162-0.399 0.216-0.473 0.203-0.392 0.162-0.243 0.331-0.527 0.23-0.291 0.331-0.399 0.25-0.311 0.27-0.291 0.365-0.372 0.277-0.264 0.321-0.306 0.315-0.335-0.016-0.019-0.376-0.007h-0.361l-0.53-0.002-0.405-0.014h-0.851l-0.25 0.007-0.182 0.034-0.209 0.068-0.176 0.108-0.25 0.196-0.115 0.149-0.135 0.216-0.107 0.182-0.083 0.176-0.069 0.143-0.096 0.195-0.057 0.152-0.069 0.154-0.045 0.117-0.087 0.28-0.095 0.287-0.108 0.341-0.111 0.374-0.12 0.46-0.050 0.324-0.054 0.319-0.059 0.506-0.035 0.33-0.026 0.543-0.023 0.402 0.012 0.374-0.006 0.362 0.030 0.344 0.036 0.423 0.030 0.308 0.054 0.38 0.054 0.332 0.163 0.724 0.109 0.362 0.115 0.41 0.163 0.447 0.26 0.694 0.35 0.688 0.374 0.658 0.217 0.362 0.32 0.489 0.169 0.235 0.169 0.253 0.314 0.404 0.193 0.211 0.211 0.235 0.26 0.266 0.284 0.284 0.368 0.32 0.229 0.205 0.26 0.175 0.187 0.151 0.235 0.181 0.254 0.181 0.954 0.561 0.549 0.284 0.483 0.235 0.561 0.199 0.598 0.205 0.604 0.169 0.519 0.109 0.525 0.090 0.887 0.097 0.604 0.048 0.881-0.018 0.507-0.024 0.392-0.042 0.893-0.145 0.585-0.139 0.555-0.157 0.797-0.284 0.646-0.265 0.519-0.266 0.495-0.271 0.519-0.338 0.537-0.368 0.803-0.586 2.662 0.042z"></path>
<path fill="#fff" d="M6.508 23.889l-0.099 0.007 0.108 0.163 0.016-0.037 0.046-0.008h0.064l0.054-0.008 0.092-0.008h0.061l0.089-0.015 0.087-0.030 0.089-0.036 0.12-0.048 0.125-0.056 0.143-0.061 0.168-0.071 0.125-0.046 0.135-0.053 0.097-0.020 0.107-0.030 0.084-0.013 0.181-0.005 0.112 0.008 0.082 0.033 0.076 0.041 0.071 0.043 0.043 0.041 0.033 0.051 0.018 0.031 0.010 0.069-0.005 0.097-0.020 0.079-0.043 0.053-0.061 0.028-0.056 0.023-0.069 0.031-0.071 0.013-0.003 0.076 0.003 0.061 0.038 0.028 0.097 0.010 0.125 0.013 0.097-0.003h0.122l0.084-0.008 0.125-0.015 0.125-0.023 0.11-0.036 0.122-0.038 0.107-0.048 0.092-0.041 0.099-0.056 0.178-0.092 0.132-0.074 0.13-0.066 0.122-0.059 0.125-0.058 0.125-0.043 0.135-0.048 0.125-0.030 0.12-0.018 0.092-0.005 0.115 0.005 0.084 0.003 0.107 0.025 0.069 0.043 0.046 0.056 0.046 0.076 0.005 0.084-0.005 0.069-0.033 0.074-0.038 0.064-0.056 0.041-0.038 0.018-0.099 0.008-0.056 0.028v0.097l0.010 0.043 0.041 0.036 0.076 0.023h0.283l0.094-0.005 0.168-0.023 0.217-0.038 0.161-0.058 0.13-0.061 0.178-0.097 0.115-0.051 0.14-0.074 0.122-0.064 0.178-0.087 0.155-0.071 0.166-0.076 0.15-0.048 0.097-0.015h0.104l0.11 0.023 0.104 0.036 0.097 0.051 0.048 0.064 0.033 0.069 0.020 0.084 0.005 0.094-0.020 0.071-0.031 0.061-0.064 0.071-0.053 0.046-0.059 0.036-0.079 0.025-0.028 0.051 0.005 0.064 0.025 0.041 0.079 0.003h0.125l0.087-0.010 0.084-0.015 0.099-0.028 0.211-0.069 0.127-0.049 0.107-0.048 0.12-0.051 0.092-0.038 0.094-0.043 0.145-0.092 0.138-0.074 0.125-0.074 0.122-0.064 0.204-0.086 0.125-0.038 0.13-0.030 0.127-0.010h0.117l0.097 0.018 0.082 0.043 0.058 0.053 0.053 0.064 0.043 0.087 0.020 0.094-0.013 0.094-0.041 0.076-0.072 0.046-0.107 0.028-0.087 0.008-0.053 0.020-0.015 0.066 0.013 0.051 0.023 0.023 0.066 0.010h0.069l0.094-0.018 0.076-0.028 0.082-0.064 0.081-0.082 0.048-0.069 0.018-0.076 0.005-0.069 0.005-0.074-0.025-0.094-0.051-0.104-0.061-0.072-0.076-0.064-0.092-0.061-0.079-0.038-0.084-0.026-0.107-0.008h-0.117l-0.107 0.010-0.092 0.018-0.11 0.031-0.127 0.048-0.268 0.117-0.227 0.114-0.173 0.084-0.224 0.112-0.324 0.148-0.112 0.038-0.087 0.023h-0.038l-0.013-0.028 0.033-0.087 0.020-0.137 0.003-0.135-0.023-0.094-0.059-0.112-0.059-0.081-0.094-0.066-0.082-0.036-0.089-0.030-0.115-0.020-0.115-0.010h-0.11l-0.089 0.015-0.153 0.051-0.148 0.059-0.311 0.16-0.326 0.173-0.252 0.122-0.173 0.059-0.171 0.058-0.176 0.056-0.097 0.018h-0.138l-0.018-0.031 0.028-0.046 0.056-0.084 0.033-0.105 0.008-0.16-0.023-0.094-0.051-0.076-0.084-0.081-0.102-0.061-0.117-0.036-0.12-0.018-0.138 0.008-0.176 0.023-0.158 0.046-0.201 0.064-0.188 0.064-0.28 0.122-0.176 0.092-0.143 0.074-0.163 0.079-0.255 0.099-0.176 0.053-0.191 0.038-0.125 0.010-0.053-0.025 0.008-0.028 0.069-0.066 0.038-0.081 0.013-0.102v-0.117l-0.028-0.109-0.061-0.097-0.11-0.099-0.094-0.048-0.163-0.033-0.145-0.018h-0.168l-0.158 0.026-0.262 0.084-0.257 0.102-0.29 0.12-0.352 0.127-0.104 0.031-0.12 0.025-0.099 0.018z"></path>
<path fill="#fff" d="M6.891 24.555l0.171 0.187 0.006-0.051 0.119-0.064 0.119-0.062 0.126-0.036 0.131-0.019 0.152-0.012 0.164 0.016 0.148 0.033 0.126 0.072 0.088 0.138 0.036 0.102 0.009 0.114-0.052 0.114-0.131 0.074-0.098 0.014-0.15 0.009-0.040 0.079v0.079l0.076 0.081 0.105 0.019 0.193 0.002 0.181-0.002 0.114-0.017 0.25-0.083 0.193-0.083 0.183-0.081 0.245-0.124 0.3-0.15 0.219-0.136 0.24-0.126 0.174-0.062 0.171-0.024h0.152l0.133 0.033 0.105 0.064 0.083 0.076 0.062 0.105 0.024 0.072v0.098l-0.033 0.093-0.067 0.071-0.119 0.069-0.107 0.021-0.086 0.014-0.038 0.040v0.071l0.040 0.050 0.107 0.005 0.131 0.017 0.157 0.005 0.121-0.014 0.186-0.038 0.226-0.090 0.24-0.105 0.286-0.147 0.252-0.152 0.231-0.14 0.25-0.119 0.238-0.076 0.171-0.010 0.069 0.007 0.109 0.012 0.090 0.048 0.067 0.072 0.045 0.074 0.024 0.107-0.012 0.1-0.048 0.117-0.098 0.088-0.124 0.055-0.195 0.019-0.029 0.083v0.076l0.055 0.045 0.136 0.017 0.164 0.012 0.233-0.012 0.183-0.021 0.148-0.029 0.205-0.086 0.207-0.1 0.245-0.133 0.183-0.102 0.171-0.098 0.19-0.126 0.221-0.117 0.14-0.041 0.088-0.024 0.186 0.005 0.136 0.026 0.112 0.057 0.069 0.090 0.038 0.102-0.002 0.090-0.014 0.083-0.052 0.074-0.086 0.069-0.083 0.029-0.074 0.012-0.138-0.002-0.048 0.033 0.005 0.067 0.045 0.036 0.102 0.009h0.112l0.131-0.033 0.086-0.038 0.086-0.076 0.093-0.131 0.010-0.076 0.007-0.112-0.012-0.126-0.036-0.107-0.057-0.105-0.107-0.086-0.126-0.057-0.121-0.033-0.114-0.010-0.081-0.005-0.112 0.007-0.209 0.076-0.19 0.093-0.174 0.098-0.178 0.112-0.302 0.185-0.358 0.185-0.177 0.076-0.129 0.040-0.113 0.020-0.081 0.003-0.032-0.018v-0.032l0.055-0.067 0.060-0.099 0.028-0.109 0.012-0.123-0.012-0.065-0.035-0.095-0.056-0.092-0.060-0.058-0.067-0.055-0.083-0.044-0.086-0.026-0.081-0.021-0.086-0.012h-0.069l-0.136 0.016-0.092 0.021-0.109 0.025-0.141 0.049-0.125 0.049-0.132 0.056-0.125 0.072-0.104 0.062-0.127 0.079-0.106 0.060-0.123 0.072-0.148 0.076-0.136 0.072-0.102 0.051-0.199 0.085-0.072 0.005-0.055-0.005-0.030-0.028 0.016-0.053 0.032-0.079 0.018-0.088 0.005-0.122-0.018-0.088-0.035-0.090-0.044-0.074-0.060-0.063-0.060-0.053-0.139-0.067-0.065-0.018-0.088-0.019-0.081-0.012h-0.139l-0.069 0.002h-0.074l-0.099 0.021-0.123 0.032-0.113 0.049-0.083 0.042-0.28 0.15-0.183 0.109-0.25 0.134-0.458 0.194-0.183 0.065-0.129 0.032-0.076 0.009-0.014-0.021 0.014-0.046 0.051-0.090 0.025-0.106 0.002-0.153-0.016-0.074-0.032-0.088-0.049-0.067-0.074-0.074-0.079-0.063-0.074-0.044-0.083-0.035-0.069-0.023-0.097-0.014-0.148-0.005-0.092 0.009-0.109 0.016-0.118 0.028-0.143 0.042-0.095 0.037-0.097 0.051-0.095 0.051-0.042 0.014z"></path>
<path fill="#308041" d="M23.773 26.838l0.684-0.557 0.134 0.161-0.241 0.192 0.619 0.787-0.182 0.161-0.622-0.801-0.278 0.216z"></path>
<path fill="#308041" d="M23.468 27.066l0.192-0.146 0.692 0.997-0.192 0.146z"></path>
<path fill="#308041" d="M22.54 27.695l0.653 1.027 0.427-0.278 0.126-0.083 0.090-0.076 0.020-0.043 0.026-0.070-0.003-0.109-0.013-0.063-0.026-0.093-0.036-0.056-0.046-0.033-0.076-0.050-0.076-0.020-0.090 0.006 0.005-0.073-0.009-0.103-0.022-0.075-0.035-0.055-0.051-0.055-0.046-0.034-0.035-0.023-0.058-0.018-0.066-0.009-0.078 0.006-0.090 0.018-0.064 0.042z"></path>
<path fill="#fff" d="M23.008 27.982l-0.153-0.234 0.009-0.030 0.061-0.057 0.068-0.053 0.074-0.034 0.071-0.016h0.046l0.047 0.019 0.037 0.038 0.019 0.034 0.008 0.058-0.010 0.056-0.025 0.050-0.028 0.032-0.075 0.045z"></path>
<path fill="#fff" d="M23.109 28.133l0.073 0.123 0.115 0.189 0.098-0.059 0.072-0.049 0.114-0.090 0.033-0.046 0.019-0.050-0.003-0.067-0.020-0.048-0.026-0.028-0.039-0.029-0.038-0.019-0.058-0.016h-0.042l-0.053 0.011-0.057 0.028-0.057 0.034-0.059 0.048z"></path>
<path fill="#308041" d="M22.342 29.209l-0.216 0.137-0.222-1.262 0.227-0.137 0.934 0.839-0.206 0.153-0.206-0.19-0.338 0.227z"></path>
<path fill="#fff" d="M22.247 28.765l0.295-0.19-0.358-0.268z"></path>
<path fill="#308041" d="M20.825 28.587l0.788-0.42 0.118 0.215-0.276 0.148 0.41 0.886-0.22 0.128-0.435-0.896-0.287 0.143z"></path>
<path fill="#308041" d="M20.828 28.87l-0.172 0.093-0.045-0.028-0.052-0.027h-0.076l-0.093 0.007-0.076 0.038-0.059 0.059-0.027 0.066v0.062l0.027 0.069 0.072 0.021 0.11-0.010 0.114-0.021 0.079-0.017 0.148 0.007 0.103 0.027 0.086 0.066 0.052 0.079 0.038 0.076 0.003 0.117-0.021 0.086-0.035 0.079-0.055 0.079-0.062 0.059-0.069 0.048-0.090 0.041-0.055 0.014-0.060 0.017-0.062 0.003-0.14 0.003-0.086-0.011-0.050-0.011-0.056-0.020-0.050-0.038-0.036-0.039 0.090-0.155 0.099 0.016 0.116 0.014 0.151-0.003 0.084-0.015 0.081-0.050 0.029-0.056 0.009-0.086-0.011-0.042-0.032-0.030-0.042-0.018-0.057-0.003-0.092-0.002-0.074 0.018-0.093 0.009-0.137 0.001-0.056-0.009-0.054-0.014-0.056-0.036-0.054-0.047-0.044-0.051-0.024-0.057-0.016-0.062v-0.083l0.014-0.069 0.017-0.068 0.041-0.065 0.044-0.065 0.068-0.051 0.081-0.038 0.108-0.050 0.075-0.014h0.098l0.075 0.012 0.115 0.024 0.065 0.032 0.042 0.041 0.024 0.045z"></path>
<path fill="#308041" d="M18.632 30.457l-0.248-1.183 0.225-0.051 0.608 0.58-0.146-0.693 0.225-0.056 0.287 1.217-0.231 0.039-0.614-0.546 0.146 0.648z"></path>
<path fill="#308041" d="M16.103 29.465v1.234h0.248l0.006-0.524 0.001-0.137 0.158 0.192 0.348 0.45 0.216-0.002v-1.222h-0.257l-0.002 0.715-0.094-0.122-0.406-0.579z"></path>
<path fill="#308041" d="M17.68 29.346l0.162-0.004 0.165 0.055 0.154 0.106 0.099 0.128 0.070 0.14 0.029 0.151-0.007 0.162-0.022 0.14-0.051 0.14-0.114 0.143-0.114 0.081-0.136 0.055-0.132 0.011-0.14-0.015-0.165-0.085-0.11-0.084-0.092-0.132-0.066-0.14-0.030-0.107-0.007-0.183 0.033-0.165 0.073-0.143 0.095-0.114 0.121-0.084 0.103-0.040z"></path>
<path fill="#fff" d="M17.441 29.816l0.059-0.103 0.085-0.088 0.084-0.040 0.103-0.011 0.081 0.004 0.073 0.037 0.088 0.055 0.066 0.095 0.051 0.125 0.011 0.114-0.004 0.106-0.037 0.106-0.044 0.081-0.066 0.070-0.070 0.037-0.073 0.011-0.103 0.004-0.088-0.029-0.077-0.059-0.081-0.081-0.055-0.099-0.022-0.096-0.004-0.088-0.004-0.073z"></path>
<path fill="#308041" d="M16.107 30.699l-0.004-1.234 0.218 0.004 0.5 0.702 0.002-0.715h0.257v1.222l-0.216 0.002-0.498-0.632-0.015 0.651z"></path>
<path fill="#308041" d="M14.536 30.658l0.506-1.204 0.274 0.032 0.303 1.245-0.284-0.022-0.048-0.22-0.392-0.045-0.096 0.239z"></path>
<path fill="#fff" d="M15.147 29.839l0.11 0.421-0.296-0.027z"></path>
<path fill="#308041" d="M13.31 29.266l0.224 0.035-0.2 1.209-0.236-0.043z"></path>
<path fill="#308041" d="M12.215 28.984l0.051 1.308 0.275 0.059 0.675-1.092-0.24-0.063-0.479 0.703-0.039-0.852z"></path>
<path fill="#308041" d="M11.878 28.875l0.266 0.098-0.396 1.137-0.234-0.097z"></path>
<path fill="#308041" d="M14.429 29.763l0.176-0.109-0.012-0.032-0.030-0.060-0.052-0.060-0.050-0.037-0.062-0.037-0.077-0.042-0.077-0.025-0.077-0.025-0.097-0.005-0.094 0.015-0.094 0.027-0.079 0.040-0.052 0.042-0.047 0.042-0.045 0.065-0.015 0.069-0.002 0.087 0.007 0.062 0.017 0.045 0.032 0.042 0.067 0.065 0.092 0.055 0.062 0.032 0.089 0.030 0.067 0.032 0.104 0.052 0.072 0.050 0.027 0.047-0.002 0.057-0.025 0.055-0.047 0.042-0.056 0.020-0.067 0.009h-0.070l-0.076-0.017-0.085-0.038-0.072-0.044-0.136-0.112-0.172 0.106 0.077 0.073 0.143 0.104 0.102 0.067 0.133 0.067 0.086 0.013 0.069 0.004 0.108-0.013 0.122-0.026 0.087-0.040 0.065-0.050 0.037-0.049 0.041-0.077 0.008-0.051v-0.087l-0.017-0.080-0.038-0.1-0.038-0.044-0.058-0.046-0.083-0.042-0.105-0.036-0.183-0.068-0.052-0.038-0.046-0.046-0.019-0.053 0.005-0.058 0.037-0.035 0.047-0.028 0.101-0.023h0.063l0.068 0.017 0.064 0.032 0.047 0.045z"></path>
<path fill="#308041" d="M10.805 29.805l-0.101-0.042-0.139-0.063-0.165-0.097 0.502-1.11 0.216 0.078 0.153 0.068 0.123 0.052 0.086 0.077 0.071 0.083 0.043 0.089 0.034 0.086 0.009 0.169-0.012 0.089-0.021 0.11-0.028 0.092-0.058 0.101-0.052 0.071-0.058 0.055-0.071 0.061-0.092 0.040-0.107 0.031-0.086 0.009h-0.083l-0.074-0.018z"></path>
<path fill="#fff" d="M11.051 29.653l-0.070 0.002-0.050-0.014-0.098-0.046-0.071-0.037-0.052-0.052 0.341-0.709 0.129 0.056 0.101 0.062 0.054 0.049 0.030 0.058 0.021 0.078 0.005 0.104-0.009 0.078-0.021 0.095-0.046 0.095-0.033 0.057-0.046 0.055-0.054 0.041-0.052 0.025z"></path>
<path fill="#308041" d="M9.507 27.801l0.759 0.404-0.106 0.209-0.517-0.285-0.126 0.222 0.46 0.278-0.106 0.202-0.467-0.265-0.119 0.229 0.543 0.338-0.113 0.202-0.762-0.464z"></path>
<path fill="#308041" d="M9.338 27.925l-0.201 0.032-0.008-0.096-0.019-0.073-0.027-0.062-0.041-0.065-0.074-0.056-0.062-0.027-0.095-0.012-0.056 0.003-0.039 0.038-0.024 0.059 0.012 0.065 0.030 0.074 0.083 0.098 0.104 0.13 0.074 0.104 0.047 0.098 0.009 0.095-0.018 0.083-0.039 0.080-0.074 0.068-0.074 0.050-0.083 0.021h-0.101l-0.095-0.015-0.092-0.027-0.089-0.035-0.077-0.059-0.056-0.071-0.113-0.169-0.044-0.101-0.027-0.080-0.004-0.040h0.219l0.018 0.064 0.027 0.070 0.044 0.074 0.053 0.067 0.074 0.065 0.051 0.021 0.103 0.002 0.053-0.017 0.055-0.040 0.021-0.053-0.013-0.076-0.049-0.063-0.086-0.116-0.118-0.131-0.046-0.093-0.021-0.097 0.002-0.158 0.055-0.082 0.086-0.067 0.078-0.038 0.108-0.015 0.086 0.009 0.078 0.025 0.063 0.027 0.129 0.092 0.070 0.069 0.069 0.076 0.037 0.092 0.023 0.074z"></path>
<path fill="#308041" d="M6.783 25.676l-0.615-0.682-0.15 0.162 0.22 0.248-0.698 0.666 0.143 0.175 0.701-0.659 0.248 0.248z"></path>
<path fill="#308041" d="M5.123 25.668l0.983-0.709-0.142-0.213-0.571 0.405 0.287-0.79-0.142-0.199-0.959 0.75 0.125 0.189 0.611-0.449-0.301 0.851z"></path>
<path fill="#308041" d="M7.81 26.601l0.21 0.184-0.417 1.19-0.2-0.179 0.054-0.184-0.289-0.274-0.218 0.143-0.192-0.195z"></path>
<path fill="#fff" d="M7.69 26.976l-0.146 0.41-0.195-0.197z"></path>
<path fill="#308041" d="M6.862 25.764l-0.81 0.836 0.13 0.156 0.364-0.325 0.082 0.082-0.087 0.554 0.156 0.178 0.117-0.507 0.091 0.009 0.095 0.009 0.091-0.009 0.078-0.035 0.078-0.043 0.043-0.048 0.039-0.078 0.039-0.104 0.004-0.1-0.039-0.1-0.048-0.091-0.056-0.078-0.095-0.095z"></path>
<path fill="#fff" d="M6.646 26.302l0.243-0.269 0.1 0.080 0.056 0.052 0.046 0.042 0.034 0.064-0.002 0.119-0.028 0.062-0.066 0.058-0.054 0.032-0.054-0.008-0.042-0.030-0.1-0.081z"></path>
<path fill="#308041" d="M4.434 23.060l0.089 0.19 0.077-0.046 0.067-0.064 0.043-0.070 0.037-0.116 0.006-0.11-0.024-0.116-0.028-0.095-0.037-0.086-0.049-0.083-0.058-0.046-0.073-0.049-0.083-0.040-0.095-0.015-0.098-0.009h-0.098l-0.101 0.015-0.089 0.031-0.074 0.034-0.086 0.052-0.070 0.049-0.070 0.064-0.052 0.064-0.070 0.11-0.034 0.095-0.003 0.101 0.003 0.101 0.015 0.083 0.034 0.104 0.064 0.098 0.055 0.055 0.061 0.052 0.086 0.037 0.092 0.021 0.107 0.018 0.116 0.004-0.071-0.201-0.076-0.009-0.096-0.031-0.064-0.033-0.057-0.051-0.031-0.057-0.029-0.077-0.001-0.116 0.019-0.077 0.049-0.079 0.066-0.083 0.083-0.068 0.061-0.036 0.088-0.033 0.083-0.013h0.126l0.077 0.026 0.057 0.029 0.059 0.043 0.049 0.048 0.043 0.070 0.010 0.077-0.013 0.090-0.020 0.058-0.031 0.049z"></path>
<path fill="#308041" d="M5.325 23.981v-0.151l-0.034-0.135-0.062-0.122-0.086-0.101-0.109-0.081-0.127-0.039-0.127-0.029-0.122 0.008-0.146 0.036-0.13 0.052-0.086 0.060-0.083 0.073-0.073 0.112-0.042 0.101-0.026 0.135-0.005 0.12 0.021 0.127 0.044 0.099 0.068 0.094 0.052 0.057 0.078 0.053 0.127 0.064 0.099 0.025 0.082 0.003h0.098l0.090-0.017 0.106-0.041 0.092-0.054 0.088-0.060 0.088-0.090 0.044-0.061 0.033-0.080 0.033-0.101z"></path>
<path fill="#fff" d="M5.066 23.751l-0.045-0.081-0.062-0.049-0.060-0.028-0.081-0.026-0.103-0.004-0.081 0.015-0.107 0.038-0.085 0.060-0.056 0.049-0.053 0.066-0.034 0.071-0.015 0.090-0.002 0.066 0.019 0.062 0.034 0.075 0.032 0.043 0.038 0.045 0.064 0.032 0.066 0.024 0.068 0.008h0.085l0.085-0.017 0.064-0.032 0.062-0.041 0.064-0.051 0.053-0.051 0.038-0.043 0.024-0.047 0.015-0.041 0.011-0.073-0.009-0.066-0.017-0.056z"></path>
<path fill="#308041" d="M2.057 17.417l0.008 0.232 1.174-0.025 0.004-0.228z"></path>
<path fill="#308041" d="M3.24 17.679l-1.123 0.524 0.008 0.262 1.208 0.236-0.017-0.241-0.828-0.156 0.756-0.372z"></path>
<path fill="#308041" d="M3.379 18.76l-1.17 0.203 0.051 0.257 1.153-0.203z"></path>
<path fill="#308041" d="M3.83 20.438l-1.022 0.764-0.095-0.221 0.218-0.166-0.147-0.408-0.246 0.021-0.058-0.249 1.243 0.006z"></path>
<path fill="#fff" d="M3.45 20.409l-0.469-0.009 0.095 0.331z"></path>
<path fill="#308041" d="M3.908 21.73l0.185 0.062 0.036-0.065 0.026-0.078 0.016-0.094 0.003-0.096-0.005-0.078-0.031-0.081-0.034-0.073-0.049-0.075-0.062-0.088-0.062-0.044-0.068-0.034-0.078-0.021-0.091 0.003-0.099 0.031-0.065 0.052-0.044 0.052-0.047 0.073-0.016 0.081-0.010 0.104 0.013 0.078 0.018 0.104 0.010 0.081v0.065l-0.013 0.073-0.026 0.036-0.060 0.052h-0.060l-0.062-0.016-0.065-0.057-0.036-0.099-0.008-0.112 0.005-0.133 0.013-0.195-0.213-0.044-0.018 0.101v0.104l-0.005 0.122v0.096l0.016 0.109 0.036 0.112 0.049 0.081 0.065 0.065 0.065 0.039 0.088 0.039 0.096 0.039h0.083l0.073-0.005 0.078-0.031 0.057-0.070 0.055-0.112 0.031-0.091 0.008-0.101-0.010-0.13-0.026-0.104-0.005-0.081v-0.081l0.021-0.060 0.052-0.029h0.057l0.057 0.026 0.047 0.055 0.049 0.078 0.018 0.060 0.003 0.065-0.008 0.063-0.018 0.057z"></path>
<path fill="#308041" d="M3.468 19.085l0.211 0.908-0.198 0.042-0.097-0.329-0.941 0.241-0.051-0.22 0.95-0.241-0.072-0.35z"></path>
<path fill="#308041" d="M3.379 18.76l0.034 0.258-1.153 0.203-0.051-0.257z"></path>
<path fill="#308041" d="M3.333 18.701l-0.017-0.241-0.828-0.156 0.756-0.372-0.004-0.253-1.123 0.524 0.008 0.262z"></path>
<path fill="#308041" d="M2.057 17.417l1.186-0.021-0.004 0.228-1.174 0.025z"></path>
<path fill="#308041" d="M2.826 17.14l0.075 0.178 0.078-0.027 0.069-0.036 0.060-0.048 0.078-0.088 0.045-0.106 0.024-0.112v-0.142l-0.021-0.094-0.045-0.136-0.057-0.090-0.063-0.067-0.084-0.072-0.115-0.054-0.124-0.036h-0.13l-0.127 0.009-0.097 0.030-0.133 0.045-0.069 0.048-0.066 0.045-0.060 0.066-0.036 0.060-0.030 0.078-0.030 0.151-0.003 0.084 0.012 0.090 0.018 0.067 0.048 0.090 0.060 0.063 0.202 0.202 0.106-0.187-0.075-0.051-0.084-0.072-0.060-0.088-0.015-0.094v-0.105l0.042-0.094 0.066-0.082 0.088-0.069 0.082-0.030 0.091-0.021h0.084l0.103 0.012 0.121 0.033 0.082 0.048 0.045 0.063 0.036 0.088 0.012 0.087 0.006 0.079-0.012 0.069-0.036 0.063-0.042 0.054z"></path>
<path fill="#308041" d="M3.349 14.579l-0.019 0.3-1.184-0.164 0.023-0.29z"></path>
<path fill="#308041" d="M2.324 13.517l0.042-0.262 1.203 0.262-0.037 0.257-0.81 0.328 0.683 0.117-0.028 0.253-1.179-0.197 0.019-0.234 0.842-0.356z"></path>
<path fill="#308041" d="M2.67 11.955l1.247 0.329-0.090 0.359-0.704 0.008 0.577 0.412-0.086 0.322-1.209-0.292 0.049-0.255 0.625 0.12-0.558-0.314 0.056-0.24 0.678-0.026-0.648-0.187z"></path>
<path fill="#308041" d="M2.943 15.696l0.101 0.157 0.062-0.039 0.070-0.062 0.045-0.076 0.048-0.081 0.039-0.104 0.008-0.087 0.003-0.104-0.017-0.090-0.025-0.098-0.051-0.093-0.065-0.056-0.090-0.045-0.070-0.025-0.090 0.003-0.076 0.040-0.087 0.076-0.051 0.096-0.042 0.093-0.048 0.146-0.022 0.076-0.025 0.062-0.042 0.053-0.059 0.031-0.062 0.020-0.070-0.014-0.037-0.048-0.031-0.059-0.008-0.065v-0.068l0.006-0.070 0.031-0.079 0.056-0.090 0.056-0.098 0.039-0.048-0.149-0.169-0.045 0.048-0.056 0.067-0.051 0.079-0.042 0.068-0.034 0.090-0.025 0.084-0.011 0.082 0.002 0.111 0.013 0.074 0.028 0.087 0.043 0.070 0.050 0.071 0.076 0.072 0.089 0.043 0.091 0.015 0.076 0.002 0.082-0.024 0.057-0.048 0.050-0.069 0.057-0.076 0.026-0.091 0.041-0.1 0.032-0.083 0.048-0.095 0.046-0.059 0.056-0.028 0.050 0.004 0.037 0.044 0.032 0.061 0.013 0.091-0.009 0.074-0.028 0.087-0.041 0.056z"></path>
<path fill="#308041" d="M4.043 11.881l0.079-0.122 0.061-0.151 0.011-0.126-0.014-0.129-0.050-0.133-0.1-0.136-0.104-0.108-0.129-0.065-0.151-0.047-0.158-0.014-0.165 0.018-0.151 0.054-0.115 0.086-0.090 0.122-0.072 0.129-0.018 0.151 0.007 0.111 0.043 0.143 0.072 0.129 0.118 0.118 0.1 0.075 0.115 0.043 0.122 0.018 0.144 0.011 0.133-0.021 0.108-0.011 0.090-0.050z"></path>
<path fill="#fff" d="M3.86 11.73l0.059-0.075 0.024-0.091v-0.088l-0.029-0.11-0.067-0.096-0.096-0.075-0.118-0.051-0.118-0.016-0.115-0.003-0.099 0.032-0.083 0.051-0.059 0.083-0.024 0.091v0.158l0.059 0.091 0.056 0.059 0.086 0.056 0.099 0.040 0.083 0.024 0.096 0.003h0.080l0.078-0.030z"></path>
<path fill="#308041" d="M7.62 7.038l0.006-0.054-0.034-0.048-0.059-0.064-0.158-0.143-0.205-0.199-0.16-0.199-0.257-0.299-0.297-0.333-0.040-0.013-0.030 0.011-0.256 0.242-0.004 0.060 0.059 0.054 0.201 0.176 0.141 0.16 0.182 0.203 0.17 0.193 0.173 0.196 0.033 0.062 0.011 0.035v0.075l-0.020 0.047-0.062 0.091-0.098 0.116-0.059 0.051-0.072 0.039-0.093 0.032-0.081 0.010h-0.125l-0.081-0.026-0.047-0.023-0.080-0.048-0.066-0.045-0.052-0.044-0.082-0.075-0.062-0.062-0.059-0.071-0.068-0.077-0.13-0.17-0.099-0.115-0.122-0.159-0.041-0.003-0.030 0.013-0.074 0.060-0.153 0.158v0.033l0.059 0.079 0.197 0.219 0.435 0.467 0.123 0.114 0.065 0.054 0.077 0.044 0.085 0.037 0.113 0.029 0.109 0.016 0.142 0.003 0.081-0.015 0.113-0.051 0.114-0.092 0.085-0.089 0.090-0.094 0.118-0.14 0.076-0.102 0.223-0.246z"></path>
<path fill="#308041" d="M7.851 6.867l0.195-0.156 0.080-0.063 0.013-0.043-0.036-0.046-0.083-0.076-0.139-0.126-0.113-0.119-0.126-0.152-0.116-0.156-0.109-0.186-0.060-0.119-0.036-0.109-0.020-0.162 0.033-0.099 0.093-0.109 0.073-0.089 0.133-0.060 0.146-0.010 0.159 0.040 0.146 0.086 0.096 0.086 0.093 0.106 0.070 0.099 0.083 0.139 0.073 0.152 0.073 0.159 0.043 0.123 0.023 0.126 0.033 0.063 0.050 0.010 0.066-0.046 0.225-0.175-0.005-0.040-0.047-0.11-0.095-0.216-0.090-0.207-0.061-0.118-0.095-0.148-0.167-0.232-0.127-0.132-0.096-0.067-0.12-0.038-0.108-0.013-0.118-0.012-0.104 0.003-0.078 0.013-0.155 0.049-0.086 0.046-0.090 0.070-0.225 0.229-0.101 0.114-0.126 0.114-0.061 0.043-0.166 0.123-0.009 0.050 0.025 0.038 0.152 0.166 0.226 0.256 0.217 0.25 0.126 0.163 0.087 0.121 0.176 0.268 0.083 0.127 0.028 0.025z"></path>
<path fill="#308041" d="M8.883 5.214l-0.203-0.372-0.169-0.275-0.14-0.217-0.092-0.116 0.004-0.041 0.179-0.118 0.146-0.072h0.049l0.023 0.051 0.036 0.123 0.059 0.146 0.161 0.31 0.102 0.182 0.141 0.243 0.189 0.261 0.128 0.156 0.061 0.069-0.003 0.064-0.018 0.028-0.108 0.059-0.21 0.133h-0.056l-0.028-0.049-0.051-0.151-0.090-0.195z"></path>
<path fill="#308041" d="M9.908 4.451l-0.095-0.064-0.142-0.142-0.142-0.145-0.125-0.149-0.152-0.192-0.061-0.068-0.049-0.009-0.138 0.092-0.139 0.084-0.090 0.059 0.005 0.041 0.064 0.066 0.116 0.085 0.151 0.118 0.156 0.121 0.182 0.154 0.167 0.149 0.12 0.128 0.144 0.138 0.161 0.164 0.093 0.082 0.093 0.080 0.036 0.018 0.026-0.011 0.013-0.036 0.007-0.061v-0.238l-0.002-0.534v-0.549l0.003-0.423v-0.144l-0.023-0.033-0.031-0.016-0.044 0.005-0.066 0.028-0.261 0.134-0.021 0.034 0.051 0.087 0.080 0.167 0.023 0.105 0.015 0.138 0.015 0.134v0.241l-0.018 0.139-0.030 0.036-0.039 0.008z"></path>
<path fill="#308041" d="M11.846 3.356l-0.179 0.112-0.181 0.084-0.214 0.079-0.152 0.040-0.119 0.017-0.047-0.007-0.037-0.052-0.027-0.070-0.012-0.099 0.002-0.122 0.022-0.092 0.052-0.070 0.070-0.062 0.082-0.050 0.112-0.030 0.119-0.027 0.139-0.007 0.211 0.015 0.020-0.022-0.012-0.087-0.089-0.251-0.035-0.022-0.075 0.022-0.306 0.107-0.206 0.092-0.129 0.079-0.092 0.082-0.079 0.099-0.062 0.089-0.055 0.104-0.057 0.139-0.015 0.109v0.233l0.015 0.087 0.030 0.127 0.032 0.104 0.045 0.099 0.075 0.129 0.077 0.099 0.089 0.082 0.089 0.070 0.099 0.045 0.094 0.020 0.142 0.035 0.099 0.012 0.129 0.003 0.109-0.007 0.122-0.037 0.117-0.047 0.117-0.045 0.211-0.109 0.055-0.047 0.037-0.060-0.072-0.288-0.037-0.017-0.037 0.040-0.079 0.074-0.082 0.067-0.109 0.080-0.129 0.072-0.075 0.035-0.092 0.015-0.094 0.003-0.127-0.030-0.094-0.047-0.075-0.057-0.067-0.072-0.055-0.097-0.010-0.062 0.002-0.060 0.070-0.050 0.166-0.067 0.271-0.107 0.149-0.055 0.084-0.012 0.119-0.012 0.045-0.007 0.042-0.040-0.026-0.095-0.061-0.16-0.032-0.050z"></path>
<path fill="#308041" d="M12.642 3.482l-0.046-0.193-0.038-0.147-0.037-0.159-0.046-0.189-0.017-0.082 0.012-0.052 0.037-0.040 0.073-0.036 0.053-0.007h0.058l0.070 0.008 0.067 0.030 0.053 0.038 0.052 0.050 0.040 0.063 0.022 0.066 0.012 0.070 0.007 0.067-0.003 0.082-0.024 0.068-0.033 0.056-0.046 0.049-0.089 0.082-0.124 0.076-0.065 0.037 0.005 0.021 0.030-0.012 0.070-0.004 0.082 0.022 0.094 0.050 0.126 0.093 0.162 0.127 0.094 0.1 0.049 0.054 0.062 0.085 0.046 0.084 0.035 0.061 0.169-0.012 0.079-0.010 0.122-0.015 0.064-0.023-0.008-0.041-0.041-0.058-0.142-0.193-0.126-0.13-0.091-0.080-0.115-0.097-0.076-0.057-0.090-0.071v-0.039l0.044-0.053 0.057-0.070 0.049-0.066 0.036-0.063 0.026-0.070 0.005-0.077-0.013-0.112-0.021-0.082-0.040-0.081-0.043-0.066-0.055-0.055-0.071-0.066-0.070-0.041-0.075-0.025-0.088-0.010-0.201-0.003-0.097 0.005-0.072 0.005-0.165 0.032-0.112 0.034-0.153 0.063-0.078 0.024-0.105 0.011-0.034 0.014 0.001 0.033 0.031 0.072 0.030 0.088 0.037 0.094 0.046 0.098 0.047 0.134 0.039 0.12 0.045 0.157 0.034 0.161 0.031 0.157 0.037 0.188 0.031 0.249 0.021 0.201 0.014 0.034 0.098 0.004 0.133-0.014 0.14-0.023 0.071-0.038 0.018-0.025-0.007-0.093-0.042-0.103-0.035-0.102-0.038-0.124-0.062-0.218z"></path>
<path fill="#308041" d="M14.936 2.426l0.008-0.075-0.004-0.145-0.016-0.118-0.013-0.018-0.217-0.027-0.18-0.008-0.205-0.003-0.089 0.015-0.128 0.038-0.112 0.064-0.068 0.056-0.064 0.065-0.054 0.094-0.021 0.079-0.011 0.078 0.005 0.157 0.023 0.093 0.040 0.089 0.046 0.051 0.088 0.073 0.131 0.081 0.122 0.053 0.109 0.026 0.113 0.018 0.197 0.046 0.146 0.037 0.087 0.076 0.052 0.085 0.001 0.068-0.055 0.093-0.121 0.086-0.099 0.037-0.114 0.014-0.1-0.006-0.113-0.017-0.096-0.030-0.069-0.030-0.089-0.042-0.044-0.024h-0.033l-0.024 0.027-0.011 0.047-0.006 0.151-0.003 0.184 0.024 0.024 0.064 0.013 0.14 0.004 0.139 0.006 0.186 0.003 0.162-0.029 0.158-0.042 0.097-0.046 0.105-0.066 0.086-0.076 0.049-0.062 0.036-0.073 0.019-0.067 0.016-0.079-0.001-0.133-0.016-0.099-0.037-0.131-0.044-0.088-0.050-0.063-0.117-0.090-0.076-0.043-0.122-0.039-0.362-0.060-0.132-0.032-0.064-0.030-0.040-0.045-0.030-0.060-0.009-0.077 0.006-0.067 0.029-0.046 0.042-0.040 0.066-0.024 0.085-0.004 0.076 0.006 0.093 0.019 0.080 0.011 0.074 0.024 0.069 0.034 0.079 0.039 0.053 0.026 0.047 0.001z"></path>
<path fill="#308041" d="M15.386 2.020l0.35-0.031 0.031 0.017-0.010 0.238-0.012 0.326v0.733l0.026 0.378 0.024 0.143-0.031 0.043-0.095 0.012-0.245-0.014-0.024-0.029-0.005-0.179v-0.459l0.019-0.317-0.014-0.352-0.036-0.436v-0.033z"></path>
<path fill="#308041" d="M22.961 4.127l0.066-0.060 0.060-0.099 0.056-0.066-0.030-0.063-0.116-0.096-0.116-0.080-0.179-0.099-0.156-0.046-0.132-0.015-0.177-0.023-0.159 0.003-0.174 0.059-0.166 0.079-0.136 0.095-0.113 0.125-0.074 0.105-0.054 0.118-0.046 0.146-0.010 0.131v0.169l0.016 0.128 0.018 0.154 0.077 0.189 0.102 0.146 0.125 0.118 0.164 0.11 0.148 0.092 0.136 0.072 0.108 0.041 0.113 0.003 0.092-0.115 0.097-0.154-0.003-0.026-0.041-0.026-0.113-0.005-0.123 0.003-0.156-0.036-0.11-0.059-0.087-0.072-0.067-0.064-0.061-0.097-0.038-0.095-0.015-0.090-0.003-0.102 0.008-0.082 0.015-0.067 0.033-0.056 0.079-0.018 0.064 0.008 0.107 0.061 0.169 0.105 0.141 0.077 0.077 0.051 0.064 0.056 0.074 0.082 0.033 0.026 0.044 0.015 0.028-0.015 0.041-0.056 0.069-0.092 0.051-0.1 0.008-0.036-0.018-0.028-0.067-0.020-0.125-0.013-0.079-0.031-0.105-0.046-0.205-0.1-0.164-0.102-0.092-0.069-0.028-0.061 0.018-0.077 0.023-0.061 0.046-0.064 0.059-0.046 0.072-0.056 0.082-0.036 0.090-0.015 0.079 0.003 0.072 0.015 0.090 0.031 0.061 0.026 0.128 0.064 0.061 0.054 0.054 0.067 0.031 0.059 0.041 0.051z"></path>
<path fill="#308041" d="M23.3 6.145l0.064-0.091 0.078-0.16 0.109-0.196 0.137-0.201 0.105-0.132 0.119-0.16 0.114-0.128 0.132-0.091 0.137-0.027 0.123 0.005 0.16 0.087 0.128 0.1 0.059 0.114 0.014 0.178v0.164l-0.041 0.128-0.078 0.146-0.091 0.1-0.123 0.123-0.164 0.151-0.151 0.123-0.141 0.096-0.119 0.078-0.023 0.055 0.046 0.073 0.123 0.123 0.077 0.064 0.069-0.014 0.071-0.051 0.108-0.106 0.306-0.313 0.182-0.187 0.086-0.097 0.074-0.104 0.052-0.081 0.034-0.115 0.016-0.077 0.009-0.079-0.002-0.18-0.018-0.092-0.036-0.083-0.059-0.099-0.061-0.095-0.083-0.095-0.090-0.088-0.088-0.059-0.086-0.054-0.081-0.043-0.101-0.041-0.083-0.052-0.072-0.043-0.076-0.056-0.043-0.059-0.065-0.038-0.068-0.036h-0.040l-0.070 0.122-0.086 0.164-0.117 0.223-0.11 0.167-0.124 0.191-0.115 0.167-0.065 0.079-0.115 0.126-0.083 0.092-0.095 0.092-0.032 0.054 0.009 0.050 0.061 0.068 0.122 0.095 0.104 0.081h0.029z"></path>
<path fill="#308041" d="M26.546 8.407l-0.012-0.058 0.053-0.115 0.095-0.177 0.14-0.202 0.14-0.198 0.078-0.128 0.086-0.070 0.066-0.021-0.016-0.058-0.066-0.095-0.251-0.272-0.045-0.004-0.066 0.082-0.107 0.227-0.177 0.399-0.214 0.408-0.152 0.272-0.169 0.276-0.004 0.049 0.239-0.025 0.416-0.041 0.301-0.041 0.453-0.082 0.276-0.053 0.119-0.025 0.119-0.066 0.012-0.078-0.058-0.107-0.177-0.231-0.058 0.033-0.062 0.074-0.074 0.082-0.119 0.062-0.128 0.049-0.19 0.053-0.214 0.058z"></path>
<path fill="#308041" d="M28.906 16.151l-0.018-0.091-0.018-0.301v-0.16l0.064-0.087 0.151-0.050 0.187-0.032 0.233-0.036 0.21-0.018 0.392 0.005h0.224l0.036-0.037-0.006-0.259-0.009-0.122-0.031-0.017-0.1 0.017-0.183 0.037-0.2 0.035-0.348 0.043-0.138 0.004-0.276 0.017-0.232 0.017-0.185 0.009-0.086 0.034-0.001 0.124 0.008 0.094 0.021 0.144 0.008 0.242 0.004 0.346v0.164l0.017 0.050 0.044 0.010 0.134-0.004 0.121-0.002 0.019-0.019 0.003-0.058-0.005-0.052z"></path>
<path fill="#308041" d="M16.036 3.806l0.051-0.114 0.017-0.122 0.021-0.139-0.004-0.16v-0.296l-0.004-0.54-0.008-0.19-0.017-0.089-0.042-0.072-0.004-0.051 0.068-0.046 0.114-0.004 0.304-0.008h0.321l0.165 0.021 0.177 0.051 0.156 0.051 0.127 0.093 0.143 0.135 0.085 0.131 0.059 0.114 0.042 0.169v0.16l-0.013 0.152-0.021 0.118-0.038 0.148-0.059 0.148-0.114 0.16-0.097 0.089-0.11 0.084-0.131 0.068-0.131 0.038-0.114 0.004-0.152 0.008-0.186-0.004-0.169-0.013h-0.186l-0.165-0.008-0.055-0.021z"></path>
<path fill="#fff" d="M16.501 3.43l0.004-0.46 0.004-0.325 0.013-0.207 0.034-0.101 0.076-0.055 0.097-0.034h0.131l0.169 0.051 0.11 0.063 0.084 0.072 0.106 0.148 0.042 0.106 0.025 0.114 0.013 0.156-0.021 0.16-0.034 0.127-0.067 0.144-0.101 0.118-0.135 0.093-0.122 0.059-0.093 0.004-0.165-0.021-0.106-0.059-0.046-0.089z"></path>
<path fill="#308041" d="M19.251 4.216l-0.082-0.478-0.052-0.32-0.035-0.233-0.029-0.239-0.006-0.239 0.017-0.111 0.082-0.006 0.14 0.029 0.105 0.006 0.070-0.017 0.072-0.058 0.022-0.048v-0.077l-0.040-0.040-0.097-0.007-0.149-0.009-0.185-0.035-0.187-0.037-0.57-0.103-0.174-0.039h-0.104l-0.040 0.029-0.086 0.108-0.039 0.057-0.016 0.050 0.083 0.007 0.119-0.017 0.123 0.013 0.083 0.018 0.092 0.018 0.051 0.026 0.031 0.060-0.018 0.066-0.051 0.104-0.042 0.072-0.123 0.191-0.28 0.394-0.202 0.279-0.151 0.224-0.015 0.042 0.016 0.024 0.048 0.020 0.095 0.024 0.119 0.028 0.077 0.006 0.048-0.022 0.037-0.051 0.128-0.26 0.059-0.105 0.035-0.064 0.044-0.024 0.092 0.011 0.161 0.028 0.161 0.033 0.044 0.015 0.046 0.037 0.022 0.083 0.007 0.128 0.044 0.347 0.024 0.037 0.369 0.101 0.029-0.013z"></path>
<path fill="#fff" d="M18.727 3.301l-0.017-0.132-0.028-0.132-0.053-0.15-0.028 0.002-0.056 0.073-0.111 0.147-0.049 0.092-0.002 0.060 0.092 0.032 0.062 0.015 0.115 0.019 0.047 0.006 0.030-0.011z"></path>
<path fill="#308041" d="M19.918 2.479l0.17 0.049 0.224 0.072 0.211 0.054 0.188 0.063 0.184 0.099 0.153 0.126 0.121 0.144 0.108 0.184 0.049 0.157 0.018 0.179-0.049 0.256-0.063 0.233-0.112 0.193-0.17 0.144-0.179 0.112-0.224 0.058-0.193 0.013-0.242-0.027-0.269-0.072-0.471-0.166-0.013-0.045 0.018-0.090 0.054-0.099 0.054-0.090 0.112-0.238 0.094-0.283 0.108-0.332 0.054-0.278 0.027-0.215 0.009-0.148z"></path>
<path fill="#fff" d="M20.648 2.978l0.134 0.093 0.093 0.1 0.077 0.157 0.026 0.19-0.013 0.152-0.049 0.175-0.062 0.159-0.116 0.17-0.087 0.087-0.105 0.059-0.136 0.023-0.118-0.008-0.108-0.033-0.142-0.054-0.098-0.041-0.049-0.049-0.013-0.067 0.020-0.126 0.054-0.17 0.057-0.167 0.067-0.213 0.075-0.208 0.046-0.105 0.046-0.093 0.049-0.046 0.067-0.033 0.082-0.008h0.080l0.064 0.031z"></path>
<path fill="#308041" d="M26.127 7.768l0.126-0.1 0.158-0.195 0.113-0.284 0.007-0.35-0.017-0.094-0.019-0.079-0.039-0.11-0.074-0.151-0.157-0.161-0.176-0.124-0.244-0.087-0.263-0.019-0.294 0.071-0.226 0.105-0.151 0.127-0.155 0.207-0.096 0.226-0.025 0.216 0.019 0.269 0.068 0.182 0.114 0.207 0.151 0.151 0.188 0.102 0.17 0.053 0.167 0.022 0.207-0.012 0.182-0.043 0.133-0.049z"></path>
<path fill="#fff" d="M25.008 7.328l-0.007-0.222 0.021-0.18 0.053-0.141 0.067-0.127 0.091-0.123 0.092-0.095 0.102-0.063 0.148-0.049 0.12-0.018 0.13 0.018 0.109 0.035 0.099 0.063 0.092 0.109 0.046 0.092 0.021 0.113-0.007 0.137-0.028 0.123-0.053 0.155-0.088 0.113-0.088 0.106-0.127 0.116-0.176 0.095-0.116 0.032-0.109 0.011-0.13-0.011-0.092-0.060-0.091-0.085-0.053-0.084z"></path>
<path fill="#308041" d="M28.663 9.646l-0.135-0.237-0.111-0.198-0.14-0.256-0.106-0.198-0.097-0.198-0.048-0.077-0.077-0.024-0.106 0.026-0.085 0.028-0.029 0.040 0.019 0.055 0.125 0.185 0.049 0.081-0.007 0.053-0.021 0.028-0.21 0.042-0.301 0.053-0.432 0.044-0.604 0.049-0.035 0.025 0.026 0.081 0.102 0.229 0.030 0.030 0.102-0.014 0.143-0.035 0.122-0.028 0.143-0.037 0.088 0.014 0.051 0.023 0.063 0.085 0.153 0.233 0.019 0.072-0.009 0.072-0.060 0.076-0.097 0.111-0.088 0.095-0.090 0.095-0.023 0.069 0.051 0.090 0.088 0.176 0.053 0.092 0.025 0.014 0.046-0.046 0.079-0.1 0.139-0.211 0.132-0.176 0.097-0.136 0.085-0.113 0.092-0.106 0.085-0.081 0.081-0.079 0.118-0.116 0.076-0.069 0.037-0.011 0.035 0.067 0.079 0.153 0.049 0.088 0.079 0.005 0.148-0.060 0.023-0.025z"></path>
<path fill="#fff" d="M27.393 9.416l-0.003-0.050 0.039-0.037 0.067-0.023 0.088-0.023 0.094-0.021 0.067-0.010h0.042l0.057 0.013 0.006 0.044-0.023 0.065-0.034 0.060-0.049 0.050-0.113 0.104-0.072 0.059h-0.026l-0.057-0.075-0.044-0.083z"></path>
<path fill="#308041" d="M28.985 10.683l-0.346 0.163-0.183 0.090-0.276 0.115-0.256 0.104-0.191 0.070-0.166 0.056-0.107 0.023-0.006 0.070 0.11 0.295 0.16 0.358 0.076 0.135 0.138 0.2 0.087 0.084 0.113 0.073 0.127 0.045 0.146 0.031 0.149 0.006 0.138-0.008 0.138-0.023 0.143-0.042 0.127-0.079 0.113-0.087 0.076-0.073 0.050-0.056 0.063-0.098 0.054-0.106 0.030-0.104 0.011-0.1 0.002-0.15-0.020-0.108-0.056-0.189-0.069-0.185-0.091-0.226-0.091-0.206-0.069-0.119-0.037-0.032-0.028 0.013z"></path>
<path fill="#fff" d="M27.922 11.579l0.212-0.105 0.19-0.093 0.186-0.095 0.128-0.055 0.21-0.083 0.093-0.038h0.055l0.067 0.062 0.050 0.093 0.055 0.119 0.021 0.095 0.014 0.098-0.007 0.095-0.036 0.155-0.026 0.081-0.038 0.055-0.045 0.069-0.043 0.038-0.062 0.064-0.088 0.048-0.1 0.038-0.124 0.021-0.126 0.017-0.112-0.005-0.107-0.019-0.095-0.045-0.093-0.072-0.098-0.124-0.050-0.093-0.043-0.124-0.031-0.076-0.007-0.062 0.019-0.033z"></path>
<path fill="#308041" d="M30.137 13.89l-0.021-0.222-0.028-0.183-0.070-0.222-0.074-0.162-0.106-0.151-0.12-0.12-0.169-0.092-0.19-0.060-0.155-0.021-0.155 0.007-0.179 0.035-0.194 0.067-0.141 0.095-0.13 0.116-0.088 0.155-0.077 0.208-0.011 0.18 0.011 0.204 0.021 0.13 0.039 0.176 0.039 0.144 0.028 0.123 0.049 0.049 0.222-0.025 0.123-0.025 0.007-0.049-0.165-0.165-0.060-0.176-0.056-0.183-0.007-0.151 0.032-0.13 0.067-0.123 0.067-0.081 0.084-0.056 0.074-0.042 0.081-0.004 0.071 0.067 0.017 0.113 0.035 0.165 0.011 0.091v0.127l0.007 0.222 0.014 0.123 0.042 0.035 0.144-0.011 0.123-0.007 0.067-0.025 0.011-0.049-0.032-0.074-0.077-0.151-0.042-0.148-0.028-0.169-0.025-0.194-0.003-0.127 0.046-0.056 0.127-0.018 0.092 0.004 0.12 0.042 0.085 0.067 0.060 0.095 0.049 0.102 0.035 0.106 0.025 0.102 0.011 0.134-0.011 0.081-0.021 0.067v0.067l0.021 0.053 0.077 0.011 0.12-0.011 0.081-0.018z"></path>
<path fill="#308041" d="M30.245 18.696l-0.215-0.014-0.158-0.011-0.162-0.021-0.42-0.086-0.266-0.065-0.395-0.090-0.14-0.047-0.025 0.115-0.036 0.176-0.047 0.18-0.068 0.219-0.014 0.144 0.004 0.122 0.036 0.122 0.058 0.136 0.072 0.083 0.068 0.058 0.072 0.047 0.1 0.047h0.115l0.122-0.018 0.097-0.043 0.086-0.075 0.047-0.040 0.054-0.011 0.021 0.072 0.043 0.101 0.050 0.065 0.065 0.047 0.061 0.040 0.093 0.029 0.108 0.014 0.14-0.018 0.144-0.076 0.086-0.104 0.072-0.122 0.086-0.266 0.015-0.094 0.021-0.172 0.025-0.273v-0.126z"></path>
<path fill="#fff" d="M29.407 19.215l0.014-0.11 0.053-0.073 0.107-0.022 0.132 0.014 0.118 0.034 0.115 0.034 0.056 0.056 0.003 0.132-0.014 0.107-0.045 0.099-0.079 0.076-0.079 0.028h-0.141l-0.132-0.062-0.051-0.070-0.042-0.076-0.023-0.101z"></path>
<path fill="#fff" d="M28.555 19.063l0.006 0.079 0.034 0.082 0.059 0.084 0.090 0.073 0.113 0.020h0.096l0.104-0.036 0.051-0.053 0.048-0.070 0.045-0.087v-0.149l-0.048-0.053-0.056-0.031-0.127-0.022-0.127-0.028-0.099-0.011-0.073-0.006-0.059 0.014-0.025 0.034-0.017 0.065z"></path>
<path fill="#308041" d="M29.625 21.379l0.067-0.135 0.040-0.108 0.020-0.111 0.007-0.138-0.003-0.135-0.030-0.152-0.030-0.115-0.061-0.105-0.111-0.125-0.125-0.105-0.125-0.091-0.169-0.061-0.138-0.037-0.162-0.013-0.186 0.010-0.142 0.034-0.142 0.064-0.128 0.088-0.118 0.105-0.091 0.111-0.088 0.149-0.064 0.223-0.007 0.155-0.007 0.101 0.017 0.118 0.027 0.095 0.037 0.078 0.047 0.088 0.061 0.098 0.057 0.071 0.061 0.064 0.071 0.085 0.091 0.054 0.101 0.047 0.084 0.027 0.091 0.013 0.101 0.017 0.085 0.003 0.105 0.003h0.095l0.108-0.020 0.115-0.044 0.095-0.051 0.101-0.054 0.057-0.057 0.081-0.074 0.044-0.064z"></path>
<path fill="#fff" d="M28.757 20.329l0.108 0.007 0.115 0.034 0.091 0.037 0.088 0.034 0.095 0.067 0.095 0.078 0.051 0.078 0.051 0.118 0.020 0.111v0.192l-0.030 0.115-0.034 0.084-0.111 0.111-0.098 0.054-0.128 0.041-0.105 0.017-0.155 0.010-0.152-0.034-0.138-0.044-0.085-0.064-0.105-0.081-0.084-0.095-0.064-0.098-0.030-0.101-0.007-0.135 0.003-0.118 0.037-0.122 0.044-0.091 0.067-0.088 0.088-0.064 0.125-0.037 0.128-0.020z"></path>
<path fill="#308041" d="M28.592 23.609l0.238-0.491 0.301-0.549 0.1-0.211 0.009-0.051-0.175-0.135-0.038-0.003-0.033 0.064-0.152 0.282-0.019 0.023h-0.061l-0.058-0.046-0.161-0.17-0.36-0.362-0.075-0.114-0.128-0.157-0.156-0.212-0.103-0.125-0.045-0.010-0.044 0.042-0.039 0.069-0.066 0.119-0.019 0.054 0.016 0.038 0.084 0.102 0.216 0.226 0.023 0.049 0.008 0.055-0.017 0.047-0.057 0.098-0.109 0.191-0.058 0.106-0.039 0.019-0.102-0.009-0.336-0.054-0.071-0.007-0.046 0.056-0.161 0.259-0.003 0.035 0.026 0.028 0.068 0.019 0.196-0.002 0.115 0.017 0.171 0.033 0.219 0.041 0.415 0.074 0.258 0.053 0.136 0.043 0.073 0.031 0.011 0.046-0.029 0.075-0.056 0.106-0.073 0.154 0.008 0.033 0.070 0.046 0.077 0.042 0.019-0.001z"></path>
<path fill="#fff" d="M28.515 22.731l-0.004-0.050-0.034-0.071-0.051-0.071-0.142-0.127-0.133-0.11-0.085-0.004-0.054 0.065-0.114 0.221 0.005 0.040 0.038 0.030 0.123 0.030 0.12 0.022 0.123 0.017 0.101 0.012 0.073 0.004z"></path>
<path fill="#308041" d="M28.703 16.401h0.189l0.185 0.024 0.161 0.004 0.185 0.008 0.257-0.008h0.145l0.181-0.004 0.282-0.044h0.080l0.031 0.015 0.011 0.076 0.010 0.101v0.105l-0.004 0.107-0.016 0.034-0.047 0.008-0.092-0.014-0.162-0.013h-0.622l-0.669 0.020-0.144 0.020-0.047-0.027-0.004-0.171 0.003-0.076 0.007-0.132 0.023-0.033z"></path>
<path fill="#308041" d="M30.054 18.111l0.060-0.093 0.070-0.132 0.040-0.129 0.020-0.119-0.020-0.106-0.050-0.070-0.086-0.063-0.089-0.030h-0.083l-0.073 0.046-0.060 0.076-0.043 0.089-0.040 0.132-0.036 0.143-0.050 0.116-0.040 0.129-0.060 0.090-0.063 0.056-0.113 0.053-0.119 0.026-0.136 0.007-0.083-0.010-0.132-0.040-0.106-0.063-0.083-0.076-0.060-0.090-0.043-0.096-0.023-0.073-0.020-0.096-0.013-0.106 0.003-0.096 0.020-0.126 0.027-0.132 0.040-0.103 0.040-0.113 0.036-0.093h0.103l0.142 0.013 0.076 0.003 0.056 0.060-0.016 0.040-0.056 0.053-0.046 0.083-0.053 0.090-0.043 0.113-0.026 0.136-0.003 0.209 0.050 0.096 0.073 0.060 0.096 0.043 0.086-0.007 0.066-0.033 0.056-0.063 0.033-0.056 0.040-0.116 0.036-0.116 0.026-0.129 0.056-0.142 0.040-0.093 0.099-0.113 0.080-0.056 0.096-0.050 0.089-0.026h0.126l0.113 0.020 0.096 0.033 0.093 0.046 0.083 0.086 0.060 0.090 0.053 0.090 0.030 0.099 0.010 0.096-0.003 0.132-0.023 0.156-0.036 0.116-0.036 0.103-0.053 0.126-0.036 0.053-0.053 0.040-0.099-0.010-0.106-0.027-0.043-0.007-0.040-0.056z"></path>
</svg>
