<!-- Generated by IcoMoon.io -->
<svg version="1.1" xmlns="http://www.w3.org/2000/svg" width="37" height="32" viewBox="0 0 37 32">
<title>university-porto</title>
<path d="M0 16v16h36.571v-32h-36.571v16zM14.89 5.453c-0.098 0.131-0.686 0.229-1.273 0.229l-1.045 0.033v8.327c0 7.967 0.033 8.392 0.718 9.665 1.698 3.2 6.629 3.135 8.653-0.131 0.718-1.143 0.751-1.567 0.849-8.784 0.131-8.098 0-8.914-1.404-8.914-0.424 0-0.882-0.163-0.98-0.327-0.131-0.196 0.947-0.327 3.004-0.327 2.188 0 3.037 0.098 2.71 0.327-0.261 0.163-0.718 0.327-1.012 0.327s-0.653 0.261-0.816 0.555c-0.131 0.327-0.327 4.147-0.424 8.49l-0.196 7.869-0.98 1.404c-1.339 1.894-3.037 2.71-5.976 2.841-3.331 0.196-5.127-0.392-6.955-2.22-2.057-2.057-2.253-3.069-2.253-11.886v-7.347l-1.208-0.131c-0.686-0.065 1.012-0.131 3.788-0.163s4.931 0.033 4.8 0.163z"></path>
</svg>
