<!-- Generated by IcoMoon.io -->
<svg version="1.1" xmlns="http://www.w3.org/2000/svg" width="91" height="32" viewBox="0 0 91 32">
<title>Logo_2</title>
<path d="M0 15.59v15.59h2.051c2.051 0 2.051-0.082 2.051-6.974v-6.974h5.744c5.579 0 5.744-0.082 5.744-2.051s-0.164-2.051-5.744-2.051h-5.744v-9.846h6.974c6.4 0 6.974-0.164 6.974-1.641 0-1.559-0.574-1.641-9.026-1.641h-9.026v15.59z"></path>
<path d="M20.513 15.59v15.59h18.872v-2.051c0-2.051-0.082-2.051-7.385-2.051h-7.385v-9.846h5.744c5.579 0 5.744-0.082 5.744-2.051s-0.164-2.051-5.744-2.051h-5.744v-9.846h6.974c6.4 0 6.974-0.164 6.974-1.641 0-1.559-0.574-1.641-9.026-1.641h-9.026v15.59z"></path>
<path d="M41.026 12.062c0 13.456 0.492 15.097 4.841 18.051 3.282 2.215 11.077 2.626 14.769 0.738 4.677-2.462 5.333-4.595 5.662-18.38l0.328-12.472h-5.087v23.138l-2.38 2.38c-3.2 3.2-8.205 3.364-11.159 0.328-1.969-1.887-2.051-2.297-2.051-13.949v-11.897h-4.923v12.062z"></path>
<path d="M70.564 15.59v15.59h4.923v-11.651l2.297 0.164c6.072 0.41 7.713 0 10.503-2.79 2.544-2.544 2.79-3.2 2.79-7.631-0.082-7.713-2.215-9.272-13.046-9.272h-7.467v15.59zM85.251 5.251c0.574 0.656 1.067 2.544 1.067 4.267 0 4.103-2.297 6.072-7.221 6.072h-3.61v-12.554l4.349 0.574c2.297 0.328 4.759 1.067 5.415 1.641z"></path>
</svg>
