<!-- Generated by IcoMoon.io -->
<svg version="1.1" xmlns="http://www.w3.org/2000/svg" width="32" height="32" viewBox="0 0 32 32">
<title>vsco</title>
<path d="M16 0c-8.832 0-16 7.168-16 16s7.168 16 16 16 16-7.168 16-16-7.168-16-16-16zM31.36 16c0 0.544-0.032 1.056-0.096 1.568l-2.72-0.32c0.032-0.416 0.064-0.832 0.064-1.248 0-0.384-0.032-0.8-0.064-1.184l2.72-0.32c0.096 0.512 0.096 0.992 0.096 1.504zM0.64 16c0-0.512 0.032-1.024 0.064-1.536l2.72 0.32c-0.032 0.416-0.064 0.8-0.064 1.216s0.032 0.8 0.064 1.216l-2.72 0.32c-0.064-0.512-0.064-1.024-0.064-1.536zM27.936 11.872l2.56-0.96c0.352 0.96 0.576 1.952 0.736 2.976l-2.72 0.32c-0.128-0.8-0.32-1.6-0.576-2.336zM28 16c0 0.8-0.096 1.568-0.224 2.336l-2.688-0.608c0.096-0.544 0.16-1.12 0.16-1.728s-0.064-1.216-0.16-1.792l2.688-0.608c0.16 0.768 0.224 1.568 0.224 2.4zM16 24.608c-4.754-0.001-8.607-3.854-8.608-8.608v-0c0.001-4.754 3.854-8.607 8.608-8.608h0c4.754 0.001 8.607 3.854 8.608 8.608v0c0 0.005 0 0.012 0 0.018 0 4.744-3.846 8.59-8.59 8.59-0.006 0-0.013 0-0.019-0h0.001zM16.288 28v-2.752c1.247-0.042 2.417-0.32 3.484-0.792l-0.060 0.024 1.184 2.496c-1.354 0.615-2.933 0.988-4.595 1.024l-0.013 0zM11.040 26.944l1.216-2.496c1.056 0.48 2.208 0.768 3.424 0.8v2.752c-1.689-0.034-3.279-0.42-4.712-1.086l0.072 0.030zM4 16c0-0.832 0.096-1.632 0.256-2.432l2.688 0.608c-0.122 0.537-0.192 1.153-0.192 1.785 0 0.014 0 0.027 0 0.041v-0.002c0 0.576 0.064 1.152 0.16 1.696l-2.688 0.608c-0.143-0.659-0.225-1.417-0.225-2.193 0-0.039 0-0.078 0.001-0.117l-0 0.006zM15.68 4v2.752c-1.235 0.042-2.395 0.32-3.451 0.791l0.059-0.023-1.184-2.496c1.345-0.608 2.911-0.981 4.56-1.024l0.016-0zM20.928 5.056l-1.216 2.496c-1.005-0.463-2.179-0.743-3.415-0.768l-0.009-0v-2.752c1.664 0 3.232 0.384 4.64 1.024zM27.712 11.264c-0.346-0.828-0.721-1.532-1.152-2.197l0.032 0.053 2.24-1.536c0.544 0.864 1.024 1.76 1.408 2.72l-2.528 0.96zM27.616 12.992l-2.688 0.608c-0.332-1.199-0.859-2.245-1.553-3.159l0.017 0.023 2.176-1.728c0.96 1.28 1.664 2.688 2.048 4.256zM23.008 9.984c-0.756-0.877-1.657-1.605-2.67-2.151l-0.050-0.025 1.216-2.496c1.444 0.761 2.665 1.747 3.665 2.926l0.015 0.018-2.176 1.728zM22.208 4.992l1.28-2.432c0.896 0.512 1.728 1.088 2.528 1.76l-1.824 2.080c-0.584-0.51-1.233-0.976-1.925-1.376l-0.059-0.032zM21.664 4.704c-0.63-0.319-1.373-0.613-2.144-0.84l-0.096-0.024 0.672-2.656c0.992 0.288 1.952 0.64 2.88 1.12l-1.312 2.4zM18.784 3.68c-0.8-0.192-1.6-0.288-2.432-0.32v-2.72c1.056 0.032 2.112 0.16 3.104 0.384l-0.672 2.656zM15.744 3.36c-0.869 0.032-1.694 0.135-2.495 0.305l0.095-0.017-0.64-2.656c0.96-0.224 1.984-0.352 3.040-0.352v2.72zM12.704 3.808c-0.88 0.251-1.634 0.546-2.353 0.9l0.081-0.036-1.28-2.432c0.816-0.416 1.773-0.787 2.77-1.062l0.11-0.026 0.672 2.656zM9.888 4.96c-0.752 0.422-1.402 0.877-2.001 1.39l0.017-0.014-1.824-2.048c0.8-0.672 1.632-1.248 2.528-1.76l1.28 2.432zM10.528 5.312l1.184 2.496c-1.056 0.544-1.952 1.28-2.72 2.144l-2.144-1.728c1.023-1.177 2.242-2.151 3.612-2.879l0.068-0.033zM6.464 8.736l2.144 1.728c-0.677 0.891-1.204 1.937-1.521 3.071l-0.016 0.065-2.688-0.608c0.416-1.6 1.12-3.040 2.080-4.256zM4.32 11.2l-2.56-0.96c0.384-0.96 0.864-1.888 1.44-2.72l2.24 1.568c-0.426 0.609-0.802 1.305-1.096 2.043l-0.024 0.069zM4.096 11.808c-0.256 0.768-0.48 1.536-0.576 2.368l-2.72-0.32c0.16-1.024 0.384-2.048 0.736-3.008l2.56 0.96zM3.488 17.824c0.128 0.8 0.32 1.6 0.576 2.368l-2.56 0.96c-0.336-0.871-0.594-1.887-0.729-2.942l-0.007-0.066 2.72-0.32zM4.32 20.768c0.32 0.768 0.704 1.472 1.12 2.144l-2.24 1.536c-0.543-0.775-1.026-1.66-1.407-2.597l-0.033-0.091 2.56-0.992zM4.352 18.912l2.688-0.608c0.288 1.152 0.832 2.24 1.504 3.168l-2.144 1.728c-0.926-1.213-1.633-2.648-2.030-4.206l-0.018-0.082zM8.928 21.952c0.768 0.896 1.696 1.664 2.752 2.208l-1.216 2.496c-1.456-0.772-2.687-1.769-3.697-2.958l-0.015-0.018 2.176-1.728zM9.888 27.040l-1.28 2.432c-0.958-0.539-1.786-1.122-2.549-1.777l0.021 0.017 1.824-2.048c0.608 0.544 1.248 0.992 1.984 1.376zM10.432 27.328c0.704 0.352 1.472 0.64 2.272 0.864l-0.672 2.656c-1.103-0.294-2.060-0.665-2.964-1.127l0.084 0.039 1.28-2.432zM13.312 28.352c0.768 0.16 1.568 0.256 2.4 0.288v2.72c-1.112-0.038-2.168-0.165-3.195-0.373l0.123 0.021 0.672-2.656zM16.352 28.64c0.869-0.032 1.694-0.135 2.495-0.305l-0.095 0.017 0.64 2.656c-0.9 0.212-1.944 0.35-3.015 0.383l-0.025 0.001v-2.752zM19.36 28.192c0.88-0.251 1.634-0.546 2.353-0.9l-0.081 0.036 1.28 2.432c-0.822 0.429-1.78 0.801-2.782 1.066l-0.098 0.022-0.672-2.656zM22.144 27.040c0.704-0.384 1.376-0.864 1.984-1.376l1.824 2.048c-0.742 0.638-1.57 1.221-2.451 1.72l-0.077 0.040-1.28-2.432zM21.504 26.688l-1.184-2.496c1.079-0.574 1.992-1.313 2.741-2.195l0.011-0.013 2.144 1.728c-1.031 1.2-2.261 2.195-3.644 2.942l-0.068 0.034zM25.6 23.232l-2.144-1.728c0.68-0.897 1.199-1.957 1.491-3.107l0.013-0.061 2.688 0.608c-0.445 1.637-1.148 3.067-2.073 4.324l0.025-0.036zM27.68 20.8l2.56 0.96c-0.384 0.96-0.864 1.856-1.44 2.72l-2.24-1.568c0.448-0.672 0.832-1.376 1.12-2.112zM27.904 20.192c0.256-0.736 0.448-1.536 0.576-2.336l2.72 0.32c-0.165 1.122-0.422 2.125-0.77 3.084l0.034-0.108-2.56-0.96zM28.512 7.072l-2.24 1.536c-0.5-0.675-1.025-1.271-1.595-1.82l-0.005-0.004 1.824-2.048c0.736 0.736 1.408 1.504 2.016 2.336zM5.6 4.704l1.824 2.048c-0.608 0.544-1.12 1.152-1.6 1.824l-2.24-1.568c0.595-0.87 1.26-1.626 2.004-2.294l0.012-0.010zM3.552 24.992l2.24-1.536c0.48 0.64 1.024 1.248 1.6 1.824l-1.824 2.048c-0.716-0.71-1.377-1.473-1.978-2.282l-0.038-0.053zM26.432 27.296l-1.824-2.048c0.576-0.544 1.12-1.152 1.6-1.792l2.24 1.568c-0.608 0.8-1.28 1.568-2.016 2.272z"></path>
</svg>
